<svg width="40" height="40" viewBox="0 0 40 40" fill="none" xmlns="http://www.w3.org/2000/svg">
<g clip-path="url(#clip0_48_2254)">
<path d="M38.2449 8.16717L31.8329 1.75514C30.2727 0.194902 27.743 0.194902 26.1827 1.75514L23.3102 4.62764L28.2581 11.742L35.3724 16.6899L38.2449 13.8174C39.8052 12.2571 39.8052 9.7274 38.2449 8.16717Z" fill="#FF98C9"/>
<path d="M38.2449 8.16711L36.5876 6.50977C38.1478 8.07 38.1478 10.5997 36.5876 12.1599L33.7151 15.0324L27.5782 10.7645L28.258 11.742L35.3723 16.6898L38.2448 13.8173C39.8052 12.257 39.8052 9.72734 38.2449 8.16711Z" fill="#EB6DA8"/>
<path d="M17.2922 10.6454L21.1436 6.79395L28.258 11.7418L33.2058 18.8561L29.3544 22.7075L22.24 17.7596L17.2922 10.6454Z" fill="#9E9C9D"/>
<path d="M28.2581 11.7419L27.2805 11.062L31.5484 17.1989L27.697 21.0503L21.5602 16.7822L22.2401 17.7597L29.3545 22.7076L33.2059 18.8562L28.2581 11.7419Z" fill="#8C8A8B"/>
<path d="M5.09213 34.9076L0.702209 33.1768L0.798303 37.9732C0.811272 38.6461 1.35377 39.1886 2.02658 39.2015L6.82307 39.2976L5.09213 34.9076Z" fill="#3A484A"/>
<path d="M12.6467 39.4152L6.82302 39.2979L0.702166 33.1771L0.5849 27.3534L7.91771 25.1313L15.7071 32.9208L12.6467 39.4152Z" fill="#EFEDEE"/>
<path d="M15.7071 32.9205L14.0497 31.2632L12.9085 35.8387L5.16571 37.6402L6.82305 39.2976L12.6466 39.4149L15.7071 32.9205Z" fill="#D4D2D3"/>
<path d="M2.02657 39.2019L6.82305 39.298L5.16571 37.6406L0.98938 38.6123C1.20672 38.9596 1.58844 39.1934 2.02657 39.2019Z" fill="#313D40"/>
<path d="M35.3723 16.6896L23.3102 4.62736C22.7119 4.02916 21.7419 4.02916 21.1436 4.62736C20.5454 5.22557 20.5454 6.19564 21.1436 6.79393L33.2059 18.8561C33.8041 19.4543 34.7741 19.4543 35.3724 18.8561C35.9707 18.2578 35.9707 17.2878 35.3723 16.6896Z" fill="#BAB8B9"/>
<path d="M35.3724 16.6896L33.7151 15.0322C34.3134 15.6305 34.3134 16.6005 33.7151 17.1988C33.1169 17.797 32.1469 17.797 31.5485 17.1988L33.2059 18.8561C33.8041 19.4544 34.7741 19.4544 35.3724 18.8561C35.9707 18.2578 35.9707 17.2878 35.3724 16.6896Z" fill="#9E9C9D"/>
<path d="M22.2401 17.7599L15.1257 12.812L0.584717 27.3532C0.584717 27.3532 2.48245 27.1784 3.79339 27.0577C4.42792 26.9993 4.95933 27.5312 4.90089 28.1657L4.71784 30.1536C4.6594 30.788 5.1912 31.32 5.82581 31.2615L7.8137 31.0785C8.44823 31.0201 8.98011 31.5519 8.92167 32.1865L8.73862 34.1744C8.68019 34.8089 9.21198 35.3408 9.84659 35.2823L11.8345 35.0993C12.4689 35.0408 13.0009 35.5722 12.9425 36.2068C12.8217 37.5177 12.647 39.4154 12.647 39.4154L27.188 24.8744L22.2401 17.7599Z" fill="#FFCE1C"/>
<path d="M27.188 24.8742L22.2401 17.7599L21.2625 17.0801L25.5305 23.217L12.9085 35.8388C12.941 35.9546 12.9542 36.0782 12.9424 36.2065C12.8217 37.5174 12.647 39.4152 12.647 39.4152L27.188 24.8742Z" fill="#ECB000"/>
<path d="M29.3545 22.7076L17.2923 10.6454C16.6941 10.0472 15.724 10.0472 15.1257 10.6454C14.5275 11.2436 14.5275 12.2137 15.1257 12.812L27.1879 24.8742C27.7862 25.4725 28.7562 25.4725 29.3545 24.8742C29.9527 24.2758 29.9527 23.3059 29.3545 22.7076Z" fill="#BAB8B9"/>
<path d="M29.3544 22.7076L27.6971 21.0503C28.2954 21.6486 28.2954 22.6186 27.6971 23.2169C27.0988 23.8151 26.1288 23.8151 25.5305 23.2169L27.1879 24.8742C27.7861 25.4725 28.7561 25.4725 29.3544 24.8742C29.9527 24.2759 29.9527 23.3059 29.3544 22.7076Z" fill="#9E9C9D"/>
<path d="M12.6648 19.6697L12.0462 20.2883C11.8174 20.5171 11.8174 20.8881 12.0462 21.1169C12.2723 21.3431 12.6489 21.3429 12.8749 21.1169L13.4935 20.4983C13.7223 20.2695 13.7223 19.8985 13.4935 19.6697C13.2646 19.4408 12.8935 19.4408 12.6648 19.6697Z" fill="#0C1A40"/>
<path d="M20.3303 26.5066C20.1014 26.2778 19.7304 26.2778 19.5016 26.5066L18.883 27.1252C18.6542 27.354 18.6542 27.725 18.883 27.9538C19.1024 28.1731 19.4812 28.1843 19.7117 27.9538L20.3303 27.3353C20.5591 27.1064 20.5591 26.7354 20.3303 26.5066Z" fill="#0C1A40"/>
<path d="M16.7263 24.3371C16.45 24.3556 16.1722 24.2463 15.9629 24.037C15.7537 23.8278 15.6443 23.5495 15.6628 23.2736C15.6845 22.9507 15.4403 22.6714 15.1175 22.6498C14.7945 22.6281 14.5153 22.8723 14.4936 23.1951C14.4524 23.8084 14.6859 24.4174 15.1343 24.8656C15.5707 25.302 16.1869 25.5477 16.8049 25.5063C17.1277 25.4846 17.3719 25.2053 17.3502 24.8824C17.3286 24.5597 17.049 24.3155 16.7263 24.3371Z" fill="#0C1A40"/>
<path d="M0.0294863 27.1728C0.0101894 27.233 -0.00129493 27.2999 0.000189442 27.364L0.213471 37.9837C0.232611 38.9756 1.02449 39.7674 2.01581 39.7865C2.01581 39.7865 12.6336 39.9998 12.6359 39.9998C12.7914 40.0029 12.9509 39.9399 13.0622 39.8285L27.2471 25.6437C27.5573 25.8159 27.9075 25.9078 28.2722 25.9078C28.8379 25.9078 29.3698 25.6875 29.7699 25.2875C30.4518 24.6055 30.57 23.5705 30.1254 22.7654L33.265 19.6258C33.5753 19.798 33.9255 19.8899 34.2902 19.8899C34.8559 19.8899 35.3878 19.6696 35.7878 19.2696C36.4467 18.6107 36.5964 17.5621 36.144 16.7469L38.6603 14.2305C40.4465 12.4443 40.4465 9.53783 38.6603 7.75166L32.2483 1.33963C30.4622 -0.446543 27.5557 -0.446543 25.7694 1.33963L23.2531 3.85604C22.9428 3.68385 22.5926 3.59189 22.2279 3.59189C21.6622 3.59189 21.1303 3.81221 20.7303 4.21221C20.0483 4.89424 19.9302 5.92932 20.3748 6.73432L17.2352 9.87393C16.925 9.70174 16.5747 9.60979 16.21 9.60979C15.6443 9.60979 15.1125 9.83002 14.7124 10.2301C14.0303 10.9121 13.9122 11.9472 14.3568 12.7522C14.3568 12.7522 0.173158 26.936 0.171439 26.9377C0.106127 27.0029 0.0577676 27.0846 0.0294863 27.1728ZM3.84831 27.6399C4.1141 27.6155 4.34285 27.8456 4.31847 28.1106C4.25746 28.7732 4.19644 29.436 4.13535 30.0985C4.09402 30.5468 4.24425 30.9946 4.54738 31.3269C4.85324 31.6622 5.31683 31.8628 5.78058 31.8496C6.4755 31.8297 7.17605 31.7235 7.86847 31.6606C8.13035 31.6369 8.36331 31.8699 8.33917 32.1313L8.15605 34.1192C8.11472 34.5674 8.26495 35.0152 8.56808 35.3475C8.89495 35.7058 9.38339 35.9011 9.86691 35.8665C10.5418 35.8181 11.2152 35.7417 11.8892 35.6813C12.1562 35.6574 12.382 35.8862 12.3599 36.1515C12.3599 36.1515 12.1308 38.6379 12.1143 38.8169L7.07152 38.7154L1.28417 32.9281L1.18269 27.8853C1.18285 27.8854 3.00324 27.7178 3.84831 27.6399ZM2.03878 38.6147C1.67917 38.6078 1.39214 38.3206 1.38519 37.9606L1.31824 34.6196L5.38035 38.6817L2.03878 38.6147ZM13.5254 36.2769C13.526 36.271 13.5265 36.265 13.5271 36.2592C13.568 35.8142 13.4165 35.3617 13.1153 35.0313C12.7576 34.6392 12.2937 34.5146 11.7819 34.5146C11.7819 34.5146 9.79597 34.6974 9.79394 34.6976C9.52878 34.7221 9.29886 34.4918 9.32331 34.227C9.32331 34.227 9.50628 32.2404 9.50644 32.2389C9.59652 31.261 8.73831 30.4038 7.76121 30.4938C7.76121 30.4938 5.78074 30.6763 5.77331 30.6769C5.51035 30.7011 5.27847 30.468 5.30261 30.2063C5.30261 30.2063 5.4855 28.2206 5.48574 28.2184C5.58917 27.0953 4.56644 26.3972 3.54183 26.4915C3.54183 26.4915 2.18042 26.6168 2.14699 26.6199L15.1271 13.6398L26.3606 24.8733L13.3803 37.8532L13.5254 36.2769ZM21.5591 5.04088C21.9243 4.67565 22.5323 4.67627 22.897 5.04088C22.897 5.04088 24.9211 7.06502 24.9238 7.06783C25.1468 7.29096 25.5292 7.29104 25.7525 7.06783C25.9736 6.84666 25.98 6.46674 25.7525 6.23916L24.14 4.62658L26.5981 2.16838C27.9275 0.83916 30.0903 0.839082 31.4196 2.16838L37.8317 8.58041C39.161 9.90971 39.161 12.0727 37.8317 13.4019L35.3735 15.8601C35.3735 15.8601 27.405 7.89158 27.4014 7.88799C27.1758 7.66244 26.7978 7.66283 26.5727 7.88799C26.3475 8.11322 26.3478 8.49182 26.5727 8.71666C26.5727 8.71666 34.9499 17.0938 34.9592 17.1031C35.3242 17.4685 35.3241 18.076 34.9591 18.4409C34.5939 18.806 33.9858 18.8054 33.6213 18.4409C33.6213 18.4409 21.571 6.39072 21.559 6.37869C21.1939 6.01361 21.1949 5.4051 21.5591 5.04088ZM15.541 11.0588C15.9051 10.6948 16.5157 10.6954 16.8789 11.0588C16.8789 11.0588 24.7574 18.9371 24.7694 18.9492C24.9953 19.1751 25.3728 19.1745 25.5981 18.9492C25.8269 18.7204 25.8269 18.3494 25.5981 18.1206L18.1219 10.6445L21.1446 7.62182L32.3782 18.8554L29.3555 21.8781L27.2417 19.7642C27.0128 19.5354 26.6418 19.5354 26.413 19.7642C26.1842 19.9931 26.1842 20.3641 26.413 20.5929L28.9411 23.121C29.31 23.4899 29.31 24.09 28.9412 24.4588C28.5761 24.8239 27.9677 24.8233 27.6033 24.4589C27.6033 24.4589 15.5471 12.4028 15.541 12.3967C15.1768 12.0313 15.1763 11.4235 15.541 11.0588Z" fill="#0C1A40"/>
</g>
<defs>
<clipPath id="clip0_48_2254">
<rect width="40" height="40" fill="white"/>
</clipPath>
</defs>
</svg>
