<svg width="102" height="100" viewBox="0 0 102 100" fill="none" xmlns="http://www.w3.org/2000/svg">
<path d="M6.22145 32.3641C6.14555 32.1922 6.04023 31.9329 5.90549 31.5861C5.77076 31.2394 5.62045 30.8354 5.45457 30.374C5.28869 29.9127 5.11635 29.4268 4.93756 28.9163C4.75876 28.4059 4.58623 27.9012 4.41996 27.4024C4.25368 26.9037 4.10454 26.4418 3.97255 26.0168C3.88461 25.7335 3.80818 25.4765 3.74326 25.2459C3.67841 25.0155 3.62826 24.8215 3.5928 24.6639C3.6327 24.6476 3.73042 24.6106 3.88596 24.5528C4.04137 24.4952 4.2229 24.4308 4.43054 24.3596C4.63809 24.2885 4.84085 24.22 5.03881 24.154C5.23674 24.088 5.3975 24.0365 5.52107 23.9994C5.57942 24.2165 5.65078 24.4607 5.73513 24.7317C5.81938 25.0028 5.89921 25.2598 5.97459 25.5028C6.06897 25.8063 6.17022 26.1177 6.27835 26.437C6.38658 26.7563 6.46557 26.9815 6.51531 27.1126C6.60334 27.0774 6.70249 27.0377 6.81274 26.9935C6.92282 26.9496 7.03876 26.906 7.16056 26.8627C7.28219 26.8196 7.40213 26.7781 7.5204 26.7382C7.63866 26.6984 7.74968 26.6606 7.85346 26.625C7.95724 26.5896 8.04619 26.5607 8.12032 26.5385C8.08422 26.4077 8.03099 26.2146 7.96064 25.9591C7.89026 25.7038 7.81111 25.42 7.7232 25.1078C7.63525 24.7957 7.54917 24.4897 7.46497 24.1897C7.38082 23.8898 7.31222 23.6327 7.25919 23.4185C7.35139 23.3821 7.4652 23.3424 7.6006 23.2996C7.73591 23.2569 7.8674 23.2163 7.99509 23.178C8.25467 23.1002 8.50208 23.0304 8.73732 22.9687C8.97262 22.9071 9.15254 22.8664 9.27706 22.8467C9.29579 22.9649 9.3317 23.1422 9.38481 23.3785C9.43799 23.6148 9.50371 23.8915 9.58197 24.2087C9.6603 24.5259 9.74812 24.8701 9.84543 25.2413C9.94268 25.6126 10.0442 25.9937 10.1498 26.3845C10.2555 26.7754 10.3606 27.1609 10.4652 27.541C10.5833 27.9791 10.7016 28.407 10.8202 28.8249C10.9388 29.2429 11.0471 29.6207 11.1453 29.9585C11.2436 30.2964 11.322 30.5671 11.3807 30.7706C11.2927 30.806 11.1521 30.857 10.9588 30.9236C10.7657 30.9905 10.5506 31.0627 10.3135 31.1404C10.0764 31.2181 9.84245 31.2916 9.61177 31.3608C9.52507 31.0815 9.43793 30.8045 9.35034 30.53C9.26268 30.2554 9.17771 29.9855 9.09543 29.7204C9.0131 29.4554 8.93324 29.1983 8.85585 28.9493C8.77859 28.7004 8.70472 28.4627 8.63423 28.236C8.55308 28.2648 8.45927 28.2962 8.3528 28.3303C8.24622 28.3646 8.13663 28.3996 8.02402 28.4355C7.91131 28.4716 7.79764 28.508 7.683 28.5444C7.56827 28.5811 7.46074 28.6156 7.36042 28.6478C7.26006 28.6801 7.17282 28.7074 7.09871 28.7296C7.17773 28.9405 7.2709 29.1968 7.37819 29.4986C7.48547 29.8006 7.59306 30.1035 7.70096 30.4073C7.80891 30.7112 7.90482 30.9799 7.98869 31.2137C8.07247 31.4474 8.12696 31.6047 8.15217 31.6856C8.02435 31.746 7.89334 31.7997 7.7597 31.8464C7.58767 31.9091 7.40303 31.9744 7.20579 32.0424C7.00844 32.1105 6.82083 32.1734 6.64296 32.231C6.46501 32.2889 6.32451 32.3333 6.22145 32.3641Z" fill="#FF3D7C"/>
<path d="M14.2203 30.2077C14.1158 30.2331 13.9708 30.265 13.7852 30.3035C13.5997 30.3422 13.4005 30.384 13.1879 30.4292C12.9752 30.4742 12.7685 30.5168 12.5678 30.5568C12.367 30.5969 12.2008 30.6286 12.0692 30.6518C12.051 30.386 12.0331 30.046 12.0154 29.6318C11.9976 29.2176 11.9826 28.757 11.9704 28.2499C11.9581 27.7429 11.9467 27.2128 11.9361 26.6595C11.9255 26.1062 11.9199 25.5551 11.9192 25.006C11.9185 24.4569 11.9204 23.9356 11.9248 23.4419C11.9292 22.9482 11.9382 22.508 11.9517 22.121C12.3606 21.965 12.7666 21.8195 13.1697 21.6845C13.5728 21.5496 13.9688 21.4348 14.3577 21.3402C14.5792 21.2865 14.8024 21.2388 15.0272 21.1972C15.2518 21.1557 15.4765 21.1229 15.7013 21.0989C15.8717 21.441 16.0577 21.8361 16.2593 22.2841C16.4607 22.7321 16.6842 23.2631 16.9298 23.8769C17.1752 24.4908 17.4486 25.2156 17.7499 26.0512C18.0513 26.8869 18.3891 27.8631 18.7634 28.9797C18.6295 29.0296 18.4376 29.0959 18.1877 29.1784C17.9378 29.2609 17.6751 29.3411 17.3997 29.4189C17.1241 29.4966 16.8776 29.562 16.6603 29.6149C16.6218 29.4978 16.5804 29.364 16.5359 29.2135C16.4915 29.0631 16.4433 28.9026 16.3915 28.7321C16.3396 28.5616 16.2883 28.3887 16.2376 28.2136C16.187 28.0386 16.1388 27.8694 16.0932 27.7059C16.0477 27.5428 16.0052 27.3918 15.9659 27.253C15.833 27.2897 15.69 27.3298 15.537 27.3736C15.3838 27.4174 15.2301 27.4634 15.0759 27.5118C14.9217 27.5602 14.7769 27.6063 14.6414 27.65C14.506 27.6938 14.3876 27.7345 14.2863 27.7723C14.1847 27.81 14.112 27.8385 14.0681 27.8579C14.0758 28.1526 14.0881 28.4483 14.105 28.7449C14.122 29.0415 14.1404 29.3171 14.1602 29.5717C14.1798 29.8263 14.1998 30.0383 14.2203 30.2077ZM13.8956 26.0886C13.9876 26.0489 14.1336 25.9939 14.3333 25.9234C14.5329 25.8531 14.742 25.7849 14.9606 25.7187C15.1791 25.6525 15.3569 25.6006 15.4939 25.563C15.4638 25.4787 15.4132 25.3177 15.3423 25.08C15.2713 24.8421 15.1916 24.5825 15.103 24.3011C15.0144 24.0197 14.9325 23.7606 14.8574 23.5238C14.7822 23.2871 14.727 23.125 14.6917 23.0377C14.6248 23.0539 14.5255 23.0824 14.3938 23.1231C14.262 23.164 14.1344 23.2037 14.0111 23.2423C13.8878 23.2811 13.802 23.3106 13.7539 23.3309C13.7588 23.4563 13.766 23.63 13.7753 23.8521C13.7847 24.0744 13.7968 24.321 13.8117 24.592C13.8267 24.8629 13.8414 25.1285 13.8559 25.3888C13.8704 25.6491 13.8836 25.8823 13.8956 26.0886Z" fill="#FF3D7C"/>
<path d="M19.5605 28.9031C19.5394 28.7994 19.5015 28.6018 19.4468 28.3104C19.3921 28.0191 19.3268 27.6651 19.2511 27.2484C19.1754 26.8318 19.0961 26.3813 19.0132 25.8969C18.9303 25.4126 18.8461 24.9221 18.7608 24.4253C18.6754 23.9286 18.5954 23.4534 18.521 22.9997C18.4464 22.5462 18.3846 22.1441 18.3355 21.7933C18.2863 21.4427 18.2516 21.1745 18.2315 20.9885C18.6108 20.8344 18.9981 20.7002 19.3919 20.5865C19.8003 20.4677 20.2327 20.3636 20.6891 20.2743C21.1862 20.1672 21.6987 20.1479 22.2027 20.2174C22.6256 20.2752 23.0199 20.4603 23.3313 20.7472C23.6566 21.0756 23.8696 21.4954 23.9406 21.9483C24.0483 22.4182 24.0447 22.906 23.9302 23.3743C23.8202 23.7918 23.5771 24.1638 23.2364 24.4358C22.8242 24.7475 22.3396 24.9536 21.8262 25.0354C21.685 25.0616 21.5424 25.0798 21.3992 25.09C21.2694 25.1025 21.139 25.1053 21.0088 25.0984C21.0274 25.2113 21.0625 25.4115 21.1142 25.6991C21.166 25.9867 21.2224 26.3079 21.2834 26.6628C21.3444 27.0176 21.4052 27.3661 21.4658 27.708C21.5263 28.05 21.5789 28.3309 21.6236 28.5509C21.5222 28.5707 21.3807 28.5984 21.1991 28.6339C21.0174 28.6696 20.8213 28.7048 20.611 28.7394C20.4006 28.7741 20.2019 28.8066 20.0148 28.8368C19.8275 28.8669 19.6761 28.889 19.5605 28.9031ZM20.6425 23.4873C20.7346 23.4866 20.8398 23.48 20.958 23.4676C21.0763 23.4553 21.1904 23.4383 21.3002 23.4167C21.493 23.3809 21.6774 23.3108 21.8445 23.2098C21.998 23.1188 22.1221 22.9867 22.2022 22.8291C22.2823 22.6566 22.3009 22.4626 22.2552 22.2784C22.1928 21.9713 22.0597 21.7805 21.8557 21.7061C21.6086 21.6298 21.3449 21.6221 21.0936 21.6837C20.9752 21.7069 20.8517 21.7365 20.7228 21.7725C20.594 21.8086 20.4595 21.849 20.3192 21.8936C20.3243 21.9185 20.3369 21.9808 20.3571 22.0804C20.3773 22.18 20.4015 22.2993 20.4297 22.4383C20.4579 22.5774 20.4863 22.7175 20.5149 22.8586C20.5435 22.9997 20.5697 23.1284 20.5932 23.2445C20.6168 23.3608 20.6332 23.4417 20.6425 23.4873Z" fill="#FF3D7C"/>
<path d="M25.8788 27.6833C25.8621 27.5789 25.8325 27.38 25.79 27.0866C25.7474 26.7934 25.6969 26.4371 25.6386 26.0176C25.5802 25.5984 25.5197 25.1451 25.457 24.6577C25.3944 24.1705 25.3308 23.677 25.2661 23.1772C25.2013 22.6774 25.1412 22.1995 25.0857 21.7432C25.0302 21.2871 24.9851 20.8828 24.9506 20.5303C24.916 20.1782 24.8926 19.9087 24.8802 19.722C25.2656 19.5833 25.6581 19.4648 26.0563 19.367C26.4693 19.2646 26.9057 19.178 27.3653 19.1071C27.8665 19.02 28.3794 19.0213 28.8801 19.111C29.3003 19.1857 29.6865 19.3865 29.9858 19.6857C30.2971 20.0268 30.4925 20.4549 30.5447 20.9102C30.6327 21.384 30.6088 21.8713 30.4749 22.3346C30.3476 22.7473 30.0892 23.1092 29.7375 23.3672C29.3128 23.6622 28.82 23.8487 28.3036 23.9099C28.1615 23.9303 28.0182 23.9428 27.8747 23.9472C27.7445 23.9545 27.6141 23.9521 27.4843 23.94C27.4981 24.0535 27.5249 24.255 27.5646 24.5445C27.6044 24.8339 27.6474 25.1571 27.6935 25.5141C27.7397 25.8711 27.786 26.2216 27.8323 26.5657C27.8785 26.9099 27.9194 27.1927 27.9549 27.4142C27.8528 27.43 27.7103 27.452 27.5273 27.4802C27.3442 27.5085 27.1469 27.5357 26.9354 27.562C26.7237 27.5882 26.5238 27.6127 26.3355 27.6353C26.1472 27.6579 25.995 27.6739 25.8788 27.6833ZM27.1852 22.3155C27.2773 22.3185 27.3826 22.3161 27.5013 22.3085C27.6199 22.3009 27.7346 22.2886 27.8453 22.2715C28.0394 22.2434 28.2267 22.1807 28.3979 22.0866C28.555 22.0017 28.6843 21.8748 28.7709 21.7205C28.8582 21.5513 28.8849 21.3582 28.8467 21.1723C28.7973 20.863 28.6723 20.667 28.4716 20.5844C28.2278 20.4984 27.9645 20.4801 27.7109 20.5316C27.5918 20.55 27.4671 20.5746 27.3369 20.6054C27.2066 20.6362 27.0704 20.6711 26.9285 20.7102C26.9324 20.7353 26.9425 20.798 26.9586 20.8984C26.9746 20.9987 26.9938 21.1189 27.0162 21.2589C27.0386 21.3991 27.0612 21.5402 27.0839 21.6822C27.1067 21.8243 27.1274 21.9539 27.1461 22.0709C27.1649 22.188 27.1779 22.2696 27.1852 22.3155Z" fill="#FF3D7C"/>
<path d="M34.0902 22.8714C33.9517 22.7251 33.8027 22.5534 33.6432 22.3562C33.4837 22.1591 33.3148 21.947 33.1366 21.72C32.9584 21.4931 32.7798 21.2533 32.6009 21.0007C32.4219 20.7483 32.2437 20.4936 32.0664 20.2366C31.889 19.9798 31.7204 19.723 31.5604 19.4661C31.4004 19.2094 31.2525 18.963 31.1166 18.7269C31.4671 18.5457 31.8361 18.4014 32.2175 18.2965C32.5071 18.2153 32.8017 18.1523 33.0995 18.1079C33.1431 18.184 33.2103 18.3042 33.301 18.4686C33.3916 18.6331 33.4968 18.8194 33.6163 19.0273C33.736 19.2354 33.8606 19.4493 33.9903 19.669C34.1199 19.8887 34.2448 20.0961 34.3652 20.2912C34.4855 20.4865 34.59 20.6494 34.6789 20.7799C34.711 20.6826 34.7606 20.5408 34.8277 20.3543C34.8948 20.1678 34.9703 19.9602 35.0543 19.7313C35.1383 19.5027 35.225 19.2704 35.3146 19.0345C35.4042 18.7986 35.4884 18.5815 35.5671 18.3831C35.6459 18.1849 35.7129 18.0251 35.7682 17.9037C36.0121 17.8946 36.2562 17.9121 36.4961 17.9561C36.7348 17.9984 36.9705 18.0551 37.2021 18.1258C37.3969 18.1839 37.5869 18.2566 37.7704 18.3431C37.6109 18.6124 37.4284 18.9619 37.2228 19.3917C37.0169 19.8218 36.8 20.3041 36.5718 20.8386C36.3435 21.3733 36.1165 21.9366 35.8907 22.5285C35.9304 22.7582 35.9695 23.0104 36.0081 23.2851C36.0466 23.5598 36.0835 23.8208 36.1188 24.0681C36.1542 24.3155 36.1809 24.5169 36.1989 24.6724C36.2205 24.8575 36.2422 25.0532 36.264 25.2593C36.2859 25.4656 36.306 25.6476 36.3244 25.8052C36.3428 25.9628 36.3523 26.063 36.3529 26.1055C36.2521 26.1479 36.1464 26.178 36.0382 26.1952C35.8772 26.2283 35.6983 26.2558 35.5014 26.2778C35.2918 26.3014 35.0822 26.3164 34.8727 26.3229C34.6631 26.3296 34.4863 26.3282 34.3422 26.3188C34.3176 26.1086 34.2933 25.8536 34.2693 25.5538C34.2452 25.2542 34.2205 24.9397 34.1951 24.6102C34.1698 24.2808 34.148 23.9638 34.1299 23.6592C34.1117 23.3545 34.0985 23.092 34.0902 22.8714Z" fill="#FF3D7C"/>
<path d="M43.0992 25.4593C43.0922 25.2944 43.0832 25.0301 43.072 24.6663C43.0608 24.3025 43.0504 23.8805 43.0409 23.4002C43.0312 22.9199 43.0215 22.4131 43.0118 21.8797C43.0021 21.3465 42.9918 20.8239 42.9808 20.3118C42.9697 19.7998 42.9606 19.3322 42.9535 18.9088C42.9462 18.4857 42.9392 18.1429 42.9324 17.8805C42.9256 17.6182 42.9216 17.4744 42.9206 17.4489C43.1609 17.4223 43.4452 17.3915 43.7736 17.3568C44.1019 17.3222 44.4476 17.29 44.8106 17.2603C45.1736 17.2306 45.5272 17.2087 45.8716 17.1945C46.3253 17.1687 46.7803 17.2144 47.2192 17.3299C47.5868 17.424 47.9166 17.6253 48.1653 17.9074C48.4158 18.2219 48.5508 18.6104 48.5484 19.0098C48.5688 19.3217 48.499 19.6329 48.3473 19.9075C48.2092 20.1558 48.0203 20.3734 47.7924 20.5465C47.602 20.697 47.3822 20.8076 47.1466 20.8716C47.1681 20.8707 47.1907 20.8698 47.2144 20.8688C47.2379 20.8679 47.2693 20.8665 47.308 20.865C47.6622 20.8676 48.0113 20.9477 48.33 21.0994C48.617 21.2372 48.8614 21.4476 49.0382 21.7089C49.2168 21.9804 49.3153 22.2953 49.3225 22.6184C49.3646 23.0992 49.2686 23.5818 49.0455 24.0117C48.8301 24.3801 48.5102 24.6791 48.1249 24.8721C47.6669 25.1006 47.1746 25.2559 46.6668 25.3321C46.0457 25.4328 45.4187 25.4946 44.7896 25.5171C44.4668 25.5304 44.1565 25.5325 43.8586 25.5235C43.6043 25.5184 43.3507 25.4969 43.0992 25.4593ZM44.9522 20.3643C45.1803 20.355 45.3629 20.3412 45.5001 20.3228C45.8662 20.2596 46.217 20.1299 46.5347 19.9405C46.6301 19.8753 46.7068 19.7871 46.7574 19.6843C46.808 19.5815 46.8307 19.4677 46.8235 19.3537C46.826 19.2456 46.801 19.1385 46.7506 19.0424C46.7002 18.9462 46.626 18.864 46.5349 18.8033C46.3293 18.68 46.0891 18.6242 45.8491 18.644C45.6755 18.6519 45.5025 18.6685 45.3307 18.6939C45.1443 18.7206 44.9827 18.7473 44.8459 18.7741L44.9522 20.3643ZM45.1485 23.6155C45.1959 23.6182 45.2434 23.6184 45.2909 23.616C45.3467 23.6137 45.4091 23.6111 45.478 23.6083C45.7111 23.5987 45.9434 23.5744 46.1734 23.5354C46.389 23.5006 46.6001 23.4429 46.8031 23.3634C46.975 23.2992 47.129 23.196 47.2526 23.0623C47.308 22.9993 47.3502 22.9261 47.3768 22.8471C47.4034 22.7681 47.4138 22.6847 47.4076 22.6016C47.4051 22.4846 47.3724 22.3701 47.3127 22.2688C47.2496 22.1692 47.1601 22.0883 47.0537 22.0349C46.9153 21.9668 46.7657 21.9235 46.6118 21.9069C46.3981 21.8813 46.1825 21.8742 45.9675 21.8856C45.8943 21.8886 45.8039 21.8933 45.6964 21.8999C45.5889 21.9065 45.4782 21.9153 45.3645 21.9263C45.2508 21.9372 45.1446 21.9511 45.0462 21.9678L45.1485 23.6155Z" fill="#FF3D7C"/>
<path d="M52.7118 25.4641C52.5441 25.4646 52.3445 25.4632 52.1143 25.4599C51.8836 25.4564 51.651 25.4488 51.4165 25.437C51.1816 25.4251 50.9694 25.4089 50.7798 25.3884C50.7701 25.1134 50.7601 24.7611 50.75 24.3317C50.7398 23.9022 50.7306 23.4442 50.7223 22.9574C50.7141 22.4709 50.7092 22.0075 50.7076 21.5674C50.7051 20.8903 50.7078 20.1667 50.7157 19.3964C50.7236 18.6262 50.7346 17.8285 50.7489 17.0033C50.8221 16.9988 50.9384 16.9952 51.0977 16.9925C51.2569 16.9898 51.4368 16.985 51.6374 16.9779C51.8374 16.9708 52.0312 16.9659 52.2187 16.9631C52.4063 16.9603 52.5646 16.9587 52.6936 16.9583C52.7212 17.411 52.7446 17.9135 52.7639 18.4655C52.7829 19.0177 52.7979 19.5815 52.8089 20.1571C52.8194 20.7326 52.8257 21.2848 52.8279 21.8138C52.8287 22.0761 52.8286 22.3491 52.8276 22.6326C52.8264 22.9161 52.8242 23.1976 52.821 23.4769C52.8175 23.7562 52.8098 24.0228 52.798 24.2767C52.786 24.5307 52.774 24.7603 52.7619 24.9656C52.7495 25.171 52.7328 25.3372 52.7118 25.4641Z" fill="#FF3D7C"/>
<path d="M54.4281 25.5009C54.4186 25.0263 54.4075 24.4448 54.3947 23.7563C54.3821 23.0679 54.3689 22.3307 54.3551 21.5447C54.3413 20.7588 54.3286 19.9771 54.3169 19.1997C54.305 18.4224 54.2952 17.7097 54.2874 17.0616C54.4559 17.0504 54.6718 17.0406 54.935 17.0324C55.1981 17.0243 55.4828 17.0169 55.7891 17.0102C56.0953 17.0035 56.395 16.9987 56.6882 16.9958C56.9813 16.9929 57.242 16.9953 57.4702 17.0029C57.805 17.0145 58.1379 17.0565 58.4648 17.1283C58.7842 17.1961 59.0901 17.3146 59.3705 17.4793C59.6439 17.6419 59.8672 17.8744 60.0165 18.152C60.1856 18.4923 60.2596 18.8707 60.2306 19.2484C60.2164 19.681 60.0846 20.1021 59.8489 20.4678C59.6322 20.8255 59.307 21.1078 58.9189 21.275C59.0117 21.4603 59.1139 21.6838 59.2255 21.9458C59.3369 22.2078 59.449 22.4889 59.5616 22.7891C59.674 23.0893 59.7812 23.3861 59.8831 23.6795C59.9848 23.973 60.0757 24.2417 60.1557 24.4857C60.2355 24.7297 60.2943 24.9286 60.3321 25.0823C60.1712 25.1675 60.0008 25.2343 59.8242 25.2812C59.613 25.342 59.3967 25.3951 59.1754 25.4405C58.9541 25.4861 58.7621 25.5231 58.5994 25.5515C58.5019 25.5716 58.4032 25.5852 58.3039 25.5924C58.2753 25.4221 58.2292 25.1982 58.1655 24.9208C58.1018 24.6435 58.0282 24.3426 57.9447 24.018C57.861 23.6935 57.7762 23.3741 57.6902 23.0599C57.6042 22.7458 57.5245 22.4647 57.4512 22.2167C57.3778 21.9688 57.3195 21.7847 57.2763 21.6646C57.1765 21.6825 57.0758 21.6982 56.9742 21.7117C56.8722 21.7253 56.7771 21.7348 56.6886 21.7402C56.6 21.7459 56.5191 21.7495 56.4459 21.7512C56.4597 21.8492 56.4724 22.0094 56.4841 22.232C56.4958 22.4547 56.5073 22.7124 56.5187 23.0048C56.5302 23.2974 56.5402 23.5973 56.549 23.9046C56.5577 24.2119 56.5649 24.5011 56.5705 24.7723C56.5764 25.0435 56.5784 25.2658 56.5766 25.4394C56.3675 25.4754 56.1561 25.497 55.944 25.5039C55.6957 25.5147 55.4391 25.5188 55.1742 25.5163C54.9092 25.5138 54.6605 25.5086 54.4281 25.5009ZM56.3242 20.2229C56.4577 20.2272 56.5946 20.2265 56.7348 20.2207C56.8751 20.2148 57.0428 20.1982 57.2376 20.1708C57.4709 20.1461 57.6994 20.0886 57.916 19.9998C58.0694 19.9372 58.2002 19.831 58.2916 19.6948C58.3744 19.5587 58.4188 19.4035 58.4206 19.245C58.4322 19.1549 58.4254 19.0634 58.4007 18.9759C58.376 18.8883 58.3338 18.8065 58.2765 18.7352C58.1578 18.6206 58.0055 18.5455 57.841 18.5205C57.6252 18.4816 57.4065 18.4595 57.1872 18.4543C57.1182 18.452 57.0364 18.4524 56.9415 18.4556C56.8466 18.4588 56.7516 18.463 56.6565 18.4683C56.5616 18.4736 56.4753 18.4781 56.3975 18.4818C56.3199 18.4855 56.2636 18.4891 56.229 18.492C56.2308 18.5641 56.2361 18.6596 56.2449 18.7784C56.2539 18.8972 56.2623 19.0277 56.2702 19.1699C56.2781 19.312 56.2851 19.4519 56.2912 19.5897C56.2972 19.7276 56.3036 19.8527 56.3106 19.9651C56.3174 20.0776 56.3219 20.1635 56.3242 20.2229Z" fill="#FF3D7C"/>
<path d="M61.4555 19.0167C61.4398 18.884 61.4329 18.7504 61.4347 18.6169C61.4341 18.4448 61.4366 18.2645 61.4421 18.076C61.4473 17.8875 61.4532 17.7181 61.4596 17.5678C61.466 17.4177 61.4715 17.3152 61.4763 17.2603C61.9599 17.2662 62.5109 17.281 63.1292 17.3045C63.7474 17.328 64.372 17.3659 65.0031 17.418C65.4796 17.4574 65.9434 17.5053 66.3946 17.5617C66.8081 17.6115 67.2186 17.6827 67.6245 17.7748C67.5987 18.1252 67.5601 18.4501 67.5086 18.7494C67.4733 18.9764 67.4238 19.201 67.3603 19.4219C67.2785 19.4152 67.1606 19.4044 67.0064 19.3895C66.852 19.3746 66.6815 19.3584 66.495 19.3409C66.3086 19.3233 66.1253 19.3061 65.9451 19.2891C65.765 19.2721 65.6086 19.256 65.4759 19.2407C65.4668 19.3971 65.4556 19.6287 65.4423 19.9355C65.4291 20.2423 65.4143 20.5925 65.3979 20.9861C65.3814 21.3796 65.3654 21.7924 65.3501 22.2242C65.3347 22.6561 65.319 23.0795 65.3029 23.4943C65.2868 23.9093 65.2715 24.2892 65.2571 24.6341C65.2427 24.979 65.2315 25.2626 65.2233 25.4848C65.215 25.707 65.209 25.8392 65.2054 25.8815C65.0315 25.8925 64.8063 25.8973 64.5298 25.8957C64.2533 25.894 63.9783 25.8883 63.7047 25.8784C63.4309 25.8686 63.2082 25.8566 63.0366 25.8424C63.0452 25.5925 63.058 25.291 63.0753 24.9378C63.0925 24.5846 63.1145 24.2021 63.1411 23.7903C63.1677 23.3784 63.1952 22.956 63.2236 22.5231C63.2519 22.0901 63.2817 21.6669 63.3129 21.2533C63.344 20.8397 63.3743 20.4599 63.404 20.1141C63.4207 19.9202 63.4362 19.7389 63.4506 19.5701C63.4651 19.4015 63.4803 19.2499 63.496 19.1152C63.3494 19.1117 63.19 19.106 63.0178 19.0981C62.8454 19.0902 62.6687 19.083 62.4878 19.0765C62.3068 19.0701 62.1282 19.0617 61.9519 19.0513C61.7754 19.041 61.61 19.0295 61.4555 19.0167Z" fill="#FF3D7C"/>
<path d="M67.8759 26.164C67.8804 25.9766 67.8954 25.6978 67.921 25.3276C67.9466 24.9573 67.9825 24.5286 68.0286 24.0414C68.0748 23.5543 68.1256 23.0422 68.181 22.505C68.2365 21.9679 68.2951 21.4386 68.3569 20.9173C68.4186 20.3961 68.4802 19.9154 68.5417 19.4751C68.5826 19.1816 68.6228 18.9168 68.6622 18.6807C68.7019 18.4448 68.7391 18.248 68.7741 18.0903C68.8172 18.092 68.9217 18.0986 69.0876 18.1102C69.2532 18.1219 69.4455 18.1382 69.6644 18.159C69.8832 18.18 70.0966 18.2012 70.3045 18.2228C70.5123 18.2443 70.6802 18.2637 70.8084 18.281C70.7687 18.5021 70.7294 18.7531 70.6903 19.0339C70.6511 19.3148 70.6139 19.5811 70.5789 19.8326C70.535 20.147 70.494 20.4715 70.456 20.8059C70.4181 21.1404 70.3938 21.3774 70.383 21.5169C70.4779 21.5212 70.5848 21.526 70.7037 21.5313C70.8225 21.5366 70.9464 21.5448 71.0753 21.5557C71.2042 21.5667 71.3309 21.5784 71.4553 21.5908C71.5795 21.6033 71.6964 21.6148 71.8059 21.6252C71.9152 21.6357 72.0083 21.6461 72.0853 21.6564C72.1082 21.5228 72.1422 21.3255 72.1874 21.0646C72.2324 20.8038 72.2816 20.5136 72.3349 20.1939C72.3881 19.8744 72.4405 19.5611 72.492 19.2541C72.5436 18.9471 72.591 18.6854 72.6341 18.4691C72.7335 18.474 72.8538 18.4849 72.9949 18.5017C73.136 18.5186 73.2727 18.5359 73.4051 18.5537C73.6738 18.59 73.9282 18.6285 74.1683 18.6693C74.4081 18.7102 74.5887 18.7473 74.7103 18.7807C74.6767 18.8958 74.6337 19.0716 74.5812 19.308C74.5288 19.5443 74.4704 19.8226 74.4061 20.1429C74.3419 20.4632 74.2747 20.8118 74.2048 21.1889C74.1347 21.5662 74.0643 21.954 73.9935 22.3522C73.9227 22.7506 73.8537 23.1439 73.7866 23.5321C73.7068 23.9784 73.6316 24.4157 73.5612 24.844C73.4905 25.2724 73.4277 25.6601 73.3728 26.0071C73.3179 26.3543 73.2737 26.6324 73.2401 26.8414C73.1449 26.8372 72.9955 26.8256 72.7918 26.8066C72.5877 26.7878 72.3615 26.7649 72.1132 26.7377C71.8649 26.7107 71.6213 26.6811 71.3823 26.6489C71.4226 26.3596 71.4616 26.0723 71.4991 25.7869C71.5368 25.5015 71.5748 25.2215 71.6131 24.9469C71.6514 24.6723 71.6885 24.4061 71.7245 24.1482C71.7605 23.8904 71.7948 23.6441 71.8276 23.4093C71.7416 23.402 71.6431 23.3919 71.532 23.379C71.4205 23.3663 71.306 23.353 71.1885 23.3393C71.0708 23.3256 70.9521 23.3118 70.8324 23.2977C70.7124 23.2838 70.6001 23.2708 70.4954 23.2588C70.3906 23.2468 70.2997 23.2356 70.2228 23.2252C70.2048 23.4492 70.18 23.7203 70.1487 24.0385C70.1172 24.3568 70.0857 24.6761 70.0541 24.9964C70.0225 25.3169 69.9948 25.6004 69.9712 25.847C69.9477 26.0938 69.9301 26.259 69.9184 26.3429C69.7765 26.3451 69.6347 26.34 69.4934 26.3273C69.3105 26.3134 69.115 26.2967 68.9069 26.2772C68.6988 26.2578 68.5016 26.2377 68.3153 26.2168C68.1291 26.196 67.9827 26.1784 67.8759 26.164Z" fill="#FF3D7C"/>
<path d="M75.0316 27.399C75.0456 27.1989 75.0736 26.9121 75.1157 26.5386C75.1578 26.165 75.2056 25.7365 75.259 25.2529C75.3122 24.7694 75.37 24.263 75.4326 23.7337C75.4951 23.2045 75.5565 22.6805 75.617 22.1617C75.6772 21.6428 75.7351 21.1633 75.7908 20.7233C75.8463 20.2834 75.8931 19.9086 75.9311 19.599C75.9692 19.2893 75.9945 19.0818 76.007 18.9763C76.1843 18.9892 76.4107 19.0094 76.6864 19.037C76.9617 19.0645 77.2555 19.0989 77.5678 19.1401C77.88 19.1812 78.1713 19.228 78.4418 19.2805C79.1132 19.3957 79.763 19.6101 80.369 19.9165C80.8379 20.155 81.2344 20.5109 81.5183 20.9482C81.7877 21.3966 81.9414 21.9029 81.966 22.423C81.9986 23.0788 81.9439 23.7359 81.8035 24.3778C81.6847 25.0944 81.4246 25.7813 81.038 26.4001C80.7201 26.8802 80.2564 27.2497 79.7127 27.4564C79.081 27.6762 78.4105 27.7684 77.7416 27.7274C76.8312 27.6844 75.9254 27.5746 75.0316 27.399ZM77.3414 25.7054C77.7513 25.7895 78.1752 25.781 78.5813 25.6807C78.8886 25.5927 79.1538 25.3999 79.3293 25.1369C79.5262 24.8248 79.6597 24.4783 79.7222 24.1163C79.8142 23.6731 79.8444 23.2197 79.8121 22.7685C79.7913 22.3723 79.6611 21.9892 79.4355 21.6602C79.3139 21.5007 79.1615 21.3662 78.987 21.2646C78.8124 21.163 78.6192 21.0963 78.4183 21.0682C78.3424 21.0534 78.2609 21.0377 78.1743 21.0209C78.0972 21.0053 78.0191 20.9945 77.9406 20.9885C77.8833 21.4476 77.8178 21.9536 77.7441 22.5064C77.6701 23.0594 77.5995 23.6129 77.5321 24.167C77.4645 24.7212 77.401 25.234 77.3414 25.7054Z" fill="#FF3D7C"/>
<path d="M83.2289 29.0008C83.1247 28.9743 82.9817 28.9346 82.7999 28.8816C82.618 28.8287 82.4226 28.7723 82.2138 28.7125C82.0046 28.6527 81.8022 28.5935 81.6065 28.5349C81.4106 28.4761 81.2491 28.4262 81.122 28.3851C81.2348 28.1429 81.3839 27.8355 81.5692 27.4629C81.7544 27.0904 81.9645 26.6784 82.1994 26.2268C82.4343 25.7751 82.6812 25.3036 82.9401 24.8122C83.1988 24.3208 83.4611 23.8335 83.7267 23.3503C83.9921 22.8671 84.2465 22.4095 84.4897 21.9775C84.7328 21.5455 84.9541 21.1625 85.1537 20.8286C85.5888 20.8827 86.0163 20.9446 86.4363 21.0145C86.856 21.0844 87.2598 21.1687 87.6477 21.2676C87.8687 21.3238 88.088 21.3863 88.3057 21.455C88.5235 21.5236 88.737 21.5998 88.9462 21.6838C88.9301 22.0645 88.9021 22.4989 88.8623 22.9871C88.8223 23.4753 88.7616 24.0467 88.68 24.7014C88.5983 25.356 88.4874 26.1212 88.3472 26.9971C88.2073 27.8729 88.0312 28.8893 87.819 30.0463C87.6771 30.0277 87.4762 29.9962 87.2165 29.9517C86.9568 29.9073 86.6869 29.8549 86.407 29.7946C86.127 29.734 85.8786 29.6762 85.6618 29.621C85.6847 29.5001 85.7131 29.363 85.747 29.2099C85.7808 29.0568 85.8163 28.8932 85.8534 28.7189C85.8903 28.5448 85.9289 28.3688 85.9693 28.1911C86.0095 28.0134 86.0492 27.8421 86.0883 27.6771C86.1276 27.5122 86.1634 27.3596 86.1959 27.2193C86.0614 27.1894 85.9162 27.1579 85.7604 27.1247C85.6045 27.0915 85.4471 27.0601 85.2881 27.0304C85.1289 27.0009 84.9792 26.9737 84.839 26.9488C84.6986 26.924 84.5747 26.9044 84.4672 26.8901C84.3599 26.8759 84.2821 26.867 84.2341 26.8635C84.0979 27.1261 83.9655 27.3918 83.8366 27.6605C83.7077 27.9294 83.5902 28.1803 83.4842 28.4135C83.378 28.6465 83.2929 28.8423 83.2289 29.0008ZM84.94 25.2269C85.0402 25.235 85.1951 25.2548 85.4047 25.2864C85.6144 25.3179 85.8314 25.3557 86.0557 25.3998C86.28 25.4438 86.4614 25.4813 86.6001 25.5123C86.6145 25.4242 86.6481 25.259 86.7009 25.0167C86.7537 24.7744 86.8094 24.5088 86.868 24.2199C86.9265 23.9309 86.9801 23.6648 87.0288 23.4215C87.0773 23.1781 87.1073 23.0098 87.1187 22.9165C87.0521 22.8994 86.951 22.878 86.8152 22.8522C86.6797 22.8265 86.5483 22.8017 86.4211 22.778C86.2937 22.7544 86.204 22.7402 86.1518 22.7356C86.0955 22.8481 86.0176 23.0042 85.9181 23.2039C85.8185 23.4037 85.7096 23.6263 85.5915 23.8716C85.4733 24.1169 85.3575 24.3573 85.2442 24.5929C85.1308 24.8285 85.0294 25.0398 84.94 25.2269Z" fill="#FF3D7C"/>
<path d="M91.4226 27.4784C91.3579 27.289 91.2945 27.0722 91.2323 26.8279C91.1698 26.5836 91.1052 26.3219 91.0385 26.0428C90.9716 25.7638 90.9097 25.4729 90.8531 25.1703C90.7962 24.8678 90.7411 24.5635 90.6877 24.2575C90.6341 23.9516 90.5886 23.6493 90.551 23.3505C90.5134 23.0518 90.4822 22.7674 90.4577 22.4973C90.8531 22.4745 91.2499 22.4929 91.6414 22.5522C91.9393 22.5957 92.2341 22.658 92.524 22.7384C92.5315 22.8254 92.5421 22.9622 92.5556 23.1486C92.569 23.3353 92.5864 23.5476 92.6078 23.7855C92.6292 24.0235 92.6527 24.2689 92.6785 24.5215C92.7041 24.7742 92.7307 25.0139 92.7581 25.2404C92.7857 25.467 92.8124 25.6578 92.8385 25.8128C92.9084 25.7372 93.0131 25.6281 93.1528 25.4856C93.2924 25.343 93.4485 25.1846 93.6213 25.0104C93.7939 24.836 93.9706 24.6597 94.1513 24.4814C94.332 24.303 94.5 24.1395 94.6553 23.9907C94.8102 23.842 94.9384 23.7237 95.0399 23.6358C95.2658 23.7264 95.4808 23.8415 95.6808 23.9789C95.8803 24.1143 96.0711 24.2616 96.2522 24.4201C96.4052 24.552 96.5477 24.6953 96.6785 24.8485C96.4199 25.0291 96.1066 25.2733 95.7386 25.5813C95.3704 25.8893 94.97 26.2404 94.5375 26.6346C94.1047 27.0288 93.661 27.4496 93.2064 27.897C93.146 28.1224 93.0756 28.368 92.9951 28.6337C92.9146 28.8995 92.8384 29.1521 92.7666 29.3917C92.6948 29.6313 92.6344 29.8256 92.5855 29.9745C92.5273 30.1518 92.4647 30.3388 92.398 30.5354C92.331 30.7321 92.2727 30.906 92.2232 31.057C92.1737 31.208 92.1403 31.3031 92.1228 31.342C92.0133 31.3398 91.9044 31.3243 91.7986 31.296C91.6381 31.2607 91.4636 31.2131 91.2752 31.1534C91.0743 31.0898 90.877 31.0184 90.6834 30.9393C90.4899 30.8602 90.3295 30.7871 90.2021 30.72C90.2684 30.5187 90.3535 30.2767 90.4575 29.9939C90.5615 29.7112 90.6713 29.4148 90.7869 29.1045C90.9022 28.7943 91.0158 28.4968 91.1275 28.212C91.2389 27.9272 91.3373 27.6827 91.4226 27.4784Z" fill="#FF3D7C"/>
<path d="M8.53598 63.4072C9.41437 63.4072 10.1264 62.7077 10.1264 61.8447C10.1264 60.9818 9.41437 60.2822 8.53598 60.2822C7.6576 60.2822 6.94553 60.9818 6.94553 61.8447C6.94553 62.7077 7.6576 63.4072 8.53598 63.4072Z" fill="#FFC956"/>
<path d="M7.54195 70.8291C8.09094 70.8291 8.53598 70.3919 8.53598 69.8525C8.53598 69.3132 8.09094 68.876 7.54195 68.876C6.99296 68.876 6.54791 69.3132 6.54791 69.8525C6.54791 70.3919 6.99296 70.8291 7.54195 70.8291Z" fill="#009BC5"/>
<path d="M12.3133 96.415C13.0819 96.415 13.705 95.8029 13.705 95.0479C13.705 94.2928 13.0819 93.6807 12.3133 93.6807C11.5447 93.6807 10.9217 94.2928 10.9217 95.0479C10.9217 95.8029 11.5447 96.415 12.3133 96.415Z" fill="#FF78A0"/>
<path d="M85.2753 96.8057C86.1537 96.8057 86.8658 96.1061 86.8658 95.2432C86.8658 94.3802 86.1537 93.6807 85.2753 93.6807C84.3969 93.6807 83.6849 94.3802 83.6849 95.2432C83.6849 96.1061 84.3969 96.8057 85.2753 96.8057Z" fill="#167D2D"/>
<path d="M92.4324 69.8525C93.75 69.8525 94.8181 68.8032 94.8181 67.5088C94.8181 66.2144 93.75 65.165 92.4324 65.165C91.1148 65.165 90.0467 66.2144 90.0467 67.5088C90.0467 68.8032 91.1148 69.8525 92.4324 69.8525Z" fill="#E71A28"/>
<path d="M77.4225 53.6416C77.9166 53.6416 78.3171 53.2481 78.3171 52.7627C78.3171 52.2773 77.9166 51.8838 77.4225 51.8838C76.9284 51.8838 76.5278 52.2773 76.5278 52.7627C76.5278 53.2481 76.9284 53.6416 77.4225 53.6416Z" fill="#009BC5"/>
<path d="M94.5199 41.1416C95.6728 41.1416 96.6074 40.2234 96.6074 39.0908C96.6074 37.9582 95.6728 37.04 94.5199 37.04C93.367 37.04 92.4324 37.9582 92.4324 39.0908C92.4324 40.2234 93.367 41.1416 94.5199 41.1416Z" fill="#FFC956"/>
<path d="M61.3191 31.9619C61.7034 31.9619 62.0149 31.6559 62.0149 31.2783C62.0149 30.9008 61.7034 30.5947 61.3191 30.5947C60.9348 30.5947 60.6233 30.9008 60.6233 31.2783C60.6233 31.6559 60.9348 31.9619 61.3191 31.9619Z" fill="#009BC5"/>
<path d="M42.1342 40.165C43.0126 40.165 43.7246 39.4655 43.7246 38.6025C43.7246 37.7396 43.0126 37.04 42.1342 37.04C41.2558 37.04 40.5437 37.7396 40.5437 38.6025C40.5437 39.4655 41.2558 40.165 42.1342 40.165Z" fill="#E71A28"/>
<path d="M36.4684 13.0166C37.0723 13.0166 37.5618 12.5357 37.5618 11.9424C37.5618 11.3491 37.0723 10.8682 36.4684 10.8682C35.8645 10.8682 35.3749 11.3491 35.3749 11.9424C35.3749 12.5357 35.8645 13.0166 36.4684 13.0166Z" fill="#009BC5"/>
<path d="M70.166 12.4307C71.3738 12.4307 72.3529 11.4688 72.3529 10.2822C72.3529 9.09568 71.3738 8.13379 70.166 8.13379C68.9582 8.13379 67.9791 9.09568 67.9791 10.2822C67.9791 11.4688 68.9582 12.4307 70.166 12.4307Z" fill="#E71A28"/>
<path d="M55.7525 12.2354C56.3564 12.2354 56.8459 11.7544 56.8459 11.1611C56.8459 10.5679 56.3564 10.0869 55.7525 10.0869C55.1486 10.0869 54.659 10.5679 54.659 11.1611C54.659 11.7544 55.1486 12.2354 55.7525 12.2354Z" fill="#167D2D"/>
<path d="M23.4463 52.4697L4.95724 55.3994L5.15605 48.1729L23.4463 52.4697Z" fill="#E71A28"/>
<path d="M25.2356 45.6338L14.8976 36.4541L22.0547 33.1338L25.2356 45.6338Z" fill="#009BC5"/>
<path d="M16.6869 15.751L7.14413 10.6729L11.5179 7.35254L16.6869 15.751Z" fill="#FFC956"/>
<path d="M83.2873 13.6025L91.2395 6.57129L94.2217 10.8682L83.2873 13.6025Z" fill="#009BC5"/>
<path d="M71.6091 50.2772C71.5578 49.9307 80.3053 33.5244 80.3053 33.5244L87.4623 40.9463L71.6091 50.2772Z" fill="#FF3D7C"/>
<path d="M82.4678 50.8093L94.9722 49.4431L94.0215 54.9337L82.4678 50.8093Z" fill="#167D2D"/>
<path d="M86.2694 78.8369L91.836 91.3369L97.6014 85.2822L86.2694 78.8369Z" fill="#FFC956"/>
<path d="M13.7048 75.7119L4.8996 82.5354L10.1262 85.6729L13.7048 75.7119Z" fill="#167D2D"/>
<path d="M64.4581 42.8214C64.2552 41.158 63.9058 39.5185 63.5509 37.8812C63.4673 37.4954 62.8138 37.3778 62.6425 37.7646C62.3437 38.4392 62.0449 39.1138 61.7462 39.7884C61.1192 40.6085 60.6478 41.5329 60.3545 42.5172C60.0075 43.6934 59.7616 45.2316 60.5554 46.2893C60.7303 46.5403 60.96 46.7498 61.2276 46.9026C61.4953 47.0554 61.7943 47.1478 62.1028 47.1729C62.4057 47.1775 62.7062 47.12 62.9851 47.0039C63.264 46.8878 63.5151 46.7158 63.7224 46.4989C64.704 45.5223 64.6114 44.0779 64.4581 42.8214Z" fill="#F69812"/>
<path d="M62.2114 46.3684C62.1327 46.3699 62.0578 46.4013 62.0022 46.4559C61.9466 46.5105 61.9147 46.5841 61.9131 46.6614C61.8961 47.2494 61.8792 47.8375 61.8622 48.4255C61.8628 48.503 61.8945 48.5771 61.9502 48.6319C62.006 48.6867 62.0815 48.7178 62.1604 48.7185C62.239 48.717 62.314 48.6856 62.3696 48.631C62.4252 48.5764 62.4571 48.5027 62.4586 48.4255C62.4756 47.8374 62.4926 47.2494 62.5096 46.6614C62.5089 46.5839 62.4773 46.5097 62.4215 46.4549C62.3657 46.4001 62.2902 46.3691 62.2114 46.3684Z" fill="#FD9249"/>
<path d="M59.1457 60.4378C59.1457 60.4378 58.8067 48.5139 59.8047 48.3394C60.8027 48.1648 65.2408 47.9973 65.1629 48.8418C65.0551 50.0089 64.5123 60.5496 64.3094 60.7407C64.1064 60.9318 59.1457 60.4378 59.1457 60.4378Z" fill="#167D2D"/>
<path d="M59.1383 60.146C60.9898 59.4775 62.8078 58.7274 64.5923 57.8956C64.6173 57.5411 64.6427 57.1658 64.6683 56.778C62.8571 57.6438 61.0067 58.4234 59.1171 59.1167C59.1249 59.5619 59.1327 59.917 59.1383 60.146ZM64.1745 60.7732C64.2268 60.7416 64.28 60.7115 64.3324 60.6801C64.4004 60.2754 64.4473 59.8676 64.4729 59.4582C63.7766 59.8595 63.0918 60.2793 62.4185 60.7175C63.0021 60.7708 63.5885 60.7894 64.1745 60.7732ZM62.9554 48.2112C61.7967 48.8369 60.5862 49.3653 59.3369 49.7908C59.2971 50.1084 59.2633 50.4671 59.2347 50.856C61.1127 50.2559 62.9091 49.4328 64.584 48.405C64.0495 48.2845 63.5037 48.2196 62.9554 48.2112ZM59.0923 56.9396C61.0297 56.257 62.9335 55.4908 64.8038 54.6409C64.8266 54.2689 64.8492 53.8976 64.8711 53.5323C62.9827 54.411 61.0558 55.2019 59.0905 55.9051C59.0899 56.2591 59.0906 56.6057 59.0923 56.9396ZM59.1372 52.8096C59.1262 53.152 59.1175 53.5017 59.1108 53.8538C61.1377 53.1474 63.108 52.2926 65.0048 51.2967C65.0301 50.8732 65.0536 50.4842 65.0746 50.1443C63.1689 51.1829 61.1838 52.0741 59.1372 52.8096Z" fill="#F7E8C6"/>
<path d="M61.5007 41.3045L61.4362 45.1358C61.4371 45.1611 61.448 45.1851 61.4665 45.2027C61.4851 45.2203 61.5098 45.2301 61.5356 45.2301C61.5614 45.2301 61.5862 45.2203 61.6047 45.2027C61.6233 45.1851 61.6341 45.1611 61.635 45.1358L61.6995 41.3045C61.6986 41.2792 61.6877 41.2552 61.6692 41.2376C61.6506 41.22 61.6258 41.2102 61.6001 41.2102C61.5743 41.2102 61.5495 41.22 61.531 41.2376C61.5124 41.2552 61.5015 41.2792 61.5007 41.3045Z" fill="white"/>
<path d="M62.7084 43.1266C62.683 43.12 62.6559 43.1234 62.633 43.1361C62.6102 43.1489 62.5933 43.17 62.5861 43.1948C62.5177 43.5981 62.4493 44.0013 62.3809 44.4045C62.3747 44.4294 62.3784 44.4558 62.3913 44.4781C62.4042 44.5005 62.4253 44.5171 62.4503 44.5247C62.4757 44.5313 62.5028 44.5279 62.5257 44.5152C62.5486 44.5024 62.5654 44.4813 62.5726 44.4564L62.7778 43.2468C62.7841 43.2218 62.7803 43.1955 62.7674 43.1731C62.7545 43.1508 62.7334 43.1342 62.7084 43.1266Z" fill="white"/>
<path d="M63.1072 49.8751C62.9457 51.6805 62.7841 53.4859 62.6226 55.2913C62.577 55.8013 62.5314 56.3113 62.4857 56.8214C62.4745 56.9466 62.6734 56.9458 62.6845 56.8214C62.8461 55.016 63.0076 53.2106 63.1691 51.4052C63.2147 50.8952 63.2604 50.3851 63.306 49.8751C63.3172 49.7499 63.1183 49.7507 63.1072 49.8751Z" fill="white"/>
<path d="M64.0084 51.3852C63.8674 52.9977 63.7264 54.6102 63.5854 56.2228C63.5744 56.348 63.7733 56.3473 63.7842 56.2228C63.9252 54.6103 64.0662 52.9977 64.2072 51.3852C64.2182 51.2599 64.0193 51.2607 64.0084 51.3852Z" fill="white"/>
<path d="M50.5848 35.5473C50.1544 33.7569 49.4401 32.0469 48.7349 30.348C48.7071 30.257 48.6535 30.1758 48.5803 30.1139C48.5071 30.0519 48.4174 30.0118 48.3217 29.9982C48.2249 29.9844 48.1262 29.9992 48.038 30.0407C47.9498 30.0822 47.8762 30.1486 47.8265 30.2313C47.6218 30.6367 47.4412 31.0534 47.2856 31.4793C47.2791 31.489 47.2715 31.4965 47.2654 31.507C46.4706 32.8508 45.9445 34.3315 45.7152 35.8693C45.5253 37.1704 45.3409 38.8607 46.2237 39.9709C47.1504 41.1363 48.9642 40.9611 49.9125 39.9177C51.0103 38.7096 50.9404 37.0268 50.5848 35.5473Z" fill="#F69812"/>
<path d="M48.623 40.5122C48.623 40.4345 48.5915 40.36 48.5356 40.305C48.4797 40.2501 48.4038 40.2192 48.3247 40.2192C48.2457 40.2192 48.1698 40.2501 48.1139 40.305C48.058 40.36 48.0265 40.4345 48.0265 40.5122C48.0438 41.2347 48.061 41.9571 48.0782 42.6796C48.0782 42.7573 48.1096 42.8318 48.1655 42.8867C48.2215 42.9417 48.2973 42.9725 48.3764 42.9725C48.4555 42.9725 48.5313 42.9417 48.5873 42.8867C48.6432 42.8318 48.6746 42.7573 48.6746 42.6796C48.6574 41.9571 48.6402 41.2347 48.623 40.5122Z" fill="#FD9249"/>
<path d="M45.1613 61.669C45.1613 61.669 43.7696 43.3097 44.9625 42.7237C46.1553 42.1378 50.9267 41.5519 51.5231 42.5284C52.1195 43.505 51.3243 60.3018 50.9267 60.6925C50.5291 61.0831 45.1613 61.669 45.1613 61.669Z" fill="#009BC5"/>
<path d="M44.6084 43.8692C44.5677 44.215 44.5378 44.6281 44.5171 45.0949C46.1949 46.4972 48.0976 47.6167 50.148 48.4079C50.655 48.6038 51.1712 48.7748 51.6933 48.9266C51.7021 48.582 51.7097 48.2432 51.716 47.912C49.2051 47.1418 46.8882 45.8591 44.917 44.1481C44.8124 44.0569 44.7108 43.9627 44.6084 43.8692ZM44.9586 58.7304C46.5175 59.6927 48.1969 60.4523 49.9548 60.9903C50.4632 60.887 50.8332 60.7844 50.9267 60.6925C50.987 60.562 51.0227 60.4217 51.032 60.2786C48.8405 59.7077 46.7621 58.7794 44.8834 57.5325C44.9092 57.9546 44.9344 58.3559 44.9586 58.7304ZM44.4899 48.3453C44.4962 48.7611 44.5053 49.1885 44.5167 49.6241C46.335 51.0574 48.2679 52.3469 50.5025 53.0705C50.8412 53.1801 51.1854 53.269 51.5322 53.3466C51.5473 53.0206 51.5619 52.6921 51.5758 52.3611C49.197 51.781 47.0581 50.392 45.1661 48.8949C44.9383 48.7146 44.7145 48.5294 44.4899 48.3453ZM44.6567 53.3579C44.6766 53.7832 44.6975 54.2053 44.7189 54.6207C46.4155 55.8195 48.308 56.7246 50.3149 57.2972C50.638 57.389 50.9643 57.469 51.292 57.542C51.3143 57.2284 51.3363 56.898 51.3581 56.554C49.176 56.037 47.1155 55.1122 45.2892 53.83C45.0737 53.6785 44.8639 53.5198 44.6567 53.3579ZM51.7117 44.1382C50.5805 43.5121 49.4939 42.8114 48.4592 42.0408C47.9868 42.0735 47.5071 42.1283 47.0544 42.1972C48.5117 43.3636 50.079 44.3908 51.7349 45.2647C51.7313 44.8521 51.7237 44.4741 51.7117 44.1382Z" fill="#62C4DE"/>
<path d="M48.8541 34.216C48.8259 34.0934 48.6342 34.1453 48.6624 34.2679C49.0249 35.8426 49.0407 37.4753 48.7085 39.0565C48.6827 39.1792 48.8743 39.2316 48.9003 39.1084C49.2402 37.493 49.2244 35.8249 48.8541 34.216Z" fill="white"/>
<path d="M47.768 35.1559L47.7494 37.1718C47.7503 37.1971 47.7612 37.2211 47.7797 37.2387C47.7983 37.2563 47.823 37.2662 47.8488 37.2662C47.8746 37.2662 47.8994 37.2563 47.9179 37.2387C47.9365 37.2211 47.9473 37.1971 47.9482 37.1718L47.9668 35.1559C47.9659 35.1305 47.9551 35.1066 47.9365 35.089C47.918 35.0714 47.8932 35.0615 47.8674 35.0615C47.8416 35.0615 47.8169 35.0714 47.7983 35.089C47.7798 35.1066 47.7689 35.1305 47.768 35.1559Z" fill="white"/>
<path d="M49.8698 46.8504C49.7249 49.6265 49.58 52.4025 49.4351 55.1785L49.3122 57.5337C49.3056 57.6593 49.5044 57.6589 49.511 57.5337C49.6559 54.7577 49.8008 51.9816 49.9457 49.2056C49.9867 48.4206 50.0276 47.6355 50.0686 46.8504C50.0752 46.7248 49.8764 46.7252 49.8698 46.8504Z" fill="white"/>
<path d="M48.6205 49.3144C48.6137 48.829 48.607 48.3436 48.6002 47.8582C48.5993 47.8329 48.5885 47.809 48.5699 47.7914C48.5514 47.7738 48.5266 47.7639 48.5008 47.7639C48.475 47.7639 48.4503 47.7738 48.4317 47.7914C48.4132 47.809 48.4023 47.8329 48.4014 47.8582C48.425 49.5571 48.4487 51.2559 48.4722 52.9547C48.479 53.4401 48.4857 53.9255 48.4925 54.4108C48.4934 54.4361 48.5042 54.4601 48.5228 54.4777C48.5413 54.4953 48.5661 54.5052 48.5919 54.5052C48.6177 54.5052 48.6424 54.4953 48.661 54.4777C48.6795 54.4601 48.6904 54.4361 48.6913 54.4108C48.6677 52.712 48.6441 51.0132 48.6205 49.3144Z" fill="white"/>
<path d="M47.6977 44.5313C47.6902 44.4063 47.4913 44.4055 47.4989 44.5313C47.5331 45.1025 47.5673 45.6737 47.6015 46.245C47.609 46.3699 47.8078 46.3707 47.8003 46.245C47.7661 45.6737 47.7319 45.1025 47.6977 44.5313Z" fill="white"/>
<path d="M35.4876 40.4298C35.1145 38.778 34.7414 37.1262 34.3683 35.4745C34.3385 35.3719 34.2757 35.2815 34.1893 35.2169C34.1029 35.1523 33.9976 35.1169 33.889 35.116C33.7812 35.1197 33.6772 35.1561 33.5913 35.2203C33.5055 35.2845 33.4421 35.3733 33.4098 35.4745C33.1885 36.0031 32.9857 36.5385 32.7968 37.0785C32.7669 37.1063 32.7403 37.1375 32.7175 37.1712C31.9652 38.2912 31.4747 39.5609 31.2812 40.8892C31.1061 42.1177 31.12 43.5811 32.0994 44.506C32.9935 45.3504 34.4399 45.4685 35.2607 44.4601C36.2186 43.2833 35.7882 41.7605 35.4876 40.4298Z" fill="#F69812"/>
<path d="M33.8187 44.8472C33.8187 44.7695 33.7872 44.695 33.7313 44.64C33.6754 44.5851 33.5995 44.5542 33.5204 44.5542C33.4413 44.5542 33.3655 44.5851 33.3096 44.64C33.2536 44.695 33.2222 44.7695 33.2222 44.8472C33.2276 45.452 33.233 46.0568 33.2384 46.6615C33.2384 46.7392 33.2698 46.8138 33.3257 46.8687C33.3816 46.9236 33.4575 46.9545 33.5366 46.9545C33.6157 46.9545 33.6915 46.9236 33.7474 46.8687C33.8034 46.8138 33.8348 46.7392 33.8348 46.6615C33.8294 46.0568 33.824 45.452 33.8187 44.8472Z" fill="#FD9249"/>
<path d="M31.046 61.2786C31.046 61.2786 29.8531 46.6301 30.8472 46.4348C31.8412 46.2395 36.215 46.0442 36.4138 46.6301C36.6126 47.2161 36.4138 60.8879 36.0162 61.2786C35.6186 61.6692 31.046 61.2786 31.046 61.2786Z" fill="#FFE8B5"/>
<path d="M30.9073 59.4396C32.7617 58.6181 34.5808 57.7259 36.3645 56.7629C36.3771 56.3926 36.3888 56.0113 36.3997 55.6231C34.5852 56.6272 32.7304 57.5563 30.8355 58.4104C30.8606 58.7805 30.8848 59.1257 30.9073 59.4396ZM35.9765 46.3934C35.5141 46.302 35.0441 46.2537 34.5725 46.2493C33.2942 47.2049 31.9165 48.0247 30.4623 48.695C30.4541 49.0297 30.4509 49.3917 30.4521 49.7752C32.0242 49.0895 33.5146 48.2357 34.8963 47.2293C35.2644 46.9605 35.6244 46.6819 35.9765 46.3934ZM33.7404 61.4378C34.5636 61.008 35.3819 60.5694 36.1954 60.1222C36.2222 59.79 36.2475 59.3985 36.2711 58.9605C34.7984 59.7829 33.3087 60.5747 31.8019 61.3358C32.3215 61.372 33.0406 61.4157 33.7404 61.4378ZM36.4893 48.6178C34.607 49.9376 32.6003 51.077 30.4966 52.0204C30.508 52.3666 30.5212 52.7183 30.5359 53.0726C32.2263 52.3404 33.8576 51.4831 35.4158 50.5081C35.7787 50.2807 36.1372 50.0468 36.4912 49.8063C36.4923 49.3794 36.4917 48.9793 36.4893 48.6178ZM30.7043 56.3553C32.6722 55.5141 34.5901 54.5643 36.4489 53.5106C36.4563 53.1261 36.4627 52.7432 36.4682 52.3662C34.5875 53.4621 32.6431 54.4487 30.645 55.3212C30.6643 55.6716 30.6841 56.0173 30.7043 56.3553Z" fill="#FFC956"/>
<path d="M32.8607 38.2433C32.0469 39.7511 31.8401 41.5044 32.2815 43.1551C32.2892 43.1792 32.3062 43.1995 32.3288 43.2116C32.3514 43.2238 32.378 43.2268 32.4028 43.22C32.4277 43.2133 32.4489 43.1974 32.462 43.1755C32.4752 43.1537 32.4791 43.1278 32.4732 43.1031C32.0448 41.5033 32.2444 39.8038 33.0324 38.3418C33.0926 38.231 32.921 38.1322 32.8607 38.2433Z" fill="white"/>
<path d="M33.137 39.7673C33.0344 40.5065 32.9318 41.2458 32.8292 41.985C32.8121 42.108 33.0037 42.1611 33.0209 42.037C33.1235 41.2977 33.2261 40.5585 33.3287 39.8192C33.3458 39.6963 33.1543 39.6431 33.137 39.7673Z" fill="white"/>
<path d="M34.3448 42.9698C34.07 42.5057 33.9649 41.9631 34.047 41.4322C34.0666 41.3092 33.8751 41.2563 33.8553 41.3803C33.761 41.9622 33.8732 42.5582 34.1732 43.0684C34.1869 43.0898 34.2086 43.1052 34.2337 43.1112C34.2587 43.1172 34.2852 43.1134 34.3075 43.1006C34.3297 43.0878 34.3461 43.067 34.353 43.0426C34.36 43.0182 34.357 42.9921 34.3448 42.9698Z" fill="white"/>
<path d="M31.9075 51.2067C31.9259 50.5268 31.9512 49.8471 31.9834 49.1676C31.9893 49.042 31.7905 49.0423 31.7846 49.1676C31.6709 51.578 31.6435 53.9903 31.7024 56.4044C31.7192 57.0844 31.7429 57.7641 31.7735 58.4436C31.7791 58.5688 31.978 58.5695 31.9723 58.4436C31.8644 56.033 31.8427 53.6207 31.9075 51.2067Z" fill="white"/>
<path d="M33.3323 50.4789C33.3449 50.3539 33.146 50.3548 33.1335 50.4789C32.9979 51.8197 32.9979 53.1704 33.1335 54.5112C33.146 54.6351 33.3449 54.6363 33.3323 54.5112C33.1967 53.1704 33.1967 51.8197 33.3323 50.4789Z" fill="white"/>
<path d="M21.0607 94.2667C21.0607 94.2667 17.091 80.3302 17.5848 67.7672C17.5848 67.7672 33.5086 65.2534 40.903 64.8186C48.2973 64.3839 81.2993 65.5558 81.2993 65.5558C81.2993 65.5558 81.2993 83.3292 78.1184 93.6808C78.1184 93.6808 46.9057 98.9542 21.0607 94.2667Z" fill="#FFB361"/>
<path d="M25.0369 91.1417C21.6572 87.6261 21.0607 74.9308 21.4584 72.9777C21.856 71.0245 24.2417 70.8292 26.0309 71.4152C27.8202 72.0011 31.1999 72.1964 32.1939 71.6105C33.188 71.0245 36.7665 69.6573 38.7546 70.4386C40.7427 71.2198 45.3152 71.6105 47.3033 71.4152C49.2914 71.2198 50.0866 70.6339 51.2923 69.8337C52.4979 69.0336 53.4663 70.8292 55.852 71.8058C58.2377 72.7823 62.2138 73.3683 63.6055 72.9587C64.9971 72.5492 65.9912 70.8292 67.7804 70.2433C69.5697 69.6573 71.9554 71.0245 76.9256 70.6339C78.3909 70.5391 79.8345 70.2362 81.2113 69.7344C81.2992 67.1818 81.2993 65.5558 81.2993 65.5558C81.2993 65.5558 48.2973 64.3839 40.903 64.8186C33.5087 65.2534 17.5848 67.7672 17.5848 67.7672C17.091 80.3302 21.0607 94.2667 21.0607 94.2667C46.9057 98.9542 78.1184 93.6808 78.1184 93.6808C78.1184 93.6808 53.2675 95.048 46.9057 95.048C40.5438 95.048 28.4166 94.6573 25.0369 91.1417Z" fill="#E0923D"/>
<path d="M16.7062 69.4304C16.7062 69.4304 14.3013 68.6807 14.1025 65.5557C13.9037 62.4307 15.3595 59.1293 20.2976 58.2409C25.2357 57.3526 29.3337 59.8286 33.9447 60.0554C38.5558 60.2822 47.8997 60.0869 54.858 59.3057C61.8162 58.5244 58.2377 59.1104 64.5995 59.3057C70.9613 59.501 73.5458 56.9619 76.9256 57.9385C80.3053 58.9151 89.2516 63.7979 83.8838 66.7276C78.516 69.6573 74.3411 65.9463 70.9613 68.2901C67.5816 70.6338 70.1661 72.7823 64.5995 72.9776C59.0329 73.1729 57.032 69.1721 54.0563 68.9264C51.0806 68.6807 49.689 72.001 45.7128 71.8057C41.7367 71.6104 39.351 67.8994 37.1641 68.0948C34.9772 68.2901 33.2778 72.4861 30.2508 71.9506C27.2238 71.415 27.025 68.4854 24.0429 68.4854C21.0607 68.4854 19.7076 70.7661 16.7062 69.4304Z" fill="#FF3D7C"/>
<path d="M80.7401 59.6059C79.5313 58.9209 78.2528 58.362 76.9256 57.9385C73.5458 56.9619 70.9613 59.501 64.5995 59.3057C58.2377 59.1104 61.8162 58.5244 54.858 59.3057C47.8997 60.0869 38.5558 60.2822 33.9447 60.0554C29.3337 59.8286 25.2357 57.3526 20.2976 58.2409C15.3595 59.1293 13.9037 62.4307 14.1025 65.5557C14.1273 65.9819 14.203 66.4037 14.3279 66.8125C14.8422 65.3861 16.2934 62.1574 19.23 60.9178C23.0488 59.3057 24.6393 59.501 28.4166 60.8682C32.194 62.2354 37.7605 64.5791 41.7367 63.7979C45.7128 63.0166 45.7223 62.211 49.2961 61.5396C52.8699 60.8682 55.4544 59.6963 59.0329 60.6729C62.6114 61.6494 64.0031 64.1885 67.3828 62.8213C70.7625 61.4541 70.3649 59.8916 74.5399 59.8916C76.9922 59.8916 79.0303 59.7567 80.7401 59.6059Z" fill="#FF85AD"/>
<path d="M80.9854 74.4529C73.247 76.3162 65.3076 77.2533 57.3401 77.2435C52.9458 77.235 48.5939 76.8677 44.2299 76.3942C39.8078 75.9144 35.5026 75.7148 31.0995 76.4747C26.7604 77.2237 22.291 78.496 17.939 77.3982C18.0233 78.236 18.1184 79.0619 18.2216 79.8711C21.7644 80.5533 25.4313 79.9422 28.9606 79.2576C31.1437 78.8341 33.3236 78.3989 35.5515 78.2885C37.8047 78.208 40.0608 78.2915 42.3014 78.5382C46.8128 78.9724 51.287 79.4965 55.8259 79.5732C60.2437 79.6476 64.6616 79.433 69.0504 78.931C73.009 78.4783 76.9376 77.8008 80.8165 76.9019C80.8811 76.0601 80.9369 75.2413 80.9854 74.4529Z" fill="#F7E8C6"/>
<path d="M80.3592 81.7644C73.0778 84.7194 65.2388 86.1151 57.3651 85.8584C52.7191 85.7036 48.1438 84.8279 43.5102 84.5321C38.7487 84.2281 34.2212 85.1106 29.5268 85.7002C26.0059 86.1424 22.2617 86.2283 18.9883 84.8988C19.1582 85.8618 19.3322 86.7749 19.5036 87.6259C26.3862 89.6929 34.3631 86.6734 41.3959 86.7874C46.2734 86.8666 51.0751 87.8504 55.9373 88.1364C60.4487 88.3908 64.9749 88.122 69.4222 87.3354C73.0463 86.697 76.5987 85.7148 80.0297 84.4025C80.1508 83.524 80.2601 82.6419 80.3592 81.7644Z" fill="#F7E8C6"/>
<path d="M34.9773 93.6807C35.7459 93.6807 36.369 93.0686 36.369 92.3135C36.369 91.5584 35.7459 90.9463 34.9773 90.9463C34.2088 90.9463 33.5857 91.5584 33.5857 92.3135C33.5857 93.0686 34.2088 93.6807 34.9773 93.6807Z" fill="#E0923D"/>
<path d="M39.7485 90.165C40.0779 90.165 40.3449 89.9027 40.3449 89.5791C40.3449 89.2555 40.0779 88.9932 39.7485 88.9932C39.4191 88.9932 39.1521 89.2555 39.1521 89.5791C39.1521 89.9027 39.4191 90.165 39.7485 90.165Z" fill="#E0923D"/>
<path d="M47.6014 91.7275C47.9857 91.7275 48.2972 91.4215 48.2972 91.0439C48.2972 90.6664 47.9857 90.3604 47.6014 90.3604C47.2171 90.3604 46.9056 90.6664 46.9056 91.0439C46.9056 91.4215 47.2171 91.7275 47.6014 91.7275Z" fill="#E0923D"/>
<path d="M38.3571 81.1807C38.7962 81.1807 39.1523 80.8309 39.1523 80.3994C39.1523 79.9679 38.7962 79.6182 38.3571 79.6182C37.9179 79.6182 37.5618 79.9679 37.5618 80.3994C37.5618 80.8309 37.9179 81.1807 38.3571 81.1807Z" fill="#E0923D"/>
<path d="M26.6274 83.915C27.0666 83.915 27.4227 83.5653 27.4227 83.1338C27.4227 82.7023 27.0666 82.3525 26.6274 82.3525C26.1883 82.3525 25.8322 82.7023 25.8322 83.1338C25.8322 83.5653 26.1883 83.915 26.6274 83.915Z" fill="#E0923D"/>
<path d="M25.6332 75.7119C26.0724 75.7119 26.4284 75.3621 26.4284 74.9307C26.4284 74.4992 26.0724 74.1494 25.6332 74.1494C25.194 74.1494 24.838 74.4992 24.838 74.9307C24.838 75.3621 25.194 75.7119 25.6332 75.7119Z" fill="#E0923D"/>
<path d="M52.174 74.3447C52.4485 74.3447 52.671 74.1261 52.671 73.8564C52.671 73.5868 52.4485 73.3682 52.174 73.3682C51.8995 73.3682 51.6769 73.5868 51.6769 73.8564C51.6769 74.1261 51.8995 74.3447 52.174 74.3447Z" fill="#E0923D"/>
<path d="M71.0606 74.54C71.5547 74.54 71.9553 74.1465 71.9553 73.6611C71.9553 73.1757 71.5547 72.7822 71.0606 72.7822C70.5665 72.7822 70.166 73.1757 70.166 73.6611C70.166 74.1465 70.5665 74.54 71.0606 74.54Z" fill="#E0923D"/>
<path d="M65.9911 75.3213C66.2107 75.3213 66.3887 75.1464 66.3887 74.9307C66.3887 74.7149 66.2107 74.54 65.9911 74.54C65.7715 74.54 65.5934 74.7149 65.5934 74.9307C65.5934 75.1464 65.7715 75.3213 65.9911 75.3213Z" fill="#E0923D"/>
<path d="M64.7982 83.1338C65.1276 83.1338 65.3946 82.8715 65.3946 82.5479C65.3946 82.2242 65.1276 81.9619 64.7982 81.9619C64.4688 81.9619 64.2018 82.2242 64.2018 82.5479C64.2018 82.8715 64.4688 83.1338 64.7982 83.1338Z" fill="#E0923D"/>
<path d="M70.0666 91.5322C70.5607 91.5322 70.9612 91.1387 70.9612 90.6533C70.9612 90.1679 70.5607 89.7744 70.0666 89.7744C69.5725 89.7744 69.172 90.1679 69.172 90.6533C69.172 91.1387 69.5725 91.5322 70.0666 91.5322Z" fill="#E0923D"/>
<path d="M19.7689 60.0496C18.4522 60.8309 17.4388 62.0218 16.8892 63.4333C16.7331 63.8339 16.618 64.2488 16.5453 64.6718C16.5242 64.7947 16.7157 64.8476 16.737 64.7237C16.9932 63.27 17.7383 61.9427 18.8531 60.9541C19.1666 60.6768 19.5069 60.4303 19.8693 60.2182C19.8911 60.2047 19.9067 60.1833 19.9128 60.1587C19.9189 60.1341 19.915 60.1081 19.902 60.0862C19.889 60.0644 19.8679 60.0483 19.843 60.0415C19.8182 60.0346 19.7916 60.0375 19.7689 60.0496Z" fill="white"/>
<path d="M20.5588 60.9105C19.4111 62.0645 18.7216 63.5837 18.6149 65.1937C18.6068 65.3192 18.8057 65.3187 18.8137 65.1937C18.919 63.6353 19.5878 62.1652 20.6994 61.0486C20.7891 60.9589 20.6486 60.8207 20.5588 60.9105Z" fill="white"/>
<path d="M21.8337 61.9392L21.2175 63.6527C21.1748 63.7714 21.3668 63.8225 21.4092 63.7046C21.6146 63.1334 21.82 62.5623 22.0254 61.9911C22.0681 61.8724 21.8761 61.8213 21.8337 61.9392Z" fill="white"/>
<path d="M23.0667 62.3442C22.9254 62.847 22.7841 63.3498 22.6427 63.8526C22.6367 63.8772 22.6407 63.9032 22.6538 63.925C22.6669 63.9468 22.6882 63.9628 22.713 63.9695C22.7379 63.9762 22.7645 63.9732 22.7871 63.9611C22.8097 63.949 22.8267 63.9287 22.8344 63.9045C22.9757 63.4017 23.1171 62.8989 23.2584 62.3961C23.2644 62.3714 23.2604 62.3455 23.2473 62.3237C23.2342 62.3018 23.213 62.2859 23.1881 62.2791C23.1632 62.2724 23.1367 62.2754 23.114 62.2876C23.0914 62.2997 23.0744 62.32 23.0667 62.3442Z" fill="white"/>
<path d="M30.9423 69.4631C30.4634 69.0262 29.9845 68.5894 29.5057 68.1526C29.412 68.0672 29.2711 68.205 29.3651 68.2907C29.8439 68.7276 30.3228 69.1644 30.8017 69.6012C30.8954 69.6866 31.0363 69.5488 30.9423 69.4631Z" fill="white"/>
<path d="M45.6894 69.9698C44.6128 69.4442 43.6317 68.7481 42.7852 67.9094C42.7664 67.8921 42.7414 67.8826 42.7156 67.8831C42.6898 67.8835 42.6652 67.8938 42.647 67.9117C42.6288 67.9296 42.6183 67.9538 42.6179 67.9791C42.6174 68.0045 42.627 68.029 42.6447 68.0475C43.5029 68.8983 44.4976 69.6047 45.589 70.1384C45.7032 70.1942 45.8041 70.0258 45.6894 69.9698Z" fill="white"/>
<path d="M46.5986 68.2275C45.7971 67.9856 45.0422 67.6141 44.3649 67.1285C44.2614 67.0543 44.1621 67.2237 44.2646 67.2971C44.9565 67.7918 45.7275 68.1698 46.5457 68.4158C46.6684 68.4528 46.7208 68.2643 46.5986 68.2275Z" fill="white"/>
<path d="M47.5977 66.4965C47.0171 66.5167 46.4491 66.3273 46.001 65.9641C45.9034 65.8842 45.762 66.0216 45.8604 66.1022C46.3465 66.5012 46.9647 66.711 47.5977 66.6918C47.7253 66.6876 47.7259 66.4922 47.5977 66.4965Z" fill="white"/>
<path d="M80.4647 63.1083C80.0179 62.2436 79.3797 61.488 78.597 60.8971C77.8143 60.3061 76.907 59.8947 75.9414 59.693C75.3951 59.5781 74.8355 59.5363 74.2779 59.5688C74.1507 59.5763 74.1499 59.7717 74.2779 59.7641C75.238 59.7194 76.1961 59.887 77.0815 60.2545C77.967 60.6219 78.7572 61.1799 79.394 61.8872C79.7528 62.2853 80.0552 62.7292 80.2931 63.2069C80.3493 63.3198 80.5208 63.2209 80.4647 63.1083Z" fill="white"/>
<path d="M77.2359 63.0303C76.6442 62.0809 75.773 61.3305 74.7375 60.8784C74.6215 60.8281 74.5203 60.9963 74.6372 61.0471C75.6425 61.4829 76.4891 62.209 77.0642 63.1289C77.1309 63.2359 77.3029 63.1379 77.2359 63.0303Z" fill="white"/>
<path d="M75.796 64.1081C75.3159 63.6053 74.8357 63.1024 74.3556 62.5996C74.2679 62.5077 74.1275 62.646 74.215 62.7377C74.6952 63.2405 75.1753 63.7434 75.6554 64.2462C75.7431 64.3381 75.8835 64.1998 75.796 64.1081Z" fill="white"/>
<path d="M64.9226 70.3891C64.6225 69.8454 64.4517 69.2419 64.4231 68.6239C64.4174 68.4988 64.2186 68.4981 64.2243 68.6239C64.2542 69.2763 64.4342 69.9136 64.751 70.4877C64.8119 70.5983 64.9837 70.4998 64.9226 70.3891Z" fill="white"/>
<path d="M65.9623 67.8175C65.9538 67.6928 65.755 67.6919 65.7635 67.8175C65.7977 68.3216 65.8319 68.8256 65.8661 69.3297C65.8746 69.4544 66.0734 69.4553 66.0649 69.3297C66.0307 68.8256 65.9965 68.3216 65.9623 67.8175Z" fill="white"/>
<path d="M78.0895 72.8571C78.084 72.7319 77.8852 72.7312 77.8907 72.8571C77.9996 75.3489 78.0049 77.8422 77.9067 80.337C77.808 82.8291 77.6057 85.3145 77.2996 87.7931C77.1262 89.197 76.9193 90.5963 76.6789 91.991C76.6577 92.114 76.8493 92.1668 76.8706 92.0429C77.295 89.5752 77.6166 87.0932 77.8353 84.5969C78.0537 82.0961 78.1671 79.5893 78.1753 77.0765C78.1799 75.6696 78.1513 74.2631 78.0895 72.8571Z" fill="white"/>
<path d="M76.4449 74.2689C76.444 74.2436 76.4331 74.2196 76.4146 74.202C76.396 74.1844 76.3713 74.1746 76.3455 74.1746C76.3197 74.1746 76.2949 74.1844 76.2764 74.202C76.2578 74.2196 76.247 74.2436 76.2461 74.2689C76.2864 76.1999 76.286 78.1311 76.2448 80.0626C76.2034 81.9855 76.1213 83.9069 75.9984 85.827C75.9287 86.9158 75.846 88.0036 75.7501 89.0906C75.7391 89.2158 75.938 89.2151 75.9489 89.0906C76.1183 87.1664 76.247 85.2393 76.3349 83.3093C76.4222 81.388 76.4687 79.4654 76.4745 77.5415C76.4777 76.4506 76.4678 75.3597 76.4449 74.2689Z" fill="white"/>
<path d="M74.5805 78.6035C74.5121 80.3508 74.4437 82.0981 74.3753 83.8454C74.3704 83.9711 74.5692 83.9709 74.5741 83.8454C74.6425 82.0981 74.7109 80.3508 74.7793 78.6035C74.7843 78.4778 74.5854 78.478 74.5805 78.6035Z" fill="white"/>
<path d="M23.838 91.7139C23.4875 90.0602 23.1369 88.4065 22.7863 86.7527C22.4357 85.099 22.0851 83.4452 21.7345 81.7915L21.1378 78.977C21.1117 78.854 20.9201 78.906 20.9461 79.0289C21.2967 80.6826 21.6473 82.3364 21.9979 83.9901C22.3485 85.6439 22.6991 87.2976 23.0497 88.9513C23.2485 89.8895 23.4474 90.8277 23.6464 91.7659C23.6724 91.8888 23.8641 91.8368 23.838 91.7139Z" fill="white"/>
<path d="M25.4775 89.28C24.7248 86.975 23.9722 84.67 23.2195 82.365C23.0074 81.7152 22.7952 81.0655 22.5831 80.4158C22.5441 80.2965 22.3521 80.3475 22.3914 80.4677C23.144 82.7727 23.8967 85.0777 24.6493 87.3827C24.8615 88.0324 25.0736 88.6822 25.2858 89.3319C25.3247 89.4511 25.5168 89.4001 25.4775 89.28Z" fill="white"/>
<path d="M27.2747 88.2553C26.9327 87.1801 26.5907 86.1048 26.2486 85.0295C26.2106 84.9099 26.0186 84.961 26.0569 85.0814C26.399 86.1567 26.741 87.232 27.083 88.3072C27.1211 88.4268 27.313 88.3758 27.2747 88.2553Z" fill="white"/>
<path d="M58.3755 76.8902V84.0475C58.3764 84.0728 58.3873 84.0968 58.4058 84.1144C58.4244 84.132 58.4492 84.1418 58.475 84.1418C58.5007 84.1418 58.5255 84.132 58.5441 84.1144C58.5626 84.0968 58.5735 84.0728 58.5744 84.0475V76.8902C58.5735 76.8649 58.5626 76.8409 58.5441 76.8233C58.5255 76.8057 58.5007 76.7959 58.475 76.7959C58.4492 76.7959 58.4244 76.8057 58.4058 76.8233C58.3873 76.8409 58.3764 76.8649 58.3755 76.8902Z" fill="white"/>
<path d="M60.6031 77.5943C60.5347 78.9048 60.4663 80.2153 60.3979 81.5258C60.3913 81.6514 60.5902 81.6511 60.5967 81.5258C60.6651 80.2153 60.7335 78.9048 60.8019 77.5943C60.8084 77.4687 60.6096 77.469 60.6031 77.5943Z" fill="white"/>
<path d="M63.7961 86.9695C63.7294 87.8433 63.6627 88.7171 63.596 89.5909C63.5864 89.7163 63.7853 89.7156 63.7948 89.5909C63.8615 88.7171 63.9282 87.8433 63.9949 86.9695C64.0045 86.8442 63.8056 86.8448 63.7961 86.9695Z" fill="white"/>
<path d="M45.4866 83.1344C44.7198 81.1995 44.108 79.2088 43.6565 77.1805C43.5287 76.6055 43.4139 76.0279 43.3122 75.4478C43.2904 75.3242 43.0988 75.3766 43.1204 75.4997C43.4799 77.5458 44.0012 79.5612 44.6798 81.5276C44.8723 82.0849 45.0773 82.6378 45.2949 83.1863C45.3407 83.3022 45.5331 83.2518 45.4866 83.1344Z" fill="white"/>
<path d="M47.4134 76.6821L47.2981 75.2763C47.2879 75.1519 47.089 75.1508 47.0993 75.2763C47.2345 76.9245 47.3696 78.5726 47.5048 80.2208L47.6201 81.6265C47.6303 81.751 47.8292 81.752 47.8189 81.6265C47.6837 79.9784 47.5486 78.3302 47.4134 76.6821Z" fill="white"/>
<path d="M45.1131 93.446C44.1378 92.3182 43.1625 91.1904 42.1872 90.0626C42.1042 89.9667 41.9642 90.1054 42.0466 90.2008C43.0219 91.3285 43.9972 92.4563 44.9725 93.5841C45.0554 93.68 45.1955 93.5413 45.1131 93.446Z" fill="white"/>
<path d="M47.187 93.7652L43.999 89.355C43.6987 88.9397 43.3985 88.5244 43.0983 88.1091C43.0248 88.0075 42.8523 88.1049 42.9266 88.2077C43.9893 89.6778 45.052 91.1478 46.1147 92.6179L47.0153 93.8638C47.0888 93.9655 47.2613 93.868 47.187 93.7652Z" fill="white"/>
</svg>
