<svg width="84" height="100" viewBox="0 0 84 100" fill="none" xmlns="http://www.w3.org/2000/svg">
<path d="M58.3785 25.3922C59.7168 23.1485 62.167 21.6448 64.9693 21.6448C69.2053 21.6448 72.6391 25.0788 72.6391 29.3145C72.6391 29.6198 72.6191 29.9204 72.5846 30.2165C73.5082 29.9573 74.4443 29.8223 75.3686 29.8223C76.2246 29.8223 77.0324 29.9403 77.7807 30.1672C77.7992 29.8852 77.8119 29.6014 77.8119 29.3147C77.8119 22.2217 72.0619 16.4719 64.9691 16.4719C60.742 16.4719 56.9928 18.5147 54.6523 21.6665L58.3785 25.3922Z" fill="#FED2A4"/>
<path d="M13.1779 50.8864L13.4434 50.8386L13.315 50.6013C13.0953 50.195 12.9068 49.7839 12.7457 49.3712C9.02519 48.8427 6.16367 45.646 6.16367 41.7796C6.16367 37.5437 9.59765 34.1099 13.8334 34.1099C16.05 34.1099 18.0459 35.0513 19.4461 36.5548C19.7451 35.2397 20.3664 34.0786 21.2896 33.1554C21.6381 32.8069 22.0201 32.5022 22.431 32.2405C20.1547 30.1876 17.1404 28.937 13.8336 28.937C6.74082 28.937 0.990814 34.687 0.990814 41.7798C0.990814 46.9136 4.0041 51.3421 8.35781 53.3978C9.46952 52.1558 11.1531 51.2511 13.1779 50.8864Z" fill="#FED2A4"/>
<path d="M47.9418 37.8123C48.4979 37.5474 49.1164 37.4123 49.7861 37.4123C50.8982 37.4123 52.1418 37.7888 53.3822 38.5015L53.6375 38.648L53.6734 38.3558C54.3006 33.2592 56.9969 29.5597 60.0844 29.5597C62.3217 29.5597 64.3834 31.4683 65.5992 34.6652L65.7199 34.9826L65.9336 34.7185C66.244 34.3349 66.5695 33.972 66.9012 33.6383L46.6719 13.4092C46.2588 12.9961 45.585 13.0234 45.1988 13.4619C40.901 18.3416 39.9203 25.1176 42.249 30.8668C44.7914 31.1259 47.0127 33.8836 47.9418 37.8123Z" fill="#FB2B3A"/>
<path d="M47.9418 37.8123C48.4979 37.5474 49.1164 37.4123 49.7861 37.4123C49.9865 37.4123 50.1926 37.4287 50.4008 37.4531C45.4443 31.459 45.2906 22.8324 49.9338 16.6711L46.6719 13.4092C46.2588 12.9961 45.585 13.0234 45.1988 13.4619C40.901 18.3416 39.9203 25.1176 42.249 30.8668C44.7914 31.1259 47.0127 33.8836 47.9418 37.8123Z" fill="#E41F2D"/>
<path d="M50.357 33.1522C49.9822 33.1522 49.6072 33.0092 49.3213 32.7231C48.7492 32.151 48.7492 31.2235 49.3213 30.6516L50.9428 29.0301C51.5149 28.4581 52.4424 28.4581 53.0143 29.0301C53.5863 29.6022 53.5863 30.5297 53.0143 31.1016L51.3928 32.7231C51.1067 33.0092 50.7318 33.1522 50.357 33.1522Z" fill="#FE646F"/>
<path d="M49.857 25.9507H47.5639C46.7549 25.9507 46.099 25.2948 46.099 24.4858C46.099 23.6769 46.7549 23.021 47.5639 23.021H49.857C50.666 23.021 51.3219 23.6769 51.3219 24.4858C51.3219 25.2948 50.666 25.9507 49.857 25.9507Z" fill="#FE646F"/>
<path d="M34.3787 20.9094C39.9734 15.3146 40.2187 6.39628 35.1146 0.509948C34.7318 0.0685417 34.0541 0.044323 33.641 0.457409L13.9268 20.1719C13.5137 20.5849 13.5379 21.2627 13.9793 21.6455C19.8654 26.7494 28.784 26.5041 34.3787 20.9094Z" fill="#FD4755"/>
<path d="M17.7072 17.0644C17.5783 16.9526 17.4894 16.8146 17.4322 16.6665L13.9266 20.1722C13.5135 20.5853 13.5377 21.263 13.9791 21.6458C19.8654 26.7499 28.7838 26.5046 34.3785 20.9099C35.4717 19.8167 36.3578 18.5954 37.0426 17.2956C31.4307 21.9325 23.233 21.8558 17.7072 17.0644Z" fill="#FB2B3A"/>
<path d="M30.1475 18.4323C29.7727 18.4323 29.3977 18.2894 29.1117 18.0032L27.6654 16.5569C27.0934 15.9849 27.0934 15.0573 27.6654 14.4854C28.2375 13.9134 29.165 13.9134 29.7369 14.4854L31.1832 15.9317C31.7553 16.5038 31.7553 17.4313 31.1832 18.0032C30.8973 18.2892 30.5223 18.4323 30.1475 18.4323Z" fill="#E41F2D"/>
<path d="M23.724 20.9235C22.915 20.9235 22.2592 20.2676 22.2592 19.4586V17.4133C22.2592 16.6043 22.915 15.9485 23.724 15.9485C24.533 15.9485 25.1889 16.6043 25.1889 17.4133V19.4586C25.1889 20.2676 24.533 20.9235 23.724 20.9235Z" fill="#E41F2D"/>
<path d="M32.9279 12.1287H30.8826C30.0736 12.1287 29.4178 11.4728 29.4178 10.6638C29.4178 9.85483 30.0736 9.19897 30.8826 9.19897H32.9279C33.7369 9.19897 34.3928 9.85483 34.3928 10.6638C34.3928 11.4728 33.7369 12.1287 32.9279 12.1287Z" fill="#E41F2D"/>
<path d="M24.5176 62.2431C24.5176 61.2957 24.6256 60.3734 24.8242 59.4849C21.3035 58.3685 18.9641 56.164 18.9641 53.7078C18.9641 51.4711 20.8719 49.4097 24.0672 48.1937L24.384 48.0732L24.1209 47.8595C23.7324 47.5443 23.3654 47.2144 23.0303 46.8793C20.9949 44.8439 19.6885 42.3242 19.3365 39.7695C17.4703 39.3636 15.6283 39.6525 14.1947 40.7422C11.4975 42.7924 11.1422 46.9939 13.1436 50.6943C9.76035 51.3039 7.15 53.4597 6.75821 56.3345C6.43594 58.6984 7.69043 60.9945 9.86758 62.5662H24.5258C24.523 62.4584 24.5176 62.3513 24.5176 62.2431Z" fill="#80D261"/>
<path d="M44.9711 62.566C44.9879 62.5453 45.0068 62.5252 45.0234 62.5045C45.0264 62.4176 45.0301 62.3307 45.0301 62.243C45.0301 57.9061 41.502 54.3779 37.165 54.3779C32.8281 54.3779 29.2998 57.9061 29.2998 62.243C29.2998 62.3514 29.3057 62.4586 29.31 62.566H44.9711Z" fill="#017B4E"/>
<path d="M37.165 49.5957C41.5717 49.5957 45.457 51.8624 47.7221 55.2896C47.6537 54.0242 47.7291 52.7523 47.9492 51.4998C47.8018 51.2681 47.657 51.0332 47.5178 50.7919C46.0344 48.2226 45.24 45.464 45.2811 43.024C45.3215 40.6205 46.1688 38.8205 47.6666 37.9556C47.8137 37.8707 47.9662 37.7964 48.1229 37.7314C47.1314 33.5822 44.6998 30.6492 41.8568 30.6492C39.4588 30.6492 37.3547 32.7375 36.1594 35.8804C35.8477 35.4951 35.5131 35.1193 35.1516 34.7578C30.8049 30.4111 24.5367 29.6318 21.1514 33.0171C17.766 36.4025 18.5453 42.6707 22.892 47.0173C23.2482 47.3736 23.6184 47.7033 23.9977 48.0111C20.8559 49.2066 18.7686 51.3103 18.7686 53.7076C18.7686 56.299 21.2063 58.5474 24.7797 59.6761C25.9693 53.9289 31.0705 49.5957 37.165 49.5957Z" fill="#017B4E"/>
<path d="M33.0096 60.1107C31.9662 59.9035 30.9908 59.6066 30.1076 59.2361C29.6982 60.1957 29.4783 61.2552 29.4961 62.3685C29.4969 62.3693 29.4975 62.3699 29.4982 62.3707H33.4078C33.4924 62.0675 33.5984 61.7617 33.7256 61.4542C33.9641 60.8771 33.6221 60.2324 33.0096 60.1107Z" fill="#026841"/>
<path d="M18.7688 53.7078C18.7688 56.2537 21.1207 58.4699 24.592 59.6172C24.8611 58.3217 25.3273 57.0988 25.9547 55.9785C25.5316 55.2689 25.2998 54.5049 25.2998 53.708C25.2998 51.6646 26.8158 49.8348 29.2088 48.5986C29.8004 48.293 29.9053 47.4986 29.4338 47.0283C29.4303 47.0248 29.4268 47.0213 29.4231 47.0176C25.0764 42.6709 24.2971 36.4027 27.6824 33.0174C28.35 32.3498 29.1309 31.8467 29.9857 31.4984C26.7006 30.3877 23.3293 30.8392 21.1512 33.0174C17.7658 36.4027 18.5451 42.6709 22.8918 47.0176C23.2481 47.3736 23.6182 47.7035 23.9975 48.0113C20.8559 49.2066 18.7688 51.3103 18.7688 53.7078Z" fill="#026841"/>
<path d="M35.7408 49.6778C36.2086 49.625 36.6834 49.5954 37.165 49.5954C38.1982 49.5954 39.2019 49.7227 40.1639 49.9577L32.1767 41.9706C31.6047 41.3985 30.6771 41.3985 30.1053 41.9706C29.5332 42.5426 29.5332 43.4702 30.1053 44.042L35.7408 49.6778Z" fill="#026841"/>
<path d="M77.9436 46.7269C78.3228 46.4189 78.693 46.0892 79.0492 45.7332C83.3959 41.3865 84.1752 35.1183 80.7898 31.733C77.4045 28.3476 71.1363 29.1269 66.7896 33.4736C66.4281 33.8351 66.0937 34.2109 65.7818 34.5962C64.5865 31.4533 62.4824 29.365 60.0844 29.365C56.8271 29.365 54.1096 33.2144 53.4797 38.3324C51.3617 37.116 49.217 36.8353 47.5693 37.7867C44.3445 39.6486 44.2457 45.515 47.3488 50.8898C47.5258 51.1962 47.7115 51.4914 47.9008 51.781C48.3701 48.8128 49.6459 45.9451 51.7459 43.539C51.9141 43.3464 52.157 43.2359 52.4125 43.2359C52.6467 43.2359 52.867 43.3271 53.0324 43.4925L72.1061 62.5662H75.302C75.2658 61.4423 74.8754 60.2322 74.1832 59.0308C79.3121 58.406 83.1726 55.6853 83.1726 52.4236C83.1725 50.0259 81.0853 47.9224 77.9436 46.7269Z" fill="#68CA44"/>
<path d="M71.8361 40.6864C71.264 40.1143 70.3365 40.1143 69.7646 40.6864L60.1336 50.3174L62.2051 52.3889L71.8361 42.7579C72.4082 42.186 72.4082 41.2584 71.8361 40.6864Z" fill="#80D261"/>
<path d="M49.8125 62.2432C49.8125 62.2719 49.8115 62.3006 49.8105 62.3291L49.8035 62.5662H72.3822L53.1705 43.3545C52.7299 42.9139 52.0086 42.941 51.5988 43.4106C48.7258 46.7026 47.358 50.8512 47.4947 54.959C48.9523 57.02 49.8125 59.5323 49.8125 62.2432Z" fill="white"/>
<path d="M60.8219 62.5661H67.608C68.6479 62.1347 69.6225 61.4976 70.468 60.652L57.9619 48.146C54.5084 51.5995 54.5084 57.1985 57.9619 60.652C58.8074 61.4976 59.7821 62.1347 60.8219 62.5661Z" fill="#FEDF74"/>
<path d="M60.8275 62.5661H64.1459C63.1057 62.1349 62.1307 61.4978 61.285 60.652C58.407 57.7741 57.9297 53.4069 59.8484 50.0323L57.9621 48.146C54.5086 51.5995 54.5086 57.1985 57.9621 60.652C58.8088 61.4989 59.7857 62.1349 60.8275 62.5661Z" fill="#FED402"/>
<path d="M29.5033 62.566C29.4988 62.4587 29.4951 62.3513 29.4951 62.2429C29.4951 58.007 32.9291 54.5732 37.1648 54.5732C41.4006 54.5732 44.8346 58.0072 44.8346 62.2429C44.8346 62.3513 44.8309 62.4587 44.8264 62.566H49.9994C50.0021 62.4584 50.0076 62.3513 50.0076 62.2429C50.0076 55.15 44.2576 49.4001 37.1648 49.4001C30.0721 49.4001 24.3221 55.1502 24.3221 62.2429C24.3221 62.3513 24.3275 62.4582 24.3303 62.566H29.5033Z" fill="#FED2A4"/>
<path d="M26.9406 100H55.5223C55.9121 100 56.2994 99.9276 56.6598 99.7788C70.7363 93.9669 80.8166 80.4415 81.6328 64.4692C81.6912 63.3257 80.7678 62.3706 79.6225 62.3706H2.84043C1.69531 62.3706 0.77168 63.3255 0.830079 64.4692C1.64629 80.4415 11.7266 93.9669 25.8031 99.7788C26.1635 99.9276 26.5508 100 26.9406 100Z" fill="#D8ECFE"/>
<path d="M9.53829 71.8333H1.89005C4.93087 84.5213 13.95 94.8848 25.8031 99.779C26.1635 99.9278 26.5508 100 26.9406 100H34.5889C34.199 100 33.8117 99.9278 33.4514 99.779C21.5982 94.885 12.5791 84.5213 9.53829 71.8333Z" fill="#C4E2FF"/>
<path d="M79.6225 62.3706H2.84043C1.69531 62.3706 0.77168 63.3255 0.830079 64.4692C0.958985 66.9919 1.31953 69.4532 1.89004 71.8331H80.5729C81.1432 69.4532 81.5039 66.9919 81.6328 64.4692C81.6912 63.3257 80.7676 62.3706 79.6225 62.3706Z" fill="#EAF6FF"/>
<path d="M0.830079 64.4692C0.958985 66.9919 1.31953 69.4532 1.89004 71.8331H9.53828C8.96797 69.4532 8.60723 66.9919 8.47832 64.4692C8.41992 63.3257 9.34356 62.3706 10.4887 62.3706H2.84043C1.69531 62.3706 0.77168 63.3257 0.830079 64.4692Z" fill="#D8ECFE"/>
<path d="M66.6318 9.22999C67.119 9.09952 67.4369 8.62823 67.3705 8.12843C67.1068 6.14093 66.2125 4.2212 64.6854 2.69386C63.1582 1.16671 61.2385 0.272178 59.251 0.00870124C58.7512 -0.0575097 58.2799 0.260459 58.1494 0.747373L55.4955 10.6517C55.2951 11.3997 55.9795 12.0841 56.7275 11.8837L66.6318 9.22999Z" fill="#FE9901"/>
<path d="M59.8949 10.6519L62.469 1.04562C61.4555 0.502061 60.3639 0.156357 59.251 0.00870124C58.7512 -0.0575097 58.2799 0.260459 58.1494 0.747373L55.4955 10.6517C55.2951 11.3997 55.9795 12.0841 56.7275 11.8837L59.8686 11.0421C59.8525 10.9173 59.859 10.7857 59.8949 10.6519Z" fill="#FB8801"/>
</svg>
