<svg width="104" height="104" viewBox="0 0 104 104" fill="none" xmlns="http://www.w3.org/2000/svg">
<g clip-path="url(#clip0_201_6018)">
<path d="M54.5918 91.7008C53.7758 91.7008 52.9948 91.327 52.4833 90.6707L51.8083 89.8052C48.3014 90.8109 44.6835 91.3195 41.0269 91.3195C33.0156 91.3195 25.3422 88.9222 18.78 84.3792C18.1838 84.3623 17.6817 84.3347 17.3031 84.3091C16.6779 84.3517 15.7561 84.3966 14.6594 84.3966C8.01702 84.3966 3.74023 82.8823 1.94846 79.8962C-0.0746623 76.5241 1.62224 71.0613 3.94863 64.7727C3.55417 63.6108 3.21312 62.425 2.92915 61.2276C2.54626 60.8668 2.22938 60.4413 1.99681 59.9682C1.47031 58.8959 1.31471 57.7789 1.51906 56.7089C1.47518 56.6636 1.43212 56.6179 1.39007 56.5709C0.343572 55.4078 -0.116709 53.833 0.0222282 51.8895C0.0845875 51.0144 0.454478 49.5318 2.06912 48.2881C2.6852 42.0237 4.78815 36.0484 8.2171 30.7958C8.09888 30.5591 8.01499 30.3024 7.97092 30.0331C7.8137 29.0688 8.19496 28.0948 8.96603 27.494L11.4157 25.5846L12.4478 22.6551C12.7726 21.7334 13.5743 21.0624 14.539 20.905C14.6828 20.8815 14.827 20.8701 14.97 20.8701C15.5993 20.8701 16.2078 21.0925 16.6878 21.4953C23.5963 16.0028 32.1355 13.0081 41.0273 13.0081C43.0104 13.0081 45.0006 13.1605 46.9707 13.4615C47.378 12.8676 48.0156 12.4532 48.7456 12.334C48.8896 12.3104 49.0336 12.2992 49.1769 12.2992C49.9928 12.2992 50.7734 12.673 51.2847 13.3289L52.3361 14.6774C65.8177 18.7405 76.1181 29.8383 79.2113 43.4986H97.6214C99.0979 43.4986 100.295 44.6956 100.295 46.1721L100.295 59.4911H101.325C102.801 59.4911 103.998 60.6881 103.998 62.1646V80.8092C103.998 82.2857 102.801 83.4819 101.325 83.4819H64.5156C62.4704 85.018 60.2795 86.3509 57.9805 87.4575L57.1142 89.9157C56.7892 90.8373 55.9874 91.5084 55.0228 91.6659C54.879 91.6894 54.735 91.7008 54.5918 91.7008Z" fill="white"/>
<path d="M66.843 78.4061C81.09 64.159 81.09 41.06 66.843 26.8129C52.5959 12.5658 29.4968 12.5658 15.2497 26.8129C1.00266 41.06 1.00266 64.159 15.2497 78.4061C29.4968 92.6532 52.5959 92.6532 66.843 78.4061Z" fill="#FFA9DD"/>
<path d="M62.6133 44.4775C62.4325 42.5458 60.5493 41.233 58.6826 41.7613C56.6581 42.3343 53.7481 42.6963 49.9194 42.0668C41.6142 40.7016 33.5365 37.516 29.5545 38.3124C25.5726 39.1089 15.7883 41.1566 12.4889 42.2943C9.18958 43.432 5.66272 44.4559 6.11772 47.0726C6.57272 49.6893 7.59667 49.5755 7.59667 49.5755C7.59667 49.5755 2.81836 50.372 2.81836 52.5336C2.81836 54.6953 3.72856 56.0605 5.43502 55.9467C5.43502 55.9467 3.72856 56.6294 4.63856 59.2461C5.54877 61.8627 26.2549 59.7011 26.2549 59.7011C26.2549 59.7011 11.6923 62.5454 12.2612 65.6171C12.83 68.689 15.9018 68.689 23.2968 67.5512C30.6918 66.4135 47.8711 68.234 53.901 66.641C57.315 65.7392 60.2184 64.7646 62.0949 64.0886C63.4349 63.6057 64.2791 62.2804 64.1465 60.8621L62.6133 44.4775Z" fill="#FF8C9D"/>
<path d="M8.67175 49.8128C8.15155 49.8128 7.76886 49.7571 7.5635 49.6326C5.67018 48.4852 6.049 45.8378 6.05307 45.811C6.05855 45.7751 6.09328 45.7495 6.12863 45.7554C6.16499 45.7608 6.19018 45.7948 6.18449 45.8309C6.18063 45.8567 5.81541 48.4177 7.63216 49.5187C9.46394 50.6267 26.6902 45.8622 26.8642 45.8141C26.8994 45.8037 26.9361 45.8248 26.9459 45.8604C26.9558 45.8957 26.9351 45.9323 26.8996 45.942C26.2656 46.1183 12.9124 49.8122 8.67175 49.8128Z" fill="#512651"/>
<path d="M5.55027 56.0152C5.50619 56.0152 5.46739 56.0144 5.43387 56.0134C4.56369 55.9833 3.88931 55.7089 3.42964 55.1978C2.89664 54.6053 2.66914 53.7075 2.75344 52.5292C2.92589 50.113 7.39952 49.5335 7.58984 49.5099C7.62844 49.5064 7.65911 49.5316 7.66398 49.5678C7.66845 49.6041 7.64245 49.6373 7.60609 49.6419C7.56059 49.6474 3.05081 50.2314 2.88608 52.5389C2.80462 53.6794 3.02095 54.5446 3.52876 55.1092C3.96345 55.5923 4.60594 55.8521 5.43875 55.8807C5.47186 55.8819 5.51025 55.8825 5.55412 55.8825C7.65322 55.8825 21.669 54.5862 21.8135 54.5728C21.8515 54.5679 21.8825 54.5966 21.8858 54.6329C21.889 54.6693 21.8622 54.7018 21.8257 54.7052C21.6808 54.7182 7.66033 56.0148 5.55027 56.0152Z" fill="#512651"/>
<path d="M15.8069 60.7556C11.976 60.7556 7.55047 60.3562 5.9078 60.1935C5.27831 60.1311 4.72195 59.756 4.45586 59.2146C3.47619 57.2191 5.37967 55.9047 5.39897 55.8915C5.42883 55.871 5.47026 55.8789 5.49119 55.9094C5.5117 55.9399 5.50358 55.9813 5.47331 56.0016C5.39856 56.0522 3.64701 57.2655 4.5753 59.1557C4.82108 59.6562 5.33681 60.003 5.921 60.0607C8.23764 60.2904 16.0982 60.9914 19.9886 60.3747C20.0268 60.3688 20.0589 60.394 20.0648 60.4301C20.0703 60.4663 20.0459 60.5004 20.0093 60.5063C18.8684 60.6875 17.3882 60.7556 15.8069 60.7556Z" fill="#512651"/>
<path d="M26.6363 61.9007C25.7261 57.6534 21.8911 41.1946 21.8911 41.1946C21.8911 41.1946 22.5738 41.2705 23.7113 40.8153C24.6503 40.4398 23.8326 37.9454 23.5183 37.0858C23.4543 36.9105 23.2872 36.7953 23.1005 36.7953H18.0656H16.5818H11.5468C11.3601 36.7953 11.1931 36.9105 11.1289 37.0858C10.8147 37.9452 9.99691 40.4396 10.936 40.8153C12.0737 41.2705 12.7564 41.1946 12.7564 41.1946C12.7564 41.1946 9.19152 57.5396 7.76944 62.4886C6.76905 65.9701 2.21377 75.5532 4.26147 78.9663C6.30938 82.3794 14.1973 82.3036 17.3072 82.0759H17.3403C20.4501 82.3034 28.3381 82.3794 30.386 78.9663C32.4339 75.5532 27.3954 65.4428 26.6363 61.9007Z" fill="#FFE9DC"/>
<path d="M22.1612 37.5444C22.1612 37.7171 19.8564 37.8573 17.0132 37.8573C14.1701 37.8573 11.8652 37.7171 11.8652 37.5444C11.8652 37.3716 14.1701 37.2316 17.0132 37.2316C19.8564 37.2316 22.1612 37.3718 22.1612 37.5444Z" fill="#BD6EEB"/>
<path d="M18.2929 41.3369C18.2927 41.3369 18.2925 41.3369 18.2918 41.3369L12.7551 41.261C12.7183 41.2604 12.6891 41.2303 12.6895 41.1933C12.6901 41.157 12.7195 41.1279 12.7561 41.1279C12.7563 41.1279 12.7565 41.1279 12.7571 41.1279L18.2939 41.2039C18.3306 41.2045 18.3599 41.2346 18.3595 41.2713C18.3589 41.3079 18.3292 41.3369 18.2929 41.3369Z" fill="#FFA9DD"/>
<path d="M28.0799 75.1002C28.0799 75.6127 27.9328 76.2054 27.6031 76.8113C26.6584 78.5491 24.2863 80.2545 19.5673 80.7044C14.7059 81.168 9.91277 80.8619 7.34161 78.9279C6.53947 78.3307 5.95142 77.5867 5.62602 76.6909C4.4808 73.5049 10.2335 57.0534 12.1096 51.8666C12.1364 51.7908 12.163 51.7195 12.1985 51.6482C12.5863 50.7703 13.3661 50.1197 14.3106 49.8971C16.7303 49.3133 21.0481 48.342 21.5382 48.6672C21.5827 48.6982 21.6363 48.774 21.6942 48.89C22.5185 50.4943 24.5372 59.785 24.8179 60.9926C25.1209 62.2804 28.0799 73.1263 28.0799 75.1002Z" fill="#FFA9DD"/>
<path d="M21.6951 48.89C21.6638 48.9347 21.6327 48.9792 21.597 49.0236C21.0356 49.7187 20.1577 50.0618 19.3468 50.4317C18.0366 51.0289 16.7801 51.7863 15.372 52.0849C14.6635 52.2365 12.9079 52.3033 12.1992 51.6482C12.587 50.7703 13.3668 50.1197 14.3113 49.8971C16.7309 49.3133 21.0488 48.342 21.5389 48.6672C21.5836 48.6984 21.6372 48.7742 21.6951 48.89Z" fill="#BD6EEB"/>
<path d="M21.3965 51.4621C21.1568 51.7869 21.0849 52.2056 21.0687 52.6088C21.0236 53.7239 21.3484 54.8194 21.7211 55.8714C21.9646 56.5588 22.2571 57.2754 22.8411 57.7121C23.067 57.8811 23.3762 58.0007 23.6268 57.8713C23.8525 57.7548 23.9441 57.4822 23.989 57.2321C24.1637 56.2581 23.9447 55.2581 23.666 54.3085C23.4497 53.5732 22.615 49.8111 21.3965 51.4621Z" fill="white"/>
<path d="M23.1297 59.6209C23.0795 60.2096 23.1607 60.8092 23.3657 61.3635C23.4463 61.5815 23.5501 61.7984 23.7218 61.9548C23.8934 62.1112 24.1461 62.1965 24.3647 62.1173C24.6927 61.9985 24.8028 61.5914 24.818 61.2428C24.8489 60.5415 24.7065 59.6272 24.2399 59.0708C23.6862 58.4107 23.1894 58.9199 23.1297 59.6209Z" fill="white"/>
<path d="M6.49116 76.5566C6.75482 77.2637 7.3384 77.8838 8.07818 78.0329C8.31502 78.0806 8.62337 78.0394 8.70218 77.8109C8.73793 77.7075 8.71335 77.5933 8.67963 77.4893C8.58599 77.2001 8.42451 76.9374 8.31787 76.6529C7.98169 75.7563 8.20371 74.6935 7.7349 73.8585C7.6118 73.6391 7.41721 73.4305 7.16655 73.409C6.92808 73.3886 6.70363 73.5495 6.5779 73.7531C6.1099 74.5127 6.19521 75.7628 6.49116 76.5566Z" fill="white"/>
<path d="M27.6033 76.8113C26.6586 78.5491 24.2257 80.4117 19.5068 80.8619C14.6454 81.3254 9.91295 80.8619 7.3418 78.9279C7.84534 79.1018 8.32655 79.3289 8.55384 79.4091C9.9485 79.8858 11.3923 80.22 12.8538 80.4028C14.4447 80.6033 16.0577 80.6301 17.6528 80.4696C21.2047 80.1089 24.6625 78.83 27.6033 76.8113Z" fill="#512651"/>
<path d="M34.8268 41.7255C34.8268 41.7255 16.0926 44.8352 15.2583 48.0967C14.5243 50.9663 16.0168 52.6476 17.6855 52.9508C19.3542 53.2541 33.7651 52.5716 33.7651 52.5716C33.7651 52.5716 33.2341 57.4257 39.0743 60.0803L45.2179 51.5097L34.8268 41.7255Z" fill="#FF8C9D"/>
<path d="M38.7134 58.4592C38.7035 58.4592 38.6937 58.4569 38.6844 58.4527C35.0375 56.6828 32.7736 52.8028 32.5325 52.3756C31.874 52.4278 23.8552 53.0552 20.1691 53.0552C16.2888 53.0552 15.2738 52.6128 14.9831 49.297C14.7368 46.4902 18.8903 45.3515 21.3714 44.6715C21.8268 44.5465 22.2205 44.4389 22.5376 44.3359C24.6192 43.6607 33.5425 41.1184 33.6323 41.0928C33.668 41.0828 33.7046 41.1032 33.7145 41.1385C33.7247 41.1738 33.7042 41.2106 33.6688 41.2208C33.579 41.2464 24.658 43.7879 22.5786 44.4624C22.2587 44.5664 21.8638 44.6743 21.4066 44.7998C18.9652 45.4691 14.8789 46.5892 15.1156 49.2854C15.4032 52.5649 16.3928 52.9224 20.1691 52.9224C23.9903 52.9224 32.4793 52.2468 32.5646 52.2401C32.591 52.2352 32.616 52.2515 32.6284 52.2748C32.6512 52.3169 34.939 56.4872 38.7425 58.333C38.7754 58.3493 38.7892 58.3889 38.7733 58.422C38.7618 58.4454 38.738 58.4592 38.7134 58.4592Z" fill="#512651"/>
<path d="M18.2975 52.0772C18.1815 52.0772 18.0652 52.0738 17.9488 52.0662C17.2327 52.0216 16.7006 51.8158 16.3666 51.455C16.0786 51.1437 15.9484 50.7287 15.8671 50.4018C15.6409 49.4918 15.6841 48.72 15.9961 48.1082C16.3169 47.4799 16.8945 47.0875 17.3227 46.8689C18.966 46.0298 20.28 46.252 20.9298 47.4775C21.2857 48.148 21.328 48.9351 21.3251 49.5455C21.3223 50.124 21.2607 50.8493 20.8047 51.3277C20.4858 51.6622 20.0296 51.8113 19.7139 51.8942C19.2504 52.0161 18.7755 52.0772 18.2975 52.0772ZM19.1303 46.4957C18.4925 46.4957 17.844 46.7519 17.3833 46.9875C16.9723 47.1971 16.4188 47.5723 16.1143 48.1689C15.8174 48.7515 15.7774 49.4918 15.9959 50.3704C16.0733 50.6817 16.1964 51.076 16.4641 51.3649C16.7741 51.7 17.2764 51.8914 17.9569 51.9342C18.538 51.9706 19.1177 51.9137 19.6798 51.7662C20.1565 51.6407 20.4834 51.4725 20.7084 51.2367C21.1317 50.792 21.1892 50.0994 21.1921 49.5455C21.1949 48.9503 21.1543 48.1845 20.8124 47.5402C20.3942 46.7517 19.7675 46.4957 19.1303 46.4957ZM17.353 46.9282H17.3548H17.353Z" fill="#512651"/>
<path d="M38.5605 38.9848C44.3602 38.0435 48.2988 32.5788 47.3576 26.779C46.4163 20.9792 40.9516 17.0406 35.1518 17.9819C29.352 18.9232 25.4134 24.3879 26.3547 30.1877C27.296 35.9874 32.7607 39.926 38.5605 38.9848Z" fill="#FFE9DC"/>
<path d="M32.3661 37.3269L25.498 39.2795L29.8748 34.2294L32.3661 37.3269Z" fill="#FFE9DC"/>
<path d="M36.1651 30.8878L36.0418 30.9189C35.9029 30.9189 35.795 30.857 35.7178 30.718C35.4861 30.2399 35.3628 29.7766 35.3628 29.3287C35.3628 28.2017 36.1036 27.5227 36.8755 26.8126C37.246 26.4579 37.5084 26.18 37.6473 25.9789C37.7863 25.778 37.8635 25.5621 37.8635 25.3612C37.8635 24.759 37.354 24.4656 36.7983 24.4656C36.1808 24.4656 35.5635 24.79 35.0849 25.1609C35.0077 25.2068 34.946 25.2377 34.8688 25.2377C34.7762 25.2377 34.6988 25.1912 34.6372 25.0988L34.0969 24.2962C34.0504 24.2497 34.0352 24.1727 34.0352 24.0953C34.0352 23.9875 34.0815 23.8951 34.1587 23.8175C34.9923 23.1228 35.8875 22.783 36.8448 22.783C38.4192 22.783 39.6233 23.7251 39.6233 25.3301C39.6233 26.3492 39.1448 26.998 38.4503 27.6927L38.157 27.986C37.8019 28.3098 37.5551 28.5728 37.4005 28.7731C37.2462 28.974 37.169 29.1899 37.169 29.4065C37.169 29.6067 37.2151 29.8387 37.3233 30.1011C37.339 30.1625 37.354 30.209 37.354 30.2401C37.354 30.286 37.339 30.3479 37.3079 30.3945C37.2616 30.4404 37.2151 30.4869 37.169 30.5023L36.1651 30.8878ZM35.1619 33.2652C35.1619 32.5551 35.7329 31.9839 36.443 31.9839C37.1688 31.9839 37.7243 32.5403 37.7243 33.2652C37.7243 33.991 37.1686 34.5465 36.443 34.5465C35.7329 34.5465 35.1619 33.9753 35.1619 33.2652Z" fill="#7182FF"/>
<path d="M101.343 62.61V63.9962L100.143 72.4433L101.343 80.1917V81.2537H67.6243L65.3918 80.8555L63.2752 81.2537H47.8218L45.5515 80.7312L43.4817 81.2537H41.8418C37.1452 81.2537 33.3398 77.0784 33.3398 71.9274C33.3398 69.3518 34.289 67.0258 35.8263 65.3415C37.368 63.6482 39.4935 62.61 41.8418 62.61H101.343Z" fill="#AD27FC"/>
<path d="M101.343 63.9964V80.192H81.288C80.7788 80.192 80.2793 80.1377 79.7997 80.0293C79.6317 79.9915 79.4684 79.948 79.3053 79.8938C78.4451 79.6336 77.6488 79.2052 76.9468 78.6413C76.8924 78.5978 76.8382 78.5546 76.7837 78.5058C76.3486 78.1426 75.9529 77.725 75.6068 77.2588C75.5672 77.2156 75.5376 77.1721 75.503 77.1234C75.2211 76.7384 74.9739 76.321 74.7614 75.8764C74.7366 75.8329 74.7169 75.7896 74.6972 75.7409C74.5093 75.345 74.356 74.9221 74.2325 74.4884C74.2227 74.4449 74.2077 74.4017 74.1979 74.3529C74.0893 73.9518 74.0101 73.5341 73.9656 73.1059C73.9607 73.0625 73.9556 73.0137 73.9507 72.9705C73.9211 72.683 73.9062 72.3903 73.9062 72.0922C73.9062 71.9674 73.9111 71.8427 73.9162 71.7235C73.9162 71.6747 73.9162 71.6313 73.9211 71.588C73.9459 71.1596 74.0001 70.7422 74.0793 70.3355C74.0893 70.2868 74.0992 70.2433 74.109 70.2C74.2028 69.7717 74.3265 69.3542 74.4799 68.9531C74.4998 68.9098 74.5144 68.8608 74.5343 68.8176C74.7123 68.3784 74.92 67.961 75.1622 67.5704C75.1918 67.5216 75.2215 67.4784 75.2511 67.4349C75.4935 67.0553 75.7655 66.6976 76.0669 66.3669C76.1213 66.3072 76.1806 66.2421 76.24 66.1879C76.2844 66.1392 76.3289 66.0957 76.3734 66.0524C76.8826 65.5536 77.4563 65.1307 78.0793 64.8C78.1682 64.7512 78.2572 64.7077 78.3512 64.6645C79.2511 64.2361 80.245 63.9976 81.2882 63.9976H101.343V63.9964Z" fill="#FFE9DC"/>
<path d="M101.344 64.6633V64.7988H78.0801C78.169 64.75 78.258 64.7065 78.3521 64.6633H101.344Z" fill="#FFB289"/>
<path d="M101.344 66.0514V66.1869H76.2402C76.2847 66.1381 76.3292 66.0947 76.3737 66.0514H101.344Z" fill="#FFB289"/>
<path d="M101.344 66.0514V66.1869H76.2402C76.2847 66.1381 76.3292 66.0947 76.3737 66.0514H101.344Z" fill="#FFB289"/>
<path d="M101.344 67.4339V67.5694H75.1621C75.1918 67.5206 75.2214 67.4774 75.2511 67.4339H101.344Z" fill="#FFB289"/>
<path d="M101.344 67.4339V67.5694H75.1621C75.1918 67.5206 75.2214 67.4774 75.2511 67.4339H101.344Z" fill="#FFB289"/>
<path d="M101.344 68.8166V68.9521H74.4805C74.5004 68.9088 74.515 68.8599 74.5349 68.8166H101.344Z" fill="#FFB289"/>
<path d="M101.344 68.8166V68.9521H74.4805C74.5004 68.9088 74.515 68.8599 74.5349 68.8166H101.344Z" fill="#FFB289"/>
<path d="M101.344 70.1992V70.3347H74.0801C74.09 70.286 74.1 70.2425 74.1097 70.1992H101.344Z" fill="#FFB289"/>
<path d="M101.344 70.1992V70.3347H74.0801C74.09 70.286 74.1 70.2425 74.1097 70.1992H101.344Z" fill="#FFB289"/>
<path d="M101.343 71.5872V71.7226H73.916C73.916 71.6739 73.916 71.6304 73.9209 71.5872H101.343Z" fill="#FFB289"/>
<path d="M101.344 72.9698V73.1053H73.966C73.9611 73.0619 73.956 73.0131 73.9512 72.9698H101.344Z" fill="#FFB289"/>
<path d="M101.344 72.9698V73.1053H73.966C73.9611 73.0619 73.956 73.0131 73.9512 72.9698H101.344Z" fill="#FFB289"/>
<path d="M101.343 74.3525V74.488H74.2318C74.222 74.4446 74.207 74.4013 74.1973 74.3525H101.343Z" fill="#FFB289"/>
<path d="M101.343 75.7405V75.876H74.7615C74.7367 75.8325 74.717 75.7892 74.6973 75.7405H101.343Z" fill="#FFB289"/>
<path d="M101.344 77.1229V77.2584H75.6077C75.5681 77.2151 75.5384 77.1717 75.5039 77.1229H101.344Z" fill="#FFB289"/>
<path d="M101.343 78.5056V78.6411H76.9463C76.8919 78.5976 76.8376 78.5544 76.7832 78.5056H101.343Z" fill="#FFB289"/>
<path d="M101.343 79.8938V80.0293H79.7991C79.6311 79.9915 79.4678 79.948 79.3047 79.8938H101.343Z" fill="#FFB289"/>
<path d="M47.8216 81.2539H43.4815C41.2044 78.1436 40.0592 74.2178 40.3355 70.368C40.5315 67.6142 41.4583 64.9273 42.96 62.61H48.432C47.3849 64.1562 46.6317 65.9297 46.1995 67.7166C45.1036 72.2262 45.7095 77.1233 47.8216 81.2539Z" fill="#FFA9DD"/>
<path d="M67.6239 81.2539H63.2748C61.0022 78.1436 59.8525 74.2178 60.1335 70.368C60.3295 67.6142 61.2563 64.9273 62.758 62.61H68.2256C67.1785 64.1562 66.4253 65.9297 65.993 67.7166C64.9014 72.2307 65.5029 77.1233 67.6239 81.2539Z" fill="#FFA9DD"/>
<path d="M97.6391 46.6176V47.81L96.4548 55.5173L97.6391 61.7204V62.6316H43.5032C39.2298 62.6316 35.7676 59.0476 35.7676 54.6224C35.7676 52.4097 36.6276 50.4118 38.0267 48.9647C39.4303 47.5093 41.3643 46.6176 43.5032 46.6176H97.6391Z" fill="#5B6DF6"/>
<path d="M97.6398 47.8102V61.7206H79.3925C78.9292 61.7206 78.4748 61.6741 78.0383 61.5808C77.8853 61.5483 77.7368 61.511 77.5884 61.4644C76.8055 61.241 76.0812 60.8729 75.4423 60.3887C75.3928 60.3513 75.3434 60.3142 75.2939 60.2723C74.898 59.9603 74.538 59.6018 74.2232 59.2012C74.1872 59.1641 74.1602 59.1267 74.1287 59.0848C73.8724 58.7541 73.6473 58.3956 73.454 58.0138C73.4314 57.9764 73.4135 57.9392 73.3955 57.8974C73.2244 57.5573 73.0851 57.1941 72.9725 56.8216C72.9636 56.7844 72.95 56.7473 72.9411 56.7052C72.8421 56.3607 72.7702 56.002 72.7296 55.6341C72.7251 55.597 72.7207 55.5549 72.7162 55.5178C72.6892 55.271 72.6758 55.0195 72.6758 54.7634C72.6758 54.6563 72.6802 54.5491 72.6847 54.4467C72.6847 54.4048 72.6847 54.3675 72.6892 54.3303C72.7117 53.9624 72.7611 53.6037 72.8332 53.2545C72.8421 53.2127 72.8513 53.1753 72.8602 53.1381C72.9457 52.7703 73.0581 52.4116 73.1976 52.0671C73.2157 52.0299 73.2291 51.9879 73.2472 51.9507C73.4091 51.5735 73.598 51.215 73.8184 50.8796C73.8454 50.8378 73.8724 50.8004 73.8994 50.7632C74.1198 50.4372 74.3672 50.1299 74.6416 49.8459C74.6912 49.7947 74.745 49.7386 74.799 49.6921C74.8395 49.6503 74.8801 49.6129 74.9205 49.5757C75.3838 49.1474 75.9057 48.7842 76.4726 48.5C76.5536 48.4581 76.6345 48.4208 76.72 48.3836C77.5388 48.0157 78.4431 47.8108 79.3923 47.8108H97.6398V47.8102Z" fill="#FFE9DC"/>
<path d="M97.6397 48.383V48.4994H76.4727C76.5537 48.4575 76.6345 48.4202 76.7201 48.383H97.6397Z" fill="#FFB289"/>
<path d="M97.6414 49.5751V49.6915H74.8008C74.8412 49.6497 74.8818 49.6123 74.9223 49.5751H97.6414Z" fill="#FFB289"/>
<path d="M97.6414 49.5751V49.6915H74.8008C74.8412 49.6497 74.8818 49.6123 74.9223 49.5751H97.6414Z" fill="#FFB289"/>
<path d="M97.6396 50.7626V50.879H73.8184C73.8454 50.8372 73.8724 50.7998 73.8994 50.7626H97.6396Z" fill="#FFB289"/>
<path d="M97.6396 50.7626V50.879H73.8184C73.8454 50.8372 73.8724 50.7998 73.8994 50.7626H97.6396Z" fill="#FFB289"/>
<path d="M97.6413 51.9501V52.0665H73.1992C73.2173 52.0293 73.2307 51.9872 73.2488 51.9501H97.6413Z" fill="#FFB289"/>
<path d="M97.6413 51.9501V52.0665H73.1992C73.2173 52.0293 73.2307 51.9872 73.2488 51.9501H97.6413Z" fill="#FFB289"/>
<path d="M97.6406 53.1378V53.2541H72.834C72.8429 53.2123 72.8521 53.1749 72.861 53.1378H97.6406Z" fill="#FFB289"/>
<path d="M97.6406 53.1378V53.2541H72.834C72.8429 53.2123 72.8521 53.1749 72.861 53.1378H97.6406Z" fill="#FFB289"/>
<path d="M97.6405 54.3299V54.4463H72.6855C72.6855 54.4044 72.6855 54.3671 72.69 54.3299H97.6405Z" fill="#FFB289"/>
<path d="M97.6402 55.5173V55.6337H72.7302C72.7257 55.5966 72.7213 55.5545 72.7168 55.5173H97.6402Z" fill="#FFB289"/>
<path d="M97.6402 55.5173V55.6337H72.7302C72.7257 55.5966 72.7213 55.5545 72.7168 55.5173H97.6402Z" fill="#FFB289"/>
<path d="M97.64 56.7048V56.8212H72.9729C72.964 56.7841 72.9503 56.7469 72.9414 56.7048H97.64Z" fill="#FFB289"/>
<path d="M97.6407 57.8972V58.0135H73.455C73.4324 57.9762 73.4146 57.939 73.3965 57.8972H97.6407Z" fill="#FFB289"/>
<path d="M97.6396 59.0847V59.201H74.2234C74.1874 59.1639 74.1604 59.1265 74.1289 59.0847H97.6396Z" fill="#FFB289"/>
<path d="M97.6407 60.2721V60.3885H75.4434C75.3938 60.3511 75.3445 60.3139 75.2949 60.2721H97.6407Z" fill="#FFB289"/>
<path d="M97.6411 61.4642V61.5806H78.0398C77.8868 61.5481 77.7383 61.5107 77.5898 61.4642H97.6411Z" fill="#FFB289"/>
<path d="M63.2474 57.2878H44.6683C42.9257 57.2878 41.5 55.8621 41.5 54.1195C41.5 52.3768 42.9257 50.9511 44.6683 50.9511H63.2474C64.99 50.9511 66.4157 52.3768 66.4157 54.1195C66.4157 55.8621 64.99 57.2878 63.2474 57.2878Z" fill="#FFB289"/>
<path d="M67.7256 52.282C66.6915 52.282 65.4356 51.8692 64.0358 51.0535C61.7598 49.7275 59.3627 47.4905 57.286 44.7544C55.209 42.0183 53.699 39.1081 53.0336 36.5593C52.3588 33.9741 52.6342 32.0588 53.8093 31.1671C54.9844 30.2754 56.9029 30.5246 59.2114 31.8699C61.4874 33.1959 63.8845 35.433 65.9615 38.1691C68.0384 40.9051 69.5482 43.8153 70.2137 46.3641C70.8885 48.9493 70.613 50.8646 69.4379 51.7563C68.9754 52.1077 68.3973 52.282 67.7256 52.282ZM55.5253 30.8907C54.9082 30.8907 54.3803 31.0485 53.961 31.3668C52.8721 32.1933 52.6289 34.0147 53.2767 36.4957C53.9338 39.0134 55.4288 41.8923 57.4859 44.6026C59.5431 47.3129 61.9142 49.5268 64.1622 50.8367C66.3777 52.1276 68.1975 52.3831 69.2862 51.5566C70.3752 50.7301 70.6183 48.9087 69.9705 46.4277C69.3134 43.9102 67.8188 41.0311 65.7616 38.3208C63.7041 35.6105 61.333 33.3966 59.0849 32.0867C57.7227 31.2931 56.5102 30.8907 55.5253 30.8907Z" fill="#512651"/>
<path d="M57.6138 53.5783C57.2715 53.5783 56.9475 53.5159 56.6447 53.3894C55.2831 52.8213 54.5356 51.037 54.5391 48.3651C54.5429 45.731 55.2734 42.5344 56.5963 39.3644L56.7121 39.4128L56.5963 39.3644C59.341 32.7874 63.8294 28.3778 66.5996 29.534C69.3709 30.6906 69.3926 36.9824 66.6482 43.559C65.3252 46.7289 63.567 49.4967 61.6972 51.352C60.2223 52.8152 58.8094 53.5781 57.6138 53.5783ZM65.6224 29.5945C62.9702 29.5945 59.2382 33.6857 56.8281 39.4609C55.5177 42.601 54.794 45.7635 54.7903 48.3653C54.7869 50.9293 55.4797 52.6311 56.7414 53.1578C58.0026 53.6839 59.7003 52.9801 61.5205 51.1739C63.3673 49.3413 65.1062 46.6026 66.4166 43.4623C69.1076 37.0133 69.1466 30.8687 66.5031 29.7655C66.2269 29.6502 65.9317 29.5945 65.6224 29.5945Z" fill="#512651"/>
<path d="M59.411 47.082C57.0635 47.082 54.8801 46.7913 53.0796 46.227C50.5238 45.4263 49.0376 44.1643 48.8942 42.6736C48.7508 41.1828 49.9693 39.6606 52.3258 38.3874C54.6487 37.1319 57.8116 36.2597 61.2308 35.9306C68.3225 35.2473 74.3344 37.1626 74.6264 40.1985C74.7699 41.6892 73.5513 43.2114 71.1949 44.4846C68.8719 45.7401 65.7093 46.6124 62.2899 46.9414C61.3134 47.0355 60.349 47.082 59.411 47.082ZM64.1078 36.0438C63.1858 36.0438 62.2316 36.0889 61.2549 36.1827C57.8682 36.5085 54.7399 37.3704 52.4458 38.6102C50.1848 39.832 49.013 41.2665 49.146 42.6496C49.2789 44.0329 50.7028 45.2175 53.1553 45.9861C55.6438 46.7655 58.879 47.0158 62.2657 46.6899C65.6524 46.3641 68.7807 45.5023 71.0748 44.2624C73.3358 43.0406 74.5076 41.6061 74.3746 40.2231C74.1351 37.7327 69.7519 36.0438 64.1078 36.0438Z" fill="#512651"/>
<path d="M61.3735 43.6217C62.5883 43.6217 63.5731 42.6369 63.5731 41.4221C63.5731 40.2072 62.5883 39.2224 61.3735 39.2224C60.1586 39.2224 59.1738 40.2072 59.1738 41.4221C59.1738 42.6369 60.1586 43.6217 61.3735 43.6217Z" fill="#7182FF"/>
<path d="M52.1876 22.1693L50.8952 25.8373L48.504 22.7702L44.8359 21.4779L47.9031 19.0867L49.1956 15.4185L51.5868 18.4856L55.2548 19.7781L52.1876 22.1693Z" fill="#BD6EEB"/>
<path d="M55.9044 85.8047L54.6122 89.4727L52.221 86.4055L48.5527 85.1131L51.6199 82.7219L52.9124 79.0538L55.3036 82.121L58.9716 83.4135L55.9044 85.8047Z" fill="#F7607D"/>
<path d="M17.9806 30.7399L16.6881 34.408L14.2969 31.3408L10.6289 30.0485L13.6961 27.6573L14.9886 23.9891L17.3798 27.0563L21.0478 28.3487L17.9806 30.7399Z" fill="#F7607D"/>
<path d="M38.3079 87.4803C35.856 87.4803 33.8613 85.4856 33.8613 83.0337C33.8613 80.582 35.856 78.5873 38.3079 78.5873C40.7599 78.5873 42.7545 80.582 42.7545 83.0337C42.7545 85.4856 40.7599 87.4803 38.3079 87.4803ZM38.3079 78.7201C35.9293 78.7201 33.9942 80.6551 33.9942 83.0335C33.9942 85.4121 35.9291 87.3472 38.3079 87.3472C40.6867 87.3472 42.6217 85.4123 42.6217 83.0335C42.6215 80.6553 40.6865 78.7201 38.3079 78.7201Z" fill="#FFE9DC"/>
<path d="M33.3921 71.535C31.5905 71.535 30.125 70.0694 30.125 68.2679C30.125 66.4664 31.5905 65.0009 33.3921 65.0009C35.1936 65.0009 36.6591 66.4664 36.6591 68.2679C36.6591 70.0692 35.1936 71.535 33.3921 71.535ZM33.3921 65.0982C31.6444 65.0982 30.2225 66.52 30.2225 68.2677C30.2225 70.0154 31.6444 71.4373 33.3921 71.4373C35.1398 71.4373 36.5616 70.0154 36.5616 68.2677C36.5616 66.52 35.1398 65.0982 33.3921 65.0982Z" fill="#FFE9DC"/>
<path d="M50.0735 35.7234C48.7148 35.7234 47.6094 34.618 47.6094 33.2593C47.6094 31.9006 48.7148 30.7952 50.0735 30.7952C51.4322 30.7952 52.5376 31.9006 52.5376 33.2593C52.5378 34.6178 51.4322 35.7234 50.0735 35.7234ZM50.0735 30.8689C48.7556 30.8689 47.6833 31.9412 47.6833 33.2593C47.6833 34.5772 48.7556 35.6497 50.0735 35.6497C51.3914 35.6497 52.4639 34.5774 52.4639 33.2593C52.4639 31.9414 51.3916 30.8689 50.0735 30.8689Z" fill="#FFE9DC"/>
<path d="M58.1497 28.3282C56.7909 28.3282 55.6855 27.2228 55.6855 25.8641C55.6855 24.5054 56.7909 23.4002 58.1497 23.4002C59.5084 23.4002 60.6136 24.5054 60.6136 25.8641C60.6136 27.2226 59.5084 28.3282 58.1497 28.3282ZM58.1497 23.4739C56.8318 23.4739 55.7593 24.546 55.7593 25.8639C55.7593 27.1818 56.8316 28.2543 58.1497 28.2543C59.4675 28.2543 60.5396 27.182 60.5396 25.8639C60.5396 24.5458 59.4675 23.4739 58.1497 23.4739Z" fill="#FFE9DC"/>
<path d="M83.3701 47.6984H79.957V54.8659H83.3701V47.6984Z" fill="#FFB289"/>
<path d="M84.9619 63.9675H81.5488V72.4433H84.9619V63.9675Z" fill="#FFB289"/>
</g>
<defs>
<clipPath id="clip0_201_6018">
<rect width="104" height="104" fill="white"/>
</clipPath>
</defs>
</svg>
