<svg width="100" height="100" viewBox="0 0 100 100" fill="none" xmlns="http://www.w3.org/2000/svg">
<path d="M50 67.1875C75.0254 67.1875 95.3125 56.6942 95.3125 43.75C95.3125 30.8058 75.0254 20.3125 50 20.3125C24.9746 20.3125 4.6875 30.8058 4.6875 43.75C4.6875 56.6942 24.9746 67.1875 50 67.1875Z" fill="#AAE1F9"/>
<path d="M57.7078 57.8125C41.5047 57.8125 26.7062 50.9172 15.3406 39.5562C26.1688 31.197 39.4458 26.6311 53.125 26.5625C68.0732 26.6697 82.4934 32.1034 93.7953 41.8875C82.7328 28.5938 67.2109 20.3125 50 20.3125C31.9937 20.3125 15.8219 29.375 4.6875 43.75C15.8219 58.125 31.9937 67.1875 50 67.1875C67.8312 67.1875 83.8562 58.2969 94.9797 44.1578C84.5162 52.8958 71.3397 57.723 57.7078 57.8125Z" fill="#57B7EB"/>
<path d="M73.4375 43.75C73.4428 39.7536 72.4262 35.8222 70.4841 32.3294C68.5421 28.8366 65.7392 25.8984 62.3418 23.794C58.9443 21.6895 55.0652 20.4888 51.073 20.3058C47.0808 20.1229 43.1081 20.9638 39.5324 22.7486C35.9567 24.5335 32.8968 27.203 30.6435 30.5036C28.3901 33.8041 27.0181 37.626 26.6579 41.6061C26.2977 45.5863 26.9612 49.5924 28.5853 53.2439C30.2095 56.8954 32.7404 60.0709 35.9375 62.4687V67.1875H64.0625V62.4687C66.9724 60.2919 69.3349 57.4667 70.9622 54.2173C72.5896 50.968 73.4371 47.3841 73.4375 43.75Z" fill="#F9E109"/>
<path d="M65.625 67.1875H34.375C32.6491 67.1875 31.25 68.5866 31.25 70.3125C31.25 72.0384 32.6491 73.4375 34.375 73.4375H65.625C67.3509 73.4375 68.75 72.0384 68.75 70.3125C68.75 68.5866 67.3509 67.1875 65.625 67.1875Z" fill="#D0D8DA"/>
<path d="M65.625 73.4375H34.375C32.6491 73.4375 31.25 74.8366 31.25 76.5625C31.25 78.2884 32.6491 79.6875 34.375 79.6875H65.625C67.3509 79.6875 68.75 78.2884 68.75 76.5625C68.75 74.8366 67.3509 73.4375 65.625 73.4375Z" fill="#D0D8DA"/>
<path d="M35.9375 79.6875H64.0625V81.25C64.0625 84.9796 62.5809 88.5565 59.9437 91.1937C57.3065 93.8309 53.7296 95.3125 50 95.3125C46.2704 95.3125 42.6935 93.8309 40.0563 91.1937C37.4191 88.5565 35.9375 84.9796 35.9375 81.25V79.6875Z" fill="#93999A"/>
<path d="M67.1877 59.375C58.8997 59.375 50.9511 56.0826 45.0906 50.2221C39.2301 44.3616 35.9377 36.413 35.9377 28.125C35.9379 27.051 35.9926 25.9778 36.1018 24.9094C33.1587 27.0707 30.7629 29.8914 29.1063 33.1454C27.4498 36.3995 26.5787 39.9963 26.5627 43.6477C26.5468 47.2991 27.3865 50.9035 29.0145 54.1719C30.6425 57.4403 33.0136 60.2818 35.9377 62.4687V67.1875H64.0627V62.4687C65.2749 61.5436 66.3952 60.5039 67.408 59.364C67.333 59.364 67.2612 59.375 67.1877 59.375Z" fill="#FCBC04"/>
<path d="M50 54.6875C56.0406 54.6875 60.9375 49.7906 60.9375 43.75C60.9375 37.7094 56.0406 32.8125 50 32.8125C43.9594 32.8125 39.0625 37.7094 39.0625 43.75C39.0625 49.7906 43.9594 54.6875 50 54.6875Z" fill="#57B7EB"/>
<path d="M56.25 42.1875C58.8388 42.1875 60.9375 40.0888 60.9375 37.5C60.9375 34.9112 58.8388 32.8125 56.25 32.8125C53.6612 32.8125 51.5625 34.9112 51.5625 37.5C51.5625 40.0888 53.6612 42.1875 56.25 42.1875Z" fill="#AAE1F9"/>
<path d="M39.2196 41.9969C38.9541 43.5615 39.0344 45.1652 39.4547 46.6954C39.875 48.2257 40.6253 49.6454 41.6527 50.8548C42.6802 52.0642 43.9599 53.034 45.4021 53.6961C46.8443 54.3583 48.414 54.6967 50.0009 54.6875C50.2446 54.6875 50.4853 54.6672 50.7259 54.6516C45.7914 51.5817 41.8077 47.2003 39.2196 41.9969Z" fill="#4891D3"/>
<path d="M35.9375 67.1875H34.375C33.5462 67.1875 32.7513 67.5167 32.1653 68.1028C31.5792 68.6888 31.25 69.4837 31.25 70.3125C31.25 71.1413 31.5792 71.9362 32.1653 72.5222C32.7513 73.1083 33.5462 73.4375 34.375 73.4375H65.625C66.4538 73.4375 67.2487 73.1083 67.8347 72.5222C68.4208 71.9362 68.75 71.1413 68.75 70.3125H39.0625C38.2337 70.3125 37.4388 69.9833 36.8528 69.3972C36.2667 68.8112 35.9375 68.0163 35.9375 67.1875Z" fill="#93999A"/>
<path d="M35.9375 73.4375H34.375C33.5462 73.4375 32.7513 73.7667 32.1653 74.3528C31.5792 74.9388 31.25 75.7337 31.25 76.5625C31.25 77.3913 31.5792 78.1862 32.1653 78.7722C32.7513 79.3583 33.5462 79.6875 34.375 79.6875H65.625C66.4538 79.6875 67.2487 79.3583 67.8347 78.7722C68.4208 78.1862 68.75 77.3913 68.75 76.5625H39.0625C38.2337 76.5625 37.4388 76.2333 36.8528 75.6472C36.2667 75.0612 35.9375 74.2663 35.9375 73.4375Z" fill="#93999A"/>
<path d="M54.6875 85.9375H63.2453C63.7833 84.4331 64.0597 82.8477 64.0625 81.25V79.6875H35.9375V81.25C35.9391 84.1634 36.846 87.0043 38.5328 89.3798C40.2197 91.7552 42.603 93.5477 45.3531 94.5094C45.5541 92.1717 46.6244 89.9943 48.3526 88.4073C50.0807 86.8203 52.3412 85.939 54.6875 85.9375Z" fill="#656B76"/>
<path d="M59.1611 13.2125C59.3072 13.2556 59.4587 13.2777 59.6111 13.2781C59.9469 13.2778 60.2738 13.1693 60.5431 12.9686C60.8125 12.7679 61.01 12.4858 61.1064 12.1641L62.922 6.11874C62.9809 5.92217 63.0005 5.71592 62.9797 5.51177C62.9589 5.30763 62.898 5.10958 62.8007 4.92894C62.7033 4.7483 62.5713 4.58861 62.4123 4.45898C62.2532 4.32935 62.0701 4.23232 61.8736 4.17343C61.677 4.11454 61.4707 4.09494 61.2666 4.11576C61.0625 4.13658 60.8644 4.1974 60.6838 4.29476C60.5031 4.39211 60.3434 4.5241 60.2138 4.68317C60.0842 4.84224 59.9871 5.02529 59.9283 5.22186L58.1126 11.2672C58.0537 11.4637 58.0341 11.67 58.0549 11.8741C58.0757 12.0783 58.1366 12.2763 58.2339 12.457C58.3313 12.6376 58.4633 12.7973 58.6223 12.927C58.7814 13.0566 58.9645 13.1536 59.1611 13.2125Z" fill="#323232"/>
<path d="M69.4619 15.7125C69.8258 15.9104 70.2534 15.9558 70.6507 15.8386C71.048 15.7214 71.3825 15.4512 71.5807 15.0875L74.6057 9.51561C74.7036 9.33525 74.7651 9.13735 74.7866 8.93323C74.8081 8.7291 74.7892 8.52274 74.7309 8.32592C74.6727 8.1291 74.5762 7.94569 74.4471 7.78614C74.318 7.6266 74.1587 7.49406 73.9783 7.39608C73.7979 7.2981 73.6 7.23661 73.3959 7.21511C73.1918 7.19361 72.9854 7.21253 72.7886 7.27078C72.5918 7.32904 72.4084 7.42549 72.2488 7.55463C72.0893 7.68376 71.9568 7.84306 71.8588 8.02342L68.8338 13.5937C68.7359 13.7741 68.6745 13.972 68.6531 14.1761C68.6316 14.3802 68.6506 14.5865 68.709 14.7832C68.7673 14.98 68.8638 15.1633 68.993 15.3227C69.1222 15.4822 69.2815 15.6146 69.4619 15.7125Z" fill="#323232"/>
<path d="M81.1605 20.8078C81.3881 20.808 81.613 20.7585 81.8195 20.6627C82.026 20.5669 82.209 20.4271 82.3558 20.2531L86.4636 15.375C86.5989 15.2186 86.7018 15.0368 86.7664 14.8403C86.8309 14.6437 86.8557 14.4364 86.8395 14.2301C86.8232 14.0239 86.7662 13.823 86.6717 13.639C86.5772 13.455 86.4471 13.2916 86.2889 13.1583C86.1308 13.025 85.9477 12.9244 85.7504 12.8623C85.5531 12.8003 85.3454 12.7781 85.1394 12.7969C84.9334 12.8158 84.7332 12.8753 84.5504 12.9722C84.3676 13.069 84.2059 13.2011 84.0746 13.361L79.9668 18.2391C79.7752 18.4667 79.6525 18.7442 79.6133 19.0392C79.574 19.3341 79.6198 19.634 79.7451 19.9038C79.8705 20.1736 80.0703 20.402 80.321 20.5622C80.5718 20.7223 80.863 20.8075 81.1605 20.8078Z" fill="#323232"/>
<path d="M90.6902 28.5703C91.0577 28.5704 91.4134 28.4409 91.6949 28.2047L96.5386 24.1422C96.8462 23.873 97.0361 23.494 97.0675 23.0865C97.099 22.679 96.9695 22.2754 96.7068 21.9622C96.4441 21.649 96.0692 21.4513 95.6624 21.4113C95.2557 21.3713 94.8494 21.4924 94.5308 21.7484L89.6871 25.8109C89.442 26.0172 89.2663 26.2938 89.1837 26.6033C89.1011 26.9128 89.1156 27.2401 89.2253 27.5411C89.3349 27.842 89.5344 28.102 89.7967 28.2858C90.059 28.4697 90.3714 28.5684 90.6918 28.5687L90.6902 28.5703Z" fill="#323232"/>
<path d="M17.6447 20.2531C17.776 20.413 17.9378 20.5451 18.1206 20.6419C18.3033 20.7388 18.5035 20.7983 18.7095 20.8172C18.9155 20.836 19.1232 20.8138 19.3205 20.7518C19.5179 20.6897 19.7009 20.5891 19.8591 20.4558C20.0172 20.3225 20.1473 20.1591 20.2418 19.9751C20.3363 19.7911 20.3934 19.5902 20.4096 19.3839C20.4259 19.1777 20.401 18.9703 20.3365 18.7738C20.272 18.5773 20.1691 18.3955 20.0338 18.2391L15.926 13.3609C15.6571 13.0501 15.2766 12.8577 14.8669 12.8254C14.4572 12.7931 14.0513 12.9235 13.737 13.1884C13.4228 13.4533 13.2256 13.8314 13.1881 14.2406C13.1507 14.6499 13.276 15.0575 13.5369 15.375L17.6447 20.2531Z" fill="#323232"/>
<path d="M28.4196 15.0844C28.5175 15.2647 28.65 15.4241 28.8094 15.5532C28.9689 15.6824 29.1522 15.7789 29.3489 15.8372C29.5457 15.8956 29.752 15.9146 29.9561 15.8932C30.1602 15.8718 30.358 15.8104 30.5384 15.7125C30.7188 15.6146 30.8781 15.4822 31.0073 15.3227C31.1364 15.1633 31.2329 14.98 31.2913 14.7832C31.3496 14.5865 31.3686 14.3802 31.3472 14.1761C31.3258 13.972 31.2644 13.7741 31.1665 13.5938L28.1415 8.02031C27.9436 7.65606 27.6092 7.38532 27.2117 7.26767C26.8142 7.15002 26.3862 7.19509 26.022 7.39297C25.6577 7.59085 25.387 7.92532 25.2694 8.32281C25.1517 8.7203 25.1968 9.14824 25.3946 9.5125L28.4196 15.0844Z" fill="#323232"/>
<path d="M8.35469 28.2438C8.51624 28.3769 8.7029 28.4762 8.90358 28.5358C9.10426 28.5954 9.31487 28.6141 9.52291 28.5907C9.73094 28.5674 9.93216 28.5024 10.1146 28.3998C10.2971 28.2971 10.457 28.1588 10.585 27.9932C10.713 27.8275 10.8063 27.6378 10.8596 27.4353C10.9128 27.2329 10.9248 27.0218 10.8949 26.8146C10.8649 26.6074 10.7937 26.4083 10.6853 26.2292C10.577 26.0501 10.4337 25.8946 10.2641 25.7719L5.64219 22.2016C5.48064 22.0684 5.29398 21.9691 5.0933 21.9095C4.89262 21.8499 4.68201 21.8312 4.47397 21.8546C4.26594 21.878 4.06472 21.9429 3.88227 22.0456C3.69982 22.1482 3.53986 22.2865 3.41188 22.4522C3.28391 22.6179 3.19053 22.8076 3.1373 23.01C3.08407 23.2125 3.07206 23.4236 3.10199 23.6308C3.13193 23.838 3.2032 24.037 3.31156 24.2162C3.41993 24.3953 3.56318 24.5508 3.73281 24.6735L8.35469 28.2438Z" fill="#323232"/>
<path d="M38.8931 12.1641C38.9895 12.4858 39.187 12.7679 39.4563 12.9686C39.7257 13.1693 40.0525 13.2778 40.3884 13.2781C40.5407 13.2777 40.6923 13.2556 40.8384 13.2125C41.035 13.1536 41.218 13.0566 41.3771 12.927C41.5362 12.7973 41.6682 12.6376 41.7655 12.457C41.8629 12.2763 41.9237 12.0783 41.9445 11.8741C41.9653 11.67 41.9457 11.4637 41.8868 11.2672L40.0712 5.22186C40.0123 5.02529 39.9153 4.84224 39.7856 4.68317C39.656 4.5241 39.4963 4.39211 39.3157 4.29476C39.135 4.1974 38.937 4.13658 38.7329 4.11576C38.5287 4.09494 38.3225 4.11454 38.1259 4.17343C37.9293 4.23232 37.7463 4.32935 37.5872 4.45898C37.4281 4.58861 37.2961 4.7483 37.1988 4.92894C37.1014 5.10958 37.0406 5.30763 37.0198 5.51177C36.999 5.71592 37.0186 5.92217 37.0774 6.11874L38.8931 12.1641Z" fill="#323232"/>
<path d="M50 12.5C50.4144 12.5 50.8118 12.3354 51.1049 12.0424C51.3979 11.7493 51.5625 11.3519 51.5625 10.9375V4.6875C51.5625 4.2731 51.3979 3.87567 51.1049 3.58265C50.8118 3.28962 50.4144 3.125 50 3.125C49.5856 3.125 49.1882 3.28962 48.8951 3.58265C48.6021 3.87567 48.4375 4.2731 48.4375 4.6875V10.9375C48.4375 11.3519 48.6021 11.7493 48.8951 12.0424C49.1882 12.3354 49.5856 12.5 50 12.5Z" fill="#323232"/>
<path d="M28.7615 61.0359C20.1377 57.1005 12.5698 51.1765 6.67874 43.75C9.68108 40.0001 13.1022 36.6056 16.8756 33.6328C17.2017 33.3769 17.4129 33.0019 17.4625 32.5904C17.5122 32.1788 17.3963 31.7644 17.1405 31.4383C16.8846 31.1121 16.5096 30.901 16.098 30.8514C15.6865 30.8017 15.2721 30.9175 14.9459 31.1734C10.6524 34.5601 6.79259 38.4629 3.45374 42.7937C3.2419 43.0675 3.12695 43.4038 3.12695 43.75C3.12695 44.0961 3.2419 44.4325 3.45374 44.7062C9.76817 52.9784 18.0234 59.5673 27.4897 63.8906C27.8682 64.0593 28.2983 64.0707 28.6852 63.9222C29.0722 63.7738 29.3843 63.4778 29.553 63.0992C29.7216 62.7207 29.733 62.2906 29.5846 61.9037C29.4362 61.5167 29.1401 61.2046 28.7615 61.0359Z" fill="#323232"/>
<path d="M96.5481 44.7062C96.76 44.4325 96.8749 44.0961 96.8749 43.75C96.8749 43.4039 96.76 43.0675 96.5481 42.7938C84.7169 27.5125 67.7497 18.75 49.9997 18.75C39.2876 18.7933 28.8122 21.9051 19.8137 27.7172C19.4644 27.9401 19.2179 28.2927 19.1286 28.6974C19.0392 29.1021 19.1142 29.5257 19.3372 29.875C19.5601 30.2243 19.9127 30.4708 20.3174 30.5602C20.7221 30.6496 21.1457 30.5745 21.495 30.3516C25.4605 27.8223 29.7373 25.818 34.2184 24.3891C31.3266 26.7384 28.9978 29.7058 27.4032 33.0732C25.8086 36.4406 24.9887 40.1225 25.0036 43.8483C25.0186 47.5742 25.8682 51.2493 27.4898 54.6038C29.1115 57.9583 31.464 60.9068 34.3747 63.2328V65.625C33.1315 65.625 31.9392 66.1189 31.0601 66.9979C30.181 67.877 29.6872 69.0693 29.6872 70.3125C29.6872 71.5557 30.181 72.748 31.0601 73.6271C31.9392 74.5061 33.1315 75 34.3747 75H65.6247C66.0391 75 66.4365 75.1646 66.7295 75.4576C67.0226 75.7507 67.1872 76.1481 67.1872 76.5625C67.1872 76.9769 67.0226 77.3743 66.7295 77.6674C66.4365 77.9604 66.0391 78.125 65.6247 78.125H34.3747C33.9603 78.125 33.5629 78.2896 33.2698 78.5826C32.9768 78.8757 32.8122 79.2731 32.8122 79.6875C32.8122 80.1019 32.9768 80.4993 33.2698 80.7924C33.5629 81.0854 33.9603 81.25 34.3747 81.25C34.3747 85.394 36.0209 89.3683 38.9511 92.2985C41.8814 95.2288 45.8557 96.875 49.9997 96.875C54.1437 96.875 58.118 95.2288 61.0482 92.2985C63.9785 89.3683 65.6247 85.394 65.6247 81.25C66.5313 81.254 67.4194 80.9939 68.1806 80.5014C68.9418 80.0089 69.5431 79.3054 69.911 78.4768C70.2789 77.6482 70.3975 76.7304 70.2523 75.8355C70.1071 74.9406 69.7044 74.1073 69.0934 73.4375C69.7044 72.7677 70.1071 71.9344 70.2523 71.0395C70.3975 70.1446 70.2789 69.2268 69.911 68.3982C69.5431 67.5696 68.9418 66.8661 68.1806 66.3736C67.4194 65.8811 66.5313 65.621 65.6247 65.625V63.2328C68.558 60.9049 70.9255 57.9424 72.5493 54.5679C74.1731 51.1934 75.0109 47.4948 74.9997 43.75C74.996 41.9551 74.8001 40.1657 74.4153 38.4125C74.3734 38.2103 74.2917 38.0184 74.1752 37.8479C74.0586 37.6775 73.9094 37.5318 73.7362 37.4193C73.563 37.3069 73.3692 37.2299 73.166 37.1928C72.9628 37.1557 72.7543 37.1593 72.5526 37.2033C72.3508 37.2472 72.1597 37.3308 71.9904 37.4491C71.8212 37.5674 71.677 37.718 71.5663 37.8924C71.4556 38.0667 71.3806 38.2613 71.3455 38.4648C71.3105 38.6683 71.3162 38.8768 71.3622 39.0781C71.6996 40.6126 71.8714 42.1789 71.8747 43.75C71.8836 47.1434 71.0967 50.4915 69.5771 53.5256C68.0574 56.5597 65.8475 59.1952 63.1247 61.2203C62.9306 61.3659 62.7731 61.5546 62.6646 61.7715C62.5562 61.9885 62.4997 62.2277 62.4997 62.4703V65.625H56.2497V54.5625C58.8119 53.0916 60.7674 50.7572 61.7665 47.9768C62.7655 45.1964 62.7429 42.1512 61.7028 39.3859C61.6001 39.1115 61.4223 38.8714 61.1896 38.6932C60.957 38.515 60.6789 38.4058 60.3872 38.3781C60.0954 38.348 59.801 38.4015 59.5385 38.5324C59.2759 38.6633 59.056 38.8661 58.9044 39.1172C58.63 39.5765 58.2411 39.9569 57.7759 40.2212C57.3106 40.4854 56.7848 40.6246 56.2497 40.625C55.4209 40.625 54.626 40.2958 54.04 39.7097C53.4539 39.1237 53.1247 38.3288 53.1247 37.5C53.1247 36.9648 53.2635 36.4388 53.5275 35.9732C53.7915 35.5077 54.1717 35.1185 54.6309 34.8437C54.8809 34.6909 55.0828 34.4708 55.2137 34.2087C55.3446 33.9466 55.3992 33.6529 55.3711 33.3613C55.3431 33.0696 55.2336 32.7917 55.0552 32.5593C54.8768 32.3269 54.6367 32.1493 54.3622 32.0469C52.4727 31.3362 50.4388 31.0948 48.4354 31.3434C46.432 31.5921 44.5189 32.3233 42.8605 33.4743C41.202 34.6254 39.8477 36.1618 38.914 37.9516C37.9802 39.7415 37.4949 41.7312 37.4997 43.75C37.5084 45.9407 38.0897 48.0911 39.1861 49.9878C40.2824 51.8845 41.8557 53.4616 43.7497 54.5625V65.625H37.4997V62.4672C37.4997 62.2246 37.4432 61.9854 37.3347 61.7684C37.2262 61.5515 37.0687 61.3627 36.8747 61.2172C34.2541 59.2465 32.1104 56.7115 30.6023 53.8C29.0942 50.8885 28.2604 47.675 28.1625 44.3975C28.0647 41.1201 28.7054 37.8626 30.0372 34.8663C31.3689 31.8701 33.3576 29.2117 35.856 27.0882C38.3544 24.9647 41.2985 23.4304 44.4702 22.5989C47.6419 21.7675 50.9601 21.6601 54.1789 22.2849C57.3978 22.9096 60.4349 24.2504 63.0653 26.208C65.6957 28.1656 67.8521 30.6898 69.3747 33.5938C69.4701 33.7754 69.6004 33.9366 69.758 34.0679C69.9157 34.1993 70.0977 34.2983 70.2937 34.3593C70.4896 34.4203 70.6957 34.4421 70.9001 34.4235C71.1044 34.4049 71.3031 34.3462 71.4848 34.2508C71.6665 34.1554 71.8277 34.0251 71.959 33.8674C72.0904 33.7097 72.1894 33.5277 72.2504 33.3318C72.3114 33.1358 72.3332 32.9298 72.3146 32.7254C72.296 32.521 72.2373 32.3223 72.1419 32.1406C70.5787 29.1632 68.4331 26.5304 65.8325 24.3984C76.6884 28.0267 86.2445 34.7539 93.3216 43.75C87.4305 51.1765 79.8626 57.1005 71.2387 61.0359C71.0513 61.1194 70.8822 61.2391 70.7409 61.388C70.5997 61.5368 70.4892 61.7121 70.4157 61.9037C70.3422 62.0953 70.3072 62.2995 70.3126 62.5046C70.3181 62.7097 70.3638 62.9118 70.4473 63.0992C70.5309 63.2867 70.6505 63.4558 70.7994 63.597C70.9482 63.7382 71.1235 63.8488 71.3151 63.9222C71.5067 63.9957 71.7109 64.0308 71.916 64.0253C72.1211 64.0199 72.3232 63.9741 72.5106 63.8906C81.9774 59.5676 90.2333 52.9786 96.5481 44.7062ZM49.9997 93.75C46.6856 93.7463 43.5084 92.4281 41.165 90.0847C38.8216 87.7413 37.5034 84.5641 37.4997 81.25H62.4997C62.496 84.5641 61.1778 87.7413 58.8344 90.0847C56.491 92.4281 53.3138 93.7463 49.9997 93.75ZM67.1872 70.3125C67.1872 70.7269 67.0226 71.1243 66.7295 71.4174C66.4365 71.7104 66.0391 71.875 65.6247 71.875H34.3747C33.9603 71.875 33.5629 71.7104 33.2698 71.4174C32.9768 71.1243 32.8122 70.7269 32.8122 70.3125C32.8122 69.8981 32.9768 69.5007 33.2698 69.2076C33.5629 68.9146 33.9603 68.75 34.3747 68.75H65.6247C66.0391 68.75 66.4365 68.9146 66.7295 69.2076C67.0226 69.5007 67.1872 69.8981 67.1872 70.3125ZM45.9841 52.2094C44.0673 51.2938 42.5183 49.7544 41.5908 47.8433C40.6633 45.9323 40.4123 43.763 40.879 41.6906C41.3456 39.6183 42.5021 37.7659 44.1592 36.4368C45.8162 35.1077 47.8755 34.3807 49.9997 34.375C50.2731 34.375 50.5466 34.3875 50.8169 34.4109C50.1412 35.6006 49.8745 36.9792 50.0578 38.335C50.2411 39.6909 50.8643 40.9491 51.8316 41.9167C52.799 42.8842 54.0571 43.5076 55.413 43.6912C56.7688 43.8747 58.1474 43.6083 59.3372 42.9328C59.3622 43.2031 59.3747 43.4766 59.3747 43.75C59.3674 45.5214 58.8607 47.2548 57.9126 48.7511C56.9646 50.2475 55.6138 51.4461 54.0153 52.2094C53.7494 52.336 53.5247 52.5352 53.3672 52.784C53.2096 53.0328 53.1255 53.3211 53.1247 53.6156V65.625H46.8747V53.6203C46.8747 53.325 46.7911 53.0357 46.6335 52.786C46.4758 52.5363 46.2507 52.3364 45.9841 52.2094Z" fill="#323232"/>
<path d="M82.3566 65.011C82.2239 64.8541 82.0617 64.7249 81.8791 64.6307C81.6965 64.5366 81.4971 64.4793 81.2924 64.4622C81.0877 64.445 80.8816 64.4684 80.6859 64.5309C80.4902 64.5935 80.3088 64.6939 80.1519 64.8266C79.995 64.9592 79.8658 65.1215 79.7717 65.3041C79.6775 65.4867 79.6202 65.686 79.6031 65.8907C79.586 66.0955 79.6093 66.3016 79.6719 66.4973C79.7344 66.6929 79.8349 66.8744 79.9675 67.0313L84.0753 71.911C84.2077 72.0678 84.3696 72.1971 84.5519 72.2914C84.7342 72.3857 84.9333 72.4431 85.1378 72.4604C85.3423 72.4778 85.5483 72.4547 85.7438 72.3924C85.9394 72.3302 86.1208 72.23 86.2777 72.0977C86.4345 71.9653 86.5638 71.8034 86.6581 71.6211C86.7524 71.4388 86.8098 71.2397 86.8272 71.0352C86.8445 70.8307 86.8214 70.6248 86.7591 70.4292C86.6969 70.2336 86.5967 70.0522 86.4644 69.8953L82.3566 65.011Z" fill="#323232"/>
<path d="M91.6958 57.0625C91.5399 56.9222 91.3574 56.8146 91.1591 56.7464C90.9607 56.6781 90.7507 56.6504 90.5414 56.6651C90.3322 56.6797 90.128 56.7363 89.9411 56.8315C89.7542 56.9267 89.5884 57.0586 89.4536 57.2192C89.3187 57.3799 89.2176 57.5661 89.1562 57.7667C89.0949 57.9672 89.0745 58.1781 89.0964 58.3867C89.1183 58.5953 89.1819 58.7974 89.2836 58.9809C89.3852 59.1644 89.5228 59.3255 89.688 59.4547L94.5318 63.5172C94.8503 63.7721 95.2559 63.8924 95.6619 63.8522C96.0679 63.8121 96.4421 63.6147 96.7045 63.3023C96.967 62.9899 97.0968 62.5872 97.0662 62.1804C97.0357 61.7735 96.8472 61.3947 96.5411 61.125L91.6958 57.0625Z" fill="#323232"/>
<path d="M17.6441 65.011L13.5363 69.8891C13.269 70.2059 13.1385 70.6159 13.1736 71.0289C13.2086 71.4419 13.4062 71.8241 13.723 72.0914C14.0398 72.3587 14.4499 72.4892 14.8629 72.4542C15.2759 72.4192 15.6581 72.2215 15.9254 71.9047L20.0332 67.0313C20.1685 66.8748 20.2714 66.6931 20.3359 66.4965C20.4004 66.3 20.4253 66.0926 20.4091 65.8864C20.3928 65.6802 20.3358 65.4793 20.2413 65.2953C20.1467 65.1113 20.0166 64.9479 19.8585 64.8145C19.7003 64.6812 19.5173 64.5806 19.32 64.5186C19.1226 64.4565 18.915 64.4343 18.709 64.4532C18.503 64.472 18.3028 64.5316 18.12 64.6284C17.9372 64.7252 17.7755 64.8574 17.6441 65.0172V65.011Z" fill="#323232"/>
<path d="M8.35469 57.0219L3.73281 60.5906C3.56318 60.7133 3.41993 60.8688 3.31156 61.048C3.2032 61.2271 3.13193 61.4261 3.10199 61.6333C3.07206 61.8405 3.08407 62.0516 3.1373 62.2541C3.19053 62.4565 3.28391 62.6462 3.41188 62.8119C3.53986 62.9776 3.69982 63.1159 3.88227 63.2185C4.06472 63.3212 4.26594 63.3861 4.47397 63.4095C4.68201 63.4329 4.89262 63.4142 5.0933 63.3546C5.29398 63.295 5.48064 63.1957 5.64219 63.0625L10.2641 59.4938C10.4337 59.3711 10.577 59.2156 10.6853 59.0365C10.7937 58.8574 10.8649 58.6583 10.8949 58.4511C10.9248 58.2439 10.9128 58.0328 10.8596 57.8303C10.8063 57.6279 10.713 57.4382 10.585 57.2725C10.457 57.1068 10.2971 56.9686 10.1146 56.8659C9.93216 56.7632 9.73094 56.6983 9.52291 56.6749C9.31487 56.6516 9.10426 56.6702 8.90358 56.7298C8.7029 56.7894 8.51624 56.8888 8.35469 57.0219Z" fill="#323232"/>
</svg>
