<svg width="106" height="106" viewBox="0 0 106 106" fill="none" xmlns="http://www.w3.org/2000/svg">
<g clip-path="url(#clip0_201_5011)">
<path d="M21.084 94.8165C18.2055 94.8165 15.4758 93.8549 13.2713 92.1769C12.9205 92.5159 12.4868 92.7717 12.0011 92.9118C11.723 92.9922 11.4386 93.0313 11.1566 93.0313C10.3567 93.0313 9.5751 92.7157 8.99535 92.1313L6.40231 89.5185L2.81023 88.7177C1.72387 88.4752 0.855973 87.6596 0.547342 86.59C0.238506 85.5211 0.537915 84.3683 1.32794 83.5843L3.94085 80.9919L4.74132 77.3991C4.98376 76.3128 5.79899 75.4449 6.86854 75.1363C6.90973 75.1244 6.95031 75.1135 6.9915 75.1035C5.00671 72.0541 5.50921 68.3855 5.57561 67.9613C5.62807 67.6283 5.73566 67.3061 5.89387 67.0078L8.83181 61.4657C8.98141 59.9058 9.2259 58.3015 9.56281 56.667C9.1431 56.2684 8.83324 55.7472 8.6945 55.1455C8.61663 54.8095 8.55474 54.4625 8.50576 54.0844C7.79853 48.6413 10.5893 43.335 15.3713 40.7885C18.8277 34.2921 23.3733 28.5822 28.5856 24.1945L33.3647 15.1772C33.8955 14.1759 34.9343 13.5582 36.0542 13.5582C36.136 13.5582 36.2178 13.5615 36.3006 13.5681C36.4229 13.5781 36.5438 13.5951 36.6629 13.6193C38.3212 11.888 40.14 11.1183 41.6065 10.7896C41.6461 10.7806 41.6858 10.7728 41.7254 10.7656C42.0332 10.7004 42.3539 10.6504 42.7023 10.6123C43.0538 10.5746 43.4046 10.556 43.7524 10.556C45.1203 10.556 46.0852 10.8363 46.3483 10.9222C46.4167 10.9445 46.4842 10.9693 46.5506 10.9964C48.7159 11.8772 50.0773 13.0894 50.9302 14.3124C51.9582 14.1999 52.9925 14.1284 54.0272 14.0976C54.1743 13.9489 54.3221 13.8042 54.4692 13.6638C55.0377 13.123 55.7906 12.8242 56.5692 12.8242C56.652 12.8242 56.7352 12.8277 56.8184 12.8342L102.558 16.5919C103.706 16.6864 104.701 17.4192 105.132 18.4863C105.564 19.5536 105.356 20.7728 104.596 21.6372C104.557 21.6822 100.465 26.43 96.4365 35.3624C96.5678 35.5512 96.6971 35.7411 96.8236 35.9317C97.0625 35.9846 97.297 36.0668 97.522 36.1785C98.5182 36.6746 99.165 37.6747 99.2076 38.7869L99.2676 40.3263C99.6457 41.1612 99.9777 41.9935 100.258 42.8089C100.447 43.36 100.619 43.9238 100.781 44.5197L101.454 45.4849C102.09 46.3981 102.177 47.5857 101.682 48.5825C101.661 48.6241 101.639 48.6653 101.617 48.7057C102.002 51.6787 101.999 54.8443 101.608 58.1448C101.078 62.6039 99.7972 66.9198 97.8964 70.7564C98.1745 71.1946 98.3405 71.704 98.3663 72.2397L99.0572 86.579C99.1082 87.6426 98.6008 88.6552 97.7181 89.2503C97.2066 89.5952 96.6129 89.7706 96.0157 89.7706C95.5817 89.7706 95.1464 89.678 94.7396 89.4901L93.1969 88.7783V91.7714C93.1969 93.4529 91.8334 94.8163 90.152 94.8163H21.084V94.8165Z" fill="white"/>
<path d="M14.2688 51.1874C11.5811 59.1178 10.3761 68.057 13.7499 75.7205C17.193 83.541 25.0621 88.8404 33.4083 90.6711C41.7546 92.5017 50.5174 91.2301 58.6779 88.6965C61.8763 87.7034 65.0175 86.5185 68.2612 85.6848C73.3438 84.3784 78.7047 83.9236 83.452 81.6868C92.3074 77.5139 97.4301 67.7043 98.5839 57.983C99.1401 53.296 98.9083 48.4589 97.3774 43.9942C95.4609 38.4044 91.5803 33.6323 86.9736 29.9312C82.3668 26.2301 77.0422 23.5266 71.6205 21.176C68.342 19.7546 64.9814 18.4432 61.4576 17.8514C38.8839 14.0593 21.0534 31.1682 14.2688 51.1874Z" fill="#FE8CD1"/>
<path d="M37.1328 73.4678C37.1328 73.4678 43.3524 28.635 56.569 16.0664L102.309 19.824C102.309 19.824 92.8497 30.5788 88.0555 50.922C83.9019 68.5463 84.5568 74.6341 84.5568 74.6341L37.1328 73.4678Z" fill="#FFE9DC"/>
<path d="M82.7372 28.865C83.5844 26.9949 84.7438 25.2973 85.9029 23.6107C85.6727 23.5484 85.4426 23.4861 85.2122 23.4235C85.3141 25.3309 85.4159 27.2382 85.5178 29.1455C85.5432 29.6199 86.2844 29.623 86.2588 29.1455C86.157 27.2382 86.0551 25.3309 85.9535 23.4235C85.9334 23.0465 85.4719 22.9323 85.2629 23.2364C84.1037 24.9228 82.9444 26.6205 82.0972 28.4907C81.9019 28.9219 82.5405 29.2992 82.7372 28.865Z" fill="#BD6EEB"/>
<path d="M83.9056 27.1691C83.9632 27.1511 84.0525 27.1117 84.1144 27.1195C84.066 27.1257 84.0634 27.1263 84.1064 27.1216C84.1216 27.1201 84.1365 27.1191 84.1517 27.1183C84.1871 27.1162 84.2224 27.1152 84.2578 27.1154C84.3277 27.1158 84.4025 27.1167 84.4714 27.1296C84.4589 27.1279 84.4464 27.1263 84.4339 27.1246C84.4544 27.1277 84.4747 27.1312 84.495 27.1347C84.5308 27.141 84.5663 27.1484 84.6017 27.1564C84.8845 27.2197 85.1555 27.3261 85.4231 27.4349C85.6032 27.5081 85.8381 27.3556 85.8789 27.1761C85.9279 26.9611 85.8129 26.7986 85.62 26.7203C85.0186 26.4758 84.3562 26.252 83.708 26.4545C83.5232 26.5123 83.3861 26.7154 83.4492 26.9103C83.5098 27.096 83.7074 27.2308 83.9056 27.1691Z" fill="#BD6EEB"/>
<path d="M87.926 24.7843C87.9547 25.6087 87.9834 26.433 88.0123 27.2574C88.019 27.4509 88.1779 27.6372 88.3828 27.628C88.5779 27.6191 88.7607 27.4648 88.7533 27.2574C88.7246 26.433 88.6959 25.6087 88.667 24.7843C88.6603 24.5908 88.5014 24.4045 88.2965 24.4138C88.1016 24.4224 87.9188 24.5767 87.926 24.7843Z" fill="#BD6EEB"/>
<path d="M87.199 26.3344C87.9142 26.2803 88.6296 26.2262 89.3448 26.1719C89.5377 26.1574 89.7248 26.0118 89.7154 25.8014C89.707 25.613 89.5518 25.4151 89.3448 25.4309C88.6296 25.485 87.9142 25.5391 87.199 25.5934C87.0061 25.6079 86.819 25.7534 86.8285 25.9639C86.8369 26.152 86.992 26.35 87.199 26.3344Z" fill="#BD6EEB"/>
<path d="M83.9284 21.7488C81.9514 22.6284 80.505 24.5068 79.9558 26.5816C79.4424 28.5205 80.0519 30.6604 81.9129 31.6223C84.0126 32.7079 86.7168 32.1029 88.5716 30.7848C90.4519 29.4486 91.6069 27.1833 91.1169 24.8609C90.6189 22.5011 88.205 20.8782 85.8361 21.4291C85.3718 21.5371 85.5683 22.2519 86.0331 22.1437C87.8207 21.7279 89.7012 22.8598 90.274 24.5845C90.9206 26.5316 90.0658 28.6094 88.5413 29.8802C87.0168 31.1512 84.6998 31.8519 82.7732 31.1891C81.0497 30.5962 80.2548 28.8824 80.5872 27.1427C80.979 25.0929 82.3947 23.2375 84.3026 22.3886C84.7375 22.1952 84.3608 21.5564 83.9284 21.7488Z" fill="#FFB289"/>
<path d="M88.7029 35.0619C88.6873 35.0619 88.6711 35.0595 88.6553 35.0548C72.6315 30.1964 51.4366 31.6775 51.2247 31.6924C51.1351 31.6992 51.056 31.6313 51.0493 31.541C51.0427 31.4508 51.1105 31.3723 51.2009 31.3657C51.4138 31.35 72.6676 29.865 88.7506 34.7412C88.8373 34.7674 88.8861 34.8591 88.8598 34.9455C88.8381 35.0164 88.7732 35.0619 88.7029 35.0619Z" fill="#BD6EEB"/>
<path d="M87.6677 39.4676C87.6521 39.4676 87.6359 39.4651 87.6202 39.4604C71.5963 34.6021 50.4016 36.0835 50.1895 36.0981C50.1004 36.1022 50.0209 36.037 50.0141 35.9466C50.0076 35.8565 50.0754 35.778 50.1658 35.7714C50.3783 35.7556 71.6322 34.2707 87.7152 39.1469C87.8019 39.1731 87.8507 39.2647 87.8245 39.3512C87.803 39.4219 87.738 39.4676 87.6677 39.4676Z" fill="#BD6EEB"/>
<path d="M85.7655 44.3049C85.75 44.3049 85.7338 44.3024 85.718 44.2977C69.6928 39.4387 48.4993 40.9202 48.2872 40.9354C48.1974 40.9405 48.1185 40.8743 48.1118 40.7839C48.1052 40.6937 48.173 40.6152 48.2634 40.6087C48.4759 40.5931 69.7297 39.108 85.8131 43.9842C85.8996 44.0104 85.9486 44.102 85.9223 44.1885C85.9008 44.2592 85.8358 44.3049 85.7655 44.3049Z" fill="#BD6EEB"/>
<path d="M84.7304 49.3151C84.7148 49.3151 84.6986 49.3127 84.6828 49.3079C68.6574 44.4494 47.4641 45.9306 47.252 45.9456C47.1625 45.9503 47.0834 45.8845 47.0766 45.7941C47.0701 45.704 47.1379 45.6255 47.2283 45.6189C47.4408 45.6033 68.6947 44.1182 84.7779 48.9944C84.8644 49.0206 84.9134 49.1122 84.8872 49.1987C84.8656 49.2696 84.8007 49.3151 84.7304 49.3151Z" fill="#BD6EEB"/>
<path d="M83.5212 54.4981C83.5056 54.4981 83.4894 54.4957 83.4737 54.4909C67.4499 49.6326 46.2552 51.1136 46.043 51.1286C45.9547 51.1319 45.8744 51.0673 45.8676 50.9771C45.8611 50.887 45.9289 50.8085 46.0193 50.8019C46.232 50.7861 67.4857 49.3012 83.5687 54.1774C83.6552 54.2036 83.7042 54.2952 83.678 54.3817C83.6565 54.4526 83.5915 54.4981 83.5212 54.4981Z" fill="#BD6EEB"/>
<path d="M82.2243 60.6312C82.2088 60.6312 82.1926 60.6287 82.1768 60.624C66.1528 55.7656 44.9583 57.2465 44.7462 57.2617C44.6566 57.2709 44.5775 57.2004 44.5708 57.1102C44.5642 57.02 44.632 56.9415 44.7224 56.935C44.9351 56.9194 66.1888 55.4343 82.2721 60.3105C82.3588 60.3367 82.4075 60.4283 82.3813 60.5148C82.3598 60.5857 82.2946 60.6312 82.2243 60.6312Z" fill="#BD6EEB"/>
<path d="M84.966 56.8985V58.0373L80.8473 65.0498L84.966 71.3245V72.1962H31.4356C27.2098 72.1962 23.7891 68.7712 23.7891 64.5452C23.7891 62.4324 24.643 60.524 26.0265 59.1405C27.41 57.7527 29.3227 56.8985 31.4356 56.8985H84.966Z" fill="#5B6DF7"/>
<path d="M84.9665 58.0373V71.3242H66.9243C66.4661 71.3242 66.0169 71.2797 65.5853 71.1908C65.434 71.1597 65.2873 71.1242 65.1406 71.0797C64.3665 70.8662 63.6503 70.5147 63.0187 70.0522C62.9697 70.0165 62.9207 69.9811 62.8719 69.9409C62.4805 69.6429 62.1247 69.3005 61.8132 68.9179C61.7776 68.8824 61.7509 68.8468 61.7198 68.8068C61.4663 68.491 61.2439 68.1486 61.0525 67.7838C61.0304 67.7483 61.0126 67.7127 60.9947 67.6725C60.8257 67.3479 60.6877 67.0007 60.5767 66.645C60.5679 66.6093 60.5545 66.5738 60.5455 66.5337C60.4476 66.2046 60.3765 65.8619 60.3365 65.5106C60.332 65.475 60.3275 65.435 60.3232 65.3996C60.2965 65.1637 60.2832 64.9235 60.2832 64.679C60.2832 64.5768 60.2877 64.4743 60.2922 64.3765C60.2922 64.3366 60.2922 64.3009 60.2967 64.2653C60.3191 63.9138 60.3678 63.5714 60.4392 63.2377C60.448 63.1978 60.457 63.1621 60.4658 63.1266C60.5502 62.7752 60.6615 62.4327 60.7994 62.1034C60.8173 62.068 60.8306 62.0278 60.8484 61.9923C61.0085 61.6321 61.1954 61.2894 61.4134 60.9691C61.4401 60.9291 61.4669 60.8935 61.4935 60.8578C61.7116 60.5465 61.9561 60.2529 62.2274 59.9815C62.2764 59.9325 62.3297 59.8793 62.3832 59.8348C62.4231 59.7948 62.4633 59.7592 62.5033 59.7235C62.9615 59.3143 63.4775 58.9673 64.038 58.696C64.1181 58.656 64.1981 58.6203 64.2827 58.5847C65.0924 58.2332 65.9863 58.0375 66.9249 58.0375H84.9665V58.0373Z" fill="#FFE9DC"/>
<path d="M84.9682 58.5845V58.6958H64.0391C64.1192 58.6558 64.1991 58.6201 64.2838 58.5845H84.9682Z" fill="#FFB289"/>
<path d="M84.9666 59.7231V59.8344H62.3828C62.4228 59.7944 62.4629 59.7588 62.5029 59.7231H84.9666Z" fill="#FFB289"/>
<path d="M84.9666 59.7231V59.8344H62.3828C62.4228 59.7944 62.4629 59.7588 62.5029 59.7231H84.9666Z" fill="#FFB289"/>
<path d="M84.9678 60.8574V60.9687H61.4141C61.4407 60.9287 61.4676 60.8931 61.4942 60.8574H84.9678Z" fill="#FFB289"/>
<path d="M84.9678 60.8574V60.9687H61.4141C61.4407 60.9287 61.4676 60.8931 61.4942 60.8574H84.9678Z" fill="#FFB289"/>
<path d="M84.9683 61.9917V62.1028H60.8008C60.8186 62.0674 60.8319 62.0272 60.8498 61.9917H84.9683Z" fill="#FFB289"/>
<path d="M84.9683 61.9917V62.1028H60.8008C60.8186 62.0674 60.8319 62.0272 60.8498 61.9917H84.9683Z" fill="#FFB289"/>
<path d="M84.9672 63.1263V63.2373H60.4395C60.4483 63.1974 60.4573 63.1617 60.4661 63.1263H84.9672Z" fill="#FFB289"/>
<path d="M84.9672 63.1263V63.2373H60.4395C60.4483 63.1974 60.4573 63.1617 60.4661 63.1263H84.9672Z" fill="#FFB289"/>
<path d="M84.9675 64.2649V64.3762H60.293C60.293 64.3362 60.293 64.3005 60.2975 64.2649H84.9675Z" fill="#FFB289"/>
<path d="M84.9676 65.3991V65.5102H60.3375C60.333 65.4746 60.3285 65.4346 60.3242 65.3991H84.9676Z" fill="#FFB289"/>
<path d="M84.9676 65.3991V65.5102H60.3375C60.333 65.4746 60.3285 65.4346 60.3242 65.3991H84.9676Z" fill="#FFB289"/>
<path d="M84.9679 66.5335V66.6447H60.578C60.5692 66.6091 60.5559 66.5736 60.5469 66.5335H84.9679Z" fill="#FFB289"/>
<path d="M84.9679 67.6723V67.7836H61.0539C61.0317 67.7481 61.0139 67.7125 60.9961 67.6723H84.9679Z" fill="#FFB289"/>
<path d="M84.9674 68.8066V68.9177H61.8142C61.7785 68.8823 61.7519 68.8466 61.7207 68.8066H84.9674Z" fill="#FFB289"/>
<path d="M84.9676 69.9409V70.0522H63.0198C62.9708 70.0165 62.9218 69.9811 62.873 69.9409H84.9676Z" fill="#FFB289"/>
<path d="M84.9666 71.0795V71.1906H65.5853C65.4341 71.1595 65.2874 71.124 65.1406 71.0795H84.9666Z" fill="#FFB289"/>
<path d="M32.9485 58.9669C31.2225 61.2355 30.551 64.496 31.1514 67.6856C31.4672 69.3671 32.1212 70.915 33.0198 72.196H31.8543C31.067 70.9195 30.4932 69.447 30.1952 67.8635C29.5324 64.3583 30.2575 60.9019 32.1747 58.3753C32.5839 57.8371 33.0466 57.3432 33.5537 56.8985H35.164C34.3185 57.4545 33.5668 58.1574 32.9485 58.9669Z" fill="#FFB289"/>
<path d="M55.59 58.9669C53.8595 61.2355 53.188 64.496 53.7884 67.6856C54.1042 69.3671 54.7582 70.915 55.6566 72.196H54.4911C53.7038 70.9195 53.13 69.447 52.832 67.8635C52.1737 64.3583 52.8943 60.9019 54.8114 58.3753C55.2207 57.8371 55.6877 57.3432 56.1947 56.8985H57.8051C56.9555 57.4545 56.2038 58.1574 55.59 58.9669Z" fill="#FFB289"/>
<path d="M90.152 72.2309V73.7L87.1362 82.0995L90.152 90.8434V91.9683H21.0847C15.6322 91.9683 11.2188 87.5491 11.2188 82.0966C11.2188 79.3704 12.3207 76.9081 14.1057 75.1233C15.8906 73.3326 18.3585 72.2307 21.0847 72.2307H90.152V72.2309Z" fill="#AD27FC"/>
<path d="M90.1523 73.7003V90.8436H66.8734C66.2824 90.8436 65.7026 90.7862 65.1458 90.6715C64.9507 90.6313 64.7613 90.5854 64.5718 90.528C63.5731 90.2526 62.6491 89.7991 61.8341 89.2023C61.7709 89.1564 61.7078 89.1105 61.6447 89.0589C61.1397 88.6744 60.6805 88.2324 60.2788 87.7389C60.2329 87.693 60.1985 87.6471 60.1583 87.5954C59.8312 87.188 59.5441 86.746 59.2974 86.2754C59.2687 86.2295 59.2457 86.1836 59.2228 86.132C59.0047 85.7131 58.8269 85.2653 58.6834 84.8063C58.6719 84.7604 58.6547 84.7145 58.6432 84.6628C58.517 84.2382 58.4252 83.7962 58.3735 83.3428C58.3678 83.2969 58.3621 83.2453 58.3563 83.1994C58.3219 82.8953 58.3047 82.5852 58.3047 82.2696C58.3047 82.1376 58.3104 82.0056 58.3162 81.8794C58.3162 81.8278 58.3162 81.7819 58.3219 81.7359C58.3506 81.2824 58.4137 80.8406 58.5055 80.4102C58.517 80.3586 58.5285 80.3127 58.54 80.2668C58.649 79.8133 58.7924 79.3714 58.9703 78.9468C58.9933 78.9009 59.0105 78.8492 59.0334 78.8033C59.24 78.3385 59.481 77.8965 59.7624 77.4834C59.7968 77.4317 59.8312 77.3858 59.8657 77.3399C60.1468 76.938 60.4626 76.5593 60.8127 76.2093C60.8758 76.1462 60.9447 76.0773 61.0135 76.0199C61.0652 75.9683 61.1168 75.9224 61.1684 75.8765C61.7597 75.3484 62.4253 74.9008 63.1485 74.5507C63.2518 74.4991 63.3551 74.4532 63.4643 74.4073C64.5089 73.954 65.6624 73.7013 66.8734 73.7013H90.1523V73.7003Z" fill="#FFE9DC"/>
<path d="M90.1522 74.4061V74.5495H63.1484C63.2517 74.4979 63.355 74.452 63.4642 74.4061H90.1522Z" fill="#FFB289"/>
<path d="M90.1524 75.8754V76.0189H61.0137C61.0653 75.9673 61.117 75.9213 61.1686 75.8754H90.1524Z" fill="#FFB289"/>
<path d="M90.1524 75.8754V76.0189H61.0137C61.0653 75.9673 61.117 75.9213 61.1686 75.8754H90.1524Z" fill="#FFB289"/>
<path d="M90.1516 77.3389V77.4823H59.7617C59.7961 77.4307 59.8306 77.3848 59.865 77.3389H90.1516Z" fill="#FFB289"/>
<path d="M90.1516 77.3389V77.4823H59.7617C59.7961 77.4307 59.8306 77.3848 59.865 77.3389H90.1516Z" fill="#FFB289"/>
<path d="M90.1527 78.8025V78.9459H58.9707C58.9937 78.9 59.0109 78.8484 59.0338 78.8025H90.1527Z" fill="#FFB289"/>
<path d="M90.1527 78.8025V78.9459H58.9707C58.9937 78.9 59.0109 78.8484 59.0338 78.8025H90.1527Z" fill="#FFB289"/>
<path d="M90.1528 80.2659V80.4094H58.5059C58.5173 80.3577 58.5288 80.3118 58.5403 80.2659H90.1528Z" fill="#FFB289"/>
<path d="M90.1528 80.2659V80.4094H58.5059C58.5173 80.3577 58.5288 80.3118 58.5403 80.2659H90.1528Z" fill="#FFB289"/>
<path d="M90.1525 81.7353V81.8788H58.3164C58.3164 81.8271 58.3164 81.7812 58.3221 81.7353H90.1525Z" fill="#FFB289"/>
<path d="M90.1516 83.1987V83.3422H58.3727C58.3669 83.2963 58.3612 83.2446 58.3555 83.1987H90.1516Z" fill="#FFB289"/>
<path d="M90.1516 83.1987V83.3422H58.3727C58.3669 83.2963 58.3612 83.2446 58.3555 83.1987H90.1516Z" fill="#FFB289"/>
<path d="M90.1516 84.6624V84.8058H58.6827C58.6713 84.7599 58.6541 84.714 58.6426 84.6624H90.1516Z" fill="#FFB289"/>
<path d="M90.1521 86.1316V86.275H59.2972C59.2686 86.2291 59.2456 86.1832 59.2227 86.1316H90.1521Z" fill="#FFB289"/>
<path d="M90.152 87.5952V87.7387H60.2787C60.2328 87.6928 60.1984 87.6469 60.1582 87.5952H90.152Z" fill="#FFB289"/>
<path d="M90.1519 89.0587V89.2021H61.8339C61.7708 89.1562 61.7077 89.1103 61.6445 89.0587H90.1519Z" fill="#FFB289"/>
<path d="M90.1528 90.5278V90.6713H65.1463C64.9512 90.6311 64.7618 90.5852 64.5723 90.5278H90.1528Z" fill="#FFB289"/>
<path d="M23.0364 74.8998C20.8096 77.8269 19.9429 82.0337 20.7178 86.1488C21.1252 88.3183 21.9689 90.3155 23.1282 91.9685H21.6244C20.6085 90.3213 19.8681 88.4215 19.4837 86.3784C18.6285 81.8557 19.564 77.3963 22.0378 74.1364C22.5657 73.4419 23.1626 72.8049 23.817 72.2309H25.8946C24.8042 72.9484 23.8342 73.8552 23.0364 74.8998Z" fill="#FFB289"/>
<path d="M52.2487 74.8998C50.0162 77.8269 49.1495 82.0337 49.9244 86.1488C50.3318 88.3183 51.1755 90.3155 52.3348 91.9685H50.831C49.8151 90.3213 49.0747 88.4215 48.6903 86.3784C47.8408 81.8557 48.7706 77.3963 51.2443 74.1364C51.7725 73.4419 52.375 72.8049 53.0293 72.2309H55.1069C54.0108 72.9484 53.0408 73.8552 52.2487 74.8998Z" fill="#FFB289"/>
<path d="M76.9789 43.8387V44.8177L74.3697 50.5773L76.9789 56.2386V56.9881H30.9654C27.333 56.9881 24.3926 54.044 24.3926 50.4115C24.3926 48.5952 25.1269 46.9549 26.3159 45.7659C27.5051 44.573 29.1493 43.8389 30.9654 43.8389H76.9789V43.8387Z" fill="#F76A7E"/>
<path d="M76.9794 44.8175V56.2387H61.4708C61.0769 56.2387 60.6908 56.2005 60.3199 56.1239C60.1899 56.0973 60.0637 56.0665 59.9375 56.0284C59.2722 55.8448 58.6566 55.5427 58.1135 55.1451C58.0715 55.1146 58.0293 55.0839 57.9873 55.0494C57.6508 54.7933 57.3448 54.4988 57.0772 54.1701C57.0467 54.1395 57.0237 54.109 56.9969 54.0746C56.7788 53.803 56.5878 53.5085 56.4232 53.1952C56.4042 53.1646 56.3888 53.1339 56.3734 53.0997C56.2281 52.8206 56.1097 52.5224 56.014 52.2164C56.0064 52.1859 55.9949 52.1551 55.9873 52.1207C55.9031 51.8377 55.8421 51.5434 55.8076 51.2413C55.8037 51.2108 55.8 51.1764 55.7961 51.1458C55.7732 50.9432 55.7617 50.7368 55.7617 50.5263C55.7617 50.4384 55.7656 50.3505 55.7693 50.2663C55.7693 50.2318 55.7693 50.2013 55.7732 50.1708C55.7923 49.8687 55.8343 49.5742 55.8955 49.2875C55.9031 49.2531 55.9109 49.2225 55.9185 49.1918C55.991 48.8897 56.0867 48.5952 56.2052 48.3124C56.2206 48.2819 56.232 48.2475 56.2472 48.2167C56.3849 47.9071 56.5454 47.6126 56.7329 47.3373C56.7559 47.3029 56.7788 47.2724 56.8018 47.2416C56.9891 46.974 57.1993 46.7217 57.4325 46.4885C57.4746 46.4465 57.5205 46.4006 57.5664 46.3623C57.6008 46.3278 57.6352 46.2973 57.6697 46.2668C58.0635 45.9149 58.507 45.6167 58.9888 45.3835C59.0577 45.3491 59.1265 45.3185 59.1991 45.2878C59.895 44.9857 60.6635 44.8175 61.4704 44.8175H76.9794Z" fill="#FFE9DC"/>
<path d="M76.9784 45.2878V45.3835H58.9883C59.0571 45.3491 59.126 45.3185 59.1985 45.2878H76.9784Z" fill="#FFB289"/>
<path d="M76.9788 46.2665V46.362H57.5664C57.6008 46.3276 57.6353 46.2971 57.6697 46.2665H76.9788Z" fill="#FFB289"/>
<path d="M76.9788 46.2665V46.362H57.5664C57.6008 46.3276 57.6353 46.2971 57.6697 46.2665H76.9788Z" fill="#FFB289"/>
<path d="M76.9785 47.2416V47.3373H56.7324C56.7554 47.3029 56.7783 47.2723 56.8013 47.2416H76.9785Z" fill="#FFB289"/>
<path d="M76.9785 47.2416V47.3373H56.7324C56.7554 47.3029 56.7783 47.2723 56.8013 47.2416H76.9785Z" fill="#FFB289"/>
<path d="M76.9789 48.2167V48.3124H56.2051C56.2204 48.2819 56.2319 48.2474 56.2471 48.2167H76.9789Z" fill="#FFB289"/>
<path d="M76.9789 48.2167V48.3124H56.2051C56.2204 48.2819 56.2319 48.2474 56.2471 48.2167H76.9789Z" fill="#FFB289"/>
<path d="M76.9799 49.1916V49.2873H55.8965C55.9041 49.2529 55.9119 49.2223 55.9194 49.1916H76.9799Z" fill="#FFB289"/>
<path d="M76.9799 49.1916V49.2873H55.8965C55.9041 49.2529 55.9119 49.2223 55.9194 49.1916H76.9799Z" fill="#FFB289"/>
<path d="M76.9792 50.1705V50.266H55.7695C55.7695 50.2316 55.7695 50.2011 55.7734 50.1705H76.9792Z" fill="#FFB289"/>
<path d="M76.9797 51.1456V51.2411H55.8084C55.8045 51.2106 55.8008 51.1761 55.7969 51.1456H76.9797Z" fill="#FFB289"/>
<path d="M76.9797 51.1456V51.2411H55.8084C55.8045 51.2106 55.8008 51.1761 55.7969 51.1456H76.9797Z" fill="#FFB289"/>
<path d="M76.9799 52.1205V52.2162H56.0149C56.0073 52.1857 55.9959 52.1549 55.9883 52.1205H76.9799Z" fill="#FFB289"/>
<path d="M76.9788 53.0995V53.195H56.4228C56.4038 53.1644 56.3884 53.1337 56.373 53.0995H76.9788Z" fill="#FFB289"/>
<path d="M76.9784 54.0743V54.1698H57.0764C57.0459 54.1393 57.0229 54.1088 56.9961 54.0743H76.9784Z" fill="#FFB289"/>
<path d="M76.9801 55.0494V55.1451H58.1145C58.0725 55.1146 58.0303 55.0839 57.9883 55.0494H76.9801Z" fill="#FFB289"/>
<path d="M76.9794 56.0284V56.1239H60.3199C60.19 56.0973 60.0637 56.0665 59.9375 56.0284H76.9794Z" fill="#FFB289"/>
<path d="M32.2646 45.6167C30.7811 47.5666 30.2038 50.3695 30.7198 53.1109C30.9913 54.5563 31.5533 55.8868 32.3257 56.9881H31.324C30.6473 55.8907 30.154 54.625 29.8978 53.2638C29.3281 50.2509 29.9513 47.2799 31.5994 45.108C31.9511 44.6455 32.3488 44.2211 32.7847 43.8387H34.1688C33.4424 44.3166 32.7962 44.9207 32.2646 45.6167Z" fill="#FFB289"/>
<path d="M51.7276 45.6167C50.2402 47.5667 49.6629 50.3695 50.1791 53.1109C50.4507 54.5563 51.0126 55.8868 51.785 56.9881H50.7833C50.1066 55.8907 49.6133 54.625 49.3571 53.2638C48.7913 50.2509 49.4106 47.28 51.0587 45.1081C51.4106 44.6455 51.812 44.2211 52.2479 43.8387H53.632C52.9015 44.3166 52.2551 44.9208 51.7276 45.6167Z" fill="#FFB289"/>
<path d="M49.0513 21.053C48.9853 21.317 48.9093 21.5656 48.8279 21.799C48.6199 22.4232 48.3711 22.9509 48.1783 23.3266V23.3317C47.9854 23.7071 47.8432 23.9254 47.8432 23.9254L17.3935 75.7565C7.15722 77.7003 8.58335 68.6312 8.58335 68.6312L36.0542 16.8002L36.2724 17.4448L36.4755 18.0587C36.4755 18.0639 36.4755 18.0739 36.4806 18.0842L36.6226 18.5155L36.8307 19.1346C38.3328 15.6735 40.4898 14.415 42.2608 14.0242C44.0118 13.6334 45.3819 14.0801 45.3819 14.0801C49.447 15.7346 49.6196 18.7846 49.0513 21.053Z" fill="#FFE9DC"/>
<g opacity="0.47">
<path opacity="0.47" d="M49.0508 21.0531C48.9848 21.317 48.9088 21.5656 48.8274 21.799C48.6194 22.3927 48.386 22.9003 48.1981 23.2606V23.2657C47.2541 23.9711 46.1122 24.4279 44.9349 24.5599C43.9504 24.6664 42.9456 24.5498 41.9965 24.2504C41.956 24.2402 41.9103 24.225 41.8697 24.2099C41.8291 24.1947 41.7885 24.1844 41.7477 24.1642C40.6921 23.7936 39.7128 23.1897 38.9057 22.4132C37.8349 21.383 37.033 19.9874 36.6219 18.5156C36.5762 18.3481 36.5357 18.1856 36.5 18.0182L36.8502 19.0687C38.3473 15.6127 40.5042 14.354 42.2703 13.9582C42.2806 13.9582 42.2906 13.9531 42.3009 13.9531C42.5546 13.8974 42.7982 13.8617 43.0317 13.8363C44.407 13.6892 45.4017 14.014 45.4017 14.014C49.5074 15.6838 49.6445 18.7795 49.0508 21.0531Z" fill="#FFB289"/>
</g>
<path d="M44.6214 20.4137L41.9976 24.2505L41.9773 24.2808C41.9519 24.3162 41.9113 24.3365 41.8707 24.3365C41.8453 24.3365 41.8199 24.3314 41.7996 24.3162C41.7539 24.2808 41.7336 24.2199 41.7488 24.164C41.7539 24.1588 41.759 24.1488 41.764 24.1386L44.2457 20.52C44.0935 20.5352 43.9412 20.4946 43.7992 20.4692L43.7383 20.4592C42.571 20.2715 41.5459 19.4847 41.0485 18.4088C40.5614 17.338 40.6374 16.0439 41.2516 15.0339C41.4799 14.6534 41.7845 14.3234 42.1296 14.0595C42.1347 14.0595 42.1347 14.0595 42.1347 14.0595C42.1804 14.0238 42.2261 13.9884 42.2718 13.958C42.282 13.958 42.2921 13.9529 42.3023 13.9529C42.556 13.8972 42.7997 13.8615 43.0331 13.8361C42.9671 13.8615 42.9011 13.8918 42.8352 13.9224C42.2769 14.2066 41.7947 14.638 41.4699 15.1657C40.8965 16.1045 40.8254 17.3073 41.2822 18.302C41.739 19.3019 42.6983 20.0327 43.7791 20.2102L43.84 20.2204C44.0633 20.261 44.2916 20.2965 44.4693 20.2255C44.525 20.2053 44.581 20.2204 44.6164 20.261C44.6517 20.3071 44.6568 20.368 44.6214 20.4137Z" fill="#FFB289"/>
<path d="M96.3415 43.671L98.9551 47.4232L94.3859 47.5994L90.6337 50.2131L90.4575 45.6439L87.8438 41.8918L92.4132 41.7155L96.1651 39.1018L96.3415 43.671Z" fill="#BD6EEB"/>
<path d="M10.9343 81.5042L15.3974 82.4991L12.1516 85.7201L11.1567 90.1831L7.93571 86.9376L3.47266 85.9426L6.7182 82.7217L7.71336 78.2586L10.9343 81.5042Z" fill="#FFB289"/>
<path d="M82.5391 80.7033L95.3237 72.5833L96.0147 86.9228L82.5391 80.7033Z" fill="#7182FF"/>
<path d="M20.2484 42.5644C25.7845 41.8453 30.8511 45.7468 31.5702 51.2829C31.6042 51.5446 31.6274 51.8026 31.6356 52.0625L11.6606 54.6572C11.6022 54.4037 11.5588 54.1483 11.5248 53.8866C10.8056 48.3507 14.7125 43.2835 20.2484 42.5644Z" fill="#BD6EEB"/>
</g>
<defs>
<clipPath id="clip0_201_5011">
<rect width="104.926" height="104.926" fill="white" transform="translate(0.427734 0.223145)"/>
</clipPath>
</defs>
</svg>
