<svg width="100" height="100" viewBox="0 0 100 100" fill="none" xmlns="http://www.w3.org/2000/svg">
<path d="M92.0936 64.4242C91.4643 69.2291 89.9906 73.8246 87.7057 78.101C84.4926 84.1268 79.7621 89.277 74.025 92.9955C73.9227 93.0652 73.8191 93.133 73.7133 93.1957C67.2537 97.3072 59.7752 99.4805 52.0838 99.4805C44.8654 99.4805 37.8305 97.5658 31.6584 93.9324C29.0725 97.6045 26.1557 99.6289 22.9676 99.9586C22.7014 99.9863 22.4354 100 22.1771 100C20.275 100 18.5939 99.2455 17.3162 97.818C13.4152 93.46 14.2484 83.6354 14.4209 81.9768C14.4148 81.5666 14.377 80.035 14.1324 78.6381C13.9545 77.6223 13.1391 76.1869 12.7008 75.4158C12.534 75.1225 12.415 74.9131 12.324 74.7246C12.2486 74.6246 12.1119 74.4537 12.0064 74.3219C10.8273 72.8465 9.2125 70.826 9.88828 68.799C9.89258 68.7863 9.89668 68.7736 9.90117 68.7609L8.26621 65.8904C7.68711 64.8686 7.64102 63.6293 8.14043 62.5711C8.63906 61.5137 9.62402 60.7615 10.7752 60.5598L10.86 60.5447H5.60957C3.60723 60.5447 1.97852 58.9156 1.97852 56.9135V53.7232C1.97852 51.7209 3.60742 50.092 5.60957 50.092H12.7426C13.0551 48.7264 13.4398 47.3746 13.8936 46.048C11.0707 44 9.32793 40.677 9.32793 37.1271C9.32793 31.0574 14.266 26.1193 20.3361 26.1193C22.5336 26.1193 24.6414 26.7641 26.4352 27.9625C26.8072 27.6561 27.1852 27.3561 27.5668 27.0637C27.5309 26.9289 27.2832 26.0031 27.2832 26.0031C27.2023 25.7031 27.1207 25.3988 27.0402 25.0916C24.917 24.7373 23.0938 23.7932 21.8256 22.3725C19.7447 20.0398 19.3359 16.4684 20.8312 13.6869C21.9939 11.5242 24.0684 9.9375 26.2838 9.41621C26.8842 6.68301 28.6033 4.52988 31.1805 3.36211C32.6613 2.69121 34.1609 2.36484 35.7646 2.36484C37.4711 2.36484 39.0186 2.73125 40.5121 3.10469C41.898 2.26973 43.4912 1.81855 45.0982 1.81855C45.4398 1.81855 45.7834 1.83945 46.1191 1.88086C48.6656 2.19434 50.9781 3.67168 52.3785 5.79023C52.3813 5.79023 52.3838 5.79023 52.3865 5.79023C53.1268 5.79023 53.876 5.91777 54.598 6.1584C56.4125 2.46934 60.2137 0 64.4811 0C70.5512 0 75.4893 4.93809 75.4893 11.008C75.4893 16.1473 71.9494 20.4752 67.1797 21.6818C68.3174 22.1408 69.435 22.6527 70.5299 23.2166H93.0551C95.7935 23.2166 98.0213 25.4443 98.0213 28.1828V54.3301C98.0213 55.5236 97.0535 56.4914 95.86 56.4914H92.3535C92.4123 57.3768 92.4418 58.2559 92.4418 59.1223C92.4418 59.8498 92.4215 60.5881 92.3805 61.3299C92.3805 61.3301 92.1467 64.0334 92.0936 64.4242Z" fill="white"/>
<path d="M90.0951 59.1224C90.0951 65.6135 88.4742 71.7299 85.6141 77.0826C82.5559 82.8172 78.0748 87.6801 72.6428 91.1957C72.5635 91.2498 72.4844 91.3037 72.4014 91.3506C66.4795 95.1293 59.4445 97.3193 51.898 97.3193C44.4344 97.3193 37.4717 95.1797 31.5893 91.473C31.5533 91.4551 31.5137 91.4299 31.4775 91.4045C31.4271 91.3756 31.3803 91.3469 31.3334 91.3144C31.1568 91.2027 30.9805 91.0875 30.8074 90.9723C29.9717 90.4176 29.1576 89.8305 28.3688 89.2109C28.2643 89.1316 28.1563 89.0453 28.0518 88.9588C25.7428 87.1181 23.6572 85.0109 21.8346 82.6875C20.5521 81.0521 19.3996 79.3123 18.3945 77.4789C18.3477 77.3996 18.3045 77.3168 18.2613 77.234C17.2635 75.3896 16.417 73.4517 15.7291 71.4381C15.4121 70.5051 15.1311 69.5578 14.8861 68.5924C14.6736 67.7711 14.4936 66.9426 14.3387 66.0998C14.101 64.8174 13.9281 63.5099 13.8236 62.1842C13.7408 61.1756 13.7012 60.1525 13.7012 59.1224C13.7012 46.2342 20.0805 34.8369 29.8566 27.9246C30.5555 27.4275 31.2686 26.9557 31.9998 26.509C32.0322 26.4838 32.0682 26.4621 32.1043 26.4441C32.976 25.9146 33.8693 25.4211 34.7842 24.9637C34.8598 24.924 34.9355 24.8844 35.0146 24.8484C35.9008 24.409 36.8121 24.0019 37.7379 23.6346H37.7414C38.4834 23.3355 39.2363 23.0619 40.0035 22.8133C42.3232 22.0496 44.7439 21.5057 47.2365 21.2068C47.4455 21.1779 47.6543 21.1564 47.8633 21.1348C48.7242 21.0412 49.5959 20.9799 50.4748 20.951C50.9467 20.9293 51.4223 20.9221 51.8977 20.9221C52.1174 20.9221 52.3336 20.9256 52.5533 20.9293H52.6975C54.0303 20.9582 55.3486 21.0517 56.6453 21.2139C57.3729 21.3039 58.0969 21.4156 58.8102 21.5488C76.6051 24.7978 90.0951 40.3842 90.0951 59.1224Z" fill="#B8B9FD"/>
<path d="M92.8596 29.1729L95.675 30.7135V54.3303H61.3008V30.6824L63.2289 28.8928L64.4273 27.2119L91.3344 27.71L92.8596 29.1729Z" fill="#FEF1E4"/>
<path d="M95.675 28.1828V30.6953H61.3008V28.1828C61.3008 26.632 62.5551 25.3777 64.1059 25.3777H92.8699C94.4207 25.3777 95.675 26.632 95.675 28.1828Z" fill="#FFD484"/>
<path d="M86.542 29.0592C87.0128 29.0592 87.3945 28.6775 87.3945 28.2067C87.3945 27.7358 87.0128 27.3541 86.542 27.3541C86.0711 27.3541 85.6895 27.7358 85.6895 28.2067C85.6895 28.6775 86.0711 29.0592 86.542 29.0592Z" fill="#FF470C"/>
<path d="M89.2705 29.0592C89.7414 29.0592 90.123 28.6775 90.123 28.2067C90.123 27.7358 89.7414 27.3541 89.2705 27.3541C88.7997 27.3541 88.418 27.7358 88.418 28.2067C88.418 28.6775 88.7997 29.0592 89.2705 29.0592Z" fill="#FFB4DC"/>
<path d="M92.0967 29.0592C92.5675 29.0592 92.9492 28.6775 92.9492 28.2067C92.9492 27.7358 92.5675 27.3541 92.0967 27.3541C91.6258 27.3541 91.2441 27.7358 91.2441 28.2067C91.2441 28.6775 91.6258 29.0592 92.0967 29.0592Z" fill="#B8B9FD"/>
<path d="M93.8178 51.5691H64.4053C64.2926 51.5691 64.2012 51.4777 64.2012 51.3646V35.5111C64.2012 35.398 64.2926 35.3066 64.4053 35.3066C64.518 35.3066 64.6094 35.398 64.6094 35.5111V51.1602H93.8178C93.9305 51.1602 94.0219 51.2516 94.0219 51.3646C94.0219 51.4777 93.9307 51.5691 93.8178 51.5691Z" fill="#040308"/>
<path d="M73.5135 39.231H69.4805V50.0783H73.5135V39.231Z" fill="#FFD484"/>
<path d="M81.5799 37.1451H77.5469V50.0783H81.5799V37.1451Z" fill="#FFB4DC"/>
<path d="M89.9236 35.1982H85.8906V50.0783H89.9236V35.1982Z" fill="#B8B9FD"/>
<path d="M69.8974 37.1408C69.8039 37.1408 69.7197 37.076 69.6984 36.9813C69.6736 36.8707 69.7431 36.7615 69.8531 36.7371L85.9847 33.1215C86.0945 33.0969 86.2039 33.166 86.2287 33.276C86.2535 33.3865 86.1839 33.4957 86.074 33.5201L69.9423 37.1357C69.9271 37.1393 69.9121 37.1408 69.8974 37.1408Z" fill="#040308"/>
<path d="M84.1513 34.9855C84.0845 34.9855 84.0189 34.9525 83.9796 34.8924C83.9183 34.7976 83.9451 34.6711 84.04 34.6098L86.1396 33.2474L83.2228 32.8974C83.1109 32.884 83.0308 32.7824 83.0445 32.6701C83.0578 32.5584 83.157 32.4732 83.2714 32.492L86.7482 32.9092C86.8337 32.9193 86.9033 32.982 86.9228 33.0658C86.9423 33.1496 86.9072 33.2363 86.8349 33.2834L84.2621 34.9525C84.2281 34.975 84.1894 34.9855 84.1513 34.9855Z" fill="#040308"/>
<path d="M64.2961 19.8551C69.1821 19.8551 73.143 15.8942 73.143 11.0082C73.143 6.1222 69.1821 2.16132 64.2961 2.16132C59.4101 2.16132 55.4492 6.1222 55.4492 11.0082C55.4492 15.8942 59.4101 19.8551 64.2961 19.8551Z" fill="#B8B9FD"/>
<path d="M62.8537 8.60974C62.8537 8.60974 62.3402 5.1531 63.1275 5.08455C63.9146 5.01619 65.6601 8.50701 65.6601 8.50701L67.3714 8.71228L67.0634 15.6941C67.0634 15.6941 59.1234 15.9679 58.8837 15.1465C58.6441 14.325 58.8154 13.6064 58.8154 13.6064C58.8154 13.6064 58.2336 12.6138 58.3705 12.032C58.5074 11.4502 58.7812 10.9369 58.7812 10.9369C58.7812 10.9369 58.4046 9.87595 58.5074 9.22556C58.6101 8.57537 59.7394 8.50681 60.3554 8.54119C60.9713 8.57556 62.8537 8.60974 62.8537 8.60974Z" fill="#FEF1E4"/>
<path d="M70.4182 15.7789C70.418 15.7789 70.4178 15.7789 70.4176 15.7789L65.6475 15.7103C65.6195 15.7099 65.5975 15.6871 65.5977 15.6593C65.598 15.6314 65.6207 15.6131 65.6486 15.6095L70.3689 15.6775L70.5039 8.93063L65.692 8.62575C65.6643 8.62399 65.6434 8.60016 65.6449 8.57243C65.6469 8.5447 65.6713 8.52575 65.6982 8.52536L70.5582 8.83317C70.5852 8.83493 70.6059 8.85759 70.6055 8.88434L70.4686 15.7295C70.468 15.757 70.4455 15.7789 70.4182 15.7789Z" fill="#FEF1E4"/>
<path d="M28.9984 37.1273C28.9984 32.2414 25.0375 28.2806 20.1516 28.2806C15.2656 28.2806 11.3047 32.2414 11.3047 37.1273C11.3047 41.7226 14.8086 45.4986 19.2902 45.9318L17.8723 50.1047L21.4473 45.8789C25.7188 45.2517 28.9984 41.573 28.9984 37.1273Z" fill="#0060FF"/>
<path d="M26.5145 33.5884H14.0801V40.6416H26.5145V33.5884Z" fill="#FEF1E4"/>
<path d="M20.3239 37.6365C20.3143 37.6365 20.3045 37.634 20.2963 37.6285L14.053 33.6318C14.0291 33.6166 14.0221 33.5848 14.0373 33.5611C14.0532 33.5375 14.085 33.5307 14.1081 33.5455L20.3237 37.5244L26.4872 33.5455C26.5104 33.5303 26.5426 33.5375 26.5579 33.5607C26.5733 33.5849 26.5663 33.6162 26.5426 33.6318L20.3516 37.6285C20.343 37.6334 20.3336 37.6365 20.3239 37.6365Z" fill="#040308"/>
<path d="M14.0803 40.6927C14.0643 40.6927 14.0486 40.6851 14.0387 40.6711C14.0225 40.6478 14.0277 40.616 14.0508 40.5996L19.2492 36.9162C19.2725 36.9002 19.3045 36.906 19.3205 36.9285C19.3367 36.9517 19.3315 36.9836 19.3084 37L14.11 40.6834C14.1008 40.6896 14.0906 40.6927 14.0803 40.6927Z" fill="#040308"/>
<path d="M26.5139 40.6928C26.503 40.6928 26.4917 40.6889 26.4825 40.6818L21.5977 36.8418C21.5755 36.8244 21.5716 36.7922 21.5891 36.7699C21.6069 36.7482 21.6391 36.7445 21.6608 36.7615L26.5456 40.6016C26.5678 40.6189 26.5718 40.6512 26.5542 40.6734C26.544 40.6859 26.529 40.6928 26.5139 40.6928Z" fill="#040308"/>
<path d="M85.6156 77.0826C82.5574 82.8172 78.0764 87.6801 72.6443 91.1957C72.565 91.2498 72.4859 91.3037 72.4029 91.3506C66.4811 95.1293 59.4461 97.3193 51.8996 97.3193C44.4359 97.3193 37.4732 95.1797 31.5908 91.473C31.5549 91.4551 31.5152 91.4299 31.4791 91.4045L31.4502 89.834L31.3602 84.809L31.1873 83.93L25.8418 56.9754C29.7824 47.2281 39.1191 42.7254 41.0463 41.7998C41.2768 41.6881 41.2912 41.2775 41.2912 41.2775L48.607 40.2617L58.0627 38.9506C58.0627 38.9506 72.0713 45.6937 79.9203 57.7103C83.0328 62.476 84.715 69.8783 85.6156 77.0826Z" fill="#FF470C"/>
<path d="M25.8415 56.9748C25.8415 56.9748 22.5612 64.6082 20.9977 70.1264C19.4342 75.6445 16.3993 82.0822 16.3993 82.0822C16.3993 82.0822 14.5598 98.6367 22.5612 97.809C30.5624 96.9812 34.701 81.8064 34.701 81.8064L25.8415 56.9748Z" fill="#FF470C"/>
<path d="M28.3095 89.7044C28.2484 89.7044 28.1947 89.6605 28.1847 89.5982C27.508 85.4474 23.2859 79.9619 23.2433 79.907C23.2005 79.8515 23.2105 79.7718 23.266 79.7291C23.3214 79.6857 23.4009 79.6966 23.4439 79.7515C23.4869 79.8072 27.748 85.3437 28.4349 89.5574C28.4463 89.6263 28.3994 89.6918 28.3302 89.7031C28.3232 89.7041 28.3164 89.7044 28.3095 89.7044Z" fill="#040308"/>
<path d="M25.5965 74.8168L25.294 74.9175L25.2075 74.9464L17.2252 77.5761L9.95981 64.8211C9.46997 63.9566 9.98149 62.8615 10.9649 62.6886L17.2831 61.572L17.3852 61.5867L17.4379 61.5503C18.0036 61.5072 18.551 61.7988 18.8249 62.3031L25.5965 74.8168Z" fill="#040308"/>
<path d="M25.2943 74.9177L25.2078 74.9466C23.2807 71.2868 21.2887 67.5119 19.2428 63.8234C18.9582 63.3119 18.6377 62.732 18.2053 62.2673C17.9244 61.9611 17.6109 61.7271 17.2832 61.5722L17.3084 61.5687C17.3516 61.5615 17.3949 61.5542 17.4381 61.5507C17.7334 61.7056 18.018 61.9288 18.2738 62.2062C18.7098 62.6781 19.0338 63.2652 19.3184 63.7804C21.3645 67.4792 23.3637 71.2542 25.2943 74.9177Z" fill="#FEF1E4"/>
<path d="M17.4997 63.0775C17.3952 63.0092 17.2763 62.984 17.1538 63.0054L15.3167 63.3476C15.0681 63.3945 14.9025 63.6322 14.9493 63.8806C14.971 64.0031 15.0394 64.1076 15.1402 64.1761C15.2195 64.2302 15.3095 64.2554 15.3995 64.2554C15.4284 64.2554 15.4572 64.2554 15.4861 64.2482L17.3232 63.906C17.4421 63.8844 17.5466 63.816 17.6185 63.7152C17.687 63.6142 17.7122 63.4918 17.6906 63.373C17.6691 63.2504 17.6005 63.1459 17.4997 63.0775ZM17.5429 63.6646C17.4853 63.7439 17.4025 63.8015 17.3052 63.8195L15.4681 64.1617C15.3708 64.1797 15.2736 64.1582 15.1908 64.1004C15.1115 64.0463 15.0575 63.9635 15.0394 63.8662C14.9997 63.6644 15.1329 63.4736 15.3312 63.434L17.1718 63.0918C17.1935 63.0883 17.215 63.0883 17.2402 63.0883C17.3122 63.0883 17.3843 63.1099 17.4454 63.1531C17.5283 63.207 17.5824 63.29 17.6003 63.3873C17.6187 63.4845 17.597 63.5818 17.5429 63.6646Z" fill="#FEF1E4"/>
<path d="M16.399 82.0822C16.399 82.0822 16.399 80.1049 16.0771 78.2656C15.7553 76.4262 14.2377 74.173 14.0539 73.7131C13.8699 73.2533 11.3408 70.724 11.7547 69.4824C12.1685 68.2408 14.4219 65.3898 15.2494 65.8496C16.0771 66.3096 14.1918 70.2182 14.1918 70.2182L15.3262 71.6283C15.3262 71.6283 17.2269 70.6779 18.4683 70.448C19.7099 70.2182 24.4463 69.0225 24.5844 69.8963C24.7223 70.7699 17.9166 73.483 17.9166 73.483L18.1926 73.8969C18.1926 73.8969 26.8377 70.724 27.3435 71.6896C27.8494 72.6553 21.1426 75.8295 21.1426 75.8295C21.1426 75.8295 26.5619 73.3451 26.9758 74.035C27.3896 74.7248 23.251 77.7137 23.251 77.7137C23.251 77.7137 23.7568 81.2084 22.2853 82.4041C20.8139 83.5998 17.3187 83.1859 16.399 82.0822Z" fill="#FFB4DC"/>
<path d="M31.5896 91.473C31.5537 91.4551 31.5141 91.4299 31.4779 91.4045C31.4275 91.3756 31.3807 91.3469 31.3338 91.3144L31.3086 90.0933L31.1861 83.9301L30.9305 71.2433L30.8008 64.7955C30.8008 64.7234 30.8549 64.6658 30.9268 64.6658C30.9953 64.6623 31.0529 64.7199 31.0564 64.7883L31.2006 71.9996L31.5535 89.6392L31.5896 91.473Z" fill="#040308"/>
<path d="M70.4183 64.7812L72.6445 91.1955C72.5652 91.2496 72.4861 91.3035 72.4031 91.3504L70.1662 64.8029C70.1627 64.7345 70.2131 64.6732 70.2814 64.666C70.3535 64.6588 70.4146 64.7129 70.4183 64.7812Z" fill="#040308"/>
<path d="M40.9545 5.48749C38.025 4.78476 35.2434 3.81112 31.8891 5.33105C29.3859 6.46523 28.1041 8.69316 28.0285 11.409C25.8133 11.2205 23.6045 12.7525 22.5516 14.7107C21.4988 16.6689 21.7746 19.2748 23.2549 20.9338C24.4775 22.3041 26.3482 22.9578 28.1814 23.0691C30.0146 23.1805 31.8393 22.806 33.6328 22.4111C34.1477 22.2978 34.5375 21.7933 34.8875 21.399C36.9213 19.1094 38.6965 16.59 40.1684 13.9045C40.8498 12.6611 41.4719 11.367 41.7726 9.98144C42.0732 8.5955 41.56 6.76952 40.9545 5.48749Z" fill="#0060FF"/>
<path d="M39.5137 6.71601C40.8877 4.80996 43.3381 3.73925 45.6703 4.02636C48.0023 4.31328 50.1203 5.94589 50.9912 8.12832C53.1238 7.48086 55.615 8.68242 56.7143 10.6213C57.8135 12.5602 57.6826 15.0455 56.7029 17.0477C58.127 18.3494 58.8635 20.2625 58.8287 22.1914C58.7574 26.1463 56.1947 29.948 52.5555 31.4978C49.1498 23.0951 44.5908 14.2273 39.5137 6.71601Z" fill="#0060FF"/>
<path d="M58.0623 38.9506C58.0623 38.9506 55.3932 47.3183 47.4828 45.7549C47.4828 45.7549 43.7365 45.265 41.4564 42.3689C41.3123 42.1889 41.1756 42.0016 41.0459 41.7998L40.6424 40.5174L39.5762 37.1098L52.8176 27.5461L58.0623 38.9506Z" fill="#FFB4DC"/>
<path d="M49.9865 38.2914C48.841 40.4924 46.777 42.2717 44.3455 42.776C43.7547 42.8984 43.1389 42.9453 42.548 42.8229C42.1627 42.7436 41.7881 42.5852 41.4566 42.369C41.3125 42.1889 41.1758 42.0016 41.0461 41.7998L40.6426 40.5174C43.7764 37.0162 46.9895 33.2268 51.1248 31.0438C51.4201 33.5078 51.132 36.0869 49.9865 38.2914Z" fill="#040308"/>
<path d="M37.6556 40.3492C44.4216 42.2889 52.8083 38.176 52.9591 30.2037C53.0224 26.7469 52.8755 24.0736 52.6899 22.1578C52.5823 21.041 52.4562 20.1816 52.3569 19.5726C52.3073 18.7238 52.1776 17.8707 51.9448 17.025C50.1831 10.6258 43.5392 6.87499 37.1056 8.64628C34.4608 9.37441 32.2673 10.9197 30.7183 12.9344C29.3868 14.666 28.5351 16.7473 28.289 18.9191C28.0071 21.4086 28.7354 23.7351 29.3634 26.106C29.8333 27.8801 30.3116 29.6426 30.9413 31.3703C32.0472 34.4055 33.6042 38.2332 36.5835 39.8969C36.9233 40.0863 37.2812 40.2418 37.6556 40.3492Z" fill="#FFB4DC"/>
<path d="M36.7123 32.5092C36.6949 32.5092 36.6773 32.5057 36.6609 32.4982C36.6251 32.4824 36.5986 32.4512 36.5892 32.4131C35.9546 29.8592 35.3265 27.266 34.7222 24.7055C34.706 24.6373 34.7482 24.5689 34.8164 24.5527C34.8849 24.5387 34.9529 24.5787 34.9689 24.6471C35.5605 27.1531 36.1748 29.6904 36.7955 32.1914C37.3158 31.8941 37.7884 31.524 38.2023 31.0896C38.2505 31.0391 38.3308 31.0377 38.3816 31.0853C38.4322 31.1336 38.4341 31.2141 38.3859 31.2648C37.9158 31.758 37.3728 32.1717 36.7722 32.4943C36.7537 32.5043 36.733 32.5092 36.7123 32.5092Z" fill="#040308"/>
<path d="M39.1409 33.7214C38.6774 33.7214 38.2961 33.3306 38.1532 33.1843C38.1043 33.1339 38.1053 33.0539 38.1555 33.0048C38.2053 32.9564 38.2856 32.957 38.3348 33.007C38.7348 33.4168 39.0619 33.548 39.3641 33.422C39.7625 33.2547 39.8006 32.7632 39.8053 32.2742C39.8061 32.2045 39.8661 32.1529 39.9334 32.149C40.0034 32.1498 40.0598 32.207 40.059 32.2771C40.0547 32.7007 40.0475 33.4099 39.4623 33.6556C39.3522 33.7017 39.2444 33.7214 39.1409 33.7214Z" fill="#040308"/>
<path d="M33.2144 27.0459C33.3486 27.5207 33.1238 27.9998 32.7123 28.116C32.3009 28.2322 31.8585 27.9416 31.7244 27.4668C31.5902 26.992 31.815 26.5129 32.2265 26.3967C32.638 26.2805 33.0802 26.5711 33.2144 27.0459Z" fill="#040308"/>
<path d="M40.48 24.3328C40.6142 24.8076 40.3894 25.2867 39.9779 25.4029C39.5664 25.5191 39.1242 25.2285 38.99 24.7537C38.8558 24.2789 39.0806 23.7998 39.4921 23.6835C39.9037 23.5673 40.346 23.858 40.48 24.3328Z" fill="#040308"/>
<path d="M29.2582 23.9564C29.1799 24.1605 29.1373 24.4072 29.264 24.5853C29.3984 24.7742 29.6648 24.8064 29.8961 24.79C30.1793 24.7699 30.4574 24.7027 30.7277 24.6156C31.3078 24.4291 31.8869 24.1238 32.1996 23.6007C32.364 23.3257 32.4342 22.9488 32.2334 22.699C32.1625 22.6107 32.0644 22.5478 31.9623 22.499C30.9521 22.0172 29.6129 23.0328 29.2582 23.9564Z" fill="#0060FF"/>
<path d="M37.3519 22.8068C37.2736 23.0109 37.231 23.2576 37.3578 23.4357C37.4922 23.6246 37.7586 23.6568 37.9898 23.6404C38.273 23.6203 38.5511 23.5529 38.8215 23.466C39.4015 23.2795 39.9806 22.9742 40.2933 22.4511C40.4578 22.1761 40.5279 21.7992 40.3271 21.5494C40.2562 21.4611 40.1582 21.3982 40.056 21.3494C39.0461 20.8676 37.7066 21.8832 37.3519 22.8068Z" fill="#0060FF"/>
<path d="M52.9137 18.7664C53.8854 18.5711 54.9256 18.9379 55.6441 19.6207C56.3627 20.3035 56.7744 21.2705 56.8906 22.2549C57.1541 24.483 55.832 26.8078 53.7826 27.7209C53.2658 27.9511 52.6893 28.099 52.1338 27.9914C51.3893 27.8472 50.7887 27.2547 50.4678 26.5676C50.1469 25.8804 50.0684 25.106 50.0516 24.3478C50.0039 22.1929 50.2754 19.2965 52.9137 18.7664Z" fill="#FFB4DC"/>
<path d="M52.6267 24.6601C52.6161 24.6601 52.6054 24.6592 52.5946 24.6562C52.5214 24.6387 52.4765 24.565 52.494 24.492C52.6265 23.9414 52.7636 23.3719 52.9999 22.8383C53.2706 22.2273 53.6329 21.7594 54.0769 21.4478C54.1384 21.4049 54.2235 21.4197 54.2667 21.4812C54.3101 21.5428 54.295 21.6275 54.2335 21.6709C53.8308 21.9533 53.4995 22.3836 53.2491 22.9488C53.0229 23.4596 52.8888 24.0168 52.7591 24.556C52.744 24.6183 52.6882 24.6601 52.6267 24.6601Z" fill="#040308"/>
<path d="M41.2401 5.22345C39.8434 5.87091 38.5143 6.72364 37.5227 7.90098C36.5311 9.07852 35.9018 10.6102 36.0176 12.1453C36.0791 12.9613 36.3766 13.7998 37.0127 14.3149C37.952 15.0752 39.408 14.9051 40.376 14.1816C40.1906 15.2875 40.059 16.4207 40.2752 17.5211C40.4914 18.6215 41.1985 19.6973 42.2707 20.025C43.0486 20.2627 43.9145 20.0727 44.6092 19.6492C45.3039 19.226 45.8455 18.5897 46.2924 17.91C46.2412 18.9996 46.4815 20.0838 47.0844 20.9928C47.6873 21.9018 48.7293 22.5549 49.8195 22.5209C50.2705 22.5068 50.7133 22.3795 51.1219 22.1883C53.211 21.2107 54.1955 18.6426 53.927 16.3516C53.6584 14.0606 52.3826 12.0145 50.9631 10.1965C49.8192 8.73145 48.5424 7.34122 46.9877 6.32247C45.433 5.30352 42.9262 4.44161 41.2401 5.22345Z" fill="#0060FF"/>
<path d="M5.425 52.2533H20.7502C21.5621 52.2533 22.2201 52.9115 22.2201 53.7232V56.9135C22.2201 57.7254 21.5619 58.3834 20.7502 58.3834H16.4746L16.8406 61.5734L14.4873 58.3834H5.425C4.61309 58.3834 3.95508 57.7252 3.95508 56.9135V53.7232C3.95508 52.9115 4.61309 52.2533 5.425 52.2533Z" fill="#FEF1E4"/>
<path d="M9.97344 55.2312C9.97344 55.6144 9.66289 55.9248 9.27969 55.9248C8.89668 55.9248 8.58594 55.6142 8.58594 55.2312C8.58594 54.848 8.89648 54.5375 9.27969 54.5375C9.66269 54.5377 9.97344 54.8482 9.97344 55.2312Z" fill="#B8B9FD"/>
<path d="M12.5418 55.2312C12.5418 55.6144 12.2312 55.9248 11.848 55.9248C11.465 55.9248 11.1543 55.6142 11.1543 55.2312C11.1543 54.848 11.4648 54.5375 11.848 54.5375C12.2312 54.5377 12.5418 54.8482 12.5418 55.2312Z" fill="#B8B9FD"/>
<path d="M15.1121 55.2312C15.1121 55.6144 14.8016 55.9248 14.4184 55.9248C14.0354 55.9248 13.7246 55.6142 13.7246 55.2312C13.7246 54.848 14.0352 54.5375 14.4184 54.5375C14.8016 54.5377 15.1121 54.8482 15.1121 55.2312Z" fill="#B8B9FD"/>
<path d="M17.6805 55.2312C17.6805 55.6144 17.3699 55.9248 16.9867 55.9248C16.6037 55.9248 16.293 55.6142 16.293 55.2312C16.293 54.848 16.6035 54.5375 16.9867 54.5375C17.3699 54.5377 17.6805 54.8482 17.6805 55.2312Z" fill="#B8B9FD"/>
<path d="M31.3939 42.6967L33.1697 43.243L31.3939 43.7893L30.8477 45.5652L30.3012 43.7893L28.5254 43.243L30.3012 42.6967L30.8477 40.9207L31.3939 42.6967Z" fill="#FEF1E4"/>
<path d="M25.3137 49.4043L26.6092 49.8029L25.3137 50.2016L24.915 51.4971L24.5164 50.2016L23.2207 49.8029L24.5164 49.4043L24.915 48.1086L25.3137 49.4043Z" fill="#FEF1E4"/>
<path d="M83.7822 56.5779L85.0779 56.9764L83.7822 57.375L83.3838 58.6707L82.9852 57.375L81.6895 56.9764L82.9852 56.5779L83.3838 55.2822L83.7822 56.5779Z" fill="#FEF1E4"/>
<path d="M89.1113 62.2936L90.5562 62.7381L89.1113 63.1826L88.6668 64.6275L88.2223 63.1826L86.7773 62.7381L88.2223 62.2936L88.6668 60.8486L89.1113 62.2936Z" fill="#FEF1E4"/>
<path d="M59.1701 32.3522L60.615 32.7967L59.1701 33.2412L58.7256 34.6861L58.2809 33.2412L56.8359 32.7967L58.2809 32.3522L58.7256 30.907L59.1701 32.3522Z" fill="#FEF1E4"/>
<path d="M85.917 68.2787L87.69 68.8242L85.917 69.3697L85.3715 71.143L84.826 69.3697L83.0527 68.8242L84.826 68.2787L85.3715 66.5057L85.917 68.2787Z" fill="#FEF1E4"/>
</svg>
