<svg width="100" height="100" viewBox="0 0 100 100" fill="none" xmlns="http://www.w3.org/2000/svg">
<g clip-path="url(#clip0_48_1867)">
<path d="M66.1189 88.6333C64.9488 88.8114 62.6775 88.8163 61.2441 88.7928C57.9922 88.7397 56.4473 88.3163 54.324 88.3032C53.2373 88.2964 52.5908 88.4376 52.2695 88.3911C52.0594 88.3606 51.8445 88.3645 51.6506 88.4253C51.1867 88.5708 50.7051 88.5757 50.2328 88.6507C48.4935 88.9268 46.9672 89.4702 44.6174 90.2264C43.0217 90.7401 41.2695 91.0417 40.9027 91.1401C40.3293 91.294 39.9871 91.205 39.01 91.4239C38.6531 91.504 38.2799 91.5659 37.9172 91.5501C37.0943 91.5143 30.7504 92.3282 26.9004 89.5895C25.3805 88.5083 25.7012 86.0889 26.3199 84.3442C26.5068 83.8171 26.7398 83.3065 26.8791 82.762C27.065 82.0352 27.7672 83.5626 32.0158 83.9278C36.6844 84.3294 37.8471 82.7557 43.1512 82.7606C47.8117 82.7647 51.6252 84.9138 63.2221 84.6766C63.8143 84.6645 64.4021 84.5804 64.99 84.5848C66.0187 84.593 67.0309 84.4448 68.0451 84.3274C72.55 83.8063 78.3836 82.2536 81.8275 79.3257C82.9592 78.3637 83.1305 78.0208 83.425 77.7401C83.8213 77.3624 83.7129 78.7548 83.5904 79.2962C82.6824 83.3055 76.6076 86.1925 72.6906 87.3743C70.2549 88.1093 68.9463 88.1864 68.3018 88.3382C67.6742 88.4858 66.3037 88.6052 66.1189 88.6333Z" fill="white"/>
<path d="M55.0492 88.3213C48.327 88.082 45.5652 90.601 39.44 91.3379C38.9994 91.3908 38.5637 91.5535 38.1186 91.5359C37.0797 91.4949 30.8057 92.3494 26.9094 89.5961C26.3051 89.1691 25.9508 88.5924 25.8771 87.8389C25.8195 87.2477 25.7703 86.6609 25.8824 86.0723C25.9166 85.8924 25.9268 85.6971 26.127 85.7367C26.2617 85.7635 33.3881 89.1287 43.1514 86.5783C44.5373 86.2164 45.9734 85.401 50.2377 85.4072C54.6148 85.4137 64.3096 87.8346 74.8332 85.6957C77.4898 85.1559 77.1738 85.0914 78.4488 84.7785C78.9463 84.6565 76.9234 85.952 73.6102 87.0813C65.1949 89.9498 56.7375 88.3814 55.0492 88.3213Z" fill="#915EFD"/>
<path d="M64.243 73.7532C62.8498 73.0259 61.0664 72.2798 59.6365 72.9349C58.2225 73.5827 56.0137 73.5835 54.5572 72.3655C53.6529 71.6093 52.968 70.7163 51.0291 70.6937C50.4207 70.6866 46.9834 71.7749 44.641 68.1329C44.4803 67.8829 44.4479 67.7851 44.6453 67.644C45.1598 67.2772 46.5412 66.5095 47.7598 66.0634C48.6518 65.7368 49.5598 65.6591 50.4949 65.744C52.1604 65.8952 53.767 66.2983 55.3498 66.8257C60.1725 68.4323 60.9121 70.0345 70.0873 72.0526C70.225 72.0829 70.4043 72.0681 70.459 72.2204C70.5154 72.3776 70.3617 72.4794 70.2664 72.5792C69.858 73.0071 69.4395 73.4185 68.9189 73.7222C67.4555 74.5761 65.7141 74.5214 64.243 73.7532Z" fill="#915EFD"/>
<path d="M66.8726 84.2103C65.184 84.4658 60.4195 84.6746 54.9244 84.1593C47.8863 83.4996 46.4527 82.3133 41.9719 82.5367C40.7855 82.5959 40.9119 82.4549 36.6047 83.4312C33.7652 84.0748 30.1277 83.8324 27.418 82.5084C27.1756 82.3898 26.9324 82.2644 26.9533 82.0187C27.0445 80.9535 26.0244 75.864 27.9594 71.1006C28.8619 68.8787 30.7053 66.6381 33.0402 67.1275C35.9527 67.7381 36.2287 70.074 39.6158 70.1918C40.117 70.2092 40.5967 70.0691 41.0666 69.9099C42.3109 69.4888 42.7863 68.9334 43.9355 68.1117C44.4775 67.7244 44.2771 68.2646 45.5791 69.5513C46.3926 70.3552 47.8469 71.0832 49.4488 71.0984C50.2098 71.1056 50.4109 70.8994 50.7232 70.9064C51.2822 70.9189 51.8435 70.9306 52.3808 71.1097C52.8846 71.2777 53.3457 71.5082 53.7318 71.8982C54.9629 73.142 56.3297 73.6256 57.4726 73.5787C57.6326 73.572 58.0199 73.6232 58.1879 73.5767C58.6334 73.4533 59.1027 73.4131 59.5283 73.2228C61.6531 72.2728 63.7254 73.8179 64.9781 74.2759C67.1672 75.0765 69.5029 74.1125 70.5576 72.4629C70.6957 72.2468 70.8756 72.1744 71.1291 72.2424C71.3289 72.2959 71.5373 72.3175 71.7424 72.3502C74.4803 72.7845 76.1682 72.6877 76.9428 72.7113C80.692 72.825 82.849 74.6857 83.5051 76.7808C83.5914 77.0564 83.5541 77.2638 83.375 77.4877C80.734 80.7865 76.4533 82.2967 72.3555 83.3384C71.923 83.4484 71.4754 83.4967 71.042 83.6029C70.4654 83.7441 69.8678 83.7613 69.2953 83.8924C68.5139 84.0705 67.6613 84.091 66.8726 84.2103Z" fill="#FC09B2"/>
<path d="M40.5174 67.9274C40.4387 67.4313 40.432 66.9415 40.5289 66.4466C40.7096 65.5237 41.2691 64.8698 41.9933 64.3311C42.3826 64.0415 42.8342 63.8823 43.2971 63.7436C44.4113 63.41 45.5117 63.5516 46.6057 63.8255C47.5922 64.0725 48.4926 64.5212 49.3441 65.07C49.4584 65.1436 49.6441 65.2069 49.5801 65.3815C49.5314 65.5141 49.3566 65.4737 49.234 65.4819C48.751 65.5145 48.2926 65.6425 47.8387 65.8038C46.4271 66.3054 45.1365 67.0331 43.9166 67.8923C43.5117 68.1774 43.1113 68.4706 42.726 68.7811C42.3732 69.0653 41.9765 69.2681 41.5795 69.4741C41.5369 69.4962 41.4933 69.5167 41.449 69.5347C41.0217 69.7065 40.9021 69.6415 40.7469 69.1938C40.6035 68.7817 40.5433 68.3567 40.5174 67.9274Z" fill="#4217A6"/>
<path d="M68.675 84.022C68.2182 84.0724 68.1262 83.9923 68.1529 83.5716C68.3537 80.4179 70.858 78.1124 73.702 76.8687C75.292 76.1732 76.6875 74.7116 76.6859 73.0368C76.6857 72.8173 76.7182 72.7142 76.9359 72.7153C79.7766 72.7314 82.565 74.0398 83.501 76.7726C83.5941 77.0442 83.5611 77.255 83.3801 77.4806C81.3613 79.995 78.4092 81.448 75.3588 82.488C73.2795 83.1968 70.7563 83.723 69.3045 83.8759C69.0803 83.8995 68.8824 84.0315 68.675 84.022Z" fill="#FF8DDF"/>
<path d="M38.0111 74.8622C36.9262 75.0522 35.8506 74.9448 34.7826 74.7012C32.7045 74.227 32.385 73.4038 30.3314 73.1212C28.0674 72.8096 27.416 73.7583 27.2744 73.5637C27.2494 73.5294 27.2295 73.4737 27.2385 73.435C27.8865 70.7038 29.1393 67.8282 31.8479 67.0856C32.4563 66.9188 33.998 67.1487 35.476 68.3036C36.3795 69.0096 37.4166 70.1112 39.6096 70.1919C40.3445 70.2188 41.7455 69.8264 42.8957 68.8966C44.5783 67.5364 44.2012 67.9571 44.7754 68.6536C44.9842 68.9069 45.0307 69.1762 44.9777 69.5007C44.4736 72.5948 41.0342 74.7337 38.0111 74.8622Z" fill="#FF8DDF"/>
<path d="M44.9203 77.6839C45.9184 76.7179 47.8619 76.8048 48.9643 77.5476C50.0555 78.283 49.8854 79.7379 48.1182 80.1207C45.6971 80.6451 43.6256 78.9371 44.9203 77.6839Z" fill="#FF8DDF"/>
<path d="M61.3721 78.8237C60.5168 77.7294 58.5799 77.5476 57.3855 78.1312C56.2033 78.7089 56.1713 80.1735 57.8689 80.7962C60.1943 81.6493 62.4814 80.2433 61.3721 78.8237Z" fill="#FF8DDF"/>
<path opacity="0.25" d="M63.8354 84.4439C44.0258 84.5051 48.368 80.8033 36.6281 83.4272C33.7557 84.0691 30.0988 83.8359 27.3977 82.4973C27.1523 82.3758 26.9248 82.2574 26.9539 81.9959C27.0678 80.9707 26.3023 77.7217 27.2125 73.5543C27.4906 72.2807 27.9883 70.6715 28.734 69.5898C28.8875 69.367 28.9914 69.3584 29.1951 69.5457C31.1338 71.3266 31.4412 74.5684 32.6852 76.8881C33.4613 78.3355 34.8508 79.3111 36.5113 79.3816C39.1496 79.4936 41.6189 77.7244 44.9334 77.6951C48.4484 77.6641 50.5705 79.0762 54.8307 81.3627C59.5103 83.8746 63.9982 84.1299 64.2373 84.3348C64.1525 84.4022 64.2611 84.3803 63.8344 84.4246C63.8348 84.4309 63.8352 84.4373 63.8354 84.4439Z" fill="#000E3F"/>
<path d="M47.5674 73.8036C48.2369 73.6976 48.9851 74.078 49.2293 74.8433C49.659 76.1897 47.9939 77.094 46.942 76.2013C46.0959 75.4829 46.4226 73.9851 47.5674 73.8036Z" fill="#000E3F"/>
<path d="M59.2807 74.6147C58.6322 74.4173 57.8387 74.6911 57.4914 75.4153C56.8801 76.6897 58.4047 77.8149 59.5695 77.0757C60.5066 76.4809 60.3896 74.9524 59.2807 74.6147Z" fill="#000E3F"/>
<path d="M84.1283 77.985C84.0709 76.3844 83.2658 74.9109 81.8609 73.8359C79.8744 72.316 77.533 72.2865 75.8236 72.265C75.674 72.2633 75.5299 72.2615 75.3922 72.2586C70.5385 72.1596 63.906 70.2584 60.298 68.4773C56.6035 66.6543 53.5158 65.635 50.8582 65.3613C50.4353 65.3176 50.1017 65.0973 49.6406 64.7926C48.9998 64.3693 48.1217 63.7894 46.456 63.3533C44.6211 62.8725 42.6826 63.2461 41.399 64.3275C40.417 65.1553 39.9357 66.3049 40.0439 67.5644L40.0471 67.6C40.1016 68.234 40.1582 68.89 40.4086 69.5033C40.4348 69.568 40.4404 69.6139 40.4254 69.64C40.4092 69.6687 40.3615 69.6889 40.2797 69.7018C38.8113 69.9295 37.433 69.4621 36.0605 68.2707C35.4992 67.7832 33.5195 66.2277 31.6045 66.7045C30.8488 66.892 29.3955 67.5402 28.1549 69.7711C26.5822 72.5984 26.0273 76.451 26.5057 81.2219C26.5258 81.4227 26.5404 81.568 26.5412 81.6322C26.5533 82.6344 26.4113 82.998 26.1535 83.658C26.0685 83.8754 25.9723 84.1215 25.865 84.432C25.558 85.3219 25.3842 86.3164 25.3877 87.1613C25.3928 88.2158 25.6689 89.0264 26.1863 89.5053C27.6658 90.8736 30.1193 91.7326 33.282 91.9893C33.9519 92.0437 34.651 92.0707 35.3654 92.0707C37.3416 92.0707 39.4348 91.8658 41.3465 91.4754C43.5648 91.0225 44.3025 90.7785 45.4193 90.4096C45.8027 90.2834 46.2367 90.1398 46.7908 89.968C51.9228 88.3787 54.508 88.648 57.5018 88.9611C59.2861 89.1473 61.309 89.3574 64.1232 89.1902C71.7885 88.7318 77.5363 86.7195 81.6947 83.0383C83.3287 81.5912 84.1928 79.7969 84.1283 77.985ZM28.8027 90.3828C28.1195 90.1109 27.4685 89.7354 26.8685 89.2666C26.408 88.9072 26.1502 88.4201 26.0568 87.734C25.8476 86.2021 26.4219 84.7033 26.8832 83.499L26.9266 83.3865C26.9514 83.3213 26.9703 83.2537 26.9883 83.1881C27.023 83.0645 27.0557 82.9467 27.1264 82.8449C27.2023 82.8586 27.333 82.9187 27.5072 82.9992C28.076 83.2617 29.1351 83.75 31.0738 84.0203C34.183 84.4535 36.5707 83.9027 38.3152 83.4996C38.8119 83.3852 39.281 83.2769 39.7004 83.2062C42.2935 82.7701 45.1906 82.9555 46.9133 83.3322C55.5207 85.2166 64.6398 85.4062 71.9322 83.8519C79.3285 82.2756 82.2348 79.3225 83.1898 78.3519C83.3291 78.2105 83.451 78.0865 83.5019 78.059C83.5027 78.0676 83.5033 78.0809 83.5023 78.101C83.4055 80.0463 82.6918 81.3773 80.9568 82.8484C78.0004 85.3559 74.1094 87.0773 69.3916 87.9654C65.306 88.734 60.8021 88.8252 56.3672 88.2273C52.2416 87.6725 48.8781 88.7021 45.6254 89.6992C43.5996 90.3205 41.6863 90.9068 39.5961 91.1432C36.0014 91.549 32.207 91.7373 28.8027 90.3828ZM49.0182 65.3201C48.5807 65.3789 47.6703 65.502 45.7023 66.5453C44.4211 67.2246 43.6238 67.8275 42.9834 68.3117C42.4473 68.717 41.9842 69.067 41.4078 69.3346C41.2617 69.402 41.1676 69.4365 41.1119 69.4131C41.0553 69.3891 41.0127 69.2912 40.958 69.1301C40.1912 66.8676 40.9434 64.9283 42.9217 64.0687C43.4367 63.8449 44.0101 63.7541 44.5963 63.7541C46.6482 63.7541 48.8514 64.8685 49.2252 65.2855C49.1742 65.299 49.1066 65.3082 49.0182 65.3201ZM70.109 72.3949C69.1496 73.5975 67.6963 74.1537 66.9707 74.1644C66.9299 74.1652 66.8896 74.1656 66.8502 74.1656C65.4869 74.1656 64.799 73.8049 64.0717 73.4238C63.6908 73.224 63.2965 73.0178 62.7863 72.8475C62.0685 72.6078 61.4223 72.4881 60.8527 72.4881C60.3678 72.4881 59.9385 72.5748 59.5674 72.748C58.8492 73.083 57.5814 73.3584 56.3689 73.0303C55.4328 72.7773 54.7898 72.2394 54.109 71.6703C53.985 71.5662 53.8582 71.4605 53.7281 71.3547C52.8391 70.632 51.5269 70.3217 50.3043 70.5455C50.2658 70.5527 50.2262 70.5602 50.1842 70.5686C49.7219 70.6578 49.0228 70.7934 47.9203 70.4502C46.6873 70.0664 45.6059 69.2246 44.8756 68.0805C44.7303 67.8531 44.7303 67.8531 44.9711 67.6965C46.1557 66.926 47.3103 66.382 48.501 66.033C49.2617 65.8096 50.0744 65.8809 50.9103 65.9811C52.0201 66.1139 53.2098 66.3773 54.5478 66.7869C56.609 67.4182 57.8006 67.9895 59.0615 68.5945C60.523 69.2961 62.1797 70.0908 65.5059 71.1088C67.5725 71.7418 68.8135 71.9947 69.4797 72.1303C69.8709 72.2102 70.1295 72.2627 70.149 72.3168C70.1514 72.3225 70.1518 72.3416 70.109 72.3949ZM43.2889 68.8615C43.4732 68.7166 43.6641 68.5666 43.8832 68.4061C44.0449 68.2873 44.135 68.2246 44.191 68.2389C44.2424 68.2484 44.293 68.3293 44.3771 68.4627C44.4973 68.6539 44.6984 68.9738 45.1096 69.402C45.9016 70.2268 46.8717 70.81 47.915 71.0881C48.7092 71.2996 49.4127 71.2336 50.1588 71.1635C50.351 71.1451 50.5465 71.1269 50.7484 71.1129C51.3896 71.0658 51.9908 71.176 52.5363 71.4342C53.0445 71.6748 53.4957 72.0271 53.9314 72.3678C54.3346 72.6822 54.7518 73.008 55.2162 73.249C56.5412 73.9355 58.3164 73.9764 59.7385 73.3541C61.2252 72.7039 62.7613 73.4721 63.8838 74.0326C64.2109 74.1961 64.4935 74.3371 64.7324 74.4225C66.684 75.1172 68.4682 74.7715 70.0322 73.3932C70.3055 73.1518 70.5307 72.9072 70.7197 72.6457C70.8937 72.4059 70.9848 72.4211 71.5826 72.5223C72.0025 72.5935 72.6375 72.7016 73.6891 72.7848C74.8088 72.8727 75.6051 72.8848 76.2445 72.8949C76.9826 72.906 77.5658 72.915 78.267 73.0344C80.7402 73.4564 82.5906 74.8047 83.2176 76.6402L83.2344 76.69C83.3295 76.9656 83.3867 77.1318 83.2047 77.3629C79.6051 81.9309 71.866 83.5562 66.0078 84.1156C60.848 84.6057 53.6154 84.1023 47.5773 82.8305C46.2514 82.5512 44.5685 82.3094 42.7158 82.3094C41.0609 82.3094 39.2705 82.5023 37.4787 83.0336C34.8125 83.8244 30.6801 83.8982 27.4564 82.2797C27.0978 82.0992 27.0641 81.2937 27.0482 80.9068C27.0461 80.8578 27.0443 80.8139 27.0422 80.7768C26.8338 77.1478 26.935 74.3102 28.0816 71.3791C28.6195 70.0041 29.3408 68.9291 30.2254 68.1838C31.5762 67.0457 32.8439 66.959 34.4644 67.8947C34.9988 68.2031 35.4217 68.5393 35.8307 68.8644C36.7176 69.5699 37.5559 70.2363 39.3018 70.3572C40.0086 70.4045 40.7029 70.275 41.5578 69.9328C42.3062 69.6332 42.7617 69.2758 43.2889 68.8615Z" fill="#000E3F"/>
<path d="M53.2535 79.0839C52.5697 79.0839 51.9459 78.8279 51.4371 78.3367C50.784 77.7052 50.4047 76.7347 50.4465 75.8031C50.4539 75.6371 50.5932 75.5154 50.7617 75.5154C50.9279 75.523 51.057 75.664 51.0494 75.8306C51.0146 76.5943 51.324 77.3882 51.8563 77.9027C52.1598 78.196 52.6785 78.5337 53.4275 78.4736C54.8033 78.365 55.5539 77.0626 55.5615 75.8931C55.5629 75.7265 55.7004 75.5943 55.8652 75.5933C56.0318 75.5947 56.166 75.7304 56.165 75.897C56.1555 77.3353 55.2096 78.938 53.4752 79.0751C53.4008 79.081 53.3268 79.0839 53.2535 79.0839Z" fill="#000E3F"/>
<path d="M54.7453 65.9383C55.4506 65.9209 55.7418 66.6057 55.0613 67.0104C54.8367 67.144 53.8565 67.4446 52.8678 67.8287C49.7231 69.0508 49.2354 69.3858 48.6434 69.2953C48.3336 69.2481 48.2359 68.8278 48.6807 68.426C49.8234 67.3942 52.7566 65.9875 54.7453 65.9383Z" fill="#4217A6"/>
<path d="M55.6768 71.0544C54.4863 71.4927 53.7018 70.3355 57.3152 68.7183C57.8797 68.4658 60.993 67.058 61.0408 68.4425C61.059 68.9677 60.0967 69.3234 59.692 69.4568C58.3199 69.9089 57.0318 70.5554 55.6768 71.0544Z" fill="#4217A6"/>
<path d="M67.6656 70.1837C68.315 70.6066 67.777 71.0753 67.2465 71.2962C63.849 72.7109 64.133 72.6306 63.5023 72.7003C63.057 72.7496 62.4066 72.1456 63.2158 71.4751C64.1565 70.6955 66.6895 69.548 67.6656 70.1837Z" fill="#4217A6"/>
<path d="M76.1814 63.5295C75.0644 63.1387 73.0556 62.0782 71.8004 61.3858C68.9525 59.8147 67.7863 58.7167 65.9168 57.71C64.9599 57.1948 64.3228 57.0165 64.0607 56.8247C63.8894 56.6993 63.6976 56.602 63.4978 56.5649C63.0199 56.476 62.5922 56.2545 62.1398 56.0995C60.474 55.5284 58.8711 55.2928 56.4408 54.8598C54.7906 54.5657 53.1013 54.011 52.7312 53.926C52.1527 53.7932 51.892 53.5541 50.9263 53.2897C50.5736 53.193 50.2148 53.0727 49.9019 52.8889C49.1918 52.4717 43.2062 50.2174 41.0888 45.9938C40.2529 44.3262 41.6701 42.3395 43.0345 41.0881C43.4467 40.71 43.8918 40.3682 44.2701 39.9524C44.775 39.3975 44.6795 41.0758 48.2613 43.3899C52.1972 45.9327 53.9617 45.0874 58.6451 47.5776C62.7601 49.7657 65.1218 53.451 75.4773 58.6768C76.0062 58.9436 76.565 59.1448 77.082 59.4243C77.9869 59.9135 78.9506 60.2569 79.9013 60.6286C84.125 62.2795 90.006 63.6418 94.4207 62.6696C95.8711 62.35 96.1832 62.1276 96.575 62.0176C97.1021 61.8698 96.3537 63.0489 95.9918 63.4698C93.3105 66.586 86.5914 66.2893 82.5771 65.4973C80.081 65.0049 78.8888 64.4598 78.2484 64.2918C77.6244 64.1282 76.3578 63.5913 76.1814 63.5295Z" fill="white"/>
<path d="M66.549 58.0658C60.7228 54.7039 57.1027 55.6347 51.3465 53.415C50.9324 53.2555 50.4713 53.1947 50.0861 52.9707C49.1875 52.4476 43.2449 50.2619 41.0933 46.0037C40.7597 45.3433 40.717 44.6678 41.0051 43.9676C41.2312 43.4181 41.4627 42.8769 41.8375 42.4096C41.9521 42.2666 42.0525 42.0988 42.2107 42.2277C42.3172 42.3144 47.0353 48.6271 56.8552 50.9502C58.2492 51.2799 59.9 51.2328 63.664 53.2369C67.5277 55.2941 74.9572 61.9762 85.2558 65.0189C87.8556 65.7871 87.6066 65.582 88.8797 65.9033C89.3763 66.0287 86.9822 66.225 83.5261 65.6697C74.748 64.2594 68.0123 58.9101 66.549 58.0658Z" fill="#915EFD"/>
<path d="M81.4982 49.5059C80.6084 48.2104 79.3826 46.7157 77.8127 46.6241C76.2599 46.5336 74.3084 45.4991 73.5925 43.7407C73.148 42.6487 72.9615 41.5389 71.2593 40.6102C70.7254 40.3188 67.1787 39.6692 66.8166 35.3541C66.7918 35.0579 66.8092 34.9563 67.0496 34.9245C67.6759 34.8414 69.256 34.8106 70.5416 34.9877C71.4826 35.1174 72.3211 35.4741 73.1076 35.9875C74.5078 36.9016 75.7383 38.0108 76.8894 39.2184C80.3967 42.8979 80.299 44.6598 87.4586 50.7428C87.566 50.834 87.7312 50.9051 87.7084 51.0651C87.6845 51.2305 87.5011 51.2483 87.3701 51.2918C86.8088 51.4784 86.2463 51.6455 85.6441 51.67C83.9502 51.7383 82.4377 50.8737 81.4982 49.5059Z" fill="#915EFD"/>
<path d="M78.9201 59.9757C77.3088 59.4101 73.0021 57.3615 68.3892 54.331C62.4812 50.4496 61.7709 48.7298 57.7078 46.8271C56.6322 46.3234 56.8098 46.258 52.5473 45.1017C49.7373 44.3396 46.6377 42.4205 44.8644 39.981C44.7058 39.7626 44.5498 39.538 44.6836 39.3308C45.2633 38.4324 46.7476 33.4585 50.6892 30.1574C52.5277 28.6175 55.2062 27.5023 57.0396 29.0291C59.3264 30.9335 58.4754 33.1261 61.4123 34.8177C61.8469 35.0681 62.3363 35.1691 62.826 35.2488C64.1224 35.4599 64.8029 35.1921 66.2029 35.0048C66.8631 34.9166 66.433 35.3001 66.9801 37.0468C67.3219 38.1382 68.2654 39.4628 69.6734 40.2271C70.3422 40.59 70.6166 40.5021 70.8892 40.6546C71.3771 40.9277 71.8676 41.2011 72.2582 41.6111C72.6244 41.9955 72.9238 42.4152 73.082 42.9408C73.5865 44.6164 74.5674 45.6843 75.599 46.1783C75.7435 46.2474 76.0615 46.4742 76.2318 46.5117C76.6834 46.6115 77.1168 46.7959 77.582 46.8273C79.9043 46.9839 81.0107 49.3199 81.9027 50.3119C83.4613 52.0451 85.9764 52.2882 87.6812 51.3251C87.9045 51.1992 88.0973 51.2193 88.2894 51.3982C88.4408 51.539 88.6146 51.6558 88.7807 51.7808C90.9957 53.4478 92.532 54.1533 93.2053 54.5371C96.4639 56.3947 97.4973 59.0494 97.0949 61.2076C97.042 61.4916 96.9119 61.6572 96.6488 61.7709C92.7697 63.4472 88.2807 62.7751 84.1725 61.7748C83.7391 61.6693 83.3207 61.5021 82.8881 61.3927C82.3125 61.2472 81.7764 60.9824 81.2096 60.8298C80.4353 60.6216 79.6726 60.24 78.9201 59.9757Z" fill="#FC09B2"/>
<path d="M63.2699 33.2401C63.4328 32.7649 63.6566 32.3292 63.9742 31.9374C64.5662 31.2069 65.3671 30.8915 66.2593 30.7549C66.739 30.6817 67.2125 30.7524 67.6863 30.8469C68.8271 31.0743 69.7326 31.7153 70.5707 32.47C71.3263 33.1505 71.9115 33.9688 72.4064 34.8528C72.4728 34.9713 72.6072 35.1143 72.4687 35.2385C72.3636 35.3329 72.2281 35.2153 72.116 35.1651C71.6742 34.9674 71.2089 34.8657 70.7326 34.7956C69.2506 34.577 67.7695 34.6151 66.289 34.8024C65.7978 34.8645 65.3066 34.936 64.8207 35.0296C64.3759 35.1153 63.9304 35.1085 63.4832 35.1044C63.4353 35.104 63.3871 35.1016 63.3396 35.0965C62.8814 35.0481 62.8064 34.9346 62.8791 34.4665C62.9459 34.035 63.0918 33.6315 63.2699 33.2401Z" fill="#4217A6"/>
<path d="M80.6006 60.6543C80.1734 60.4847 80.1297 60.3709 80.3506 60.0119C82.006 57.3199 85.2986 56.4572 88.3939 56.6912C90.1246 56.822 92.0422 56.1849 92.8258 54.7049C92.9285 54.5109 93.0054 54.4349 93.1972 54.5381C95.699 55.8836 97.549 58.3461 97.0951 61.199C97.05 61.4826 96.922 61.6533 96.6564 61.7677C93.6947 63.0427 90.4058 62.9426 87.2238 62.4318C85.0547 62.0836 82.5793 61.3656 81.2252 60.8203C81.016 60.7357 80.7793 60.7597 80.6006 60.6543Z" fill="#FF8DDF"/>
<path d="M57.8058 38.1914C56.7584 37.8508 55.8586 37.2519 55.0293 36.5361C53.4158 35.1431 53.5195 34.2664 51.8379 33.0543C49.9838 31.718 48.9639 32.2508 48.9301 32.0127C48.924 31.9707 48.9324 31.9121 48.9588 31.8822C50.8113 29.7732 53.2656 27.8201 56.0062 28.4336C56.6219 28.5713 57.8762 29.4971 58.6402 31.2099C59.1076 32.2572 59.5074 33.7164 61.4068 34.8154C62.0435 35.1838 63.465 35.4935 64.9168 35.2113C67.0406 34.7984 66.5103 34.9933 66.6912 35.8775C66.757 36.1992 66.6717 36.4588 66.4728 36.7207C64.5773 39.2172 60.5367 39.4947 57.8058 38.1914Z" fill="#FF8DDF"/>
<path d="M62.5867 43.9222C63.9211 43.5367 65.5973 44.5244 66.2228 45.697C66.8422 46.858 66.0101 48.0636 64.2695 47.5734C61.8851 46.9019 60.8557 44.4224 62.5867 43.9222Z" fill="#FF8DDF"/>
<path d="M76.5857 52.6391C76.343 51.2715 74.7172 50.203 73.3889 50.159C72.0736 50.1155 71.359 51.394 72.5668 52.7399C74.2211 54.5833 76.9004 54.4133 76.5857 52.6391Z" fill="#FF8DDF"/>
<path opacity="0.25" d="M76.1275 58.7586C58.5996 49.5283 64.1703 48.2936 52.5699 45.1092C49.7316 44.3301 46.6105 42.4102 44.8517 39.9617C44.692 39.7393 44.5465 39.5282 44.6947 39.311C45.2758 38.4588 46.1224 35.2299 48.8797 31.975C49.7222 30.9803 50.916 29.792 52.0818 29.186C52.3219 29.0612 52.4176 29.1022 52.5099 29.3631C53.3879 31.845 52.1402 34.8528 52.1517 37.485C52.159 39.1274 52.9291 40.6403 54.3631 41.4809C56.6412 42.8162 59.6517 42.4108 62.5933 43.9383C65.7131 45.5582 66.9258 47.8002 69.6174 51.8166C72.574 56.2287 76.4189 58.5576 76.5342 58.8506C76.4277 58.8703 76.534 58.902 76.1361 58.7412C76.1332 58.7471 76.1305 58.753 76.1275 58.7586Z" fill="#000E3F"/>
<path d="M72.7045 47.2111C73.101 47.6119 73.1228 48.0578 72.8873 48.4585C71.6236 50.6085 68.0279 49.3593 67.6566 47.1255C67.5236 46.3261 67.8111 44.7788 68.9297 44.9501C69.5195 45.0406 71.4121 45.905 72.7045 47.2111Z" fill="white"/>
<path d="M66.7439 41.7349C67.3851 41.955 67.8676 42.6417 67.7248 43.4321C67.4734 44.823 65.5785 44.8415 65.0678 43.5599C64.657 42.5286 65.6476 41.3587 66.7439 41.7349Z" fill="#000E3F"/>
<path d="M76.7109 47.9411C76.2307 47.4628 75.4014 47.3327 74.7551 47.8096C73.6178 48.6489 74.4371 50.3575 75.8127 50.2505C76.9193 50.1641 77.5322 48.7589 76.7109 47.9411Z" fill="#000E3F"/>
<path d="M97.0222 57.8359C95.9797 55.5621 93.9256 54.4387 92.426 53.6187C92.2943 53.5467 92.1678 53.4775 92.0472 53.4103C87.806 51.0482 82.8381 46.2605 80.4855 42.9959C78.0771 39.6547 75.8273 37.3068 73.6072 35.8191C73.2539 35.582 73.0623 35.2312 72.7976 34.7457C72.4301 34.0715 71.9263 33.1478 70.6599 31.9822C69.2637 30.6973 67.3781 30.1193 65.7351 30.4726C64.4799 30.7433 63.5166 31.5332 63.0219 32.6967L63.0078 32.7297C62.759 33.3154 62.5014 33.9211 62.4346 34.5803C62.4273 34.6494 62.4113 34.693 62.3857 34.709C62.3578 34.7269 62.306 34.7223 62.2283 34.6953C60.8252 34.2094 59.8256 33.1492 59.1715 31.4537C58.9043 30.7601 57.8828 28.4594 55.9697 27.9818C55.2144 27.7928 53.6269 27.6849 51.4847 29.074C48.7705 30.8342 46.4746 33.9775 44.6613 38.4166C44.5853 38.6031 44.5301 38.7379 44.5006 38.7949C44.0418 39.6861 43.7457 39.9408 43.2088 40.4031C43.032 40.5553 42.8318 40.7273 42.5914 40.9516C41.9027 41.5935 41.283 42.3908 40.8902 43.139C40.4004 44.073 40.2644 44.9183 40.4974 45.5836C41.1631 47.4855 42.9277 49.3943 45.6012 51.1037C47.7334 52.467 50.4176 53.6789 52.9658 54.4291C55.1379 55.0685 55.9039 55.1992 57.0638 55.3963C57.4615 55.4641 57.9125 55.5412 58.482 55.6492C63.7599 56.6502 65.917 58.1002 68.415 59.7791C69.9039 60.7801 71.5914 61.9146 74.1576 63.0851C79.1 65.3404 83.558 66.4586 87.6556 66.4586C89.3504 66.4586 90.9832 66.267 92.5629 65.8859C94.684 65.374 96.2879 64.1941 97.0799 62.5629C97.7803 61.1226 97.7597 59.4437 97.0222 57.8359ZM54.026 45.9637C54.5187 46.0953 54.984 46.2193 55.3875 46.3535C57.8812 47.1828 60.3549 48.7045 61.7002 49.8455C68.4207 55.5437 76.3873 59.9851 83.5576 62.0299C90.8305 64.1043 94.7814 62.857 96.0801 62.4476C96.2691 62.3877 96.4347 62.3353 96.4926 62.3349C96.4892 62.3428 96.4836 62.3551 96.4736 62.3719C95.4762 64.0453 94.222 64.8867 92.0002 65.3732C88.2127 66.2025 83.9691 65.899 79.3857 64.473C75.4162 63.2375 71.3951 61.2064 67.7576 58.6C64.3736 56.1754 60.9195 55.5101 57.5789 54.8664C55.4984 54.4658 53.5328 54.0871 51.5754 53.316C48.2101 51.99 44.7691 50.3783 42.3976 47.5863C41.9217 47.0262 41.5228 46.389 41.2119 45.6937C40.9738 45.1607 40.974 44.61 41.2131 43.9594C41.7471 42.5074 42.9576 41.4523 43.9299 40.6041L44.0191 40.5262C44.0715 40.4807 44.1199 40.4297 44.1666 40.3807C44.2553 40.2875 44.339 40.1988 44.4496 40.1418C44.5101 40.1894 44.5976 40.3039 44.7138 40.4566C45.0933 40.9549 45.8 41.8822 47.3855 43.0301C49.9265 44.8683 52.2959 45.5014 54.026 45.9637ZM62.5219 49.7141C60.5521 48.0699 57.3887 45.9457 53.5053 45.1605C50.7799 44.6094 47.0941 42.7371 45.0054 39.7973C44.7734 39.4697 45.108 38.7701 45.2877 38.3941C45.3092 38.3492 45.3281 38.3092 45.3439 38.2748C46.8603 34.9723 48.2797 32.5133 50.6664 30.4607C51.7865 29.498 52.9273 28.8867 54.0578 28.6432C54.4115 28.5672 54.7414 28.5279 55.051 28.5279C56.2529 28.5279 57.1484 29.1137 57.9381 30.3744C58.2656 30.8973 58.4814 31.3926 58.6902 31.8711C59.1431 32.9101 59.5711 33.8914 61.0566 34.8168C61.6566 35.1902 62.3328 35.4004 63.248 35.499C64.0508 35.5861 64.6205 35.4832 65.2803 35.3642C65.5113 35.3226 65.7502 35.2797 66.0191 35.2404C66.2178 35.2107 66.3265 35.2031 66.3691 35.2369C66.4096 35.2695 66.4168 35.3646 66.4283 35.5217C66.4451 35.7469 66.4728 36.1242 66.6353 36.6947C66.9476 37.7943 67.5316 38.7642 68.3236 39.499C68.9265 40.0586 69.5789 40.3297 70.2701 40.617C70.4484 40.6912 70.6299 40.7666 70.815 40.8486C71.4027 41.1098 71.8834 41.4875 72.2439 41.9705C72.5801 42.4217 72.8135 42.9439 73.0387 43.4488C73.2474 43.9158 73.4633 44.399 73.7609 44.8297C74.6092 46.0566 76.1578 46.9254 77.7062 47.0426C79.3234 47.1644 80.3213 48.5633 81.05 49.5844C81.2623 49.882 81.4459 50.1392 81.617 50.326C83.0154 51.856 84.7535 52.3857 86.7812 51.901C87.1351 51.816 87.4486 51.7055 87.7385 51.5627C88.0068 51.4314 88.0795 51.489 88.5584 51.8578C88.8959 52.1178 89.4062 52.5109 90.2965 53.0769C91.2445 53.6799 91.942 54.0637 92.5021 54.3721C93.1492 54.7281 93.6599 55.009 94.2238 55.4437C96.2103 56.976 97.2137 59.034 96.907 60.9494L96.8984 61.0021C96.8533 61.2894 96.826 61.4627 96.5566 61.5814C91.2359 63.9299 83.6381 61.7385 78.2006 59.4869C73.4131 57.5039 67.2588 53.6676 62.5219 49.7141ZM87.3168 51.0551C85.9058 51.6676 84.3611 51.4779 83.7148 51.1476C82.4301 50.4906 81.9793 49.832 81.5019 49.1351C81.2588 48.7801 81.0078 48.4129 80.6365 48.0232C79.6711 47.009 78.7299 46.4717 77.839 46.4262C77.0474 46.3859 75.7982 46.0346 74.8812 45.1766C74.1732 44.5148 73.8572 43.7387 73.523 42.917C73.4617 42.7668 73.3996 42.6139 73.334 42.4586C72.8875 41.4041 71.8738 40.5154 70.6885 40.1394C70.6508 40.1275 70.6113 40.1154 70.5701 40.1029C70.1199 39.9652 69.4396 39.7572 68.6273 38.9379C67.7181 38.0201 67.1572 36.7699 67.0484 35.4174C67.0265 35.1484 67.0265 35.1484 67.3125 35.1232C67.7863 35.0808 68.2447 35.0598 68.6912 35.0598C69.5715 35.0598 70.4043 35.142 71.2105 35.3076C71.9873 35.4676 72.6724 35.9115 73.3635 36.3912C74.282 37.0289 75.2092 37.8193 76.199 38.8082C77.724 40.3318 78.5084 41.3947 79.339 42.5203C80.3013 43.8248 81.3924 45.3035 83.8535 47.7617C85.3828 49.2896 86.3605 50.0943 86.8859 50.5266C87.1937 50.7801 87.3972 50.948 87.3894 51.0047C87.3881 51.0107 87.3795 51.0279 87.3168 51.0551ZM72.0014 34.9205C71.5871 34.7678 70.7256 34.4496 68.4984 34.4488C68.4967 34.4488 68.4949 34.4488 68.4929 34.4488C67.0457 34.4488 66.0601 34.6074 65.268 34.7349C64.6047 34.8414 64.0328 34.9351 63.3972 34.9C63.2365 34.8914 63.1365 34.8773 63.0988 34.8306C63.0601 34.7826 63.0683 34.6762 63.0955 34.5086C63.4789 32.1504 65.0556 30.7914 67.2021 30.9578C69.7242 31.1547 72.0275 34.2879 72.2004 34.9869C72.149 34.975 72.0851 34.9514 72.0014 34.9205Z" fill="#000E3F"/>
<path d="M76.7709 38.151C77.4021 38.4662 77.3383 39.2077 76.5476 39.2461C76.2867 39.2588 75.2797 39.0649 74.2264 38.9411C70.8756 38.5467 70.2879 38.6141 69.8072 38.2569C69.5557 38.07 69.6664 37.653 70.2476 37.5065C71.7406 37.1303 74.991 37.2625 76.7709 38.151Z" fill="#4217A6"/>
<path d="M75.1959 43.107C73.9388 42.9363 73.7883 41.5463 77.7381 41.8113C78.3551 41.8527 81.765 42.0682 81.1586 43.3137C80.9285 43.7861 79.9117 43.6492 79.4916 43.5775C78.0676 43.334 76.6267 43.3012 75.1959 43.107Z" fill="#4217A6"/>
<path d="M86.1947 47.9567C86.5701 48.6344 85.8752 48.7965 85.3029 48.743C81.6389 48.4002 81.9271 48.4625 81.3373 48.2285C80.9209 48.0635 80.6293 47.225 81.6584 47.0119C82.8547 46.7643 85.6301 46.9377 86.1947 47.9567Z" fill="#4217A6"/>
<path d="M16.9369 74.7464C16.3584 76.0265 14.9932 76.6753 13.7723 76.2439C10.4834 75.0339 5.94823 73.4218 1.96171 72.0714C0.740812 71.6401 0.0859292 70.2776 0.439835 68.9183C0.440617 68.9159 0.94589 66.9712 3.38183 57.6247C8.14726 39.3259 7.84003 39.4522 9.00566 38.7329C12.1004 36.8192 12.2562 33.7767 11.8639 32.2144C11.7164 31.6169 11.809 30.9478 12.1908 30.353C15.1494 25.8011 14.9978 25.995 15.1644 25.8091C15.2723 25.9608 15.426 26.0833 15.6168 26.1507C32.757 32.1362 32.0119 32.1075 32.5592 31.9542C32.5648 32.0597 32.5607 32.1642 32.549 32.2687C31.9691 37.8048 32.0623 37.863 31.6109 38.4759C31.5775 38.5702 31.1955 38.93 31.1037 39.0112C31.1008 39.0126 31.0969 39.0163 31.0939 39.0179C30.3572 39.6739 29.7518 40.2302 29.2615 41.453C28.7828 42.6296 28.6189 44.1294 29.233 45.8788C29.7338 47.298 29.5619 46.5985 16.9369 74.7464Z" fill="#FF8DDF"/>
<path d="M30.5631 19.0704L30.5623 19.0725C30.3902 19.5596 29.8898 19.8397 29.3945 19.7481C29.3398 19.7389 29.2865 19.7251 29.2328 19.7061L25.4463 18.3684C25.3926 18.3495 25.3402 18.3258 25.2916 18.2987C24.8517 18.0575 24.6375 17.5274 24.8096 17.0403L24.8103 17.0379C25.0016 16.4969 25.5969 16.2126 26.14 16.4044L29.9266 17.742C30.4697 17.934 30.7541 18.5294 30.5631 19.0704Z" fill="#FF8DDF"/>
<path opacity="0.25" d="M29.3658 46.6605L8.41112 39.2576C8.57752 39.0514 8.77635 38.874 9.00545 38.733C12.1002 36.8193 12.256 33.7768 11.8637 32.2145C11.7514 31.7607 11.7832 31.2848 11.9424 30.8486L31.9049 37.901C31.8322 38.1277 31.732 38.3119 31.6107 38.4762C31.5859 38.5461 31.223 38.9543 31.0935 39.0182C30.8265 39.2561 30.5439 39.4842 30.2808 39.7889C30.268 39.8041 30.0488 40.067 30.0422 40.0857C29.8269 40.3533 29.5394 40.8143 29.324 41.3039C28.1828 43.8168 29.3668 45.6781 29.3658 46.6605Z" fill="#FC09B2"/>
<path d="M29.3957 19.7484L28.6709 21.7998L24.5679 20.3504L25.2928 18.2988C25.3412 18.326 25.3935 18.3496 25.4474 18.3686L29.234 19.7063C29.2877 19.7254 29.341 19.7393 29.3957 19.7484Z" fill="white"/>
<path d="M15.2965 58.0116C15.6687 58.2521 15.7609 58.5903 15.648 58.9378C15.0428 60.8017 12.0722 60.4524 11.4088 58.8015C11.1713 58.2105 11.1297 56.9747 12.017 56.9167C12.4849 56.8858 14.0836 57.2284 15.2965 58.0116Z" fill="white"/>
<path d="M32.5592 31.9544C32.3799 32.0046 32.1834 32.0035 31.9926 31.9361L15.6168 26.1509C15.426 26.0835 15.2723 25.9611 15.1644 25.8093C15.1474 25.7857 15.1314 25.7597 15.1176 25.7347C14.9467 25.4396 14.9416 25.054 15.1535 24.7402L17.2359 21.6611C17.475 21.3062 17.9232 21.1591 18.3271 21.3019L19.9836 21.887C20.3605 22.0202 20.7844 21.8997 21.0324 21.5835L22.1455 20.1691C22.3935 19.8529 22.8174 19.7324 23.1943 19.8656L30.0424 22.2847C30.4217 22.4187 30.6734 22.7779 30.6701 23.1806L30.6478 24.9804C30.6422 25.3824 30.8939 25.7413 31.2732 25.8755L32.9297 26.4607C33.3338 26.6035 33.5879 26.9986 33.5533 27.4257L33.2394 31.1296C33.2035 31.5382 32.9178 31.8538 32.5592 31.9544Z" fill="#915EFD"/>
<path d="M25.3965 13.5036L21.0064 14.9747C20.5883 15.1147 20.1353 14.8891 19.9953 14.4709L19.123 11.8731C18.9271 11.2915 18.9719 10.6862 19.201 10.1663C19.4607 9.57387 19.9596 9.09126 20.6183 8.86958L22.0271 8.3977C23.2701 7.9811 24.6141 8.65024 25.0308 9.89301L25.9006 12.4901C25.9269 12.5727 25.9406 12.6557 25.9414 12.7393C25.9439 13.076 25.732 13.3899 25.3965 13.5036Z" fill="#915EFD"/>
<g opacity="0.25">
<path opacity="0.25" d="M25.3965 13.5036L21.0064 14.9747C20.5883 15.1147 20.1353 14.8891 19.9953 14.4709L19.123 11.8731C18.9271 11.2915 18.9719 10.6862 19.201 10.1663C20.2385 10.3383 20.5785 11.2336 21.2545 11.6567C22.7996 12.6215 24.1174 11.1709 25.9414 12.7393C25.9439 13.076 25.732 13.3899 25.3965 13.5036Z" fill="#000E3F"/>
<path opacity="0.25" d="M31.9926 31.9358L15.6168 26.1507C15.3945 26.0721 15.2232 25.9208 15.1176 25.7344C16.2738 24.863 17.7736 24.4335 19.3328 24.6434C22.7937 25.1087 25.3869 28.9382 28.8496 28.5053C30.5777 28.2897 31.5873 26.812 32.8781 26.4421C32.8978 26.4575 33.6154 26.6593 33.5533 27.4253L33.2394 31.1292C33.1871 31.7419 32.5717 32.1405 31.9926 31.9358Z" fill="#000E3F"/>
</g>
<g opacity="0.5">
<path opacity="0.5" d="M29.1381 47.7416L16.9369 74.7466C16.3584 76.0267 14.9932 76.6755 13.7721 76.2441C9.85234 74.8017 5.89843 73.4626 1.96171 72.0718C0.740812 71.6406 0.0859292 70.2781 0.439835 68.9187L0.755851 67.7023C1.85273 66.9839 3.13378 66.6312 4.55448 66.8832C8.70097 67.6158 13.1238 68.6457 17.0623 65.7375C20.8836 62.9167 22.3555 57.4003 22.8521 52.9431C23.3092 48.8455 23.292 43.7396 27.1994 41.1589C27.815 40.7529 28.7414 40.2671 30.0426 40.0857C28.9596 41.4312 28.448 43.5359 29.198 45.7707C29.2316 45.8941 29.3664 46.1863 29.3658 46.6605C29.3689 47.0302 29.2916 47.3994 29.1381 47.7416Z" fill="#FC09B2"/>
</g>
<path d="M21.6527 22.1715C23.0568 22.5129 24.424 22.9588 25.7824 23.4305C27.1369 23.9125 28.482 24.4209 29.79 25.0348C29.8801 25.077 29.9187 25.1842 29.8764 25.2742C29.8392 25.3531 29.7521 25.3926 29.6707 25.3727C28.2674 25.0287 26.9014 24.5793 25.5445 24.1035C24.1914 23.6174 22.8475 23.1055 21.5404 22.4891C21.4558 22.4492 21.4195 22.3483 21.4596 22.2637C21.4945 22.1899 21.5762 22.1529 21.6527 22.1715Z" fill="#4217A6"/>
<path d="M6.97596 57.2027C7.93455 56.6808 9.38787 57.1546 10.0666 57.9484C10.7387 58.7341 10.3043 59.8002 8.88573 59.7191C6.94276 59.608 5.7326 57.8798 6.97596 57.2027Z" fill="#FC09B2"/>
<path d="M19.1941 61.5191C18.7762 60.5109 17.3476 59.9666 16.3209 60.1578C15.3045 60.347 14.9726 61.4494 16.1273 62.2773C17.7092 63.4115 19.7363 62.8269 19.1941 61.5191Z" fill="#FC09B2"/>
<g opacity="0.5">
<path opacity="0.5" d="M10.4504 41.7225C9.97713 45.0998 8.45526 50.7066 7.25624 53.6756C7.12362 54.0031 6.62967 53.8705 6.67948 53.5205C7.01346 51.1727 7.69042 48.7098 7.99881 47.4693C8.50858 45.6272 9.16112 43.4143 9.9078 41.5766C10.0328 41.2693 10.4963 41.3941 10.4504 41.7225Z" fill="white"/>
<path opacity="0.5" d="M24.3787 10.4077C24.4588 10.6005 24.5099 10.914 24.4892 11.1976C24.475 11.395 24.2265 11.4712 24.1025 11.3198C23.9392 11.1206 23.7929 10.7923 23.3385 10.2712C22.6674 9.56338 22.0779 9.56729 22.266 9.25166C22.4484 8.946 23.9273 9.11319 24.3787 10.4077Z" fill="white"/>
</g>
<path d="M9.79512 54.8197C10.3244 54.8798 10.8109 55.3251 10.8354 55.9556C10.8781 57.0654 9.42754 57.4005 8.81836 56.5037C8.32832 55.7824 8.89023 54.7167 9.79512 54.8197Z" fill="#000E3F"/>
<path d="M18.4941 57.8929C18.0445 57.6073 17.3861 57.648 16.9711 58.1233C16.2406 58.9599 17.159 60.1321 18.1961 59.8169C19.0309 59.5632 19.2629 58.3812 18.4941 57.8929Z" fill="#000E3F"/>
<path d="M14.5519 76.7217C14.2537 76.7217 13.9525 76.6719 13.6578 76.5678C13.4826 76.5032 13.3143 76.4413 13.1475 76.3825C13.015 76.3331 12.8871 76.2877 12.7609 76.2432C10.8477 75.5442 9.30351 74.9885 7.74277 74.4375L7.62363 74.3954C7.37636 74.3082 7.12753 74.2202 6.87812 74.1346C5.59667 73.6846 4.27265 73.2266 2.70996 72.6926L2.35625 72.57C2.19765 72.5139 2.03671 72.4594 1.87187 72.4036C0.454292 71.903 -0.29356 70.3711 0.107612 68.8321L7.57773 40.1538C7.68378 39.7483 7.88027 39.3625 8.14609 39.0395C8.33574 38.8036 8.56503 38.6012 8.825 38.4407C12.3992 36.2309 11.6301 32.6936 11.5307 32.2977C11.4029 31.7811 11.434 31.2395 11.6197 30.7303C11.6912 30.5362 11.7857 30.3469 11.9018 30.167L14.6867 25.8731C14.7549 25.7655 14.8287 25.668 14.9096 25.5786C14.9795 25.5016 15.0756 25.4606 15.185 25.4661C15.2887 25.4723 15.3842 25.5252 15.4445 25.6104C15.516 25.7106 15.6148 25.7856 15.7312 25.8266L32.1068 31.612C32.2232 31.6538 32.3475 31.6565 32.4662 31.6235C32.5672 31.5948 32.6744 31.6135 32.7592 31.675C32.8439 31.7358 32.8965 31.8317 32.9019 31.9362C32.9084 32.0553 32.9043 32.1764 32.89 32.3061L32.36 37.3932C32.3557 37.4436 32.3469 37.4997 32.3383 37.5538C32.3383 37.5553 32.3316 37.5956 32.3312 37.5971C32.3238 37.6405 32.3162 37.6823 32.306 37.7252C32.2836 37.8207 32.2572 37.9114 32.2275 38.0038C32.1447 38.2456 32.0348 38.4653 31.8978 38.6641C31.8928 38.6727 31.8875 38.6807 31.8828 38.6873C31.7262 38.9149 31.5338 39.1161 31.3105 39.2848C31.299 39.2938 31.2865 39.3018 31.2738 39.3092C31.0853 39.4536 30.8609 39.661 30.6506 39.8915C30.6092 39.9352 30.5756 39.9727 30.5414 40.0122L30.509 40.0504C30.4846 40.0797 30.459 40.1096 30.4361 40.1399C30.399 40.184 30.3785 40.21 30.358 40.2366L30.2953 40.3186C30.2756 40.3446 30.2555 40.3709 30.2369 40.3987C30.2014 40.4471 30.1762 40.4811 30.1533 40.5163C30.1236 40.5577 30.1055 40.5856 30.0867 40.6161C30 40.7485 29.9199 40.8815 29.8445 41.0211L29.7965 41.1108C29.7736 41.1553 29.7516 41.1983 29.7314 41.242C29.7129 41.2807 29.6959 41.3155 29.6812 41.3508C29.6568 41.4002 29.6475 41.4219 29.6379 41.4432C29.6162 41.4909 29.5988 41.534 29.5807 41.5793C29.0482 42.8881 29.0406 44.2954 29.5566 45.7653C29.6584 46.0532 29.7096 46.3545 29.709 46.661C29.7125 47.0747 29.6238 47.4983 29.4514 47.8817C29.4514 47.8821 29.4514 47.8825 29.451 47.8825L17.2498 74.8875C16.7334 76.0305 15.6639 76.7217 14.5519 76.7217ZM15.2105 26.3274L12.4785 30.5401C12.3906 30.6766 12.3184 30.8206 12.2646 30.9668C12.1258 31.3467 12.1025 31.7498 12.1969 32.1319C12.7014 34.1403 12.2158 37.1516 9.18632 39.0247C8.99277 39.1446 8.82187 39.2952 8.67871 39.4731C8.47363 39.7227 8.32343 40.0178 8.24179 40.3289L7.06562 44.8438L0.77187 69.0049C0.461518 70.1965 1.02187 71.3754 2.07578 71.7477C2.25996 71.81 2.42363 71.8657 2.58457 71.9225L2.93593 72.0444C4.49667 72.5776 5.82226 73.0364 7.10332 73.4864C7.35214 73.5719 7.60253 73.6604 7.85195 73.7479L7.97109 73.7901C9.53457 74.3422 11.0807 74.8987 12.9857 75.5942C13.1199 75.6418 13.2512 75.6885 13.3818 75.737C13.5463 75.7954 13.7178 75.8581 13.8914 75.9219C14.9418 76.2934 16.1172 75.727 16.6242 74.6053L28.8254 47.6002C28.9568 47.3069 29.0254 46.9827 29.0226 46.6635C29.0226 46.4321 28.9848 46.2077 28.909 45.993C28.3437 44.3831 28.3557 42.7682 28.9437 41.3239C28.9646 41.2706 28.9867 41.2166 29.0119 41.161C29.0266 41.1286 29.0424 41.0936 29.0603 41.0588C29.0662 41.0411 29.0883 40.995 29.1092 40.9516C29.132 40.9018 29.1582 40.8502 29.1842 40.7993L29.2185 40.7354C29.2193 40.7338 29.2391 40.6971 29.2402 40.6956C29.325 40.5377 29.4154 40.3883 29.508 40.2467C29.5312 40.2096 29.5582 40.1682 29.5877 40.1276C29.609 40.0944 29.6426 40.0487 29.6744 40.0053C29.6906 39.9805 29.7189 39.9426 29.7471 39.9051L29.8168 39.8141C29.8447 39.7786 29.8725 39.7434 29.9023 39.7088C29.9186 39.6864 29.9519 39.6461 29.9852 39.6071L30.0172 39.5692C30.0629 39.5155 30.1051 39.4686 30.1496 39.4229C30.3848 39.1641 30.6351 38.9338 30.8867 38.7442C30.8918 38.7403 30.8975 38.7368 30.9025 38.7332C31.0639 38.6098 31.2031 38.4639 31.3166 38.2995C31.3201 38.293 31.324 38.2868 31.3285 38.2809C31.4314 38.1323 31.5146 37.9666 31.5758 37.7887C31.5975 37.7198 31.6191 37.6456 31.6377 37.5678C31.6447 37.5385 31.6496 37.5094 31.6547 37.4799C31.6666 37.4084 31.6728 37.3694 31.6764 37.3295L32.1975 32.3288C32.0894 32.3196 31.982 32.2969 31.8779 32.26L15.5023 26.4748C15.3984 26.4373 15.3006 26.3881 15.2105 26.3274ZM29.1383 47.7413H29.1422H29.1383Z" fill="#000E3F"/>
<path d="M32.3037 32.333C32.1598 32.333 32.0162 32.3082 31.8781 32.2596L15.5025 26.4744C15.2522 26.3857 15.0383 26.2244 14.8846 26.0074C14.5781 25.5768 14.5715 24.9902 14.8688 24.548L14.909 24.4857L16.9512 21.468C17.277 20.9855 17.8891 20.784 18.4408 20.9773L20.0977 21.5627C20.3395 21.649 20.6057 21.5709 20.7623 21.3709L21.8758 19.9562C22.2147 19.5248 22.7908 19.3592 23.3086 19.5414L30.1568 21.9607C30.6738 22.1434 31.0182 22.6344 31.0131 23.1834L30.991 24.9844C30.9875 25.2387 31.1465 25.4664 31.3873 25.5512L33.0439 26.1365C33.5926 26.3303 33.9424 26.8717 33.8955 27.4531L33.5813 31.1586C33.5348 31.6898 33.1611 32.1422 32.6523 32.2846C32.5377 32.317 32.4205 32.333 32.3037 32.333ZM18.0133 21.5908C17.8197 21.5908 17.6326 21.6855 17.5203 21.8527L15.4418 24.926C15.2975 25.141 15.2998 25.4072 15.4441 25.61C15.516 25.7109 15.6148 25.7859 15.7313 25.827L32.1068 31.6123C32.2225 31.6537 32.3475 31.6572 32.4662 31.6238C32.4666 31.6238 32.4666 31.6238 32.467 31.6238C32.7025 31.558 32.8756 31.3473 32.8973 31.0996L33.2113 27.3965C33.233 27.1268 33.0705 26.8742 32.8154 26.7844L31.1588 26.199C30.6402 26.016 30.2967 25.5242 30.3049 24.9752L30.327 23.1764C30.3289 22.9223 30.1688 22.6936 29.9281 22.6088L23.0799 20.1895C22.8397 20.1039 22.5719 20.1816 22.4156 20.3811L21.3022 21.7959C20.9637 22.2273 20.3875 22.3941 19.8689 22.2107L18.2125 21.6254C18.1471 21.602 18.0799 21.5908 18.0133 21.5908Z" fill="#000E3F"/>
<path d="M28.6707 22.1433C28.6328 22.1433 28.5941 22.1371 28.5562 22.1236L24.4535 20.6742C24.2748 20.6111 24.181 20.4146 24.2441 20.2359L24.9687 18.1845C25.0027 18.089 25.0768 18.0134 25.1715 17.9775C25.267 17.9427 25.3719 17.9503 25.4605 17.9996C25.4922 18.0173 25.5264 18.0328 25.5615 18.0449L29.3482 19.3824C29.3838 19.3955 29.4172 19.4041 29.4516 19.4095C29.5518 19.4261 29.6393 19.4865 29.691 19.5736C29.7428 19.6611 29.7529 19.7668 29.7195 19.8627L28.9945 21.914C28.9445 22.055 28.8125 22.1433 28.6707 22.1433ZM25.0062 20.141L28.4613 21.3617L28.9527 19.9711L25.4973 18.7507L25.0062 20.141Z" fill="#000E3F"/>
<path d="M29.5875 20.1089C29.5031 20.1089 29.418 20.1015 29.3322 20.0857C29.2633 20.0742 29.1902 20.0552 29.1164 20.0288L25.3316 18.6921C25.2594 18.6665 25.1889 18.6345 25.1234 18.5978C24.5287 18.2712 24.2592 17.5675 24.4857 16.9259C24.7408 16.2046 25.5369 15.8267 26.2543 16.0804L30.041 17.4183C30.7611 17.673 31.1406 18.4656 30.8869 19.1845C30.6852 19.7503 30.1629 20.1089 29.5875 20.1089ZM25.7932 16.6878C25.5053 16.6878 25.235 16.8669 25.134 17.1525C25.0188 17.4779 25.1549 17.832 25.4566 17.9976C25.4908 18.0169 25.5252 18.0324 25.5604 18.0447L29.3471 19.3822C29.3826 19.3953 29.416 19.4038 29.4504 19.4093C29.7955 19.4728 30.124 19.2828 30.2385 18.9581L30.5631 19.0701L30.2393 18.9556C30.367 18.5935 30.1754 18.1945 29.8121 18.0658L26.0258 16.7279C25.949 16.7007 25.8705 16.6878 25.7932 16.6878Z" fill="#000E3F"/>
<path d="M20.7518 15.3599C20.5773 15.3599 20.4043 15.3197 20.2434 15.2396C19.9705 15.1033 19.7664 14.8693 19.6699 14.5798L18.7978 11.9822C18.582 11.3421 18.6137 10.6478 18.8869 10.0279C19.1934 9.32904 19.7846 8.78783 20.5088 8.54408L21.9184 8.0724C22.6062 7.84135 23.343 7.89291 23.9918 8.21557C24.641 8.539 25.1258 9.09584 25.3564 9.78373L26.2262 12.3814C26.2644 12.5001 26.2838 12.6181 26.2846 12.7365C26.2881 13.2314 25.9754 13.6701 25.5064 13.8287C25.5061 13.829 25.5057 13.829 25.5057 13.829L21.1158 15.3001C20.9967 15.3402 20.874 15.3599 20.7518 15.3599ZM22.7842 8.61654C22.5668 8.61654 22.3488 8.65209 22.1365 8.72299L20.7273 9.19467C20.1865 9.3769 19.7449 9.78119 19.5152 10.304C19.3109 10.7671 19.2873 11.2853 19.4486 11.763L20.3207 14.3615C20.3594 14.4771 20.4406 14.5705 20.5498 14.6246C20.6578 14.6783 20.7812 14.6872 20.8973 14.649L25.2863 13.1783C25.474 13.1144 25.5996 12.9392 25.5982 12.7417C25.5975 12.6929 25.5896 12.6443 25.5738 12.5951L24.7057 10.0017C24.533 9.48783 24.1709 9.07162 23.6857 8.83022C23.401 8.68822 23.0934 8.61654 22.7842 8.61654ZM25.3963 13.5033H25.4002H25.3963Z" fill="#000E3F"/>
<path d="M16.2475 25.7071C16.1848 25.7071 16.1213 25.6897 16.0644 25.6538C14.576 24.7124 12.8891 23.6454 12.3965 21.5653C11.2689 16.8061 17.535 14.871 19.8939 14.1424C20.0758 14.0881 20.2674 14.1881 20.3234 14.3692C20.3791 14.5506 20.2777 14.7426 20.0967 14.7987C16.3666 15.9504 12.1965 17.7422 13.0646 21.4067C13.4926 23.2147 15.0541 24.2022 16.4312 25.0731C16.5914 25.1745 16.6395 25.3866 16.5381 25.5467C16.4727 25.6504 16.3615 25.7071 16.2475 25.7071Z" fill="#000E3F"/>
<path d="M93.2225 77.1392C92.6244 76.5095 92.0875 75.9934 91.8643 75.4526C91.6428 74.9161 92.2801 74.4374 92.7021 74.762C93.393 75.2925 94.1502 76.4913 94.3605 76.4118C94.5678 76.3333 94.4756 76.0501 94.4781 75.8528C94.4928 74.755 94.4109 74.0847 94.5506 73.3677C94.6564 72.8233 95.5459 72.8995 95.6555 73.3708C95.7611 73.8257 95.7037 74.336 95.7371 76.6878C95.7482 77.4673 96.3738 76.879 97.2244 76.3194C97.707 76.0019 98.4519 75.7823 98.6898 76.3061C98.8861 76.7382 98.5049 77.0011 98.1139 77.2749C96.0545 78.7169 96.0105 78.3106 98.9615 79.1296C99.5035 79.28 100.157 79.512 99.9666 80.0599C99.7723 80.6186 99.1404 80.3845 97.8631 80.0964C97.6951 80.0585 97.5377 79.9653 97.3691 79.9409C96.9963 79.8872 96.648 79.6938 96.2576 79.7466C96.1935 80.206 96.5963 80.4509 96.7547 80.8091C97.0084 81.3827 97.4893 81.6511 97.3559 82.3046C97.3039 82.5591 97.0441 82.7196 96.8084 82.6229C95.6568 82.1513 95.3947 80.2409 94.9039 81.302C94.2699 82.6733 94.1736 83.014 93.7961 83.5268C93.4398 84.0108 92.757 83.6934 92.8697 83.1085C93.0562 82.138 94.0182 80.4946 93.8305 80.312C93.6348 80.1216 91.9053 81.6661 91.2334 81.689C90.7478 81.7054 90.5297 81.2839 90.7584 80.9251C91.1062 80.3794 91.4113 80.2741 92.7775 79.3212C92.8838 79.2472 93.0383 79.1737 92.9803 79.0101C92.9283 78.8636 92.7648 78.8524 92.6322 78.8329C91.9605 78.7345 90.4436 78.5345 90.374 78.5147C89.7174 78.3288 89.8086 77.2718 90.5578 77.3497C93.1613 77.6202 93.8516 77.9565 93.2076 77.1544C93.2121 77.1489 93.2172 77.144 93.2225 77.1392Z" fill="#FD8A02"/>
<path d="M43.8947 20.0523C43.123 19.1925 42.0334 18.1345 42.7338 17.5978C43.2217 17.2236 43.5789 17.6722 44.0266 18.1875C44.2832 18.4828 44.9187 19.3941 45.0912 19.3341C45.3271 19.2523 45.1812 19.1289 45.2684 17.0437C45.2939 16.4334 45.3467 15.7328 45.9504 15.8199C46.7744 15.9388 46.5527 16.2337 46.5047 19.6595C46.4934 20.4648 47.1566 19.8755 48.0514 19.3224C48.5594 19.0084 49.335 18.8039 49.5652 19.3515C49.7557 19.8046 49.3514 20.0654 48.9418 20.3351C46.773 21.7642 46.7391 21.3431 49.7631 22.2755C50.3185 22.4468 50.9867 22.7056 50.7738 23.2656C50.4064 24.233 47.8172 22.7416 46.9523 22.8336C46.8726 23.306 47.2814 23.5709 47.4346 23.9453C47.6801 24.5453 48.1687 24.8353 48.0117 25.5076C47.848 26.208 47.0482 25.7332 46.6367 25.1279C45.5762 23.5685 45.9336 23.6418 44.7053 26.0367C44.4592 26.516 44.11 27.0855 43.6344 26.8421C43.1221 26.58 43.3842 25.9767 43.6328 25.398C44.7365 22.8294 45.1029 22.8228 42.4064 24.4476C41.2158 25.165 40.473 24.1238 42.0158 23.1625C44.3078 21.7341 44.1416 21.933 41.4373 21.4812C41.183 21.4388 40.3174 21.4275 40.4953 20.623C40.5609 20.3267 40.7916 20.1459 41.1355 20.1914C43.8141 20.5468 44.5195 20.9166 43.8779 20.0673C43.8838 20.0623 43.8892 20.0572 43.8947 20.0523Z" fill="#FD8A02"/>
<path d="M4.08007 84.1321C3.14257 84.0448 2.33593 84.0066 1.76776 83.7243C1.20409 83.4441 1.3828 82.5989 1.95897 82.5626C2.90116 82.5029 4.37538 82.9411 4.49022 82.7263C4.60351 82.5144 4.32597 82.3489 4.18729 82.1861C3.41581 81.2794 2.87069 80.7904 2.47323 80.1054C2.17128 79.5855 2.95175 79.013 3.37753 79.3197C3.78769 79.6152 4.10194 80.0693 5.81093 81.9695C6.37616 82.5978 6.46718 81.6712 6.7623 80.6073C6.92987 80.0034 7.38124 79.2931 7.94921 79.5509C8.41894 79.7642 8.29315 80.253 8.17011 80.753C7.51776 83.3995 7.19159 83.0991 10.1855 81.6622C10.7353 81.3986 11.4346 81.1214 11.6699 81.7046C11.9164 82.3154 11.1723 82.5888 9.97851 83.2355C9.81444 83.3245 9.61933 83.3607 9.46425 83.4611C9.12147 83.6831 8.69921 83.7738 8.41796 84.0954C8.69354 84.5161 9.19706 84.4288 9.58183 84.6081C10.1984 84.8952 10.7824 84.7716 11.1398 85.4001C11.2789 85.6448 11.1814 85.9612 10.9199 86.0507C9.64413 86.4868 8.06601 85.1144 8.42245 86.3312C8.97089 88.2025 9.48124 89.3339 8.71894 89.548C8.13749 89.7113 7.90956 89.0595 7.68847 88.4366C6.70585 85.6648 6.99003 85.39 6.0664 88.5784C5.67265 89.9372 4.33612 89.7433 4.8496 87.8667C5.59784 85.13 5.608 85.4068 3.20565 86.9837C3.0494 87.0863 2.90253 87.2083 2.73515 87.2874C2.06698 87.604 1.38612 86.6765 2.0539 86.205C4.36347 84.5745 5.1828 84.353 4.07792 84.155C4.0787 84.1476 4.07929 84.14 4.08007 84.1321Z" fill="#FD8A02"/>
</g>
<defs>
<clipPath id="clip0_48_1867">
<rect width="100" height="100" fill="white"/>
</clipPath>
</defs>
</svg>
