<svg width="106" height="105" viewBox="0 0 106 105" fill="none" xmlns="http://www.w3.org/2000/svg">
<g clip-path="url(#clip0_201_5305)">
<path d="M52.9139 104.926C43.6244 104.921 34.3636 102.409 26.3411 97.6905C10.3793 88.3024 0.458984 70.9697 0.458984 52.4605C0.458984 44.7628 2.16804 37.1086 5.41892 30.176C5.37404 30.0797 5.33449 29.9803 5.30007 29.8787C5.04104 29.1125 5.10969 28.2731 5.49044 27.5598C5.49044 27.5598 16.3499 7.20692 16.3544 7.19832C17.0714 5.85444 18.8719 5.2743 20.2393 5.95014L24.7707 8.18604C33.1824 2.82466 42.8744 1.52588e-05 52.9139 1.52588e-05C64.0414 1.52588e-05 74.5742 3.39783 83.5205 9.84899C83.8818 9.69591 84.2711 9.6166 84.6642 9.6166C86.0119 9.6166 87.214 10.5756 87.5189 11.8835L87.8562 13.3325C99.0022 23.2913 105.374 37.4959 105.374 52.4603C105.374 58.0776 104.488 63.6025 102.738 68.9012L104.68 73.9985C105.217 75.4112 104.593 77.0016 103.237 77.6711L97.1366 80.6818C93.8719 85.7886 89.7852 90.2576 84.9802 93.9741C75.8759 101.038 64.4353 104.932 52.9139 104.926Z" fill="white"/>
<path d="M102.953 52.4603C102.953 61.4496 100.486 70.3619 95.831 78.0547C92.2598 83.9562 87.5476 89.1113 81.8356 92.9988C81.8307 93.0037 79.7114 92.5873 79.7114 92.5873C77.9121 93.8527 75.9627 96.5704 75.9627 96.5704C73.326 97.9061 70.5667 99.0346 67.7347 99.8832C65.3211 100.611 62.8293 101.158 60.269 101.51C59.3505 101.642 58.4269 101.745 57.4937 101.813C56.8291 101.872 56.1599 101.915 55.4857 101.94C54.8066 101.974 54.1176 101.989 53.4237 101.989C53.326 101.989 53.2284 101.989 53.1305 101.984C50.0524 101.969 47.0377 101.666 44.1209 101.119C43.2121 100.943 42.3131 100.743 41.4239 100.523C36.8382 99.3717 32.4143 97.5776 28.3443 95.1681C13.7162 86.5639 3.90039 70.6603 3.90039 52.4603C3.90039 25.1089 26.0728 2.93164 53.4242 2.93164C80.7804 2.93164 102.953 25.1087 102.953 52.4603Z" fill="#A2B7FF"/>
<path d="M94.5344 70.8166L87.2669 82.5357L86.2886 83.0206L77.3359 61.7492L78.5116 61.2107L91.9846 62.1867L94.5344 70.8166Z" fill="#58304D"/>
<path d="M102.451 75.0423L87.267 82.5357L78.5117 61.2107L94.4067 53.9149L102.451 75.0423Z" fill="#7B50B6"/>
<path d="M83.2461 63.2378L85.0826 67.593L94.7902 63.3427L92.7438 58.9348L83.2461 63.2378Z" fill="#FFE7E1"/>
<path d="M23.6927 31.4576L9.58115 29.3934L8.58789 28.9399L19.4516 8.57825L20.6109 9.151L29.618 17.3004L23.6927 31.4576Z" fill="#58304D"/>
<path d="M24.9725 36.4526L9.58203 29.3934L20.6118 9.15101L36.2975 16.8866L24.9725 36.4526Z" fill="#FFA71D"/>
<path d="M22.023 14.104L19.8008 18.2758L29.2211 23.1298L31.3514 18.7619L22.023 14.104Z" fill="#FFE7E1"/>
<path d="M68.7135 99.5778C68.3959 99.6999 68.057 99.7706 67.7344 99.8832C65.3208 100.611 62.829 101.158 60.2687 101.51C59.3502 101.642 58.4266 101.745 57.4934 101.813L57.0391 99.8293L54.0343 100.02L53.1304 101.984C50.0523 101.969 47.0377 101.666 44.1208 101.119C43.212 100.943 42.313 100.743 41.4238 100.523L43.0263 91.45L43.295 89.9256L55.8126 89.5006L67.8369 89.0901L67.9932 90.9664L68.7135 99.5778Z" fill="#7B50B6"/>
<path d="M57.8944 58.618H53.2578V66.8616H57.8944V58.618Z" fill="#FFACA9"/>
<path d="M57.8944 58.618V62.7601C57.5817 63.0023 57.2485 63.2091 56.8802 63.3404C55.4675 63.855 54.2214 63.5119 53.2578 62.7199V58.618H57.8944Z" fill="#58304D"/>
<path d="M27.8053 51.1328C27.5338 51.4918 27.193 51.7912 26.8108 52.0353C26.5944 52.1734 26.3643 52.2978 26.1295 52.399C23.9196 53.3613 21.1757 52.7443 19.4353 51.0777C17.6949 49.4065 16.9629 46.819 17.3588 44.4388C17.543 43.3431 17.9711 42.2566 18.7721 41.483C19.7021 40.5897 21.0695 40.2215 22.354 40.3596C23.33 40.4608 24.2507 40.8293 25.0473 41.3863C25.1669 41.4693 25.2821 41.5565 25.3973 41.6488C25.9819 42.1137 26.4793 42.6846 26.8567 43.3246C26.9717 43.5181 27.0776 43.7205 27.1699 43.9277C28.1277 46.0683 29.4306 48.9688 27.8053 51.1328Z" fill="#FFACA9"/>
<path d="M26.567 50.9533C26.4654 50.9533 26.3695 50.8912 26.3312 50.7901C25.3217 48.1286 23.6305 45.7611 21.4401 43.9431C20.8892 43.4859 20.2228 42.9931 19.4552 42.8023C19.32 42.7689 19.2376 42.632 19.2712 42.4969C19.3046 42.3609 19.4415 42.2775 19.5767 42.3127C20.4429 42.5279 21.1675 43.0613 21.762 43.5547C24.0196 45.4286 25.7625 47.8686 26.8031 50.6117C26.8525 50.742 26.7869 50.8875 26.6566 50.9367C26.6271 50.9479 26.5967 50.9533 26.567 50.9533Z" fill="#58304D"/>
<path d="M91.0637 49.443C89.3233 51.1141 86.5794 51.7266 84.3695 50.7643C84.2683 50.7229 84.1716 50.6723 84.0748 50.6262C83.5361 50.35 83.0527 49.9817 82.689 49.5028C81.0637 47.3388 82.3666 44.4384 83.3242 42.293C83.4254 42.0721 83.5361 41.851 83.6695 41.6438C84.1345 40.8705 84.779 40.1981 85.5388 39.6918C85.6032 39.6457 85.6677 39.6043 85.7368 39.5674C86.4642 39.1161 87.2837 38.8215 88.1401 38.7294C89.4293 38.5913 90.792 38.9551 91.7266 39.8528C92.5277 40.6217 92.9513 41.7129 93.1355 42.8086C93.5314 45.189 92.7994 47.7764 91.0637 49.443Z" fill="#FFACA9"/>
<path d="M83.766 49.3934C83.7424 49.3934 83.7183 49.3901 83.6945 49.383C83.5609 49.3434 83.4844 49.2031 83.5242 49.0694C84.1271 47.0325 84.9134 45.3712 85.9283 43.9913C87.137 42.348 88.6643 41.1426 90.3454 40.5068C90.4743 40.4562 90.6213 40.5225 90.6707 40.6533C90.72 40.7836 90.6543 40.9291 90.5239 40.9783C88.9341 41.5804 87.4855 42.7257 86.3349 44.29C85.3552 45.6222 84.5941 47.2325 84.0082 49.2127C83.9756 49.3223 83.875 49.3934 83.766 49.3934Z" fill="#58304D"/>
<path d="M85.601 38.7266C85.3916 42.6725 85.0092 46.7812 84.0739 50.627C84.0288 50.8123 83.9788 50.9924 83.9237 51.1776C83.8741 51.3537 83.7997 51.5856 83.7464 51.7434C83.4901 52.5047 83.1563 53.2719 82.7421 53.9613C80.4843 57.7062 75.5828 59.128 71.5577 59.794C70.997 59.8842 70.4363 59.9641 69.8706 60.0344C65.9053 60.5301 61.8903 60.51 57.8949 60.6702C57.8549 60.6702 57.8099 60.6752 57.7697 60.6752C56.1776 60.7403 54.6807 60.8004 53.2589 60.8455C49.2337 60.9707 45.7842 60.9807 42.3448 60.6852C41.8706 60.6442 41.3962 60.6012 40.923 60.5499C39.7869 60.4272 38.6431 60.2573 37.516 60.0682C36.7502 59.9397 35.9863 59.8008 35.2258 59.6438C34.3045 59.4536 33.4534 59.1632 32.6725 58.7876C32.2901 58.6091 31.9054 58.3989 31.556 58.1618C30.9968 57.7823 30.4534 57.3671 29.964 56.9001C28.9402 55.923 28.1363 54.7382 27.4707 53.4957C27.2254 53.0201 27.0051 52.5344 26.8098 52.0338C24.8914 47.1153 25.1344 41.4895 25.9086 36.3585C26.2041 34.4009 27.556 32.8615 28.0166 30.969C29.3033 25.6972 35.1037 24.8714 39.8298 22.4383C49.3626 17.5343 58.2642 14.0465 68.581 16.446C68.7603 16.4876 68.7818 16.7185 68.9607 16.7616C73.0448 17.7433 77.151 18.5659 80.2052 21.5576C83.3893 24.6767 83.6719 29.4428 84.0575 33.7834C84.2126 35.5759 85.601 38.7266 85.601 38.7266Z" fill="#FFACA9"/>
<g opacity="0.53">
<g opacity="0.53">
<path opacity="0.53" d="M43.598 56.2972C43.598 57.9067 43.1389 59.4151 42.3467 60.6865C40.0311 60.4897 37.7153 60.1619 35.2281 59.6471C31.5301 58.8803 29.0227 56.5192 27.4688 53.4972C28.619 50.2885 31.6865 47.993 35.2886 47.993C39.8797 47.993 43.598 51.7113 43.598 56.2972Z" fill="#FF676C"/>
</g>
<g opacity="0.53">
<path opacity="0.53" d="M83.9291 51.1766C83.6315 52.1754 83.253 53.1189 82.7436 53.9615C80.4833 57.705 75.5847 59.1278 71.5585 59.7936C70.9985 59.8844 70.4384 59.9651 69.8735 60.0358C68.9804 58.7141 68.4609 57.1147 68.4609 55.3993C68.4609 50.8082 72.1793 47.0899 76.7703 47.0899C79.8175 47.0899 82.4813 48.7297 83.9291 51.1766Z" fill="#FF676C"/>
</g>
</g>
<path d="M40.6365 48.098C42.249 48.098 43.5563 46.7908 43.5563 45.1783C43.5563 43.5658 42.249 42.2586 40.6365 42.2586C39.024 42.2586 37.7168 43.5658 37.7168 45.1783C37.7168 46.7908 39.024 48.098 40.6365 48.098Z" fill="#58304D"/>
<path d="M71.035 48.098C72.6475 48.098 73.9547 46.7908 73.9547 45.1783C73.9547 43.5658 72.6475 42.2586 71.035 42.2586C69.4224 42.2586 68.1152 43.5658 68.1152 45.1783C68.1152 46.7908 69.4224 48.098 71.035 48.098Z" fill="#58304D"/>
<path d="M56.5454 50.4512C56.4173 50.4512 56.2886 50.4479 56.1593 50.4407C54.3072 50.3366 51.9652 49.3825 50.9086 47.4839C50.8414 47.3632 50.8848 47.2109 51.0057 47.1437C51.126 47.0769 51.2789 47.1193 51.3461 47.2406C52.3049 48.9632 54.5277 49.8477 56.1874 49.9407C58.3712 50.0596 60.4426 49.0585 61.8664 47.1857C61.9496 47.0755 62.107 47.054 62.217 47.1376C62.3271 47.2216 62.3484 47.3786 62.2648 47.4882C60.8229 49.3862 58.7557 50.4512 56.5454 50.4512Z" fill="#58304D"/>
<path d="M37.5749 35.8574C36.7136 36.2857 35.8341 37.0265 35.8786 37.9874C35.9109 38.6886 36.4587 39.2852 37.1003 39.57C37.7419 39.8548 38.4649 39.8833 39.167 39.8764C40.3248 39.8649 41.5379 39.7507 42.507 39.1169C43.4761 38.4831 44.0968 37.1831 43.6191 36.1283C43.3162 35.4597 42.631 35.0156 41.9111 34.8724C40.5514 34.6021 38.7754 35.2603 37.5749 35.8574Z" fill="#58304D"/>
<path d="M73.6147 35.8574C74.476 36.2857 75.3556 37.0265 75.3111 37.9874C75.2787 38.6886 74.731 39.2851 74.0893 39.57C73.4477 39.8548 72.7248 39.8833 72.0229 39.8763C70.8651 39.8649 69.652 39.7507 68.6829 39.1169C67.7138 38.4831 67.0931 37.183 67.5708 36.1283C67.8737 35.4597 68.5589 35.0156 69.2788 34.8723C70.638 34.6021 72.4141 35.2603 73.6147 35.8574Z" fill="#58304D"/>
<path d="M71.3673 19.6868C71.1519 21.379 70.6714 23.0862 69.6351 24.448C69.6101 24.483 69.5851 24.5131 69.5601 24.5482C68.0832 26.4105 65.6 27.3617 63.2319 27.1515C60.8687 26.9412 58.656 25.6345 57.1691 23.7822C57.0088 26.4957 56.4332 29.4946 54.2504 31.1116C52.7384 32.228 50.6607 32.4383 48.8734 31.8526C47.0912 31.2618 45.5992 29.9452 44.6028 28.3532C44.3124 30.9516 42.4501 33.3145 39.9869 34.2057C37.5238 35.0969 34.585 34.4711 32.6975 32.6537C32.8927 34.4459 33.088 36.2683 32.7274 38.0357C32.3718 39.7981 31.3556 41.5253 29.7285 42.2913C28.2967 42.9571 26.3102 42.6362 25.334 41.4546C25.4041 39.7425 25.6533 38.0509 25.9086 36.3586C26.4742 32.611 27.1877 28.6866 29.3466 25.4978C31.2966 22.6172 34.0848 20.3456 37.1633 18.7607C47.225 13.5844 59.1207 13.4141 69.923 16.04C70.3599 16.1461 70.7941 16.2564 71.2271 16.3775C71.5425 17.439 71.5026 18.5804 71.3673 19.6868Z" fill="#58304D"/>
<path d="M85.6014 38.7265C85.4713 39.1369 85.3361 39.5376 85.1959 39.938V39.9429C85.1358 40.1081 85.0807 40.2683 85.0207 40.4335C84.8205 40.9843 84.5149 41.62 83.9342 41.6952C83.834 41.7101 83.7389 41.7052 83.6487 41.6802C83.1432 41.5751 82.7676 41.0093 82.5674 40.4937C81.7663 38.406 81.9065 35.9779 82.9479 34.0004C81.9516 35.3071 79.964 35.6125 78.4871 34.9016C77.0051 34.1856 76.0389 32.6387 75.7436 31.0216C75.4481 29.4046 75.7537 27.7273 76.2893 26.1754C75.6285 27.3469 74.1065 27.8875 72.7997 27.5773C71.488 27.2719 70.4216 26.2406 69.8558 25.019C69.7708 24.8338 69.6956 24.6434 69.6355 24.4483C69.265 23.377 69.205 22.2003 69.315 21.069C69.4753 19.4117 69.9859 17.7146 70.847 16.2728C70.9722 16.3078 71.1024 16.3428 71.2276 16.3779C74.6621 17.3742 78.0164 18.846 80.5896 21.3694C83.7737 24.4885 85.1555 29.0093 85.5412 33.3499C85.6965 35.142 85.6965 36.9342 85.6014 38.7265Z" fill="#58304D"/>
<path d="M70.147 15.9759C69.6318 15.1251 69.2658 14.1841 69.0712 13.2086C68.8742 12.2225 68.8888 11.0936 69.5552 10.3407C69.7767 10.0905 70.0927 9.88806 70.4251 9.92392C70.8548 9.97044 71.1444 10.3852 71.3075 10.7854C71.6405 11.6024 71.6927 12.5039 71.7085 13.3861C71.7331 14.764 71.8436 16.397 71.4851 17.7288C70.9462 17.5198 70.4583 16.4902 70.147 15.9759Z" fill="#58304D"/>
<path d="M72.4841 15.896C73.1696 15.1753 73.9813 14.5748 74.8712 14.1304C75.7709 13.6812 76.8639 13.3984 77.7656 13.8435C78.0652 13.9914 78.3436 14.2431 78.3963 14.573C78.4646 14.9998 78.1406 15.3884 77.7971 15.6509C77.0963 16.187 76.2403 16.4745 75.3934 16.7216C74.0704 17.1077 72.5237 17.6433 71.1445 17.6478C71.2044 17.0732 72.0696 16.3318 72.4841 15.896Z" fill="#58304D"/>
<path d="M81.8352 92.9986C81.7668 93.0523 81.6983 93.1111 81.6301 93.1648C81.6252 93.1698 81.6202 93.1745 81.6202 93.1745C81.1756 93.4872 80.7311 93.7851 80.2766 94.0784C79.5778 94.5327 78.8792 94.9626 78.156 95.3829C77.4329 95.7934 76.705 96.194 75.9623 96.5702L67.7734 80.1437L74.1641 78.4434L81.8352 92.9986Z" fill="#FFACA9"/>
<path d="M53.1384 64.6149L55.695 66.4044L57.9319 64.1675C57.9319 64.1675 67.3909 66.085 67.7106 66.7239C68.0303 67.3631 72.3123 90.3717 72.3123 90.3717C72.3123 90.3717 51.0933 93.887 37.8633 90.4996L44.1907 68.1301L53.1384 64.6149Z" fill="#FFE7E1"/>
<path d="M44.1897 68.1301L27.125 74.074L31.0876 86.7925L44.4452 80.8488L44.1897 68.1301Z" fill="#FFE7E1"/>
<path d="M67.709 66.7241L81.2586 80.4652L68.9873 85.6423L67.709 66.7241Z" fill="#FFE7E1"/>
<path d="M58.8883 72.2814C58.8438 72.2814 58.8014 72.2576 58.7789 72.217L55.6854 66.6493L52.2191 72.0959C52.1874 72.1451 52.1246 72.1656 52.0703 72.1461C52.0152 72.1261 51.9816 72.0697 51.9894 72.0115L53.0122 64.5976C53.0218 64.5294 53.0837 64.478 53.1534 64.4907C53.2218 64.5003 53.2695 64.5632 53.2603 64.6319L52.3158 71.4775L55.5872 66.3372C55.611 66.2999 55.6493 66.2762 55.6966 66.2794C55.7407 66.2809 55.7809 66.3053 55.8024 66.3438L58.6883 71.5379L57.8053 64.1823C57.7971 64.1136 57.8461 64.0515 57.9145 64.0433C57.986 64.0286 58.0455 64.0843 58.0539 64.1526L59.0127 72.1412C59.0199 72.2005 58.9838 72.2566 58.927 72.2753C58.9139 72.2796 58.901 72.2814 58.8883 72.2814Z" fill="#7B50B6"/>
<path d="M55.8212 91.9668C55.7524 91.9668 55.6964 91.9115 55.696 91.8423L55.5684 66.4048C55.5682 66.3356 55.6239 66.2794 55.6929 66.2794C55.6932 66.2794 55.6934 66.2794 55.6936 66.2794C55.7624 66.2794 55.8184 66.3348 55.8188 66.404L55.9464 91.8414C55.9466 91.9107 55.8909 91.9668 55.8218 91.9668C55.8216 91.9668 55.8214 91.9668 55.8212 91.9668Z" fill="#7B50B6"/>
<path d="M62.6956 81.6912C62.0188 81.6912 61.4157 81.4564 60.8995 80.9918C58.8919 79.1844 58.83 74.5286 58.8281 74.331C58.8277 74.2624 58.8824 74.206 58.9513 74.205L66.4932 74.0771C66.4939 74.0771 66.4947 74.0771 66.4953 74.0771C66.5611 74.0771 66.616 74.1282 66.6203 74.1939C66.6387 74.4835 67.0289 81.2857 62.9921 81.6765C62.8917 81.6859 62.793 81.6912 62.6956 81.6912ZM59.0816 74.453C59.1062 75.2112 59.3179 79.2311 61.0673 80.8055C61.6034 81.2879 62.2432 81.4951 62.968 81.4273C66.485 81.0867 66.4096 75.2425 66.376 74.3294L59.0816 74.453Z" fill="#7B50B6"/>
<path d="M37.8616 90.6246C37.8514 90.6246 37.8409 90.6236 37.8303 90.6207C37.7635 90.6035 37.7231 90.5352 37.7403 90.4684L42.4058 72.3171C42.423 72.2498 42.4906 72.2087 42.5582 72.2269C42.625 72.2441 42.6654 72.3123 42.6482 72.3792L37.9827 90.5305C37.9682 90.5875 37.9176 90.6246 37.8616 90.6246Z" fill="#7B50B6"/>
<path d="M72.3095 90.4967C72.2515 90.4967 72.1995 90.4561 72.1872 90.3969L68.1609 70.9672C68.1467 70.8994 68.1904 70.8336 68.2582 70.8193C68.3236 70.8045 68.3918 70.8488 68.4062 70.9166L72.4325 90.3463C72.4466 90.4141 72.4029 90.4799 72.3351 90.4943C72.3267 90.4963 72.3181 90.4967 72.3095 90.4967Z" fill="#7B50B6"/>
<path d="M30.408 84.6114L22.4026 88.0459C20.9857 88.6516 19.3836 87.7204 19.2185 86.1884L17.5313 70.9336V70.9035L17.5164 70.7633L17.5014 70.618L17.3363 69.1311L17.2461 68.3301L17.4715 68.3051L17.9371 68.2551L17.9773 68.25L18.7332 68.1649L18.7734 68.1598L19.5293 68.0747L19.5744 68.0698L20.2103 67.9997L21.0915 67.8995L21.8224 67.8194L21.8575 68.0647L23.6698 80.1604L28.3609 78.0377L30.408 84.6114Z" fill="#FFACA9"/>
<path d="M17.2447 68.3288C17.2447 68.3288 13.9692 60.41 14.1016 59.8875C14.2339 59.3651 18.2832 55.1786 18.2832 55.1786L21.6601 60.9965L21.8214 67.8204L17.2447 68.3288Z" fill="#FFACA9"/>
<path d="M21.8105 68.2487C21.8105 68.2487 23.6102 61.3656 23.4669 61.1625C23.3239 60.9594 18.8482 60.5203 19.0195 61.106C19.1908 61.6914 20.7058 63.1179 20.7058 63.1179L18.8867 66.8409L21.8105 68.2487Z" fill="#FFACA9"/>
<path d="M19.6566 71.2875L19.0486 70.9529L17.727 70.7031L17.0469 70.85L20.2043 52.0681L20.6461 52.1423L20.6859 52.1492L21.408 52.271L21.4478 52.2777L22.1683 52.3984L22.2078 52.4052L22.813 52.5072L19.6566 71.2875Z" fill="#7B50B6"/>
<path d="M20.6764 51.977L17.4961 70.894L17.5361 70.9007L20.7164 51.9837L20.6764 51.977Z" fill="#FFE7E1"/>
<path d="M21.4381 52.105L18.2578 71.022L18.2978 71.0288L21.4782 52.1117L21.4381 52.105Z" fill="#FFE7E1"/>
<path d="M22.1979 52.2328L19.0176 71.1498L19.0576 71.1566L22.2379 52.2395L22.1979 52.2328Z" fill="#FFE7E1"/>
<path d="M22.2028 49.376L22.6056 50.2308L22.8124 52.5068L21.8464 53.7696L21.2712 53.0308L20.7634 53.727L20.2031 52.0681L21.4417 49.9761L22.2028 49.376Z" fill="#FFE7E1"/>
<path d="M19.6567 71.2876L19.0487 71.1861L17.6059 70.9439L17.0469 70.85L17.3213 70.7017C17.3936 70.6625 17.4672 70.6291 17.544 70.6025C17.5576 70.5961 17.5719 70.5926 17.5873 70.5873C17.8312 70.5057 18.0892 70.4811 18.34 70.5131C18.3539 70.5141 18.3679 70.5154 18.3808 70.5182C18.6265 70.5545 18.8644 70.6445 19.0767 70.7847C19.0892 70.7922 19.1024 70.8025 19.1149 70.8101C19.1776 70.8552 19.2364 70.9029 19.295 70.9552L19.6567 71.2876Z" fill="#FFE7E1"/>
<path d="M22.4318 48.3065L22.6074 50.2309C22.4969 50.2731 22.3781 50.2958 22.2598 50.2956C21.9723 50.2966 21.6715 50.172 21.4434 49.9761L22.4318 48.3065Z" fill="#58304D"/>
<path d="M19.0482 71.1861L17.6055 70.9439C17.6649 70.8898 17.8745 70.7316 18.2934 70.7918C18.3063 70.7947 18.3203 70.7957 18.333 70.7986C18.3459 70.8015 18.3598 70.8027 18.3727 70.8056C18.691 70.8709 18.8984 71.0275 19.0166 71.15C19.0166 71.15 19.0166 71.15 19.0175 71.1529C19.0294 71.165 19.0398 71.1761 19.0482 71.1861Z" fill="#58304D"/>
<path d="M18.2574 55.6933C18.2574 55.6933 22.0046 60.4479 21.5404 60.6744C21.0765 60.9008 18.4086 58.1815 18.4086 58.1815C18.4086 58.1815 21.6333 61.5006 21.2449 61.8816C20.8566 62.2625 17.5938 59.2989 17.5938 59.2989C17.5938 59.2989 21.0285 62.8589 20.358 63.3249C19.6875 63.7908 17.1377 60.9346 17.1377 60.9346C17.1377 60.9346 19.3133 63.498 18.893 63.8814C18.4727 64.2648 14.6934 60.3779 14.6934 60.3779L18.2574 55.6933Z" fill="#FFACA9"/>
<path d="M23.4665 61.1625C23.4665 61.1625 19.0305 60.539 19.1024 61.0783C19.1742 61.6177 21.5662 63.2038 21.5662 63.2038L23.4665 61.1625Z" fill="#FFACA9"/>
<path d="M47.3791 9.82318L45.4239 4.74685L48.943 8.54611L52.7872 5.72023L50.2637 9.8365L53.2796 13.3464L49.832 11.6779L49.7076 16.8887L47.9399 11.6591L42.8652 12.4421L47.3791 9.82318Z" fill="#FFD27B"/>
<path d="M91.1525 33.7081L89.1971 28.6317L92.7165 32.4312L96.5606 29.6051L94.0372 33.7216L97.053 37.2315L93.6054 35.563L93.4808 40.7736L91.7132 35.5442L86.6387 36.3272L91.1525 33.7081Z" fill="#FFD27B"/>
<path d="M38.883 67.8163L36.9276 62.74L40.4469 66.5392L44.2911 63.7134L41.7677 67.8296L44.7835 71.3396L41.3359 69.6711L41.2113 74.8818L39.4436 69.6522L34.3691 70.4352L38.883 67.8163Z" fill="#FFD27B"/>
<path d="M81.9923 77.7567L80.037 72.6804L83.5563 76.4798L87.4004 73.6538L84.877 77.77L87.8929 81.28L84.4453 79.6117L84.3207 84.8222L82.553 79.5926L77.4785 80.3758L81.9923 77.7567Z" fill="#FFD27B"/>
<path d="M11.4854 52.8687L11.7409 47.4348L13.4311 52.33L18.0882 51.2922L14.1201 54.0431L15.4662 58.4707L12.9832 55.5546L10.7698 60.2736L11.2588 54.7749L6.29883 53.4472L11.4854 52.8687Z" fill="#FFD27B"/>
<path d="M88.2045 25.5872C88.0813 25.1726 87.8379 24.7571 87.4409 24.6638C86.953 24.5482 86.4063 24.7495 86.1038 25.1509C86.072 24.4009 85.5673 23.6911 84.8659 23.4181C84.1669 23.1421 83.3111 23.3175 82.7789 23.8476C82.7035 22.9802 82.2101 22.1324 81.4347 21.7468C80.6562 21.3582 79.6141 21.5058 79.0537 22.1689C78.9811 21.5779 78.5821 21.0404 78.0393 20.8025C77.4965 20.5646 76.7376 20.4514 76.2559 20.7996L77.7801 19.3926L81.9099 15.5706L85.1745 12.5478L86.2052 16.9739L87.5565 22.8007L88.2045 25.5872Z" fill="#FFACA9"/>
<path d="M86.2055 16.9741C85.7076 17.1975 85.1567 17.2842 84.6231 17.1967C83.7676 17.0561 82.5495 16.4262 81.9102 15.5706L85.1748 12.5478L86.2055 16.9741Z" fill="#FF676C"/>
<path d="M88.2045 25.5872C88.0813 25.1726 87.8379 24.7571 87.4409 24.6638C86.953 24.5482 86.4063 24.7495 86.1038 25.1509C86.072 24.4009 85.5673 23.6911 84.8659 23.4181C84.1669 23.1421 83.3111 23.3175 82.7789 23.8476C82.7035 22.9802 82.2101 22.1324 81.4347 21.7468C80.6562 21.3582 79.6141 21.5058 79.0537 22.1689C78.9811 21.5779 78.5821 21.0404 78.0393 20.8025C77.4965 20.5646 76.7376 20.4514 76.2559 20.7996L77.7801 19.3926C78.6905 19.7926 79.7313 20.6291 80.4107 20.951C82.6449 22.0164 85.0761 22.782 87.5567 22.8009L88.2045 25.5872Z" fill="#FF676C"/>
</g>
<defs>
<clipPath id="clip0_201_5305">
<rect width="104.926" height="104.926" fill="white" transform="translate(0.453125)"/>
</clipPath>
</defs>
</svg>
