<svg width="100" height="100" viewBox="0 0 100 100" fill="none" xmlns="http://www.w3.org/2000/svg">
<path d="M88.5403 41.905C86.6764 41.7925 81.7623 40.7754 78.6073 40.9995C77.9196 41.0456 77.0584 40.9848 73.9244 40.7396C73.9196 32.6072 73.9139 27.2305 73.9237 21.9566C74.3741 21.8695 74.8114 21.777 75.2127 21.6838C76.8573 21.3049 78.2544 20.3134 79.1464 18.8915C80.7251 16.3736 80.3248 13.1558 78.1617 11.0809C77.5266 9.06196 75.9587 7.60678 74.0605 7.01264C71.0194 3.62358 65.425 4.49015 63.5767 8.6726C60.9448 8.23283 57.5033 8.35471 55.3476 8.34508C51.4845 8.34508 46.9308 7.75865 42.7471 7.56114C41.9584 7.49174 40.0371 6.96285 38.0192 6.96285C32.9719 6.96285 30.1182 10.7807 27.6177 12.1112C26.9192 12.4829 26.1697 13.06 25.4416 13.9955C24.1431 15.6849 24.0921 17.5253 24.0938 18.4721C23.4608 25.9407 24.1711 30.6855 23.7647 42.2873C23.7575 42.3384 23.5626 43.4221 23.5062 43.7792C19.8708 44.2771 21.8457 44.1067 18.6039 44.1446C16.908 40.7127 12.5352 39.5576 9.36317 41.7248C7.31455 42.0503 5.48448 43.3666 4.59673 45.4017C0.703778 48.2307 1.32263 54.0569 5.57358 56.0992C5.63359 56.9926 6.3762 77.9376 6.40905 78.8622C6.46347 80.3542 7.07232 81.7735 8.11825 82.8469C9.56303 84.3297 10.7866 86.9783 12.5163 89.4863C13.3708 90.803 15.0499 95.5606 19.9773 95.0346C21.8366 95.0036 23.3802 94.3038 24.0113 94.1005C25.2284 93.7395 27.0791 92.8985 27.5471 92.7672C29.5871 92.1956 32.0807 91.973 35.5166 91.5799C42.5278 90.7941 41.312 90.6052 43.697 90.3867C46.249 90.1521 48.1909 89.383 50.5151 88.6096C52.0095 88.3063 53.1609 87.9635 54.4131 86.997C60.3391 88.7856 59.031 88.0819 63.2644 88.715C68.3727 89.4785 73.9686 89.4537 77.2042 90.2373C77.484 90.3048 77.9151 90.4677 78.3718 90.6407C80.4096 91.4127 80.309 91.2764 81.0887 91.5428C84.3031 92.6313 87.6745 92.7125 89.9008 90.1445C91.1732 88.6778 91.8244 86.895 92.1007 86.4324C93.7705 83.8123 94.8475 81.1897 96.2615 79.6285C97.2683 78.5188 97.8253 77.0783 97.8253 75.5856C97.8087 50.8722 97.7878 52.884 97.9596 51.0101C98.1697 48.7309 97.5132 46.5825 96.1101 44.9589C93.7436 42.2223 90.3583 42.0164 88.5403 41.905Z" fill="white"/>
<path d="M82.7097 83.6752C83.2474 84.1597 83.5478 84.8418 84.0621 85.3406C84.4296 85.697 84.9089 85.8575 85.2811 86.1998C85.9631 85.413 86.3564 84.1273 86.9499 83.197C88.5708 80.6561 89.6767 77.8498 91.7301 75.584C91.7355 51.3861 91.6405 53.167 91.8901 50.4593C92.1494 47.646 88.7823 48.1068 87.0175 47.8425C86.354 47.7432 85.6951 47.6494 85.0259 47.5098C84.2748 47.3531 83.5936 47.3469 82.8221 47.2737C81.51 47.1493 80.3651 46.9386 79.0461 47.0325C76.9858 47.1792 70.3166 46.4337 66.3215 46.2438C64.7501 46.1692 61.9646 45.2045 60.5395 45.9148C58.4313 46.9655 56.5501 48.9399 54.3983 50.0845C56.115 52.0113 58.8955 52.8415 60.8012 54.7268C64.3694 58.2569 65.9839 63.0114 68.1106 67.4109C75.6976 83.1062 80.0338 79.8061 82.5621 82.641C83.416 83.5984 83.498 84.8949 84.9181 85.3947C84.9454 85.6178 85.049 85.9433 84.9584 86.1616C85.0786 84.1787 87.8724 81.4571 88.8765 79.7215" fill="#2C74E1"/>
<path d="M54.341 50.1954C54.2804 50.2196 54.2283 50.2553 54.1886 50.3068C54.0464 50.4911 54.1046 51.1894 54.0836 51.4291C54.0128 52.2375 53.9595 53.0474 53.9195 53.8578C53.8404 55.462 53.8143 57.0684 53.8133 58.6743C53.8089 65.7864 54.0803 65.8909 53.7519 75.2677C53.7088 76.4954 52.6084 79.8741 53.8345 80.6047C54.2781 80.869 55.1272 80.9014 55.6381 81.0477C57.4034 81.5532 59.3369 82.2867 61.3225 82.3967C62.8845 82.4832 64.4768 82.8172 66.0391 82.988C70.1758 83.4401 75.2255 83.5327 78.6492 84.3605C79.9114 84.6657 81.0676 85.2661 82.3225 85.5896C82.9505 85.7516 83.5531 86.0328 84.1973 86.1317C84.9899 86.2533 85.1663 86.2314 85.3304 85.5238C85.5864 84.4205 85.4497 83.1745 85.7501 82.0965C86.5746 79.1371 85.7446 75.8245 85.8268 72.7902C85.9298 68.9914 86.0958 65.1903 85.9122 61.3911C85.7762 58.5764 85.8291 54.8708 86.8818 52.1693C83.3705 53.2997 77.5157 52.0691 73.9531 51.3318C69.5745 50.4256 65.0997 50.5764 60.5478 50.4052C59.2872 50.3578 58.1117 50.1877 56.8584 50.0845C56.3271 50.0407 55.8077 50.1731 55.2794 50.1945C55.028 50.2046 54.6047 50.0903 54.341 50.1954Z" fill="#508DEF"/>
<path d="M21.808 86.4061C21.2882 86.9095 21.0128 87.602 20.5169 88.1189C20.1626 88.4882 19.6894 88.6656 19.3299 89.021C18.6197 88.2592 18.18 86.9884 17.5531 86.0798C15.8411 83.5985 14.6341 80.8336 12.4997 78.6427C11.6158 54.4606 11.7753 56.237 11.4276 53.5401C10.8931 49.3943 20.0681 50.3963 22.1921 50.079C27.0179 49.358 31.946 48.8204 36.8267 48.4132C38.3943 48.2824 41.1429 47.2188 42.593 47.8777C44.7379 48.8523 46.7558 50.9533 48.9477 52.0203C47.3021 54.0071 44.4873 54.7411 42.6513 56.6933C39.2136 60.3487 37.7727 65.1578 35.8071 69.6305C28.7948 85.5868 24.3418 82.4437 21.9179 85.3673C21.0994 86.3546 21.0645 87.6532 19.6634 88.2035C19.6443 88.4274 19.5526 88.7564 19.651 88.9714C19.4589 86.994 16.5681 84.3741 15.5016 82.6754" fill="#8366D8"/>
<path d="M49.1383 52.3493C49.3789 53.1021 49.3544 54.0584 49.4301 54.8436C50.0714 61.4944 49.6362 65.6945 50.4418 76.9689C50.5293 78.1943 51.7517 81.5315 50.553 82.3054C50.1192 82.5854 49.2719 82.6481 48.7666 82.8126C47.0206 83.381 45.1151 84.1831 43.1348 84.3639C41.5771 84.5062 39.9979 84.8969 38.4428 85.1235C34.3254 85.7232 29.2821 85.9963 25.8907 86.946C24.6404 87.2961 23.5067 87.9374 22.2644 88.3056C21.6427 88.4899 21.0507 88.7925 20.4105 88.9143C19.6228 89.0642 19.4458 89.0486 19.256 88.3473C18.9601 87.2538 19.0515 86.0039 18.7122 84.9372C17.7808 82.0093 18.49 78.6691 18.2977 75.6397C18.0569 71.8471 17.753 68.0543 17.7986 64.2511C17.8323 61.4333 17.6449 57.732 16.4948 55.07C20.0449 56.0741 25.8511 54.635 29.3847 53.7708C33.7276 52.7087 38.2049 52.6993 42.7476 52.3656C44.0057 52.2731 45.1742 52.061 46.4229 51.9131C46.8982 51.8568 47.363 51.9506 47.837 51.9627C48.4196 51.9774 48.9222 51.6729 49.1383 52.3493Z" fill="#9E7AE6"/>
<path d="M61.4007 52.686C61.5331 52.6708 61.5117 52.662 61.5967 52.5686C62.3978 51.6873 62.6509 51.003 62.8399 50.7632C64.3068 48.9017 65.5148 45.4956 67.8301 42.9409C67.8355 18.743 67.7405 20.524 67.9901 17.8162C68.0952 16.676 67.3054 15.6617 66.1747 15.434C61.8774 14.5687 63.5766 14.3744 55.467 14.3944C51.1126 14.4051 46.7644 13.8071 42.4214 13.6008C40.8501 13.5261 38.0646 12.5615 36.6395 13.2717C34.5313 14.3224 32.6501 16.2969 30.4983 17.4415C32.215 19.3682 34.9955 20.1985 36.9011 22.0838C40.4693 25.6138 42.0839 30.3683 44.2106 34.7678C46.4282 39.3553 50.0301 46.1466 55.0707 48.1117C56.3287 48.6021 57.7547 48.9804 58.6621 49.9979C59.0889 50.4765 59.3309 51.0707 59.6659 51.6089C59.8317 51.8753 60.024 52.1267 60.2661 52.3296C60.5764 52.5897 60.9919 52.7328 61.4007 52.686Z" fill="#DC2E2F"/>
<path d="M30.2886 17.6637C30.1464 17.8481 30.2046 18.5463 30.1836 18.786C29.5539 25.9718 30.2749 30.5492 29.8519 42.6246C29.8088 43.8524 28.7084 47.2311 29.9345 47.9616C30.3781 48.226 31.2272 48.2583 31.7381 48.4046C33.5034 48.9102 35.4369 49.6437 37.4225 49.7536C38.9845 49.8401 40.5768 50.1741 42.1391 50.3449C43.8278 50.5295 45.5223 50.6374 47.2115 50.7752C48.7575 50.9014 50.3068 51.0006 51.8459 51.1975C53.3428 51.3889 54.8054 51.7293 56.2951 51.9263C56.8166 51.9952 57.3279 52.1198 57.8451 52.2106C58.7223 52.3647 59.6107 52.5657 60.4962 52.6575C60.8099 52.69 61.1357 52.7392 61.4388 52.7805C61.4659 52.7842 61.7812 49.7006 61.8501 49.4534C62.6746 46.4941 61.8446 43.1814 61.9268 40.1471C62.0298 36.3484 62.1957 32.5472 62.0122 28.7481C61.8761 25.9333 61.929 22.2277 62.9818 19.5263C59.4705 20.6567 53.6157 19.426 50.0531 18.6887C45.6745 17.7826 41.1997 17.9333 36.6478 17.7622C35.3872 17.7148 34.2117 17.5446 32.9584 17.4414C32.4271 17.3977 31.9077 17.5301 31.3794 17.5514C31.0709 17.5639 30.5011 17.3881 30.2886 17.6637Z" fill="#E94641"/>
<path d="M34.0102 21.3855C37.4344 22.5768 40.6277 22.3127 44.175 22.8201C46.2949 23.1234 48.4575 23.2999 50.5763 23.4148C52.9117 23.5415 56.1752 24.0793 58.3762 23.2832C57.4897 25.0288 57.7169 27.1782 57.6528 29.1004C57.5533 32.0835 57.2432 35.1002 56.8823 38.0642C56.5044 41.1666 56.5127 44.1385 56.3489 47.2507C53.7779 47.1241 51.054 46.0217 48.4857 45.6695C46.4075 45.3846 44.2588 45.4269 42.16 45.3294C39.5093 45.2064 36.5604 44.9577 33.9272 45.1234C35.7102 40.6265 34.8198 34.756 35.0492 30.0117C35.1467 27.9945 35.3856 23.0823 34.0102 21.3855Z" fill="#DC2E2F"/>
<path d="M58.8097 54.7937C62.2338 55.985 65.4271 55.7209 68.9745 56.2283C71.0944 56.5316 73.2569 56.7081 75.3758 56.823C77.7112 56.9497 80.9747 57.4875 83.1757 56.6914C82.2891 58.437 82.5164 60.5864 82.4523 62.5086C82.3527 65.4917 82.0427 68.5084 81.6817 71.4724C81.3039 74.5748 81.3122 77.5467 81.1483 80.659C78.5774 80.5323 75.8535 79.4299 73.2852 79.0777C71.2069 78.7928 69.0582 78.8351 66.9595 78.7376C64.3088 78.6146 61.3598 78.3659 58.7267 78.5317C60.5097 74.0347 59.6193 68.1642 59.8486 63.42C59.9461 61.4027 60.1851 56.4905 58.8097 54.7937Z" fill="#2C74E1"/>
<path d="M45.0889 79.7786C46.0348 79.9153 46.7937 79.0533 46.5812 78.1285C46.0067 75.6281 45.9674 73.1581 45.4723 70.5034C45.0826 68.4135 44.8187 66.2762 44.6186 64.1798C44.398 61.8691 43.7265 58.6545 44.4405 56.4404C42.0347 57.7654 41.4228 56.6185 29.6169 58.5104C26.5081 59.0086 23.5154 59.1188 20.3882 59.4052C20.6181 61.9494 21.8366 64.6064 22.2935 67.1391C22.6632 69.1885 22.7062 71.3207 22.8878 73.3979C23.1173 76.0213 23.4852 78.9355 23.4231 81.5531C27.8802 79.606 33.8266 80.2551 38.5945 79.8387C40.0237 79.7139 42.899 79.4621 45.0889 79.7786Z" fill="#8F26D3"/>
<path d="M32.8297 62.0028C33.6188 62.0303 35.3207 61.1115 36.3624 63.0844L41.7528 73.4596C41.9211 73.7183 42.0138 74.0006 42.0311 74.3081C42.0594 74.8136 41.8427 75.0589 41.4157 75.118C39.7312 75.3513 39.5033 75.5236 39.1398 74.8084C38.3242 73.2039 38.5631 72.8125 37.6676 72.9365L34.7863 73.3355C34.3017 73.4567 34.0039 73.7192 33.8935 74.1248L33.5207 75.4258C33.3818 75.9159 33.3235 76.2384 32.4367 76.3612L27.5276 77.0409C27.05 77.1071 26.598 76.8875 26.5634 76.2787C26.5263 75.6271 26.8799 74.8194 27.0376 74.1857C27.7498 71.3229 28.5882 70.7513 29.081 69.1496C29.5396 67.6588 29.982 66.4375 30.6853 65.0741C31.3078 63.8673 31.0769 62.2455 32.8297 62.0028ZM35.4545 67.9847C35.0817 69.6601 34.7369 69.959 35.0866 70.4639C35.3011 70.7737 35.7112 70.54 36.9276 70.4205C37.1813 70.3854 37.2988 70.1953 37.2793 69.8471C37.2624 69.5463 37.0709 69.3051 36.397 67.8148C36.2575 67.5112 35.6701 67.2177 35.4545 67.9847Z" fill="white"/>
<path d="M41.3447 26.5005C42.592 26.4462 44.1505 26.4199 46.0214 26.4199C47.8917 26.4199 49.1868 26.443 49.9056 26.4907C52.4669 26.6548 53.6808 30.9644 51.5574 32.5028C51.4868 32.557 51.4518 32.6212 51.4518 32.6952C51.4518 32.7692 51.4868 32.8202 51.5574 32.8465C52.0803 33.0357 52.5204 33.4403 52.8777 34.0588C53.2343 34.679 53.4129 35.4142 53.4129 36.263C53.4129 37.3272 53.106 38.2912 52.4928 39.1531C51.879 40.015 50.9392 40.4838 49.6717 40.5578C48.4048 40.6318 47.4896 40.6697 46.9261 40.6697C46.3633 40.6697 44.4825 40.6483 41.2846 40.6088C40.993 40.6088 40.7567 40.4838 40.5756 40.2338C40.3945 39.9854 40.289 39.6992 40.2589 39.3751C40.1785 38.1892 40.138 36.462 40.138 34.1904C40.138 31.9205 40.173 29.9828 40.2435 28.379C40.2736 27.7194 40.3589 27.244 40.5001 26.9545C40.6407 26.665 40.9224 26.5137 41.3447 26.5005ZM46.2779 29.208L46.2927 30.8661C46.2927 31.1227 46.4081 31.2493 46.6401 31.2493C47.6553 31.2493 48.1636 30.8661 48.1636 30.0979C48.1636 29.208 47.7106 28.7639 46.8058 28.7639C46.7457 28.7639 46.6898 28.7639 46.6401 28.7639C46.3983 28.7639 46.2779 28.9119 46.2779 29.208ZM46.2927 34.7661L46.2779 37.3947C46.2779 37.5164 46.308 37.62 46.3682 37.7072C46.4283 37.796 46.5087 37.8388 46.6094 37.8388C47.2232 37.8388 47.7284 37.6776 48.1255 37.3536C48.5227 37.0312 48.7215 36.5229 48.7215 35.8287C48.7215 35.1346 48.5153 34.6526 48.1028 34.3829C47.7714 34.1674 47.4092 34.0588 47.017 34.0588C46.9163 34.0588 46.8156 34.0671 46.715 34.0802C46.4338 34.1065 46.2927 34.3352 46.2927 34.7661Z" fill="#FFC100"/>
<path d="M64.6984 73.125C63.3845 71.7218 62.782 69.7928 62.8909 67.3396C62.9574 65.8405 63.2356 64.5357 63.7263 63.4234C65.8813 58.5456 72.0724 58.2751 77.1025 60.0571C77.7355 60.3201 78.0323 60.9152 77.9912 61.8405C77.8257 65.5705 75.2455 62.3088 72.2277 63.2945C71.2663 63.6085 70.4453 64.1016 69.9887 65.0374C69.0131 67.0373 69.661 69.448 71.8733 70.4267C73.2333 71.0283 75.1726 70.8572 76.6396 70.9213C77.6891 70.9671 77.7867 71.7914 77.7395 72.8559C77.6937 73.8878 77.5306 74.4553 76.4881 74.7883C75.8194 75.0035 74.8644 75.1665 73.6213 75.2811C70.2911 75.5928 66.9572 75.5403 64.6984 73.125Z" fill="#F5D4A7"/>
<path d="M68.4014 14.0505C68.7549 13.1826 68.8644 12.0905 69.1133 11.1218C69.1964 10.8076 69.6804 10.923 69.5977 11.2468C69.3493 12.2075 69.2464 13.3012 68.8643 14.24C68.8129 14.3672 68.2765 14.3591 68.4014 14.0505Z" fill="black"/>
<path d="M69.9512 14.5593C70.2852 14.3611 70.5635 14.0662 70.8574 13.7537C71.2209 13.3667 72.1436 12.3895 72.3818 12.866C72.4443 12.989 72.3955 13.1394 72.2725 13.2019C71.525 13.582 70.9871 14.5264 70.207 14.989C69.92 15.157 69.6687 14.7274 69.9512 14.5593Z" fill="black"/>
<path d="M71.0742 16.2801C70.7514 16.2801 70.7393 15.7961 71.0615 15.7801C71.9082 15.7381 72.8858 15.532 73.7295 15.3377C74.0528 15.2585 74.1635 15.7514 73.8428 15.824C71.8129 16.2932 71.2058 16.2624 71.0742 16.2801Z" fill="black"/>
<path d="M10.4346 51.7703C9.83594 51.0779 8.81934 50.8045 8.2666 50.7039C7.94059 50.6429 8.03085 50.1479 8.35645 50.2117C8.97363 50.325 10.1143 50.6346 10.8135 51.4422C11.0284 51.6922 10.6536 52.0194 10.4346 51.7703Z" fill="black"/>
<path d="M11.4209 50.1706C11.1035 49.3923 10.583 48.6306 10.165 48.0544C9.97109 47.788 10.3748 47.492 10.5693 47.7614C11.0039 48.3601 11.5469 49.154 11.8838 49.9812C12.0086 50.2896 11.544 50.4753 11.4209 50.1706Z" fill="black"/>
<path d="M12.9463 48.7028C12.7453 47.0749 12.5247 46.6883 12.9053 46.6394C13.0332 46.6267 13.168 46.7185 13.1855 46.8552C13.4093 48.5548 13.5986 48.8752 13.2246 48.9206C13.0723 48.9344 12.9619 48.8299 12.9463 48.7028Z" fill="black"/>
<path d="M63.0723 19.5467C62.6531 19.0437 64.6683 18.3984 65.6816 17.6199C66.477 17.0075 67.1345 16.0952 67.416 16.534C67.4902 16.6502 67.456 16.8045 67.3389 16.8787C67.0557 17.0594 66.8184 17.2791 66.5684 17.5105C65.1704 18.806 64.4535 18.7282 63.4238 19.5799C63.3779 19.6189 63.1638 19.6561 63.0723 19.5467Z" fill="black"/>
<path d="M87.5645 51.9274C87.4814 51.818 87.502 51.6608 87.6123 51.5768C88.7593 50.701 90.1261 50.1314 91.207 49.2839C91.4633 49.0784 91.7774 49.4712 91.5156 49.6764C90.3841 50.5642 89.0418 51.1147 87.915 51.9753C87.8701 52.0094 87.6517 52.0403 87.5645 51.9274Z" fill="black"/>
<path d="M16.415 55.366C15.455 54.5371 13.6824 52.7651 12.3369 52.532C12.0124 52.476 12.0955 51.9775 12.4228 52.0398C13.9146 52.2983 15.6329 54.0261 16.7412 54.9871C16.8457 55.0779 16.8574 55.2351 16.7676 55.3396C16.6744 55.4474 16.5151 55.4535 16.415 55.366Z" fill="black"/>
<path d="M26.1933 76.6414C27.0623 74.1925 28.077 71.5913 28.7441 68.95C29.1991 67.1 29.9228 63.8381 31.5703 62.8669C31.8572 62.6967 32.1073 63.1319 31.8242 63.2966C30.35 64.1673 29.6446 67.382 29.2285 69.073C28.5599 71.7208 27.5428 74.3378 26.6641 76.8093C26.5544 77.1206 26.081 76.9526 26.1933 76.6414Z" fill="black"/>
<path d="M71.3555 70.2106C69.637 68.6311 68.8736 65.7094 70.7246 64.1051C72.5785 62.4965 74.9307 63.2959 77.1045 63.7291C77.4211 63.7911 77.3425 64.2769 77.0068 64.2194C74.9333 63.8104 72.7295 63.025 71.0527 64.4821C69.4438 65.8768 70.203 68.4723 71.6934 69.8434C72.9531 71.0006 75.0889 71.4303 77.3955 70.9967C77.7232 70.9343 77.8119 71.4282 77.4873 71.4889C75.383 71.8839 72.9184 71.6489 71.3555 70.2106Z" fill="black"/>
<path d="M40.4346 40.3797C40.4287 40.3797 40.4229 40.3797 40.416 40.3788C40.2783 40.369 40.1748 40.2489 40.1855 40.1112C40.2959 38.5985 40.1191 37.0155 39.9473 35.4852C39.8115 34.2694 39.6709 33.0116 39.6709 31.7782C39.6709 30.1747 39.8906 28.5858 40.3232 27.0555C40.3604 26.9237 40.4932 26.8436 40.6318 26.8836C40.7646 26.9208 40.8418 27.0594 40.8037 27.1922C40.3838 28.6776 40.1709 30.2206 40.1709 31.7782C40.1709 32.9842 40.3096 34.2274 40.4443 35.4295C40.6182 36.9833 40.7979 38.5887 40.6836 40.1483C40.6738 40.2792 40.5645 40.3797 40.4346 40.3797Z" fill="black"/>
</svg>
