<svg width="108" height="104" viewBox="0 0 108 104" fill="none" xmlns="http://www.w3.org/2000/svg">
<path d="M56.2022 69.1978C57.7642 78.7698 46.7961 86.2794 38.1697 83.6401C37.9985 83.5874 37.8273 83.5321 37.6614 83.4715C32.9202 81.8042 30.244 77.8163 28.3027 73.3516L45.5397 70.7835L56.2022 69.1978Z" fill="#FC09B2"/>
<g opacity="0.25">
<path opacity="0.25" d="M56.201 69.1978C57.7629 78.7698 46.7949 86.2794 38.1685 83.6401C37.9973 83.5874 37.8261 83.5321 37.6602 83.4715C40.1651 81.7752 42.2565 79.4652 43.6525 76.7811C44.6245 74.9136 45.2619 72.8696 45.5411 70.7835L56.201 69.1978Z" fill="#0C1A40"/>
</g>
<path d="M93.2965 41.6803C92.6222 38.7592 90.8469 36.299 88.3472 34.4631C88.4473 33.1909 88.3656 31.9107 88.0706 30.6385C87.4464 27.9307 85.9634 25.5812 83.8615 23.7084C83.1319 23.0578 82.3311 22.4652 81.4645 21.9357C78.5197 20.1209 74.8453 19.0146 70.831 18.7855C67.8836 15.5008 61.9728 14.0442 55.7671 15.4771C51.5817 16.4412 48.0942 18.5273 45.8922 21.0849C42.6339 19.8549 38.517 19.5809 34.2736 20.5608C25.6024 22.56 19.689 29.016 21.064 34.9767C21.0772 35.0373 21.0982 35.09 21.114 35.1506C13.5386 38.9119 9.02393 45.8499 10.549 52.4613C11.3129 55.7749 13.4807 58.4958 16.5124 60.4002C14.2524 62.4547 12.8775 64.9491 12.7774 67.4515C12.7484 68.0968 12.8064 68.7395 12.9539 69.3743C13.0382 69.7351 13.1435 70.0802 13.2805 70.42C15.2112 75.256 22.2835 77.7425 29.7799 76.012C32.219 75.4483 34.4184 74.5027 36.2701 73.3069C40.0684 74.1945 44.375 74.2288 48.7659 73.2173C50.2278 72.8802 51.6238 72.4455 52.9566 71.9214C51.5553 75.4167 50.9521 79.2571 51.2419 82.9342C51.2708 83.2977 51.2972 83.6691 51.3393 84.0378C51.4842 85.5471 51.7265 87.0933 52.335 88.4682C53.0936 90.1909 55.3114 91.7766 56.8892 89.7747C58.0192 88.3418 59.6233 79.7865 62.6182 70.9863C62.742 70.6228 62.8631 70.2646 62.9922 69.9037C63.0739 69.6667 63.1608 69.4349 63.2451 69.1978C64.217 69.1135 65.2048 68.9581 66.2057 68.729C71.6107 67.4831 75.8593 64.3618 77.6636 60.769C88.1733 58.048 95.1298 49.6297 93.2965 41.6803Z" fill="#FF8EDE"/>
<g opacity="0.5">
<g opacity="0.5">
<path opacity="0.5" d="M62.9741 70.9942C59.9766 79.7944 58.3752 88.3497 57.2452 89.7826C55.6674 91.7845 53.4496 90.1961 52.691 88.4761C52.0851 87.1012 51.8402 85.555 51.6953 84.0457C52.0957 83.9351 52.4829 83.7929 52.8569 83.6059C54.9404 82.5786 56.1968 80.4134 57.1714 78.301C58.146 76.1885 59.01 73.9311 60.701 72.3323C61.3358 71.7344 62.1313 71.2655 62.9741 70.9942Z" fill="#FC09B2"/>
</g>
<g opacity="0.5">
<path opacity="0.5" d="M93.6527 41.6856C95.486 49.635 88.5269 58.0559 78.0225 60.7769C76.2182 64.3697 71.9695 67.491 66.5646 68.7369C65.5636 68.9686 64.5759 69.1241 63.6039 69.2057C61.9182 69.3558 60.293 69.29 58.7784 69.0371C57.1374 70.1619 55.3042 71.1417 53.3128 71.9266C51.98 72.4508 50.584 72.8854 49.1221 73.2226C44.7312 74.2367 40.4246 74.2024 36.6264 73.3121C34.7747 74.508 32.5779 75.4536 30.1362 76.0173C22.6398 77.7478 15.5674 75.2613 13.6367 70.4253C19.8477 71.9293 26.9622 70.0802 31.1871 65.2099C34.261 61.6593 36.1101 56.6889 40.4088 54.8108C43.3747 53.5202 46.8121 54.068 49.8886 55.0769C52.9625 56.0831 55.9205 57.5318 59.1182 58.0164C62.3159 58.5011 65.9587 57.8083 67.9474 55.256C69.7754 52.8985 69.7543 49.6482 69.7464 46.6691C69.7306 41.9885 69.9703 37.2183 71.5218 32.8116C73.0785 28.3943 76.1155 24.3169 80.4142 22.4573C80.8751 22.2597 81.3414 22.0859 81.8207 21.9436C82.6847 22.4731 83.4881 23.0657 84.2177 23.7163C86.3196 25.5891 87.8026 27.9386 88.4268 30.6464C88.7192 31.9186 88.8035 33.1988 88.7034 34.471C91.2031 36.3043 92.9784 38.7618 93.6527 41.6856Z" fill="#FC09B2"/>
</g>
</g>
<path opacity="0.5" d="M16.0782 47.7069C15.2459 50.1065 15.5067 53.0171 15.5067 52.9723C15.5356 53.7967 14.4372 54.1128 14.0237 53.3964C10.7602 47.7253 14.8903 40.7847 21.1592 39.6679C21.9126 39.5336 22.3472 40.4976 21.7493 40.9744C19.3523 42.884 17.1239 44.8306 16.0782 47.7069Z" fill="white"/>
<path d="M77.0393 56.681C76.5441 55.5879 75.8566 54.5053 74.911 53.6387C73.9601 52.7721 72.8354 52.161 71.6158 51.7738C70.391 51.384 69.0503 51.3339 67.8202 51.5052C66.577 51.6658 65.4259 52.0161 64.3249 52.3638L61.8252 53.1435C62.0438 52.6114 62.1834 52.0425 62.2256 51.4604C62.323 50.1276 61.8752 48.7289 60.9718 47.6674C60.063 46.6138 58.8409 45.9895 57.6582 45.6023C57.0603 45.4074 56.4571 45.2704 55.8565 45.173C55.2639 45.0729 54.6343 45.0097 54.1023 44.9544C51.895 44.7463 49.7246 44.4039 47.6437 43.798C45.5628 43.1896 43.5899 42.2756 41.7619 41.0271L41.7593 41.0244C41.5591 40.8874 41.2852 40.9033 41.1034 41.0771C40.8953 41.2773 40.8874 41.6065 41.085 41.8173C42.7102 43.5241 44.8042 44.8016 47.0221 45.6313C47.8439 45.9448 48.6815 46.2002 49.527 46.4083C48.9633 46.7639 48.397 47.0932 47.8228 47.3724C46.7929 47.8702 45.734 48.2047 44.6593 48.3154C43.5847 48.4392 42.4916 48.3154 41.409 48.0151C40.3369 47.7095 39.2438 47.1933 38.2561 46.598L38.2086 46.569C38.0322 46.4637 37.803 46.4663 37.6265 46.5954C37.3947 46.7666 37.3447 47.0958 37.5133 47.3276C37.94 47.9097 38.422 48.3522 38.962 48.7789C39.5046 49.1899 40.0946 49.5533 40.732 49.8299C41.999 50.3989 43.4556 50.6596 44.878 50.5095C46.303 50.3699 47.6621 49.8457 48.8 49.0845C49.7693 48.4497 50.6017 47.6648 51.2839 46.7824C52.1478 46.9378 53.0171 47.0537 53.8784 47.1459C54.4763 47.2012 54.9768 47.2433 55.5036 47.325C56.0251 47.4014 56.5282 47.5173 57.0155 47.6569C57.998 47.9203 58.8619 48.3786 59.5046 48.9923C60.1131 49.6218 60.5214 50.4884 60.5635 51.4288C60.6109 52.1953 60.4344 52.9907 60.0604 53.7019C58.2034 54.313 56.3754 54.9452 54.5395 55.4509C52.3928 56.0541 50.2197 56.5308 48.0651 56.5677L47.2591 56.5835L46.4584 56.5361L46.058 56.5124L45.6629 56.4545L44.8727 56.3386C43.8349 56.112 42.8076 55.8249 41.8304 55.3877C39.8786 54.5158 38.1217 53.1857 36.644 51.5631C35.1506 49.9485 33.931 48.0572 32.88 46.0659C32.7562 45.8341 32.477 45.7235 32.2268 45.8236C31.9581 45.9289 31.8291 46.2319 31.9344 46.5005C32.7905 48.6683 33.9363 50.7492 35.4324 52.6088C35.5667 52.7747 35.709 52.9354 35.8486 53.0987C35.8433 53.0987 35.8407 53.0961 35.8354 53.0961C34.708 52.8538 33.5201 52.8143 32.348 52.9907C31.1732 53.1514 30.0169 53.5887 29.0239 54.2445C27.9992 54.8582 27.209 55.7801 26.6032 56.7416C26.4926 56.918 26.4847 57.1525 26.6058 57.3395C26.7718 57.5976 27.1168 57.674 27.3776 57.5081L27.4329 57.4712C28.31 56.9075 29.0897 56.328 29.98 55.9698L30.3013 55.8197L30.6359 55.7038C30.8624 55.6326 31.0731 55.5326 31.3023 55.472L31.9871 55.2955C32.2136 55.2323 32.4533 55.2138 32.6851 55.1664C33.6228 55.0189 34.5922 54.9768 35.5825 55.0137C36.3991 55.0505 37.2499 55.148 38.0849 55.2639C38.9831 55.9909 39.9603 56.6283 41.0112 57.1393C41.5538 57.4211 42.1307 57.6266 42.7049 57.8452C42.9867 57.9664 43.287 58.0349 43.582 58.1165C43.8797 58.1929 44.1747 58.2798 44.4723 58.3483L45.3758 58.5037L45.8288 58.5801L46.2845 58.6196L47.1959 58.696L48.1046 58.7039C50.5385 58.7013 52.8827 58.185 55.1401 57.5765C57.3948 56.9391 59.56 56.1515 61.7146 55.4298L63.2054 54.9294C62.6997 55.4614 62.2677 56.0831 61.9622 56.7916C61.3353 58.2271 61.359 59.876 61.8015 61.2326C62.2203 62.6154 62.9578 63.8034 63.8587 64.7964C64.0114 64.965 64.259 65.0308 64.4829 64.9412C64.77 64.8253 64.9123 64.5014 64.7964 64.2116L64.7937 64.2037C64.3275 63.0316 63.9034 61.8858 63.7191 60.7663C63.5268 59.6469 63.5953 58.5906 63.9904 57.6556C64.3855 56.7179 65.1177 55.8881 66.0212 55.1691C66.9062 54.4737 67.9677 53.8705 69.0292 53.349C69.7351 53.3068 70.4332 53.3621 71.1127 53.536C72.0873 53.7888 73.0461 54.2445 73.8231 54.8846C74.6186 55.5141 75.2429 56.3623 75.7697 57.3131C76.2912 58.2667 76.7258 59.3124 77.1762 60.3686C77.2869 60.6267 77.5766 60.7663 77.8505 60.6794C78.1429 60.5872 78.3062 60.279 78.214 59.9867C77.8769 58.8936 77.5344 57.7794 77.0393 56.681Z" fill="#FC09B2"/>
<path d="M46.5126 29.1398C47.0684 29.5507 47.7295 29.8641 48.3538 30.0353C48.9675 30.2302 49.5839 30.3461 50.195 30.4462C51.4172 30.6201 52.6025 30.649 53.7325 30.7254C54.8624 30.7807 55.9424 30.8756 56.9433 31.1337C57.4464 31.2496 57.9284 31.4313 58.363 31.6263C58.7845 31.8528 59.1875 32.1056 59.5378 32.4244C59.8829 32.7483 60.1779 33.1303 60.436 33.5517C60.6862 33.9784 60.8838 34.4526 61.0418 34.9504C61.3606 35.9513 61.4896 37.0497 61.5528 38.1718V38.1823C61.5686 38.4378 61.7583 38.6564 62.0217 38.6986C62.3246 38.746 62.6091 38.5379 62.6565 38.235C62.8409 37.0497 62.8672 35.8143 62.646 34.5605C62.5222 33.9363 62.3378 33.3147 62.0612 32.7088C61.7767 32.1083 61.3922 31.542 60.9312 31.0362C60.465 30.5331 59.9092 30.1222 59.3192 29.7877C58.7213 29.4795 58.126 29.2346 57.5149 29.0607C57.5386 28.4312 57.5965 27.8069 57.7124 27.2327C57.9047 26.3082 58.234 25.4837 58.7476 24.8173C59.2533 24.1457 59.9619 23.6268 60.8048 23.2159C61.6503 22.805 62.6143 22.5152 63.6337 22.2281L63.6416 22.2255C63.8471 22.1675 64.0104 21.9937 64.0446 21.7672C64.092 21.459 63.8787 21.1719 63.5705 21.1245C62.4458 20.9559 61.2631 21.0165 60.0989 21.3747C58.9399 21.7145 57.7757 22.4257 56.9907 23.4845C56.1953 24.5329 55.8133 25.8209 55.7844 27.0273C55.7659 27.612 55.8133 28.181 55.9213 28.7315C55.218 28.6261 54.52 28.5682 53.8457 28.526C52.6657 28.476 51.5357 28.4496 50.461 28.3337C49.9289 28.2732 49.3995 28.202 48.9043 28.0677C48.4091 27.9544 47.9982 27.7859 47.5978 27.5462C46.8129 27.0536 46.3072 26.3635 46.2782 25.4495C46.2282 24.5276 46.6233 23.4793 47.0947 22.4704L47.0974 22.4625C47.2001 22.2439 47.1369 21.9752 46.9367 21.8225C46.7049 21.6486 46.3783 21.696 46.2044 21.9278C45.4906 22.8813 44.8216 23.9876 44.6767 25.3995C44.6214 26.1001 44.7452 26.864 45.0903 27.5277C45.438 28.1915 45.949 28.7262 46.5126 29.1398Z" fill="#FC09B2"/>
<path d="M31.9549 62.9447C31.6546 62.7208 31.3174 62.539 30.9934 62.3494C30.6695 62.1782 30.3428 62.0175 30.0162 61.87C28.7019 61.28 27.3769 60.9033 26.1495 60.4529C25.5305 60.2237 24.9642 60.0077 24.4216 59.7312C23.8842 59.4572 23.3838 59.1359 22.9571 58.7592C22.5225 58.3905 22.1563 57.969 21.8771 57.4975C21.5953 57.026 21.4162 56.4992 21.3029 55.9408C21.0869 54.8161 21.2239 53.5623 21.5294 52.3296C21.8271 51.0863 22.3091 49.8589 22.828 48.6314L22.8306 48.6262C22.9255 48.3997 22.8517 48.131 22.641 47.9914C22.4013 47.8307 22.0773 47.8939 21.9166 48.1336C21.1449 49.2794 20.4837 50.5148 19.9859 51.8555C19.5092 53.1936 19.1799 54.6739 19.3722 56.2358C19.4644 57.0102 19.6935 57.7925 20.0755 58.5011C20.4548 59.2096 20.9605 59.8444 21.5373 60.3686C22.6963 61.4117 24.1002 62.0623 25.4172 62.5232C26.7369 62.9815 28.0091 63.3582 29.1812 63.835C29.4736 63.9535 29.7581 64.0799 30.0373 64.2169C30.2981 64.3618 30.5667 64.4882 30.8143 64.662C31.3201 64.9834 31.8021 65.3574 32.242 65.7841C32.3184 65.8579 32.3868 65.9369 32.458 66.0133C32.2288 65.979 31.997 65.9553 31.7652 65.9527C30.0715 65.9158 28.5728 66.4479 27.1978 66.951C26.5235 67.2223 25.8123 67.5094 25.3145 67.6516C24.7666 67.7886 24.2135 67.7886 23.6525 67.6859C22.5356 67.462 21.3767 66.6744 20.4548 65.7394L20.4153 65.6998C20.2651 65.5471 20.0281 65.497 19.8226 65.5945C19.5618 65.7183 19.4486 66.0291 19.5724 66.2899C19.9253 67.0432 20.3942 67.6543 20.9816 68.2311C21.5716 68.7869 22.288 69.2716 23.123 69.5508C23.9527 69.8458 24.8825 69.8879 25.7597 69.743C26.6737 69.5323 27.2979 69.2558 27.9801 69.0161C28.6439 68.7579 29.2945 68.5182 29.9346 68.3286C30.5694 68.1231 31.2015 67.9914 31.8074 67.9309C32.6766 67.8518 33.6248 68.0415 34.2991 68.5577C34.9208 69.7404 35.3396 71.0469 35.4844 72.4008V72.4113C35.5134 72.6747 35.7294 72.8881 36.0033 72.9065C36.3089 72.9249 36.5723 72.6905 36.5907 72.385C36.7646 69.5086 35.6346 66.5901 33.6406 64.4223C33.1323 63.8745 32.5791 63.3661 31.9549 62.9447Z" fill="#FC09B2"/>
<path d="M56.494 64.3512C55.4088 63.3477 54.0075 62.7497 52.6299 62.5074C51.2444 62.2493 49.8642 62.2888 48.5446 62.51C47.2197 62.7313 45.958 63.108 44.7516 63.7322C44.5646 63.8297 44.4461 64.0351 44.4724 64.2564C44.504 64.5461 44.7621 64.7542 45.0519 64.7226L45.0861 64.72C46.3004 64.5883 47.541 64.4724 48.7342 64.4381C49.9327 64.4144 51.1154 64.4566 52.2243 64.6726C53.3385 64.8754 54.3578 65.2652 55.2402 65.871C56.1174 66.4874 56.818 67.3619 57.4265 68.4076L57.437 68.426C57.5503 68.6183 57.7742 68.7342 58.0086 68.6973C58.3141 68.6499 58.5249 68.3628 58.4748 68.0573C58.2614 66.7113 57.5898 65.3469 56.494 64.3512Z" fill="#FC09B2"/>
<path d="M24.8645 39.5467C25.7548 40.329 26.8005 41.0639 28.0754 41.4248C28.7023 41.6118 29.3792 41.7119 30.0456 41.6724C30.7068 41.6487 31.3943 41.5275 32.0659 41.2325C32.7376 40.9428 33.3408 40.4423 33.7701 39.8812C34.2047 39.3202 34.505 38.7144 34.7315 38.1375C35.1662 36.968 35.398 35.8591 35.7193 34.8687C36.0248 33.8731 36.441 33.0328 37.0679 32.4955C37.7211 31.9502 38.6404 31.6342 39.644 31.5551C40.6528 31.4577 41.7275 31.5736 42.8153 31.7263H42.8206C43.0735 31.7606 43.3263 31.6184 43.4185 31.3708C43.5265 31.0837 43.379 30.7623 43.0919 30.6543C42.0067 30.2487 40.8504 29.9537 39.6097 29.8983C38.6167 29.8641 37.5368 30.0221 36.5516 30.5173C36.5042 30.2065 36.4173 29.8957 36.2777 29.5902C35.851 28.6393 34.9923 27.9255 34.131 27.5646C33.2618 27.1879 32.3741 27.0536 31.5207 27.0589C30.662 27.0747 29.8455 27.2011 29.0342 27.5304C28.8761 27.5962 28.7523 27.7358 28.7128 27.9149C28.6496 28.2047 28.834 28.4891 29.1237 28.5524L29.1738 28.5629C29.906 28.7209 30.6515 28.8368 31.3389 28.9949C32.029 29.145 32.6823 29.332 33.2381 29.5796C33.7991 29.8299 34.2232 30.1354 34.5498 30.5489C34.779 30.8282 34.9449 31.1995 35.0845 31.6289C34.8527 31.8897 34.6525 32.1689 34.4813 32.4533C34.1336 33.0223 33.886 33.607 33.6806 34.1733C33.2828 35.3086 33.0431 36.407 32.6744 37.3394C32.3214 38.285 31.8605 38.9699 31.1598 39.2991C30.8121 39.4782 30.3802 39.5889 29.9218 39.6257C29.4688 39.6732 29.0105 39.6416 28.5522 39.5494C27.6355 39.365 26.7242 38.8909 25.8576 38.2903C24.9804 37.695 24.1507 36.9654 23.2868 36.2463C23.1024 36.0935 22.8311 36.083 22.6335 36.2331C22.4044 36.4096 22.3622 36.7389 22.5387 36.968C23.2288 37.8689 23.9821 38.7434 24.8645 39.5467Z" fill="#FC09B2"/>
<path d="M89.8189 39.6468C90.0534 38.7407 90.1482 37.7898 90.0349 36.8574C89.9322 35.925 89.6293 35.0347 89.2026 34.2339C89.0735 33.989 88.7785 33.8757 88.5151 33.9784C88.2306 34.0891 88.0884 34.4104 88.199 34.6949L88.2017 34.7002C88.7706 36.1699 88.7917 37.7503 88.2754 39.1753C87.7723 40.6082 86.803 41.8699 85.6467 42.8998C84.4798 43.9192 83.0996 44.7252 81.6561 45.1651C80.2285 45.5997 78.6797 45.6313 77.6656 44.9596C76.641 44.3064 76.159 42.9657 76.0799 41.3932C75.9561 39.6363 75.6164 37.882 75.0474 36.1857C74.4548 34.5 73.6013 32.8721 72.4108 31.4998C71.8181 30.815 71.1438 30.1986 70.4036 29.6771C69.6451 29.1608 68.8812 28.7341 67.9329 28.4707C67.6906 28.4022 67.4272 28.5208 67.3219 28.7578C67.2033 29.0186 67.3192 29.3268 67.5826 29.4427L67.6327 29.4664C67.9382 29.6033 68.3017 29.822 68.6178 30.0432C68.9418 30.2645 69.2526 30.5121 69.545 30.7755C70.1376 31.2944 70.6539 31.8976 71.1175 32.5297C72.0341 33.8099 72.6926 35.2691 73.1351 36.7968C73.3564 37.5607 73.5276 38.3456 73.6566 39.1385C73.7725 39.9339 73.8647 40.7373 73.9148 41.5459C73.9596 42.4178 74.0992 43.4293 74.4864 44.3643C74.8551 45.3126 75.5558 46.2213 76.4777 46.8034C77.3996 47.3935 78.4637 47.6305 79.4541 47.649C80.1521 47.6648 80.8238 47.5699 81.4718 47.4145C81.3796 47.8465 81.3295 48.289 81.3243 48.7526C81.3295 49.7325 81.5798 50.8545 82.3568 51.7659C82.7387 52.2137 83.2366 52.5693 83.7581 52.7932C84.2796 53.0144 84.8222 53.1356 85.3332 53.1488C86.3658 53.1935 87.3035 52.9618 88.1411 52.5614C88.3176 52.4771 88.4466 52.3033 88.4624 52.0925C88.4888 51.7791 88.2543 51.5025 87.9409 51.4788L87.9225 51.4762C87.0717 51.4051 86.2683 51.3655 85.5835 51.1838C84.8881 51.0179 84.3823 50.736 84.0241 50.3304C83.6606 49.9221 83.4078 49.3031 83.255 48.5761C83.1417 48.0599 83.0811 47.4883 83.0337 46.9088C84.5088 46.303 85.8284 45.4127 86.9558 44.3196C88.2701 43.05 89.3264 41.4617 89.8189 39.6468Z" fill="#FC09B2"/>
<path d="M72.3445 23.1368L72.3734 23.1553C73.377 23.8006 74.3911 24.4723 75.3393 25.1703C76.2849 25.8788 77.1805 26.6216 77.9892 27.4303C78.7925 28.2416 79.5011 29.116 80.0727 30.0722C80.6416 31.0336 81.042 32.0793 81.337 33.2277L81.3422 33.2488C81.3976 33.4648 81.5793 33.636 81.8137 33.665C82.1219 33.7045 82.4011 33.4859 82.4406 33.1803C82.6092 31.8528 82.38 30.4515 81.8401 29.1951C81.3106 27.9281 80.4888 26.8139 79.5459 25.8709C78.595 24.9332 77.5203 24.1509 76.3719 23.5346C75.2208 22.9156 74.0329 22.4309 72.7264 22.1781C72.5209 22.1385 72.3023 22.2228 72.1838 22.4098C72.0284 22.6548 72.0995 22.9788 72.3445 23.1368Z" fill="#FC09B2"/>
<path d="M68.9443 47.3381C70.1691 48.0599 71.5046 48.4523 72.8321 48.5603C73.0586 48.5788 73.2825 48.4576 73.3852 48.2416C73.5196 47.9624 73.3984 47.6252 73.1192 47.4935L73.1139 47.4909C71.9892 46.9562 70.9356 46.3952 70.0506 45.7024C69.1603 45.0123 68.486 44.1826 68.0408 43.2291C67.6062 42.2703 67.4166 41.1772 67.4008 40.0288C67.3902 38.8882 67.5535 37.666 67.7932 36.5018L67.8038 36.4518C67.8459 36.2463 67.7616 36.0277 67.5746 35.9065C67.3323 35.7485 67.0083 35.817 66.8503 36.0619C66.0943 37.2288 65.6518 38.5116 65.4674 39.8997C65.2804 41.2773 65.4226 42.7734 66.0311 44.1352C66.6422 45.4943 67.7116 46.6375 68.9443 47.3381Z" fill="#FC09B2"/>
<path d="M54.4563 36.328C53.5239 35.7906 52.4044 35.5931 51.4088 35.7221C50.4079 35.8486 49.4991 36.2094 48.7484 36.752C48.5904 36.8653 48.4956 37.0602 48.514 37.2683C48.543 37.5818 48.8222 37.8136 49.1356 37.7846L49.1488 37.7819C49.989 37.7056 50.7661 37.6397 51.4746 37.7003C52.1858 37.7477 52.8048 37.9374 53.3632 38.2403C53.919 38.5563 54.4274 39.0173 54.8909 39.5915C55.3572 40.1552 55.7786 40.8532 56.1763 41.5354L56.2106 41.596C56.3001 41.7488 56.4661 41.8541 56.6557 41.8568C56.9481 41.862 57.1904 41.6302 57.1957 41.3379C57.2141 40.3501 56.9744 39.444 56.5319 38.5563C56.0921 37.6871 55.3914 36.8653 54.4563 36.328Z" fill="#FC09B2"/>
<path d="M55.5379 91.903C55.4036 91.903 55.2692 91.8951 55.1455 91.8819C53.4939 91.6712 52.1769 90.262 51.6027 88.9582C50.8994 87.354 50.6492 85.5524 50.5122 84.1616C50.4833 83.8692 50.4569 83.5742 50.4332 83.2792L50.4174 83.0264C50.4121 82.9684 50.4069 82.9078 50.4042 82.8499C47.7887 84.4724 44.7885 85.3548 41.8147 85.3548C40.4134 85.3548 39.0701 85.1599 37.8216 84.7727C37.6503 84.7253 37.4554 84.6595 37.2684 84.5962C33.8942 83.4109 31.1996 81.0719 29.0398 77.4528C27.8281 77.6556 26.6007 77.761 25.3838 77.761C19.2518 77.761 14.205 75.0558 12.5324 70.873C12.3691 70.4674 12.2453 70.067 12.1505 69.6509C11.9793 68.9081 11.9108 68.1521 11.9477 67.4067C12.0425 65.0624 13.1277 62.6655 15.0215 60.5793C12.2769 58.5143 10.4621 55.8197 9.74826 52.7405C8.18892 45.9843 12.348 38.7223 20.1289 34.5184C19.6838 31.4656 20.8269 28.2837 23.3819 25.4916C26.0449 22.5916 29.9432 20.4317 34.3657 19.415C36.1648 18.9988 37.9796 18.7881 39.7628 18.7881C41.9464 18.7881 44.0089 19.0989 45.9027 19.7126C48.3602 17.1524 51.874 15.2506 55.8593 14.3261C57.5477 13.9362 59.2492 13.7387 60.9139 13.7387C65.3575 13.7387 69.2769 15.1558 71.7318 17.6397C75.7224 17.9347 79.4231 19.0699 82.447 20.9295C83.3662 21.4932 84.2276 22.1333 85.0125 22.8313C87.3489 24.9122 88.9293 27.5225 89.5904 30.3804C89.8538 31.542 89.9645 32.7273 89.9249 33.9099C92.4589 35.925 94.1446 38.5116 94.8137 41.4222C95.0297 42.3546 95.1403 43.3213 95.1403 44.2932C95.1403 51.9556 88.4525 59.1095 78.8331 61.7883C76.6996 65.5839 72.1401 68.6736 66.8352 69.8932C66.0213 70.0776 65.2337 70.2172 64.4778 70.3094L64.4751 70.3173C64.3645 70.6149 64.2644 70.9099 64.1643 71.2049L64.1037 71.384C62.6814 75.5589 61.5724 79.697 60.6821 83.0211L60.6716 83.0553C59.4942 87.462 58.8963 89.6193 58.1798 90.5254C57.2764 91.6633 56.2438 91.903 55.5379 91.903ZM54.2314 72.8354C53.3912 75.0506 52.8934 77.3632 52.7511 79.7154C52.7353 80.0051 52.7143 80.3897 52.7143 80.7717C52.7037 81.4697 52.7248 82.165 52.7775 82.8473L52.8012 83.1265C52.8223 83.3846 52.8407 83.648 52.8723 83.9061C52.9882 85.1309 53.1936 86.6876 53.7731 87.9941C54.0734 88.6816 54.7767 89.4376 55.4299 89.5192C55.4694 89.5245 55.5037 89.5271 55.5353 89.5271C55.6327 89.5271 55.933 89.5271 56.3071 89.0503C56.7443 88.4972 57.5608 85.447 58.351 82.4969L58.3774 82.3968C59.2782 79.0358 60.4003 74.8557 61.8516 70.607L61.8938 70.4674C61.878 70.4674 61.8596 70.4674 61.8437 70.4674C61.2827 70.4674 60.7559 70.449 60.2686 70.4094C59.8419 70.3752 59.4415 70.3331 59.0517 70.2777C58.9226 70.362 58.7936 70.4463 58.6619 70.5306C58.3431 70.7334 57.9981 70.9415 57.574 71.1838C57.4239 71.2708 57.2685 71.3603 57.1052 71.4473C56.8918 71.5658 56.6653 71.6869 56.423 71.8081L56.3071 71.8713C56.2043 71.9266 56.1069 71.9741 56.0015 72.0241C55.8356 72.1031 55.6644 72.1874 55.4879 72.2717C55.0849 72.4719 54.6608 72.6589 54.2314 72.8354ZM31.5026 76.8944C33.3069 79.6733 35.4062 81.4196 38.0533 82.3521C38.2061 82.4074 38.3457 82.4495 38.488 82.4917L38.5143 82.4996C39.5547 82.8183 40.6689 82.9816 41.8253 82.9816C44.7964 82.9816 47.8861 81.8964 50.3621 79.992C50.4516 77.9137 50.7967 75.854 51.3894 73.8468C50.7414 74.0444 50.0723 74.2209 49.3901 74.3815C47.1196 74.9057 44.8228 75.1691 42.5575 75.1691C40.5978 75.1691 38.6776 74.9716 36.8443 74.5791C35.2033 75.5826 33.4122 76.357 31.5026 76.8944ZM18.0454 60.2869C18.0875 60.6636 17.9427 61.0376 17.6556 61.2905C15.5905 63.1738 14.3999 65.3838 14.3156 67.5041C14.2919 68.052 14.3393 68.592 14.4605 69.1161C14.529 69.4085 14.6185 69.6956 14.7371 69.9906C16.0435 73.2674 20.2106 75.3877 25.3521 75.3877C26.519 75.3877 27.7122 75.2771 28.9028 75.0611C29.1715 75.0163 29.427 74.9663 29.6798 74.9057L29.7246 74.8952C29.7615 74.8899 29.7984 74.882 29.8352 74.8715L29.8668 74.8636C32.1163 74.342 34.1734 73.4833 35.9804 72.3138L36.0094 72.2954C36.199 72.1848 36.4124 72.1242 36.6257 72.1242C36.7258 72.1242 36.8233 72.1374 36.9207 72.1637C38.7013 72.5799 40.6031 72.7932 42.5496 72.7932C44.6384 72.7932 46.7588 72.5483 48.8554 72.0636C50.2199 71.7475 51.5737 71.3287 52.8828 70.8204C53.8047 70.4542 54.7082 70.0407 55.5616 69.5903C55.825 69.4559 56.0621 69.3269 56.2886 69.1925C56.8865 68.858 57.4792 68.4893 58.1114 68.0573C58.2905 67.9256 58.5275 67.8492 58.7804 67.8492C58.8436 67.8492 58.9042 67.8545 58.9674 67.865C59.8946 68.0178 60.8534 68.0968 61.8279 68.0968C62.3785 68.0968 62.9421 68.0731 63.5032 68.023C64.4119 67.9466 65.3522 67.7965 66.3005 67.5753C71.1708 66.4532 75.2561 63.6427 76.9682 60.2422C77.1105 59.9393 77.3923 59.7101 77.7321 59.6232C87.7045 57.0392 94.192 49.2741 92.4957 41.949C92.2086 40.6925 91.6792 39.4967 90.9206 38.3957C90.162 37.2868 89.1822 36.2885 88.0021 35.4271C87.6702 35.1795 87.4885 34.7765 87.5227 34.3709C87.6149 33.1882 87.5306 32.0214 87.2725 30.9072C86.7246 28.5366 85.3971 26.3556 83.4295 24.5987C82.7657 24.0061 82.0176 23.4529 81.2011 22.9498C78.388 21.2193 74.9032 20.1894 71.126 19.9734C70.8099 19.9576 70.5044 19.8101 70.2989 19.5678C68.3656 17.4184 64.8228 16.1277 60.8349 16.1277C59.3625 16.1277 57.869 16.2989 56.3966 16.6387C52.6405 17.5027 49.2716 19.4071 47.1539 21.8646C46.9247 22.128 46.5981 22.2755 46.253 22.2755C46.1161 22.2755 45.9817 22.2518 45.8553 22.207C44.0168 21.5064 41.9728 21.1534 39.7655 21.1534C38.1745 21.1534 36.5388 21.3431 34.9057 21.7171C30.9442 22.6311 27.4778 24.5381 25.1441 27.0852C22.921 29.5032 22.0122 32.2057 22.5812 34.6975C22.6022 34.7555 22.6259 34.8292 22.6391 34.9188C22.7471 35.435 22.4863 35.975 22.0069 36.2147C14.6949 39.847 10.7018 46.2687 12.0715 52.1953C12.7379 55.0927 14.6185 57.5818 17.5081 59.3966C17.811 59.5968 18.0085 59.9182 18.0454 60.2869Z" fill="white"/>
<path d="M94.0396 41.5986C93.3837 38.746 91.6795 36.2173 89.1114 34.284C89.193 33.017 89.0903 31.7659 88.8164 30.5568C88.1947 27.857 86.6907 25.3889 84.4834 23.4213C83.7353 22.7549 82.9109 22.1438 82.0311 21.6012C79.0363 19.76 75.3592 18.6564 71.3713 18.4062C68.1868 14.974 62.1865 13.6755 56.0361 15.0952C51.9981 16.0303 48.4975 17.9847 46.1322 20.624C42.7185 19.3992 38.6147 19.2411 34.5452 20.1815C30.2702 21.164 26.5167 23.2396 23.9643 26.0211C21.4172 28.8026 20.3689 31.9713 21.009 34.9425C13.2123 38.9356 9.00052 45.979 10.5203 52.5561C11.2526 55.7196 13.2202 58.4458 16.2309 60.4608C14.0736 62.5575 12.8383 65.0229 12.7408 67.4383C12.7092 68.1205 12.7724 68.8053 12.9278 69.4717C13.0148 69.8589 13.1306 70.2198 13.2729 70.5754C14.8691 74.5633 19.6972 76.9681 25.392 76.9681C26.709 76.9681 28.0734 76.8417 29.451 76.5757C31.1341 79.5468 33.5811 82.4601 37.5321 83.8482C37.706 83.9088 37.8877 83.9693 38.0616 84.0168C39.2627 84.3882 40.5323 84.562 41.8203 84.562C45.0391 84.562 48.3816 83.4531 51.1421 81.3933C51.1473 81.9227 51.1684 82.4469 51.2132 82.9711L51.229 83.216C51.2501 83.5058 51.279 83.7955 51.3054 84.08C51.4371 85.4022 51.6662 87.117 52.3326 88.6368C52.8015 89.7036 53.9183 90.9258 55.2459 91.0943C55.3381 91.1049 55.4434 91.1101 55.5461 91.1101C56.1362 91.1101 56.8842 90.8915 57.5612 90.0276C58.2012 89.2189 58.8834 86.685 59.9107 82.842C60.8063 79.4994 61.9204 75.335 63.3586 71.118L63.4139 70.96C63.5167 70.6544 63.622 70.3489 63.7353 70.0354C63.7853 69.8826 63.8459 69.7246 63.8986 69.5718C64.81 69.4849 65.7398 69.3269 66.659 69.1188C71.9034 67.9124 76.3469 64.8517 78.3014 61.1087C87.8365 58.5748 94.353 51.5315 94.353 44.288C94.3451 43.395 94.245 42.4942 94.0396 41.5986ZM38.2828 83.2582C38.1195 83.2081 37.9536 83.1607 37.7903 83.1001C34.7032 82.0123 32.3063 79.8998 30.2675 76.3966C32.6171 75.8566 34.7743 74.961 36.6972 73.7415C40.6429 74.637 44.9627 74.5949 49.2087 73.615C50.3782 73.3411 51.5187 73.0092 52.6277 72.6036C51.7163 75.1217 51.2132 77.761 51.1368 80.3897C47.4176 83.3978 42.4367 84.5304 38.2828 83.2582ZM62.9793 69.7773C62.8634 70.0881 62.7607 70.3936 62.6527 70.7071L62.6027 70.8651C61.1539 75.1059 60.0345 79.2834 59.1337 82.6444C58.2039 86.1134 57.4716 88.8554 56.9316 89.5403C56.4733 90.125 55.9307 90.3805 55.3354 90.3041C54.3582 90.183 53.4442 89.211 53.0517 88.3155C52.4301 86.9063 52.2115 85.2732 52.0903 83.9983C52.0587 83.7191 52.035 83.4346 52.0139 83.1581L51.9929 82.9078C51.9375 82.1966 51.9165 81.4881 51.927 80.7717C51.927 80.4055 51.9428 80.0394 51.9639 79.668C52.1167 77.1499 52.6751 74.6265 53.6207 72.2322C54.1448 72.0241 54.6585 71.8002 55.1616 71.5605C55.3354 71.4789 55.5066 71.3972 55.6752 71.3155C55.7674 71.2708 55.8543 71.2286 55.9491 71.1786V71.1733C56.2178 71.0416 56.4786 70.9046 56.742 70.7571C56.8948 70.6755 57.0423 70.5938 57.1898 70.5069C57.5506 70.2988 57.9009 70.0907 58.2434 69.8721C58.4567 69.7351 58.6648 69.5982 58.8729 69.4559C59.3549 69.5323 59.8396 69.5876 60.3374 69.6245C60.83 69.6614 61.3304 69.6798 61.8335 69.6798H61.8493C62.0416 69.6798 62.2365 69.6746 62.4288 69.6693C62.6132 69.6693 62.7949 69.6588 62.982 69.6482H63.0267C63.0057 69.6904 62.9899 69.7351 62.9793 69.7773ZM77.9221 60.3923C77.8114 60.4186 77.7193 60.495 77.6718 60.6004C75.857 64.2063 71.5688 67.1722 66.4773 68.347C65.5106 68.5709 64.5334 68.7289 63.5693 68.8106C61.9468 68.9528 60.3558 68.8975 58.8439 68.6473C58.7412 68.6315 58.6358 68.6526 58.5542 68.7131C57.9536 69.1241 57.3294 69.5165 56.6867 69.8774C56.4364 70.0249 56.1836 70.1618 55.9281 70.2936C55.0378 70.7624 54.1185 71.1838 53.1676 71.5605C51.8401 72.0794 50.452 72.5114 49.0322 72.838C44.8468 73.8047 40.5902 73.8389 36.7182 72.9302C36.6155 72.9039 36.5049 72.9249 36.4127 72.9802C34.5215 74.2051 32.38 75.0954 30.0489 75.6353C29.9883 75.6511 29.9277 75.6617 29.8698 75.6722C29.5959 75.738 29.3246 75.7934 29.0506 75.8355C22.1679 77.0867 15.8068 74.7872 14.0104 70.2777C13.884 69.9617 13.7813 69.6377 13.6996 69.29C13.5626 68.6947 13.5073 68.0836 13.5363 67.4699C13.6285 65.1309 14.9139 62.7287 17.1422 60.6952C17.2344 60.6136 17.2845 60.4924 17.2687 60.3686C17.2581 60.2422 17.1923 60.1342 17.0896 60.0683C14.0183 58.1402 12.0191 55.4851 11.3026 52.377C9.84867 46.0843 14.013 39.307 21.6569 35.5114C21.8203 35.4298 21.9072 35.2428 21.865 35.0689C21.8598 35.0241 21.8492 34.9925 21.8334 34.953C21.8282 34.9319 21.8229 34.9135 21.8176 34.8924C21.1723 32.1399 22.1442 29.1793 24.5544 26.5558C26.9908 23.8954 30.6021 21.9015 34.7216 20.9506C36.4153 20.5634 38.1143 20.3659 39.7579 20.3659C42.0205 20.3659 44.1883 20.732 46.1111 21.4642C46.2639 21.5196 46.4377 21.4748 46.5484 21.3483C48.7715 18.7696 52.2905 16.7704 56.2125 15.8696C62.0706 14.521 67.9655 15.7985 70.8919 19.0541C70.9577 19.1305 71.0552 19.1806 71.1658 19.1858C75.0773 19.4097 78.6886 20.4818 81.6123 22.2781C82.4526 22.7971 83.2402 23.3765 83.9513 24.0087C86.0375 25.8709 87.4546 28.1941 88.0393 30.7281C88.3185 31.9292 88.4054 33.1751 88.308 34.4315C88.2974 34.5684 88.358 34.7054 88.466 34.7871C89.7225 35.7063 90.7655 36.7705 91.5689 37.9453C92.3775 39.12 92.9517 40.4028 93.2626 41.7698C95.0537 49.5191 88.3132 57.6977 77.9221 60.3923Z" fill="white"/>
<path d="M77.8427 35.2032C81.4698 41.4801 80.6559 49.1003 76.3861 54.4394C75.0955 56.0515 73.4887 57.4527 71.5949 58.5485C69.701 59.6416 67.6834 60.3344 65.642 60.6478C58.8858 61.6803 51.8767 58.5775 48.2523 52.3006C43.5295 44.1273 46.3294 33.6782 54.5001 28.958C62.6708 24.2352 73.12 27.0273 77.8427 35.2032Z" fill="#6280FF"/>
<path d="M63.0447 57.3447C70.5555 57.3447 76.6441 51.2561 76.6441 43.7453C76.6441 36.2346 70.5555 30.1459 63.0447 30.1459C55.534 30.1459 49.4453 36.2346 49.4453 43.7453C49.4453 51.2561 55.534 57.3447 63.0447 57.3447Z" fill="white"/>
<path d="M67.3375 44.2432C66.3577 43.9508 66.3788 42.8234 67.0241 42.0648C68.0224 40.8901 69.4658 40.5187 70.2982 40.7768C72.5371 41.4643 69.7108 44.9544 67.3375 44.2432Z" fill="#FC09B2"/>
<path d="M61.0924 47.8518C61.3269 46.8588 60.3391 46.3135 59.3619 46.49C57.8447 46.7666 56.8043 47.8333 56.6094 48.6841C56.0852 50.9678 60.5209 50.2645 61.0924 47.8518Z" fill="#FC09B2"/>
<g opacity="0.18">
<path opacity="0.18" d="M74.8228 36.947C78.5789 43.4503 76.3531 51.7685 69.8498 55.5246C66.1358 57.6714 61.8266 57.8636 58.1152 56.4228C60.449 56.3438 62.7985 55.7038 64.9584 54.4552C72.0017 50.3857 74.4145 41.3747 70.345 34.3288C69.6048 33.0486 68.7066 31.9239 67.682 30.9625C70.5899 32.0187 73.1554 34.0601 74.8228 36.947Z" fill="#0C1A40"/>
<path opacity="0.18" d="M61.3323 33.6571C61.6405 33.6281 61.9118 33.8546 61.9382 34.1602C61.975 34.5658 61.5747 34.7581 61.6063 34.7265C61.5668 34.7502 59.1803 36.0172 59.1408 36.0382C57.6157 37.0392 57.2206 37.3658 57.2549 37.3394C55.8641 38.7434 54.5814 39.502 53.0984 43.1158L53.0668 43.1922C52.9562 43.4582 52.6533 43.5873 52.3846 43.4767C51.0729 42.9393 52.893 34.4394 61.3323 33.6571Z" fill="#0C1A40"/>
</g>
<path d="M92.2067 83.3345C93.4078 85.2468 92.7835 87.7729 90.8291 88.9028L88.2873 90.3726C86.3328 91.5026 83.8331 90.7809 82.7769 88.7843L81.3888 86.1529L81.3203 86.0239L80.1798 83.8666L77.8408 79.4283L76.695 77.2605L74.3612 72.8406L73.2102 70.6544L70.002 64.5804C71.5402 64.9755 73.226 64.7937 74.7116 63.9377C76.1971 63.079 77.1954 61.7146 77.6248 60.1816L79.6977 63.4715L81.2755 65.9711L82.6083 68.0941L85.2555 72.2954L86.5831 74.4L89.2381 78.617L90.5551 80.7137L92.2067 83.3345Z" fill="#FFCF00"/>
<path d="M82.6045 68.0889C82.2173 68.3997 81.8248 68.6973 81.4297 68.9976C80.5368 69.6403 79.6096 70.2382 78.6667 70.7967C77.7026 71.334 76.7228 71.8371 75.7166 72.2822C75.2688 72.4745 74.8184 72.6589 74.36 72.8354L73.209 70.6491C73.6884 70.4279 74.1651 70.204 74.6366 69.9617C75.5559 69.506 76.462 69.0292 77.3444 68.5051C78.2347 68.002 79.0986 67.4515 79.9494 66.8772C80.4025 66.5849 80.8397 66.2767 81.2743 65.9632L82.6045 68.0889Z" fill="#FD8A02"/>
<path d="M86.5769 74.3947C86.1238 74.774 85.6497 75.1349 85.1756 75.4878C84.2826 76.1305 83.3554 76.7284 82.4125 77.2869C81.4484 77.8242 80.4686 78.3273 79.4624 78.7724C78.9277 79.0016 78.3877 79.2202 77.8372 79.4257L76.6914 77.2579C77.263 77.005 77.824 76.7416 78.3824 76.4545C79.3017 75.9988 80.2078 75.5221 81.0902 74.9979C81.9805 74.4948 82.8445 73.9443 83.6952 73.3701C84.2247 73.0277 84.7436 72.6642 85.2493 72.2875L86.5769 74.3947Z" fill="#FD8A02"/>
<path d="M90.5517 80.7058C90.0276 81.1457 89.4797 81.5645 88.9292 81.978C88.0363 82.6207 87.1091 83.2186 86.1661 83.7771C85.2021 84.3144 84.2222 84.8175 83.216 85.2626C82.5891 85.5287 81.9622 85.7894 81.3222 86.0212L80.1816 83.864C80.8401 83.5742 81.496 83.274 82.1361 82.9447C83.0553 82.489 83.9614 82.0123 84.8438 81.4881C85.7341 80.985 86.5981 80.4345 87.4489 79.8603C88.06 79.4626 88.65 79.0385 89.2374 78.6091L90.5517 80.7058Z" fill="#FD8A02"/>
<g opacity="0.5">
<path opacity="0.5" d="M92.2068 83.3345C93.4079 85.2468 92.7836 87.7729 90.8292 88.9028L88.2874 90.3726C86.3329 91.5026 83.8332 90.7809 82.777 88.7843L81.3889 86.1529C82.0974 85.6683 82.7507 85.1362 83.1405 84.3565C84.2995 82.036 82.7717 79.2571 82.021 76.9866C80.6435 72.8222 78.4599 66.7218 79.6952 63.4662L92.2068 83.3345Z" fill="#FD8A02"/>
</g>
<path d="M77.0103 55.3297C77.8927 56.8575 78.0613 58.6038 77.6214 60.1763C77.192 61.7067 76.1937 63.0737 74.7082 63.9324C73.8943 64.4013 73.025 64.6673 72.1479 64.7437C71.4262 64.8148 70.6966 64.7516 69.9986 64.5751C68.4129 64.1721 66.9905 63.1554 66.1081 61.6303C65.9237 61.3089 65.7683 60.9823 65.6445 60.6452C66.3267 60.5398 67.0116 60.3949 67.6885 60.1974C69.0266 59.8234 70.341 59.2702 71.5974 58.5459C71.7739 58.4431 71.9425 58.3404 72.111 58.235C73.1646 57.5818 74.126 56.8206 74.9821 55.9856C75.4905 55.4983 75.9593 54.9794 76.3913 54.4394C76.6178 54.7134 76.8259 55.011 77.0103 55.3297Z" fill="#00D5FE"/>
<g opacity="0.25">
<path opacity="0.25" d="M77.0106 55.3297C77.893 56.8575 78.0616 58.6038 77.6217 60.1763C77.1923 61.7067 76.194 63.0737 74.7085 63.9324C73.8946 64.4013 73.0253 64.6673 72.1482 64.7437C72.4037 63.8007 72.5433 62.8288 72.5696 61.8568C72.6013 60.632 72.4379 59.4072 72.1113 58.2324C73.1649 57.5792 74.1263 56.8179 74.9824 55.983C75.4908 55.4957 75.9596 54.9768 76.3916 54.4368C76.6181 54.7134 76.8262 55.011 77.0106 55.3297Z" fill="#322BBF"/>
</g>
<path d="M70.0496 55.8671C73.2868 53.9969 75.6021 50.9783 76.5688 47.3671C77.5355 43.7559 77.0377 39.984 75.1675 36.7468C71.306 30.0643 62.7297 27.7674 56.0472 31.6289C49.3647 35.4904 47.0679 44.0667 50.9293 50.7492C53.5186 55.2323 58.2334 57.7425 63.0721 57.7425C65.4454 57.7425 67.8502 57.1393 70.0496 55.8671ZM51.6168 50.3541C47.974 44.0509 50.1418 35.9592 56.445 32.3164C58.5206 31.1179 60.7884 30.5489 63.0273 30.5489C67.5921 30.5489 72.0383 32.9169 74.4827 37.1445C76.2475 40.1973 76.7163 43.7559 75.8049 47.1617C74.8936 50.5674 72.71 53.4148 69.6572 55.1796C63.3513 58.8224 55.2596 56.6573 51.6168 50.3541Z" fill="#0C1A40"/>
<path d="M56.3254 42.9578C55.5984 43.3898 55.3693 44.2748 55.7828 45.0097C56.1647 45.6892 57.134 45.9606 57.8531 45.5259C58.5643 45.0966 58.8145 44.2221 58.372 43.4635C57.9532 42.7365 57.0656 42.5179 56.3254 42.9578Z" fill="#0C1A40"/>
<path d="M65.4509 37.6845C64.587 38.2087 64.5764 39.149 64.8872 39.7443C65.2349 40.4054 66.2648 40.6978 66.9075 40.3027C68.7039 39.2017 67.0998 36.6836 65.4509 37.6845Z" fill="#0C1A40"/>
<path d="M63.1695 40.5187C62.993 40.6478 62.9535 40.8953 63.0826 41.0718C64.0361 42.3836 64.0572 43.4898 63.7569 44.0904C63.5646 44.4723 63.238 44.6883 62.8376 44.6936C62.8323 44.6936 62.8271 44.6936 62.8218 44.6936C62.0237 44.6936 61.1255 43.906 60.417 42.5785C60.3142 42.3862 60.0719 42.3124 59.8796 42.4152C59.6873 42.5179 59.6136 42.7576 59.7163 42.9525C60.5776 44.5645 61.7076 45.4864 62.8218 45.4864C62.8297 45.4864 62.8402 45.4864 62.8482 45.4864C63.5409 45.4759 64.1441 45.0887 64.4654 44.446C64.9896 43.4003 64.7104 41.9648 63.7226 40.6056C63.5936 40.4291 63.346 40.3896 63.1695 40.5187Z" fill="#0C1A40"/>
<path d="M86.3036 91.8319C85.8453 91.8319 85.387 91.766 84.9392 91.637C83.6459 91.2656 82.587 90.4042 81.9575 89.2137L69.359 65.3469C67.6416 64.8043 66.2061 63.6532 65.3053 62.0912C65.2236 61.9516 65.1472 61.8041 65.0708 61.6435C64.3517 61.7277 63.659 61.7699 63.0084 61.7699C56.5261 61.7699 50.7128 58.401 47.4546 52.7589C42.4868 44.1589 45.4422 33.1224 54.0396 28.1546C56.7711 26.5769 59.8765 25.7419 63.0189 25.7419C69.4512 25.7419 75.4383 29.1898 78.6439 34.7397C82.2446 40.9744 81.8021 48.663 77.5402 54.4394C77.6403 54.5869 77.7325 54.7292 77.8115 54.8688C78.715 56.4307 78.9942 58.2482 78.6096 60.0104L92.9887 82.842C93.7052 83.9825 93.9212 85.3311 93.5998 86.635C93.2758 87.9388 92.4566 89.0293 91.2924 89.701L88.7506 91.1707C87.9999 91.6027 87.157 91.8319 86.3036 91.8319ZM83.5932 88.3523C83.9857 89.0951 84.6468 89.6298 85.4528 89.8616C85.732 89.9407 86.0191 89.9828 86.3036 89.9828C86.833 89.9828 87.3598 89.8406 87.826 89.5719L90.3705 88.1021C91.0949 87.6833 91.6059 87.0037 91.8087 86.1924C92.0115 85.3785 91.8745 84.5383 91.4294 83.8297L77.7799 62.1571C77.743 62.2177 77.7062 62.2783 77.6693 62.3388C77.6588 62.3573 77.6456 62.3757 77.6298 62.3968C77.5244 62.5601 77.4138 62.7181 77.3005 62.8656C77.2689 62.9078 77.2347 62.9473 77.2004 62.9868L77.1636 63.0316C77.074 63.1422 76.9818 63.2528 76.8844 63.3582C76.8291 63.4161 76.7737 63.4741 76.7184 63.532C76.621 63.6321 76.5209 63.727 76.4181 63.8191C76.3523 63.8797 76.2943 63.9298 76.2364 63.9798C76.1231 64.0747 76.0072 64.1642 75.8913 64.2538L75.8413 64.2933C75.8018 64.3223 75.7623 64.3539 75.7228 64.3802C75.5331 64.5145 75.3514 64.6304 75.1723 64.7332C74.9879 64.8411 74.7824 64.9439 74.5427 65.0519C74.4901 65.0756 74.4374 65.0966 74.3847 65.1203L74.3557 65.1335C74.195 65.202 74.0238 65.2652 73.8552 65.3232L73.8157 65.3363C73.7736 65.3495 73.7315 65.3653 73.6893 65.3785C73.0255 65.5839 72.3328 65.6919 71.6348 65.6972L83.5932 88.3523ZM70.2256 63.6822C70.2309 63.6822 70.2467 63.6848 70.2651 63.6901C70.4152 63.727 70.5627 63.7586 70.7076 63.7823C70.7708 63.7928 70.834 63.7981 70.8946 63.806L71.0263 63.8218C71.0816 63.8271 71.1343 63.835 71.1896 63.8376C71.2871 63.8455 71.3872 63.8455 71.4873 63.8481L71.6559 63.8508C71.7744 63.8481 71.8929 63.8429 72.0141 63.8323L72.0905 63.8244C72.2432 63.8086 72.4013 63.7875 72.5725 63.7559L72.6778 63.7375C72.7937 63.7138 72.9202 63.6796 73.0888 63.6321L73.1546 63.6137C73.1809 63.6058 73.2047 63.6005 73.231 63.5926C73.3601 63.5505 73.4839 63.5004 73.605 63.4504L73.6814 63.4188C73.7051 63.4109 73.7262 63.403 73.7499 63.3924C73.9316 63.3108 74.0949 63.2291 74.2477 63.1396C75.4699 62.4337 76.3523 61.2958 76.7342 59.934C77.1109 58.588 76.9581 57.1841 76.3022 55.9593C76.2285 56.0383 76.1521 56.1173 76.0731 56.2016C76.0336 56.2437 75.8018 56.4755 75.8018 56.4755C75.7412 56.5387 75.6806 56.5993 75.62 56.6573C75.3909 56.8812 75.1407 57.1103 74.8641 57.35C74.8167 57.3922 74.7666 57.4317 74.7166 57.4712L74.6297 57.5449C74.2899 57.8294 73.9448 58.0981 73.6077 58.3404L73.5392 58.3905C73.4997 58.4194 73.4628 58.4484 73.4233 58.4747C73.1441 58.6697 72.8675 58.854 72.5962 59.0226C72.4276 59.1306 72.2459 59.2412 72.0589 59.3492L72.0325 59.3624C71.7823 59.5073 71.4925 59.6627 71.158 59.8313C71.1027 59.8602 70.9131 59.9524 70.9131 59.9524C70.6681 60.0736 70.4179 60.1869 70.1755 60.2922L69.9701 60.3818C69.3195 60.6531 68.6452 60.8901 67.963 61.0824C67.963 61.0824 67.905 61.0982 67.8839 61.1035C67.6627 61.1641 67.4599 61.2194 67.2571 61.2668C67.1728 61.2879 67.0858 61.3063 66.9989 61.3247C67.7364 62.5048 68.8743 63.3398 70.2256 63.6822ZM63.0216 27.591C60.2005 27.591 57.4164 28.339 54.9641 29.7561C47.2465 34.2155 44.5966 44.1194 49.0534 51.837C51.9798 56.8996 57.1951 59.9234 63.011 59.9234C63.8407 59.9234 64.6784 59.8602 65.5054 59.7338C65.7767 59.6917 66.0638 59.639 66.3878 59.5705C66.4484 59.5573 66.6407 59.5125 66.6407 59.5125C66.9515 59.4414 67.1859 59.3808 67.3993 59.3203L67.4256 59.3124C68.0499 59.1359 68.6583 58.9252 69.2563 58.6749L69.4354 58.5959C69.6619 58.4984 69.8832 58.3957 70.1044 58.2877L70.323 58.1797C70.6286 58.027 70.892 57.8821 71.1317 57.7451C71.5373 57.5107 71.9482 57.2473 72.3565 56.9602C72.3828 56.9417 72.4961 56.8548 72.5277 56.8337C72.828 56.6178 73.1335 56.3781 73.4364 56.1252L73.526 56.0514C73.5681 56.0172 73.6103 55.983 73.6524 55.9461C73.9264 55.709 74.2108 55.4404 74.5217 55.1269C74.6165 55.0347 74.706 54.9425 74.7956 54.8477C75.1486 54.4737 75.4251 54.1602 75.6648 53.86C79.8582 48.6156 80.3981 41.4748 77.0424 35.6642C74.1661 30.6833 68.7927 27.591 63.0216 27.591Z" fill="white"/>
<path d="M92.5431 83.1238L78.0455 60.1052C78.4722 58.4089 78.2325 56.652 77.3554 55.1322C77.2132 54.8872 77.0525 54.6554 76.8839 54.4342C81.2406 48.7868 81.7647 41.1983 78.1878 35.0057C73.3649 26.6585 62.6497 23.7901 54.3025 28.6129C45.9553 33.4358 43.0869 44.151 47.9098 52.4982C51.0838 57.9927 56.818 61.2457 63.0079 61.2457C63.7955 61.2457 64.5936 61.1825 65.3917 61.0771C65.4997 61.3326 65.6209 61.5881 65.7605 61.8331C66.6376 63.3529 68.0415 64.4381 69.722 64.9123L82.4232 88.974C82.9869 90.0381 83.9299 90.8046 85.0836 91.1365C85.4866 91.2524 85.8949 91.3103 86.3005 91.3103C87.0591 91.3103 87.8045 91.1101 88.4815 90.7203L91.0233 89.2505C92.0637 88.65 92.7933 87.678 93.0831 86.5138C93.3755 85.3443 93.1832 84.1405 92.5431 83.1238ZM48.5973 52.0978C43.993 44.1299 46.7297 33.902 54.7003 29.2978C57.3237 27.7832 60.1895 27.0615 63.0211 27.0615C68.7922 27.0615 74.4132 30.0538 77.5003 35.3982C80.9666 41.3984 80.4082 48.771 76.0779 54.1866C75.7934 54.5422 75.4905 54.8793 75.1797 55.2086C75.0875 55.306 74.9927 55.4035 74.8979 55.4983C74.6081 55.7907 74.3105 56.0752 73.9997 56.3438C73.9286 56.407 73.8522 56.465 73.7784 56.5282C73.4755 56.7837 73.1621 57.026 72.8381 57.2605C72.7801 57.3026 72.7222 57.3474 72.6616 57.3895C72.2533 57.6766 71.8319 57.9479 71.3973 58.2008C71.1233 58.3588 70.8415 58.509 70.5623 58.6512C70.4885 58.6881 70.4121 58.725 70.3384 58.7618C70.1119 58.8725 69.8827 58.9778 69.6509 59.0779C69.5877 59.1043 69.5271 59.1332 69.4639 59.1596C68.8528 59.4151 68.2286 59.6337 67.5938 59.8128C67.5806 59.8181 67.5648 59.8207 67.549 59.826C67.2935 59.8997 67.0274 59.9656 66.7588 60.0262C66.6718 60.0472 66.5849 60.0657 66.498 60.0841C66.1977 60.1473 65.8948 60.2053 65.584 60.2527C58.7303 61.2984 52.0636 58.0981 48.5973 52.0978ZM66.4506 61.4327C66.361 61.2773 66.2768 61.1166 66.203 60.956C66.2557 60.9454 66.3057 60.9349 66.3584 60.9244C66.4954 60.898 66.6323 60.8691 66.7667 60.8401C66.8905 60.8137 67.0143 60.7874 67.1354 60.7558C67.333 60.7084 67.5279 60.6557 67.7228 60.603C67.7465 60.5951 67.7729 60.5899 67.7966 60.5846C67.8045 60.5819 67.8124 60.5793 67.8203 60.5767C68.4814 60.3897 69.132 60.1631 69.7668 59.8971C69.8353 59.8681 69.9011 59.8392 69.967 59.8102C70.2067 59.7075 70.4464 59.5968 70.6835 59.4809C70.7625 59.4414 70.8441 59.4045 70.9205 59.365C71.2129 59.2175 71.5 59.0648 71.7845 58.9015C71.7871 58.8988 71.7924 58.8988 71.795 58.8962C71.9768 58.7908 72.1506 58.6855 72.3192 58.5775C72.5931 58.4089 72.8591 58.2298 73.1225 58.0454C73.1831 58.0033 73.2411 57.9558 73.3017 57.9137C73.6414 57.6687 73.9707 57.4106 74.292 57.1419C74.3684 57.0787 74.4448 57.0181 74.5186 56.9549C74.7714 56.7363 75.0164 56.5124 75.2535 56.2806C75.3404 56.1963 75.4247 56.1068 75.5116 56.0198C75.5722 55.9593 75.6301 55.9013 75.6907 55.8407C75.9225 55.5984 76.1543 55.3508 76.3782 55.0848C76.4809 55.2296 76.5784 55.3824 76.6679 55.5404C77.4687 56.9259 77.6715 58.5406 77.2395 60.0815C76.8207 61.575 75.8514 62.8261 74.5107 63.6005C74.3342 63.7033 74.1524 63.7954 73.9654 63.8771C73.9128 63.9008 73.8574 63.9192 73.8048 63.9403C73.6678 63.9956 73.5334 64.0509 73.3938 64.0957C73.3412 64.1142 73.2885 64.1247 73.2358 64.1405C73.0857 64.1853 72.9355 64.2248 72.7828 64.2564C72.7459 64.2643 72.7064 64.2696 72.6695 64.2775C72.4956 64.3091 72.3192 64.338 72.1401 64.3539C72.1137 64.3565 72.0874 64.3591 72.0584 64.3618C71.9267 64.3749 71.7924 64.3802 71.6607 64.3828C71.6001 64.3828 71.5395 64.3828 71.4763 64.3802C71.3657 64.3776 71.2577 64.3776 71.147 64.3697C71.0654 64.3644 70.9837 64.3539 70.8994 64.3433C70.8046 64.3328 70.7124 64.3249 70.6176 64.3091C70.4569 64.2827 70.2962 64.2485 70.1356 64.209C70.1198 64.2063 70.1066 64.2037 70.0908 64.1984C68.5473 63.7981 67.2513 62.8182 66.4506 61.4327ZM92.3166 86.3189C92.0795 87.2724 91.4816 88.0679 90.6308 88.5578L88.089 90.0276C87.2382 90.5175 86.2505 90.6387 85.3075 90.37C84.3619 90.0987 83.5901 89.4692 83.1292 88.5999L70.7361 65.123C70.9943 65.1546 71.2524 65.1678 71.5105 65.1704C71.5263 65.1704 71.5421 65.173 71.5579 65.173C71.5764 65.173 71.5948 65.1704 71.6106 65.1704C72.2639 65.1678 72.9092 65.0677 73.5334 64.8754C73.5835 64.8596 73.6335 64.8411 73.6862 64.8253C73.8443 64.7727 73.9997 64.7147 74.1524 64.6489C74.2104 64.6252 74.2683 64.6014 74.3237 64.5751C74.5212 64.4856 74.7161 64.3881 74.9058 64.2775C75.0822 64.1747 75.2508 64.0641 75.4168 63.9482C75.4694 63.9113 75.5195 63.8692 75.5722 63.8323C75.6828 63.7507 75.7908 63.6664 75.8935 63.5795C75.9515 63.532 76.0068 63.482 76.0621 63.4293C76.1569 63.3424 76.2491 63.2555 76.3387 63.1633C76.3913 63.1106 76.444 63.0579 76.4941 63.0026C76.5836 62.9051 76.6706 62.8024 76.7548 62.6997C76.797 62.647 76.8391 62.597 76.8813 62.5443C76.9866 62.4047 77.0894 62.2598 77.1842 62.1123C77.1974 62.0939 77.2105 62.0754 77.2237 62.0544C77.3291 61.8858 77.4265 61.7119 77.5187 61.5328C77.545 61.4801 77.5688 61.4275 77.5925 61.3748C77.6372 61.28 77.6873 61.1851 77.7268 61.085L91.8741 83.5453C92.3956 84.3802 92.5536 85.3654 92.3166 86.3189Z" fill="white"/>
<path d="M87.327 17.4209C86.9934 18.6289 88.3061 19.668 89.4092 18.994C90.5811 18.283 92.2943 17.0466 93.9214 15.6743C95.5332 14.3149 97.1503 12.7478 98.0556 11.3699C99.0278 9.89293 98.7827 7.89055 97.4186 6.69422L97.4186 6.69422L97.4168 6.69268C95.9252 5.39071 93.6548 5.53822 92.3497 7.03621C91.2704 8.27108 90.1987 10.236 89.3226 12.1496C88.4377 14.0825 87.7044 16.0703 87.3278 17.418L87.327 17.4209Z" fill="#FD8A02" stroke="white" stroke-width="2"/>
<path d="M103.977 17.1153L103.976 17.1146C103.441 15.5125 101.71 14.6438 100.105 15.1759L100.105 15.1762C98.8362 15.598 97.2876 16.5292 95.9107 17.4917C94.5168 18.4662 93.2029 19.5411 92.3912 20.3222L92.3911 20.3222L92.3865 20.3267C91.5499 21.1422 92.1057 22.6145 93.3249 22.5958C94.4296 22.5805 96.1161 22.4217 97.7952 22.1349C99.4536 21.8516 101.22 21.4248 102.424 20.8309C103.78 20.1627 104.466 18.5842 103.977 17.1153Z" fill="#FD8A02" stroke="white" stroke-width="2"/>
<path d="M81.533 10.8161C81.7234 12.5085 82.0391 14.1721 82.3308 15.2376C82.6511 16.4128 84.2188 16.5446 84.7721 15.5124L84.7721 15.5124L84.7751 15.5068C85.3012 14.5104 85.9694 12.9497 86.5187 11.3404C87.0612 9.75067 87.5258 8.00474 87.5793 6.6695L87.5793 6.66881C87.6458 4.9806 86.3326 3.55268 84.6386 3.48617L84.5993 4.4854L84.6397 3.48622C83.0904 3.42362 81.7646 4.52267 81.5021 6.00762L82.4869 6.18171L81.5026 6.00496C81.265 7.32821 81.3449 9.14415 81.533 10.8161ZM84.2607 14.7124L84.26 14.7099L84.2607 14.7124Z" fill="#FD8A02" stroke="white" stroke-width="2"/>
<path d="M17.9284 82.9707L17.9307 82.9697C19.082 82.4723 20.2706 83.634 19.7637 84.8017C19.7635 84.8022 19.7632 84.8027 19.763 84.8032L18.8462 84.404C18.8 84.5111 18.7503 84.6229 18.6975 84.7389L17.9284 82.9707ZM17.9284 82.9707C16.6956 83.5069 14.8694 84.4825 13.1096 85.601C11.3675 86.7083 9.59163 88.0172 8.5307 89.2364L17.9284 82.9707ZM17.9293 84.0047L17.928 84.0079C17.9284 84.0068 17.9289 84.0057 17.9293 84.0047Z" fill="#FD8A02" stroke="white" stroke-width="2"/>
<path d="M3.5355 82.9047L3.53534 82.9038C3.25164 81.4026 4.13058 79.9542 5.54006 79.4813L3.5355 82.9047ZM3.5355 82.9047C3.84668 84.5433 5.4258 85.6173 7.06231 85.3104L7.06409 85.3101M3.5355 82.9047L7.06409 85.3101M7.06409 85.3101C8.35319 85.0659 9.97926 84.3646 11.441 83.6118C12.9213 82.8494 14.337 81.9794 15.2276 81.3289L15.2277 81.3289M7.06409 85.3101L15.2277 81.3289M15.2277 81.3289L15.2348 81.3236M15.2277 81.3289L15.2348 81.3236M15.2348 81.3236C16.1714 80.6267 15.8067 79.1072 14.6079 78.9623L15.2348 81.3236ZM10.2087 78.8223C11.8762 78.7647 13.534 78.8323 14.6077 78.9623L10.2087 78.8223ZM10.2087 78.8223C8.56242 78.8793 6.78972 79.0614 5.54043 79.4812L10.2087 78.8223Z" fill="#FD8A02" stroke="white" stroke-width="2"/>
<path d="M21.9561 86.9625L21.9562 86.9625C22.6299 86.0321 24.166 86.3417 24.3264 87.5572C24.3264 87.5577 24.3265 87.5583 24.3266 87.5589L23.335 87.6886C23.3475 87.7812 23.3595 87.8787 23.371 87.9808L21.9561 86.9625ZM21.9561 86.9625L21.9522 86.968C21.311 87.8662 20.4578 89.2926 19.7136 90.7821C18.9788 92.2528 18.2979 93.8873 18.07 95.1795M21.9561 86.9625L18.07 95.1795M18.07 95.1795C17.7788 96.8227 18.878 98.39 20.5207 98.6776L18.07 95.1795Z" fill="#FD8A02" stroke="white" stroke-width="2"/>
</svg>
