<svg width="102" height="100" viewBox="0 0 102 100" fill="none" xmlns="http://www.w3.org/2000/svg">
<path d="M100.298 53.34C100.298 39.4805 93.9479 27.0779 83.9499 18.7875C75.9421 12.1473 53.4453 11.3867 53.4453 11.3867L37.1407 11.4791C37.0195 11.5295 36.8729 11.4945 36.7523 11.5459C20.7717 18.3588 10.4014 34.5012 10.4014 53.2656C10.4014 78.2262 29.3443 95.2109 54.7515 95.2109C62.39 95.2109 69.1366 96.7063 75.4765 93.4697C90.2244 85.9412 100.298 70.7963 100.298 53.34Z" fill="#94CCD4"/>
<path d="M83.9502 18.7871C79.2723 21.793 74.2504 24.7754 72.3677 25.1797C67.2007 26.6641 60.4751 23.5195 59.0934 31.0059C59.0536 32.4512 58.9244 33.8242 58.7037 35.1055C58.4572 36.5352 57.9164 37.8809 57.1312 39.0762C56.3459 40.2715 54.2558 40.6203 53.0391 41.4406C49.6892 43.7023 46.9673 43.8379 43.361 41.9922C43.2695 41.9453 43.1761 41.8965 43.0826 41.8477C37.0747 38.9551 33.5453 32.3027 39.7739 27.4414C43.8673 24.1211 43.2483 18.2643 40.3874 14.6041L38.6657 12.6471C40.0023 12.1047 39.4582 10.5225 40.8546 10.1039C45.1061 8.82969 49.6188 8.14453 54.294 8.14453C65.5944 8.14453 75.9423 12.1465 83.9502 18.7871Z" fill="#B7E546"/>
<path d="M89.9734 42.1526C89.9477 38.422 88.4145 34.8516 85.7101 32.2305C83.403 29.6372 82.605 28.0921 79.434 30.9552C76.4284 34.628 79.3928 39.1866 73.0046 45.4499C71.8732 46.5813 71.2384 48.1302 71.3022 49.7178C71.2998 49.7175 71.3008 49.4374 71.2986 49.437C71.5282 53.3696 74.2624 56.5397 78.1594 56.5397C83.1654 56.5395 89.9734 50.7665 89.9734 42.1526Z" fill="#B7E546"/>
<path d="M75.5706 45.1583C74.4394 46.2911 73.8032 47.8399 73.8668 49.4278C73.8648 49.4259 73.8648 49.4239 73.8628 49.4239C74.0537 52.6798 76.9264 55.42 80.1213 56.2677C79.4513 56.4473 78.7913 56.5391 78.159 56.5391C74.2624 56.5391 70.1173 53.3575 69.8867 49.4239C69.8887 49.4239 69.8887 49.4259 69.8906 49.4278C69.827 47.8399 70.4632 46.2911 71.5944 45.1583C77.9821 38.8966 74.2803 34.004 77.2863 30.3321C79.0974 28.6954 80.837 28.7032 82.4235 29.4942C82.0398 29.7032 81.6541 29.9786 81.2624 30.3321C78.2565 34.004 81.9582 38.8966 75.5706 45.1583Z" fill="#ABD641"/>
<path d="M94.2948 4.88301V27.4428L92.8316 28.8076C92.8316 30.6953 90.6471 30.9797 88.7254 30.9797L78.2226 30.9021C77.7339 30.9021 77.2576 31.0537 76.862 31.3354L68.195 37.2477C67.4282 37.7934 66.3548 37.2551 66.3548 36.325L67.1683 33.4814C67.1683 32.2229 66.1298 31.2027 64.8489 31.2027H62.0656C60.1441 31.2027 58.5862 29.6725 58.5862 27.7846L58.1667 6.62109C58.1667 4.7334 58.93 2.74238 60.8514 2.74238L61.8212 1.46484H90.8154C92.7371 1.46484 94.2948 2.99512 94.2948 4.88301Z" fill="#DC4955"/>
<path d="M94.2948 27.4428V28.5822C94.2948 30.4701 92.7371 32.0004 90.8155 32.0004H78.3642C77.8747 32.0004 77.3992 32.1531 77.0049 32.4334L67.6037 39.1215C66.8383 39.6684 65.7644 39.1307 65.7644 38.1986V34.2791C65.7644 33.0205 64.7258 32.0004 63.4449 32.0004H60.6614C58.7399 32.0004 57.1821 30.4701 57.1821 28.5822V4.88301C57.1821 2.99531 58.7397 1.46484 60.6614 1.46484H61.8212V26.9871C61.8212 27.2389 62.029 27.4428 62.285 27.4428H63.4449C66.1147 27.4428 68.4373 28.9262 69.6037 31.1C69.8025 31.4705 70.2847 31.5875 70.63 31.3416L74.2817 28.7416C75.4763 27.8916 76.8888 27.4428 78.364 27.4428H94.2948Z" fill="#D82F3C"/>
<path d="M65.2286 94.5859C39.2127 94.5859 18.1212 73.9258 18.1212 48.4414C18.1212 33.2637 25.2043 19.9561 36.753 11.5459C20.0475 18.3203 8.29022 34.4814 8.29022 53.3398C8.29022 61.0248 10.2425 68.2617 13.6866 74.598C13.6866 74.598 24.6189 83.1039 30.1469 87.1008C37.7727 92.6144 52.5902 96.1709 52.5902 96.1709C52.5902 96.1709 69.0777 96.7205 75.3998 93.5057C72.1232 94.2129 68.7216 94.5859 65.2286 94.5859Z" fill="#6FBBC6"/>
<path d="M75.4741 93.4651C71.7773 88.4067 64.9785 82.8301 65.2707 76.1135C65.3703 73.8236 65.0628 71.5262 64.2954 69.3608C64.2833 69.3315 64.2735 69.3028 64.2638 69.2742C63.8757 68.2018 63.2928 67.2094 62.567 66.3248C60.5634 63.8795 56.288 57.4998 54.1976 56.6053C50.2057 54.1797 44.8014 55.986 42.6658 59.9686C40.8121 64.5754 40.3008 70.8875 35.4584 73.3723C32.5638 74.9145 28.3918 74.568 26.1898 72.0145C22.3694 67.1395 17.0204 71.8531 13.6912 74.5961C15.0141 77.024 20.4115 78.8039 22.157 80.9574C29.3996 89.8951 35.8455 93.3404 46.458 95.2113C56.3292 96.9711 66.4584 98.0656 75.3666 93.5188C75.4024 93.5004 75.4383 93.4832 75.4741 93.4651Z" fill="#B7E546"/>
<path d="M75.3817 93.5097C67.4731 97.5521 58.3409 99.2007 49.4811 98.287V98.2851C34.5071 96.8466 20.6881 87.6702 13.6918 74.5956C16.324 72.4257 20.2226 69.0214 23.6282 70.1093C31.5507 84.6738 47.2087 94.5859 65.2286 94.5859C68.7157 94.5859 72.1113 94.2148 75.3817 93.5097Z" fill="#ABD641"/>
<path d="M85.6411 54.3804V76.9401L84.1779 78.305C84.1779 80.1927 81.9934 80.477 80.0717 80.477L69.5689 80.3995C69.0803 80.3995 68.6039 80.5511 68.2083 80.8327L59.5413 86.745C58.7745 87.2907 57.7011 86.7524 57.7011 85.8224L58.5147 82.9788C58.5147 81.7202 57.4761 80.7001 56.1952 80.7001H53.4117C51.4902 80.7001 49.9324 79.1698 49.9324 77.2819L49.5129 56.1187C49.5129 54.231 50.2761 52.2399 52.1976 52.2399L53.1674 50.9624H82.1616C84.0833 50.9622 85.6411 52.4927 85.6411 54.3804Z" fill="#FFBF54"/>
<path d="M85.6411 76.9401V78.0795C85.6411 79.9672 84.0834 81.4977 82.1618 81.4977H69.7105C69.221 81.4977 68.7455 81.6504 68.3512 81.9307L58.9501 88.6188C58.1846 89.1657 57.1107 88.628 57.1107 87.6959V83.7764C57.1107 82.5178 56.0721 81.4977 54.7912 81.4977H52.0077C50.0862 81.4977 48.5284 79.9674 48.5284 78.0795V54.3803C48.5284 52.4926 50.086 50.9622 52.0077 50.9622H53.1675V76.4844C53.1675 76.7362 53.3753 76.9401 53.6314 76.9401H54.7912C57.461 76.9401 59.7836 78.4235 60.9501 80.5973C61.1489 80.9678 61.631 81.0848 61.9763 80.8389L65.628 78.2389C66.8226 77.3889 68.2351 76.9401 69.7103 76.9401H85.6411Z" fill="#FFA442"/>
<path d="M41.2843 29.9648L41.2266 30.0117C40.4592 30.6113 37.7952 33.0078 35.9065 35.0625C35.1471 32.2441 35.8071 29.252 38.7534 26.9531C42.8469 23.6328 41.336 17.1641 38.4751 13.5039L36.7523 11.5459C38.0882 11.0029 39.4572 10.5215 40.8548 10.1035C42.0914 11.9492 43.1908 13.5039 43.1908 13.5039C46.155 18.9277 46.2882 25.9082 41.2843 29.9648Z" fill="#ABD641"/>
<path d="M57.2982 38.8105C57.2445 38.9004 57.1888 38.9883 57.1312 39.0762C56.3459 40.2715 55.3201 41.3145 54.1034 42.1348C50.7535 44.3965 46.4095 44.6504 42.8032 42.8047C42.7117 42.7578 42.6183 42.709 42.5248 42.6602C36.8707 39.9375 33.0039 32.7363 37.7574 27.8457C36.2445 32.334 39.8171 37.5156 44.6262 39.7305C44.7236 39.7793 44.821 39.8281 44.9165 39.875C48.6859 41.7207 53.2266 41.4668 56.7276 39.2051C56.9224 39.0801 57.1133 38.9492 57.2982 38.8105Z" fill="#ABD641"/>
<path d="M48.9785 98.2314C48.9912 98.2328 49.0039 98.2344 49.0166 98.2358C49.0039 98.2344 48.9912 98.233 48.9785 98.2314Z" fill="#94CCD4"/>
<path d="M34.7186 94.2451C34.7638 94.266 34.8093 94.2863 34.8544 94.307C34.8091 94.2863 34.7638 94.266 34.7186 94.2451Z" fill="#94CCD4"/>
<path d="M75.3995 93.5059C74.5785 93.9238 73.7455 94.3164 72.8965 94.6836C73.7315 94.3203 74.5546 93.9316 75.3657 93.5176C75.3717 93.5156 75.3757 93.5117 75.3816 93.5098C75.3876 93.5078 75.3936 93.5078 75.3995 93.5059Z" fill="#94CCD4"/>
<path d="M3.09204 28.2229L3.38389 47.8786C3.38389 49.8034 4.98031 51.3638 6.9497 51.3638L18.1435 51.7231C18.6443 51.7231 19.1324 51.8778 19.538 52.1649L27.1775 58.5099C27.9634 59.0663 29.0634 58.5175 29.0634 57.569L29.5461 54.5017C29.5461 53.2185 30.6103 52.1782 31.9233 52.1782L35.6179 52.1649C37.5873 52.1649 39.5264 51.7056 39.5264 49.7808V25.6165C39.5264 23.6917 37.93 22.1313 35.9606 22.1313H5.05685C3.08747 22.1313 3.09204 26.2981 3.09204 28.2229Z" fill="#FFC0C0"/>
<path d="M39.5268 49.3594V49.7813C39.5268 51.7051 37.9304 53.2656 35.9602 53.2656H33.1073C31.7952 53.2656 30.7316 54.3066 30.7316 55.5898V59.5879C30.7316 60.5352 29.6302 61.084 28.8449 60.5273L19.2127 53.707C18.8071 53.4199 18.3181 53.2656 17.8171 53.2656H5.05763C3.08745 53.2656 1.49103 51.7051 1.49103 49.7813V25.6172C1.49103 23.6914 3.08745 22.1309 5.05763 22.1309H5.46717V48.3828C5.46717 48.9221 5.9123 49.3594 6.46121 49.3594H17.8171C19.1531 49.3594 20.4552 49.7734 21.5368 50.5391L25.9801 53.6855C26.4055 53.9863 26.998 53.8027 27.1888 53.3242C28.1153 51.0059 30.4195 49.3594 33.1073 49.3594H39.5268Z" fill="#FFABAB"/>
<path d="M95.8028 30.6469C95.9638 30.1641 96.0521 29.6492 96.0521 29.1145V4.95C96.0521 2.22051 93.7835 0 90.9952 0H60.0914C57.3032 0 55.0346 2.22051 55.0346 4.95V6.68867C48.368 6.55742 41.4388 7.9166 35.3125 10.5561C29.7038 12.9609 24.6887 16.3629 20.3928 20.6664H15.1093C14.2859 20.6664 13.6183 21.3223 13.6183 22.1312C13.6183 22.9402 14.2859 23.5961 15.1093 23.5961H35.9606C37.1046 23.5961 38.0354 24.5025 38.0354 25.6164V49.7807C38.0354 50.8947 37.1046 51.8012 35.9606 51.8012H33.108C30.975 51.8012 29.2396 53.5006 29.2396 55.5895V59.0016L20.0837 52.5195C19.4201 52.0496 18.6364 51.8014 17.8175 51.8014H5.05686C3.91292 51.8014 2.98211 50.8949 2.98211 49.7809V25.6166C2.98211 24.5025 3.91292 23.5963 5.05686 23.5963H8.15109C8.97455 23.5963 9.64215 22.9404 9.64215 22.1314C9.64215 21.3225 8.97455 20.6666 8.15109 20.6666H5.05686C2.26859 20.6666 0 22.8871 0 25.6166V49.7809C0 52.5104 2.26859 54.7311 5.05686 54.7311H6.82247C7.17594 66.673 12.0746 77.8496 20.7105 86.3338C29.6811 95.1465 41.6082 100 54.2944 100C60.8903 100 67.2751 98.6965 73.2722 96.1258C79.0642 93.643 84.2256 90.1 88.6133 85.5955C89.1827 85.0109 89.162 84.0838 88.567 83.5244C87.9718 82.965 87.0282 82.9854 86.4588 83.5699C83.1827 86.9332 79.4658 89.71 75.4326 91.8549C73.5376 89.3772 70.7569 86.3959 68.8978 83.5385L69.2533 83.2867C69.406 83.1785 69.5867 83.1215 69.7757 83.1215H82.5364C85.3246 83.1215 87.5932 80.901 87.5932 78.1715V54.0072C87.5932 53.6801 87.5598 53.3607 87.4976 53.0512C90.0602 50.0377 91.464 46.1963 91.464 42.1426C91.4441 39.26 90.6151 36.4748 89.0928 34.0645H90.995C92.0415 34.0645 93.0149 33.7516 93.8227 33.2164C97.0885 39.4025 98.8072 46.3178 98.8072 53.34C98.8072 62.3824 96.0227 71.0594 90.7547 78.433C90.2815 79.0951 90.4443 80.0088 91.1185 80.4734C91.5634 80.7875 92.5201 80.9133 93.1954 80.116C98.8175 72.2469 101.789 62.9879 101.789 53.34C101.789 45.3834 99.7213 37.5535 95.8028 30.6469ZM35.9606 20.6666H24.7058C28.2074 17.5934 32.1203 15.1221 36.3213 13.3008L37.3181 14.4307C38.9915 16.5889 40.036 19.6871 39.6934 22.2811C38.7682 21.2896 37.4374 20.6666 35.9606 20.6666ZM70.6875 90.7086C71.4004 91.5617 72.0859 92.383 72.7153 93.1848C67.0157 95.731 60.7724 97.0703 54.2944 97.0703C37.6105 97.0703 23.0439 88.0045 15.4231 74.6256C17.5252 72.9223 20.2332 70.8521 22.3966 71.0986C23.2795 71.1994 24.0612 71.7063 24.7863 72.6488C26.6006 75.0051 29.6622 75.4643 31.8072 75.6047C35.0099 75.4102 37.864 73.8029 39.6459 71.2115C40.1117 70.5443 39.939 69.6326 39.2598 69.175C38.5807 68.7172 37.6527 68.8873 37.1869 69.5543C35.9056 71.3895 34.2133 72.3824 31.8696 72.6721C29.4354 72.4965 27.9811 71.942 27.1648 70.8816C25.94 69.2898 24.4515 68.3836 22.7406 68.1883C19.5825 67.8287 16.4765 70.0086 14.0258 71.9629C11.4962 66.7049 10.003 60.876 9.80636 54.7309H17.8173C18.0066 54.7309 18.1873 54.7879 18.34 54.8961L27.9728 61.716C28.4404 62.0471 28.9883 62.2154 29.54 62.2154C29.9575 62.2154 30.3769 62.1189 30.7652 61.9238C31.6636 61.4721 32.2215 60.5768 32.2215 59.5869V55.5895C32.2215 55.116 32.6191 54.7309 33.1078 54.7309H35.9604C38.7487 54.7309 41.0173 52.5102 41.0173 49.7807V43.5293C42.792 44.6045 45.603 45.559 47.8913 45.4979C50.3656 45.4979 52.8282 44.7729 54.9477 43.3428C57.7139 41.4764 59.6185 38.5631 60.1734 35.35C60.2453 34.9328 60.3083 34.5031 60.3624 34.0643H62.9439C63.4326 34.0643 63.83 34.4494 63.83 34.9229V38.9203C63.83 39.91 64.3881 40.8055 65.2863 41.2572C66.0441 41.6057 66.9676 41.7238 68.0785 41.0496L74.2165 36.7041C73.9793 38.9727 73.3582 41.3596 70.53 44.1324C69.2018 45.4607 68.4394 47.2352 68.3988 49.0568H51.6324C48.8441 49.0568 46.5755 51.2775 46.5755 54.007V54.6402C43.8074 55.677 41.5911 57.9652 40.5978 60.8477C40.3813 61.4762 40.0423 62.5467 39.7274 63.5691C39.4867 64.3428 39.9298 65.1617 40.7173 65.3982C41.3177 65.5639 42.1678 65.3596 42.5791 64.4258C42.7905 63.7465 43.0803 62.7992 43.4227 61.7869C43.9968 60.1205 45.1324 58.7381 46.5757 57.8855V78.1711C46.5757 80.9006 48.8443 83.1211 51.6326 83.1211H54.4853C54.974 83.1211 55.3714 83.5063 55.3714 83.9797V87.977C55.3714 88.9666 55.9294 89.8619 56.8276 90.3139C57.2159 90.5092 57.6354 90.6055 58.0531 90.6055C58.6048 90.6055 59.1529 90.4371 59.6203 90.1062L66.4767 85.2522C67.734 87.1697 69.23 88.965 70.6875 90.7086ZM84.6115 78.1713C84.6115 79.2854 83.6807 80.1916 82.5368 80.1916H69.7761C68.9571 80.1916 68.1734 80.44 67.5099 80.91L58.3539 87.3922V83.9799C58.3539 81.891 56.6185 80.1916 54.4857 80.1916H51.633C50.4891 80.1916 49.5583 79.2852 49.5583 78.1713V54.0072C49.5583 52.8932 50.4891 51.9867 51.633 51.9867H70.0495C70.0511 51.9867 70.0525 51.9871 70.0541 51.9871C70.0563 51.9871 70.0584 51.9867 70.0606 51.9867H82.537C83.6809 51.9867 84.6117 52.8932 84.6117 54.0072V78.1713H84.6115ZM88.4823 42.1525C88.4823 45.1283 87.5684 47.9645 85.8867 50.3033C84.9938 49.5287 83.8209 49.057 82.5368 49.057H71.3825C71.4223 47.999 71.8755 46.9678 72.6473 46.1961C76.8467 42.0791 77.102 38.4307 77.307 35.4992C77.332 35.1391 77.3573 34.7932 77.3883 34.4588L77.7115 34.2299C77.8644 34.1217 78.0451 34.0645 78.2344 34.0645H85.4097C87.3736 36.323 88.4616 39.1779 88.4823 42.1525ZM90.9952 31.1348H78.2346C77.4157 31.1348 76.632 31.383 75.9684 31.8529L75.0775 32.4836C75.0742 32.4859 75.0708 32.4883 75.0674 32.4906L66.8123 38.3352V34.9229C66.8123 32.834 65.0769 31.1346 62.9441 31.1346H60.0914C58.9475 31.1346 58.0167 30.2281 58.0167 29.1143V23.6328C58.0167 22.8238 57.3491 22.168 56.5256 22.168C55.7022 22.168 55.0346 22.8238 55.0346 23.6328V29.1143C55.0346 30.8945 56 32.4576 57.4447 33.3299C57.3879 33.8561 57.3183 34.3691 57.2334 34.8604C56.8129 37.2963 55.3644 39.5078 53.2596 40.9279C49.5465 43.4955 44.5435 42.8473 41.0175 39.9803V26.7352C44.2167 22.59 42.6161 15.9967 39.2537 12.1512C44.0537 10.4598 49.6296 9.50644 55.0344 9.61816V16.7969C55.0344 17.6059 55.702 18.2617 56.5254 18.2617C57.3489 18.2617 58.0165 17.6059 58.0165 16.7969V4.95C58.0165 3.83594 58.9473 2.92969 60.0913 2.92969H90.995C92.139 2.92969 93.0698 3.83613 93.0698 4.95V29.1143C93.07 30.2283 92.1392 31.1348 90.9952 31.1348Z" fill="white"/>
<path d="M84.7531 9.71738H77.0344V7.22656C77.0344 6.41758 76.3668 5.76172 75.5433 5.76172C74.7199 5.76172 74.0523 6.41758 74.0523 7.22656V9.71738H66.3336C65.5101 9.71738 64.8425 10.3732 64.8425 11.1822C64.8425 11.9912 65.5101 12.6471 66.3336 12.6471H69.4252C70.1411 15.7645 71.5572 18.6312 73.5294 21.0695C72.0203 22.485 70.2547 23.6584 68.2859 24.5205L66.2316 25.4199C65.4793 25.7492 65.1413 26.6152 65.4765 27.3541C65.7238 27.8994 66.2686 28.223 66.8393 28.223C67.0421 28.223 67.2483 28.1822 67.4453 28.0959L69.4996 27.1965C71.7658 26.2043 73.8008 24.8572 75.5433 23.233C77.2859 24.8572 79.3209 26.2043 81.5871 27.1965L83.6413 28.0959C84.1654 28.3092 85.1483 28.2494 85.6101 27.3541C85.9453 26.6152 85.6073 25.7492 84.8551 25.4199L82.8008 24.5205C80.8318 23.6586 79.0664 22.485 77.5572 21.0695C79.5294 18.6312 80.9453 15.7645 81.6612 12.6471H84.7529C85.5763 12.6471 86.2439 11.9912 86.2439 11.1822C86.2439 10.3732 85.5765 9.71738 84.7531 9.71738ZM75.5433 18.8371C74.1461 17.0037 73.1036 14.9088 72.4946 12.6471H78.5918C77.9829 14.9088 76.9405 17.0037 75.5433 18.8371Z" fill="white"/>
<path d="M12.9191 47.855C13.6896 48.1405 14.5501 47.7585 14.8405 47.0017L16.1346 43.6331H24.8711L26.1787 47.006C26.4053 47.5905 26.9715 47.9499 27.5723 47.9499C27.7487 47.9499 27.9282 47.9188 28.1028 47.8536C28.8723 47.5657 29.2584 46.7194 28.9654 45.9634L22.2469 28.6329C22.2425 28.6218 22.2381 28.6106 22.2336 28.5995C21.9409 27.897 21.2527 27.4427 20.4801 27.4419C20.4793 27.4419 20.4789 27.4419 20.4781 27.4419C19.7065 27.4419 19.0181 27.8948 18.7242 28.596C18.7187 28.6093 18.7133 28.6228 18.7079 28.6364L12.0505 45.9677C11.7596 46.7241 12.1485 47.5694 12.9191 47.855ZM20.4827 32.3134L23.7354 40.7034H17.2598L20.4827 32.3134Z" fill="white"/>
<path d="M78.5062 57.2266H71.5696C70.7461 57.2266 70.0785 57.8824 70.0785 58.6914C70.0785 59.5004 70.7461 60.1562 71.5696 60.1562H73.5467V64.7461H67.6157C67.9622 64.0529 68.1573 63.274 68.1573 62.4512C68.1573 59.5703 65.7716 57.2266 62.8392 57.2266H58.5338C57.7103 57.2266 57.0428 57.8824 57.0428 58.6914C57.0428 59.5004 57.7103 60.1562 58.5338 60.1562H62.8392C64.1272 60.1562 65.1752 61.1857 65.1752 62.4512C65.1752 63.7166 64.1272 64.7461 62.8392 64.7461H58.0553C57.2318 64.7461 56.5642 65.402 56.5642 66.2109C56.5642 67.0199 57.2318 67.6758 58.0553 67.6758H62.8392C64.1272 67.6758 65.1752 68.7053 65.1752 69.9707C65.1752 71.2576 64.1491 72.2656 62.8392 72.2656C60.7791 72.2656 58.4406 72.0375 56.7177 70.3449C56.1354 69.7728 55.1913 69.7728 54.6092 70.3449C54.0268 70.917 54.0268 71.8445 54.6092 72.4164C57.1163 74.8795 60.3245 75.1953 62.8392 75.1953C65.7716 75.1953 68.1573 72.8516 68.1573 69.9707C68.1573 69.1479 67.9622 68.3689 67.6157 67.6758H73.5467V73.7305C73.5467 74.5395 74.2143 75.1953 75.0378 75.1953C75.8612 75.1953 76.5288 74.5395 76.5288 73.7305V60.1562H78.506C79.3294 60.1562 79.997 59.5004 79.997 58.6914C79.997 57.8824 79.3296 57.2266 78.5062 57.2266Z" fill="white"/>
</svg>
