<svg width="100" height="100" viewBox="0 0 100 100" fill="none" xmlns="http://www.w3.org/2000/svg">
<path d="M97.8516 52.1484C97.8516 78.5759 76.4275 100 50 100C23.5725 100 2.14844 78.5759 2.14844 52.1484C2.14844 25.721 23.5725 4.29688 50 4.29688C76.4275 4.29688 97.8516 25.721 97.8516 52.1484Z" fill="#9EBCFF"/>
<path d="M26.7937 89.2578L24.749 92.7986C27.0645 94.2406 29.5128 95.4895 32.0702 96.524L36.2656 89.2578H26.7937Z" fill="#A5683F"/>
<path d="M26.7937 89.2578L24.749 92.7986C25.4853 93.2571 26.2368 93.6935 26.9989 94.1124L29.802 89.2578H26.7937Z" fill="#8E5935"/>
<path d="M63.7344 89.2578L67.9298 96.524C70.488 95.4895 72.9355 94.2406 75.251 92.7994L73.2063 89.2578H63.7344Z" fill="#A5683F"/>
<path d="M63.7344 89.2578L67.9298 96.524C68.7584 96.1891 69.574 95.829 70.3789 95.4498L66.8037 89.2578H63.7344Z" fill="#8E5935"/>
<path d="M45.8984 89.2578V99.823C47.2778 99.9405 48.6732 100.002 50.0839 100C51.4374 99.9977 52.7771 99.9359 54.1016 99.8238V89.2578H45.8984Z" fill="#A5683F"/>
<path d="M45.8984 89.2578V99.823C46.8674 99.9054 47.8439 99.9588 48.8281 99.9832V89.2578H45.8984Z" fill="#8E5935"/>
<path d="M24.1753 85.5469V88.4766C24.1753 89.0137 24.6147 89.4531 25.1519 89.4531H74.8482C75.3853 89.4531 75.8248 89.0137 75.8248 88.4766V85.5469H24.1753Z" fill="#EF9614"/>
<path d="M33.2032 88.4766V85.5469H24.1753V88.4766C24.1753 89.0137 24.6147 89.4531 25.1519 89.4531H34.1797C33.6426 89.4531 33.2032 89.0137 33.2032 88.4766Z" fill="#EF8318"/>
<path d="M79.6127 22.2863C75.3685 26.5305 71.0342 30.4253 67.408 33.255L67.3355 33.3123L67.3325 33.4038C67.2791 35.2761 66.8983 37.5145 64.4852 39.9285C61.8149 42.5988 58.2611 44.0697 54.48 44.0697C54.126 44.0697 53.7682 44.056 53.4149 44.03C53.2997 44.0209 53.1914 43.9713 53.1097 43.8896C53.0281 43.808 52.9785 43.6997 52.9701 43.5845C52.6611 39.4646 54.1557 35.4294 57.0709 32.5142C59.4849 30.101 61.7233 29.7203 63.5956 29.6669L63.6871 29.6639L63.7444 29.5914C66.5733 25.9651 70.4689 21.6301 74.7131 17.3867C77.121 14.9781 79.5059 12.7343 81.7528 10.7415H60.5469V13.6711C60.5469 14.1022 60.1967 14.4524 59.7656 14.4524H40.2344C39.8033 14.4524 39.4531 14.1022 39.4531 13.6711V10.7422H15.625C15.0879 10.7422 14.6484 11.1817 14.6484 11.7188V78.9063H85.3516V16.2613C83.5793 18.2213 81.6467 20.2515 79.6127 22.2863Z" fill="#FFE2B8"/>
<path d="M20.5078 78.9062V11.7188C20.5078 11.1816 20.9473 10.7422 21.4844 10.7422H15.625C15.0879 10.7422 14.6484 11.1816 14.6484 11.7188V78.9062H20.5078Z" fill="#FFC987"/>
<path d="M68.1129 47.7516C67.9436 47.4579 67.63 47.2771 67.2905 47.2771C66.951 47.2771 66.6374 47.4579 66.468 47.7516L54.2206 68.9644L59.9609 78.9063H85.3516V77.61L68.1129 47.7516Z" fill="#293D7C"/>
<path d="M57.2479 74.2081L70.3178 51.5709L68.1129 47.7516C67.9436 47.4579 67.63 47.2771 67.2905 47.2771C66.951 47.2771 66.6374 47.4579 66.468 47.7516L54.2206 68.9644L57.2479 74.2081Z" fill="#1A2B63"/>
<path d="M60.1959 78.9062L38.0302 40.5136C37.8601 40.2199 37.5465 40.0391 37.2078 40.0391C36.8683 40.0391 36.5547 40.2199 36.3853 40.5136L14.6484 78.1624V78.9062H60.1959Z" fill="#2E4C89"/>
<path d="M20.7031 78.9062V78.1624L40.2351 44.3329L38.0302 40.5144C37.8601 40.2206 37.5465 40.0391 37.2078 40.0391C36.8683 40.0391 36.5547 40.2206 36.3853 40.5144L14.6484 78.1624V78.9062H20.7031Z" fill="#293D7C"/>
<path d="M91.2109 84.7656C91.2109 85.3027 90.7715 85.7422 90.2344 85.7422H9.76562C9.22852 85.7422 8.78906 85.3027 8.78906 84.7656V79.6875C8.78906 79.1504 9.22852 78.7109 9.76562 78.7109H90.2344C90.7715 78.7109 91.2109 79.1504 91.2109 79.6875V84.7656Z" fill="#994334"/>
<path d="M17.5781 84.7656V79.6875C17.5781 79.1504 18.0176 78.7109 18.5547 78.7109H9.76562C9.22852 78.7109 8.78906 79.1504 8.78906 79.6875V84.7656C8.78906 85.3027 9.22852 85.7422 9.76562 85.7422H18.5547C18.0176 85.7422 17.5781 85.3027 17.5781 84.7656Z" fill="#87352A"/>
<path d="M54.1016 7.8125V0.976562C54.1016 0.439453 53.6621 0 53.125 0H46.875C46.3379 0 45.8984 0.439453 45.8984 0.976562V7.8125H54.1016Z" fill="#A5683F"/>
<path d="M48.8281 7.8125V0.976562C48.8281 0.439453 49.2676 0 49.8047 0H46.875C46.3379 0 45.8984 0.439453 45.8984 0.976562V7.8125H48.8281Z" fill="#8E5935"/>
<path d="M60.7422 13.6719C60.7422 14.209 60.3027 14.6484 59.7656 14.6484H40.2344C39.6973 14.6484 39.2578 14.209 39.2578 13.6719V8.59375C39.2578 8.05664 39.6973 7.61719 40.2344 7.61719H59.7656C60.3027 7.61719 60.7422 8.05664 60.7422 8.59375V13.6719Z" fill="#994334"/>
<path d="M45.1172 13.6719V8.59375C45.1172 8.05664 45.5566 7.61719 46.0938 7.61719H40.2344C39.6973 7.61719 39.2578 8.05664 39.2578 8.59375V13.6719C39.2578 14.209 39.6973 14.6484 40.2344 14.6484H46.0938C45.5566 14.6484 45.1172 14.209 45.1172 13.6719Z" fill="#87352A"/>
<path d="M38.4766 27.3438C38.4766 31.7665 34.8915 35.3516 30.4688 35.3516C26.046 35.3516 22.4609 31.7665 22.4609 27.3438C22.4609 22.921 26.046 19.3359 30.4688 19.3359C34.8915 19.3359 38.4766 22.921 38.4766 27.3438Z" fill="#FFAF10"/>
<path d="M26.1719 27.3438C26.1719 23.5603 28.7964 20.3918 32.3242 19.5541C31.7284 19.413 31.1073 19.3359 30.4688 19.3359C26.046 19.3359 22.4609 22.921 22.4609 27.3438C22.4609 31.7665 26.046 35.3516 30.4688 35.3516C31.1073 35.3516 31.7284 35.2745 32.3242 35.1334C28.7964 34.2957 26.1719 31.1272 26.1719 27.3438Z" fill="#EF9614"/>
<path d="M95.0531 1.94629C93.6234 0.517307 84.4551 7.3685 74.5743 17.2486C70.0615 21.7614 66.182 26.1254 63.4331 29.6715C63.6376 29.6639 63.8413 29.6608 64.0427 29.6608C64.9193 29.6608 65.8112 29.7272 66.7557 29.7982C66.8709 29.8066 66.9792 29.8561 67.0609 29.9378C67.1425 30.0194 67.1921 30.1277 67.2013 30.243C67.2875 31.3958 67.3691 32.4959 67.3241 33.5686C70.871 30.8197 75.2358 26.9387 79.7501 22.4244C89.6309 12.5443 96.4821 3.37528 95.0531 1.94629Z" fill="#FE3745"/>
<path d="M95.0531 1.94629C93.6234 0.517307 84.4551 7.3685 74.5743 17.2486C70.0615 21.7614 66.182 26.1254 63.4331 29.6715C63.6376 29.6639 63.8413 29.6608 64.0427 29.6608C64.7957 29.6608 65.5609 29.7104 66.359 29.7692C69.1117 26.2055 73.0202 21.8033 77.575 17.2486C84.7237 10.0998 91.4986 4.538 95.2408 2.54978C95.2484 2.28427 95.1874 2.08057 95.0531 1.94629Z" fill="#EA2A3D"/>
<path d="M67.199 29.7996C67.3103 29.911 67.3836 30.0613 67.3958 30.2284C67.6598 33.7555 67.8879 36.8011 64.6233 40.0665C61.6676 43.0221 57.5768 44.5373 53.3997 44.2245C53.2326 44.2123 53.0823 44.1391 52.9717 44.0284C52.8603 43.917 52.787 43.7668 52.7748 43.5997C52.462 39.4226 53.9772 35.3317 56.9328 32.3768C60.1982 29.1114 63.2439 29.3396 66.771 29.6035C66.938 29.6157 67.0883 29.689 67.199 29.7996Z" fill="#A5683F"/>
<path d="M58.3199 33.6854C58.4373 33.6945 58.5426 33.7456 58.6212 33.8242C58.6266 33.8288 58.6304 33.8349 58.6349 33.8402C59.0248 33.3283 59.446 32.837 59.9068 32.3762C61.8622 30.4207 63.7398 29.7188 65.6883 29.5266C62.6099 29.3297 59.8595 29.4495 56.9328 32.3762C56.5155 32.7935 56.131 33.2352 55.7724 33.6945C56.6216 33.6274 57.476 33.622 58.3199 33.6854Z" fill="#8E5935"/>
<path d="M52.7748 43.5997C52.787 43.7668 52.8602 43.9164 52.9716 44.0285C53.0822 44.1391 53.2325 44.2124 53.3996 44.2246C56.987 44.4931 60.5095 43.4128 63.3049 41.2308C63.372 40.3801 63.3766 39.5249 63.314 38.6795C63.3049 38.562 63.2538 38.4568 63.1752 38.3782C63.0966 38.2996 62.9913 38.2485 62.8731 38.2393C62.2802 38.1951 61.6768 38.1829 61.0725 38.2035C61.0931 37.6 61.0809 36.9965 61.0367 36.4029C61.0283 36.2854 60.9764 36.1794 60.8986 36.1016C60.82 36.023 60.7139 35.9719 60.5964 35.9627C60.0029 35.9185 59.3994 35.9063 58.7959 35.9269C58.8165 35.3234 58.8043 34.7199 58.76 34.1263C58.7509 34.0088 58.6998 33.9028 58.6212 33.8242C58.5426 33.7456 58.4373 33.6945 58.3191 33.6861C57.4745 33.6228 56.6192 33.6281 55.7686 33.6953C53.5866 36.4899 52.5062 40.0124 52.7748 43.5997Z" fill="#293D7C"/>
<path d="M56.0196 44.0278C55.9082 43.9164 55.8357 43.7668 55.8227 43.599C55.5603 40.0933 56.5895 36.6501 58.6738 33.886C58.6586 33.8639 58.641 33.8433 58.6212 33.8242C58.5426 33.7456 58.4373 33.6945 58.3198 33.6854C57.4745 33.622 56.6192 33.6274 55.7686 33.6945C53.5866 36.4899 52.5062 40.0124 52.7748 43.599C52.787 43.7668 52.8602 43.9164 52.9716 44.0278C53.0822 44.1392 53.2325 44.2116 53.3996 44.2246C54.3434 44.2948 55.2818 44.2696 56.2042 44.1582C56.1355 44.1254 56.073 44.0812 56.0196 44.0278Z" fill="#1A2B63"/>
</svg>
