<svg width="100" height="100" viewBox="0 0 100 100" fill="none" xmlns="http://www.w3.org/2000/svg">
<g clip-path="url(#clip0_201_6227)">
<path d="M48.8892 95.8566C48.4703 95.8566 48.0508 95.8521 47.6308 95.8433C42.7236 95.7461 38.0392 95.0326 33.7109 93.7226C33.6174 93.6945 33.5256 93.6611 33.4355 93.623C33.3562 93.5894 31.4715 92.7873 28.9461 91.3605C28.8906 91.3308 28.8373 91.2996 28.7863 91.2678C26.414 89.7953 24.1666 88.0668 22.107 86.1303C21.2541 85.3392 20.3969 84.4654 19.5726 83.5463C18.7474 82.6336 17.9498 81.6674 17.2088 80.6822C16.0318 79.1287 14.9433 77.4607 13.9795 75.7309C13.9615 75.701 13.9441 75.6713 13.9275 75.641C13.693 75.2164 13.3867 74.6533 13.0957 74.0613C12.4717 72.8224 11.881 71.4803 11.3537 70.0975C10.8517 68.7771 10.4099 67.4043 10.0379 66.0133C9.92772 65.6115 9.82342 65.1902 9.7244 64.7691C9.44764 63.5967 9.22205 62.416 9.05018 61.2426L1.87049 58.817C0.943733 58.5039 0.252912 57.7223 0.056428 56.7642C-0.140642 55.8062 0.186311 54.8158 0.914631 54.1629L9.40623 46.5496C10.4193 41.4525 12.383 36.5393 15.1633 32.1252C12.7453 30.5275 10.8426 28.2643 9.66326 25.5328C8.06444 21.8299 8.0035 17.726 9.49178 13.9775C10.9795 10.2287 13.8385 7.28398 17.5414 5.68515C19.4469 4.86249 21.4588 4.4455 23.5199 4.4455C29.5535 4.4455 34.9976 8.02441 37.3887 13.5633C37.5033 13.8287 37.6103 14.0973 37.7092 14.3687C38.5535 14.0852 39.4082 13.8271 40.2687 13.5965C40.5504 13.4168 40.8334 13.2467 41.1144 13.0883C42.6849 12.2043 44.4781 11.5057 46.5969 10.9518L46.7396 10.9148C48.2851 10.5248 49.8771 10.3287 51.4844 10.3287C54.149 10.3287 56.7904 10.8695 59.1996 11.8857C59.6687 7.53867 63.3601 4.14316 67.8299 4.14316C72.6166 4.14316 76.5111 8.0375 76.5111 12.8242C76.5111 12.8764 76.5107 12.9285 76.5098 12.9807C77.8703 13.7064 78.7863 14.9277 79.1861 16.1379L85.3531 28.9365C87.8652 34.1746 90.6877 39.5221 92.8713 44.5361L94.2179 47.332C94.3814 47.6709 94.4736 48.0396 94.4889 48.4154L94.6849 53.2656L96.9199 52.9963C97.0301 52.983 97.1402 52.9766 97.2494 52.9766C98.1121 52.9766 98.9328 53.3826 99.4553 54.0846C100.045 54.8756 100.165 55.9215 99.7709 56.8256L94.9025 68.0016C94.5117 68.8982 93.6744 69.5201 92.7029 69.6348C92.5951 69.6475 92.4871 69.6537 92.3801 69.6537C92.1084 69.6537 91.8406 69.6135 91.5849 69.5361C91.3629 70.1475 91.1244 70.759 90.8713 71.3639C90.3283 72.6766 89.6898 74.0131 88.9775 75.3277C88.8943 75.4793 88.816 75.6221 88.7346 75.7641C88.6902 75.8486 88.6428 75.9326 88.5945 76.0131C83.4088 84.6561 75.6994 91.4396 65.7949 93.9008C62.0832 94.8232 58.2744 95.2867 54.4695 95.6133C52.5734 95.7748 50.6967 95.8566 48.8892 95.8566Z" fill="white"/>
<path d="M91.3863 54.9098V54.9281C91.3863 55.4324 91.3771 55.9367 91.3588 56.4365C91.3312 57.1287 91.29 57.8164 91.226 58.4994V58.5039C91.0564 60.434 90.7492 62.3274 90.3137 64.1703C90.0615 65.2338 89.7682 66.2791 89.4334 67.3061C89.1033 68.3285 88.732 69.3279 88.324 70.3043C87.7969 71.5787 87.2008 72.8166 86.5498 74.0178C86.4719 74.16 85.1607 76.3787 84.9865 76.6401C84.7572 77.0022 84.5189 77.3553 84.276 77.7035C84.033 78.0567 83.7853 78.4004 83.5287 78.7442C83.4644 78.8313 82.974 79.4731 82.7859 79.7113C82.6484 79.8903 82.5062 80.069 82.3596 80.2432C82.2037 80.4311 82.0523 80.6192 81.892 80.8024C81.6949 81.0408 81.4932 81.2699 81.2869 81.4992C81.0486 81.7697 80.8055 82.0356 80.5625 82.2969C80.315 82.5627 80.0674 82.8195 79.8107 83.0762C79.5906 83.2963 79.3707 83.5162 79.1461 83.7364C79.091 83.7867 79.0406 83.8326 78.9947 83.8785C78.7518 84.1123 78.5043 84.3416 78.2521 84.5662C78 84.8 77.7434 85.0246 77.482 85.2492C77.4728 85.2629 77.4592 85.2721 77.4453 85.2813C76.6475 85.969 75.8225 86.6244 74.9697 87.2434C74.7312 87.4223 74.4883 87.5918 74.2453 87.7613C73.9978 87.9356 73.7457 88.1051 73.4935 88.2748C73.2414 88.4446 72.9893 88.6096 72.7326 88.7699C72.5172 88.9074 72.3018 89.0404 72.0863 89.1688C66.7592 90.8651 60.6344 92.3229 54.2254 92.8731C52.066 93.0565 49.8793 93.1389 47.6787 93.093C43.2822 93.0059 38.8307 92.4008 34.4984 91.0897C34.4984 91.0897 32.7014 90.3287 30.2762 88.9578C30.2625 88.9533 30.2486 88.9442 30.235 88.9348C27.9887 87.5412 25.898 85.9274 23.9818 84.1258C23.1566 83.3602 22.3635 82.5488 21.6117 81.7098C20.8324 80.8479 20.0943 79.9539 19.3975 79.0279C18.265 77.5334 17.2428 75.961 16.3305 74.3151C16.3258 74.3106 16.3258 74.3106 16.3258 74.3106C16.06 73.8293 15.7986 73.3432 15.5557 72.8481C14.9459 71.6377 14.4004 70.3908 13.9145 69.1162C13.4422 67.8738 13.0344 66.6039 12.6857 65.302C12.5803 64.9168 12.484 64.5272 12.3924 64.1375C12.0119 62.5238 11.7277 60.8735 11.558 59.1908C11.4021 57.7926 11.3242 56.3668 11.3242 54.9274C11.3242 52.7039 11.5029 50.5264 11.8561 48.4037C12.9014 41.9992 15.4732 36.1082 19.1773 31.1111C19.4203 30.7811 19.6725 30.451 19.9291 30.1301C23.1291 26.0729 27.1037 22.6529 31.624 20.0856C32.4035 19.6408 33.2057 19.2236 34.0217 18.8295C34.2279 18.7287 34.4389 18.6324 34.6498 18.5359C35.0211 18.3617 35.3971 18.1967 35.773 18.0363C37.584 17.2707 39.459 16.6381 41.3891 16.143C44.5752 15.327 47.9127 14.8914 51.3557 14.8914C54.7344 14.8914 58.0123 15.3086 61.148 16.1018H61.1525C61.8953 16.2852 62.6287 16.4914 63.3576 16.7252C65.008 17.2387 66.6127 17.8621 68.1621 18.5818C68.2629 18.6231 68.3592 18.6734 68.4601 18.7193C69.3266 19.1274 70.1748 19.5674 71.0045 20.0397C71.4721 20.301 71.9396 20.576 72.3935 20.8602C72.4439 20.8877 72.4943 20.9197 72.5449 20.9565C72.8246 21.126 73.1041 21.3049 73.3748 21.4883C73.4252 21.5158 73.4711 21.5479 73.5168 21.5801C74.0027 21.9057 74.4795 22.2356 74.9471 22.5795C75.9053 23.2764 76.8268 24.0145 77.716 24.7985C79.6461 26.4856 81.4111 28.3561 82.9881 30.3869L82.9926 30.3914C85.2971 35.1748 88.0066 40.7971 90.259 45.4695V45.4742C90.4607 46.2902 90.635 47.1154 90.7816 47.9545C91.1801 50.2152 91.3863 52.535 91.3863 54.9098Z" fill="#FFB289"/>
<path d="M38.6753 18.4888C36.1085 21.3222 34.6786 25.158 34.7644 28.9801C34.7894 30.0888 34.9335 31.2226 34.6318 32.29C34.0701 34.2775 32.1283 35.5424 31.1296 37.3504C30.4488 38.5832 30.2357 40.0209 30.1894 41.4283C30.129 43.2625 30.3413 45.1345 31.0792 46.8148C32.3804 49.7783 35.2181 51.8629 38.2829 52.9027C41.3478 53.9425 44.6452 54.0564 47.8808 53.9812C52.5738 53.8724 57.3316 53.3689 61.6828 51.6072C66.0339 49.8455 69.9732 46.6966 71.896 42.4142C73.8189 38.1318 73.3943 32.6771 70.2136 29.2248C69.4193 28.3627 68.472 27.6289 67.8273 26.6498C67.0902 25.5306 66.8078 24.1836 66.3619 22.9199C63.6796 15.3183 54.9663 11.6722 47.4144 13.5789C47.3699 13.5902 47.3251 13.6017 47.2806 13.6133C45.5997 14.0525 43.9722 14.6299 42.4521 15.4855C41.0447 16.2775 39.7603 17.2914 38.6753 18.4888Z" fill="#F7607D"/>
<path d="M88.3225 70.3043C87.7953 71.5787 87.1992 72.8166 86.5482 74.0177C86.4703 74.1599 77.1818 84.4679 77.168 84.4771C76.3703 85.1648 60.6322 92.3234 54.2232 92.8734C52.0639 93.0568 49.8771 93.1392 47.6766 93.0933C43.2801 93.0062 20.8492 78.3845 20.1523 77.4584C20.4641 76.8027 20.335 77.0707 21.1877 75.356C21.6553 74.43 22.1871 73.38 22.7693 72.2478C26.0793 65.8388 31.1131 56.7386 35.4545 51.5857C36.4723 50.3754 37.4533 49.3851 38.3656 48.6976C38.4207 48.6517 38.4758 48.615 38.5262 48.5785C38.6133 48.5142 38.7004 48.45 38.7875 48.3951C38.8012 48.3859 38.815 48.3767 38.8287 48.3675C38.957 48.2851 39.0854 48.2025 39.2184 48.1201C39.2367 48.1062 39.2596 48.0972 39.2779 48.0881C43.4496 45.5529 50.1246 44.0996 55.0988 43.3203C55.649 43.2332 56.1762 43.1552 56.6758 43.0865C56.6758 43.0865 56.6803 43.0865 56.685 43.0865C58.0969 42.8847 59.3027 42.7472 60.1691 42.6556C60.1736 42.6556 60.1736 42.6556 60.1783 42.6556C61.109 42.5593 61.6545 42.5181 61.6545 42.5181C61.6545 42.5181 61.7369 42.5457 61.8883 42.5961C62.0121 42.6373 62.1771 42.6968 62.3881 42.7703C63.658 43.2287 66.4545 44.3015 69.6682 45.9519C70.3604 46.3048 71.0756 46.69 71.7953 47.098C76.1826 49.5828 80.8816 53.0349 83.426 57.3808C85.7322 61.3232 87.291 66.0726 88.3225 70.3043Z" fill="#BD6EEB"/>
<path d="M63.773 37.3237C65.2576 37.1662 66.7437 36.5467 67.6841 35.3873C68.6246 34.228 68.9005 32.4823 68.1197 31.21C67.8252 30.7303 67.3818 30.3258 66.8439 30.16C66.2679 29.9823 65.6412 30.0895 65.0693 30.2795C64.4919 30.4715 63.9421 30.7469 63.4427 31.0944C63.432 33.0432 63.4904 34.8826 63.4794 36.8315C63.4785 37.0145 63.6857 37.1631 63.773 37.3237Z" fill="#FF8C9D"/>
<path d="M64.0775 34.9235C64.0578 34.9235 64.0377 34.9184 64.0197 34.9079C63.965 34.8758 63.9467 34.8055 63.9785 34.751C64.3045 34.1948 64.6076 33.6999 65.014 33.2784C65.3498 32.9297 65.8996 32.4954 66.6098 32.4034C66.6715 32.3932 66.7297 32.4395 66.7383 32.5024C66.7463 32.5653 66.7019 32.6227 66.6392 32.6309C65.9951 32.7141 65.4896 33.1155 65.1789 33.4374C64.7898 33.8407 64.4947 34.3237 64.1766 34.8671C64.1549 34.9032 64.117 34.9235 64.0775 34.9235Z" fill="#512651"/>
<path d="M63.9726 28.359C63.9726 28.359 63.6605 20.4777 58.2763 17.7465C52.8921 15.0152 38.0658 15.9518 36.505 24.4572C34.9443 32.9629 37.4413 43.4193 44.5423 45.7604C51.6433 48.1014 62.0218 45.6043 63.5042 39.5178C64.987 33.4311 63.9726 28.359 63.9726 28.359Z" fill="#FF8C9D"/>
<path d="M54.2888 35.6799C54.3765 36.4182 55.046 36.9455 55.7841 36.8578C56.5224 36.7701 57.0497 36.1006 56.962 35.3623C56.8743 34.624 56.2048 34.0967 55.4665 34.1844C54.7286 34.2721 54.2013 34.9416 54.2888 35.6799Z" fill="#512651"/>
<path d="M41.0447 37.4353C41.1324 38.1736 41.8019 38.7009 42.5402 38.6133C43.2785 38.5256 43.8058 37.856 43.7181 37.1179C43.6304 36.3797 42.9609 35.8523 42.2228 35.94C41.4843 36.0277 40.957 36.6972 41.0447 37.4353Z" fill="#512651"/>
<path d="M48.0506 40.4998C47.5278 40.4998 47.0428 40.1809 46.76 39.8149C46.3135 39.2387 46.1904 38.4252 46.4461 37.7422C46.4686 37.683 46.5334 37.652 46.594 37.6752C46.6531 37.6973 46.683 37.7635 46.6611 37.8227C46.4324 38.4326 46.5426 39.1598 46.941 39.6746C47.2334 40.052 47.7697 40.3727 48.2998 40.2401C48.3629 40.2237 48.4235 40.2621 48.4385 40.3237C48.4541 40.385 48.4166 40.4473 48.3553 40.4627C48.2529 40.4879 48.151 40.4998 48.0506 40.4998Z" fill="#512651"/>
<path d="M49.4899 40.2268C49.4372 40.2268 49.3897 40.1901 49.378 40.1364C49.3319 39.9229 49.4366 39.6907 49.6278 39.5846C49.819 39.4778 50.0716 39.5116 50.2282 39.6635C50.2739 39.7077 50.2747 39.7801 50.2309 39.8256C50.1876 39.8713 50.1149 39.8725 50.0688 39.8284C49.9856 39.7475 49.8401 39.729 49.7393 39.7848C49.636 39.8424 49.5772 39.9727 49.6018 40.0881C49.6153 40.1499 49.5758 40.211 49.5139 40.2243C49.5061 40.2258 49.4981 40.2268 49.4899 40.2268Z" fill="#512651"/>
<path d="M49.9453 41.9783C49.6391 41.9783 49.3328 41.9017 49.066 41.75C49.011 41.7185 48.9916 41.6488 49.0225 41.5937C49.0543 41.5386 49.125 41.5185 49.1787 41.5508C49.6045 41.7926 50.1436 41.815 50.5881 41.6109C51.0323 41.4068 51.3659 40.9814 51.4588 40.5013C51.4705 40.4392 51.5268 40.3986 51.5932 40.4105C51.6555 40.4226 51.6957 40.4828 51.6836 40.5449C51.5766 41.0965 51.194 41.5847 50.6838 41.8193C50.453 41.9258 50.1992 41.9783 49.9453 41.9783Z" fill="#512651"/>
<path d="M39.9364 33.7057C40.1675 33.683 40.3841 33.5867 40.596 33.4918C41.1056 33.2635 41.8388 32.8647 41.6017 32.1817C41.4577 31.7668 41.056 31.6699 40.6573 31.7309C40.1978 31.8012 39.7255 32.0877 39.4366 32.4498C39.0265 32.9639 39.1273 33.785 39.9364 33.7057Z" fill="#F7607D"/>
<path d="M56.8103 31.3504C56.587 31.4143 56.3503 31.4041 56.1183 31.3935C55.5605 31.3682 54.732 31.2664 54.7019 30.5441C54.6835 30.1053 55.0216 29.8678 55.4148 29.7781C55.8679 29.6748 56.4126 29.7682 56.8142 29.9988C57.3845 30.3264 57.5921 31.1271 56.8103 31.3504Z" fill="#F7607D"/>
<path d="M49.6576 28.7043C49.6576 28.7043 49.3065 22.6178 50.1258 19.6914C50.9451 16.7652 51.1793 16.0043 51.1793 16.0043C51.1793 16.0043 32.9195 13.0781 34.9094 31.923L49.6576 28.7043Z" fill="#F7607D"/>
<path d="M51.0039 16.0629L52.8768 28.7043L64.8744 29.8748C64.8744 29.8748 64.6477 20.9881 61.5385 18.5795C57.383 15.3605 51.0039 16.0629 51.0039 16.0629Z" fill="#F7607D"/>
<path d="M61.7715 28.7043L63.7027 32.9179L65.8096 27.5922L61.7715 28.7043Z" fill="#F7607D"/>
<path d="M92.3701 66.9033L85.0527 57.1951L97.2385 55.7275L92.3701 66.9033Z" fill="#7182FF"/>
<path d="M73.6542 13.8838C74.2398 10.6612 72.1021 7.57404 68.8796 6.98841C65.657 6.40279 62.5698 8.54046 61.9842 11.763C61.3986 14.9856 63.5362 18.0728 66.7588 18.6584C69.9814 19.244 73.0685 17.1063 73.6542 13.8838Z" fill="#BD6EEB"/>
<path d="M2.74023 56.2109L11.792 48.0955L14.2891 60.1125L2.74023 56.2109Z" fill="#F7607D"/>
<path d="M15.5769 54.4082C11.1314 53.3896 16.9058 38.2377 19.1271 32.8213C19.6136 31.6289 19.9284 30.9097 19.9284 30.9097L21.4517 31.2795C21.4517 31.2795 21.4464 31.5621 21.4323 32.0662C21.2964 36.2355 20.4165 55.5156 15.5769 54.4082Z" fill="#BD6EEB"/>
<path d="M21.4322 32.066C20.6861 32.3881 19.9145 32.6408 19.127 32.8211C19.6135 31.6287 19.9283 30.9095 19.9283 30.9095L21.4516 31.2793C21.4518 31.2793 21.4465 31.5619 21.4322 32.066Z" fill="#512651"/>
<path d="M35.3204 23.1702C37.3207 16.6502 33.6569 9.74318 27.137 7.74289C20.6171 5.74259 13.7101 9.40653 11.7098 15.9265C9.70948 22.4465 13.3733 29.3536 19.8932 31.3538C26.4131 33.3541 33.3201 29.6902 35.3204 23.1702Z" fill="#7182FF"/>
<path d="M31.4196 27.452C35.785 23.0867 35.785 16.009 31.4196 11.6437C27.0542 7.2783 19.9766 7.2783 15.6112 11.6437C11.2459 16.009 11.2459 23.0867 15.6112 27.452C19.9766 31.8174 27.0542 31.8174 31.4196 27.452Z" fill="#FFE9DC"/>
<path d="M31.2009 19.1701C31.3111 19.5403 31.4615 19.9069 31.7152 20.1979C31.9689 20.4889 32.3398 20.6965 32.7255 20.6805C33.2093 20.6602 33.6269 20.2897 33.8257 19.8481C34.0245 19.4065 34.0408 18.9051 34.012 18.4217C33.9507 17.3866 33.587 15.7422 32.2021 16.093C30.8556 16.4342 30.8865 18.1135 31.2009 19.1701Z" fill="white"/>
<path d="M30.9466 22.1885C30.7246 22.577 30.6252 23.0545 30.7673 23.4787C30.9097 23.9029 31.33 24.2438 31.7763 24.211C32.2367 24.177 32.5943 23.7801 32.7783 23.3567C32.9631 22.9313 33.0146 22.4119 32.7662 22.0201C32.5177 21.6283 31.9029 21.4717 31.5734 21.7983L30.9466 22.1885Z" fill="white"/>
<path d="M74.7617 79.3859L44.5641 84.4197L17.9926 74.1185L16.7594 37.9381L16.709 36.4299C16.709 36.4299 35.9041 41.5781 41.1715 50.5912C41.1715 50.5912 56.2682 39.9416 71.1353 39.9416L71.2959 41.6654L74.7617 79.3859Z" fill="#FFE9DC"/>
<g opacity="0.24">
<g opacity="0.24">
<path opacity="0.24" d="M71.2959 41.6652C61.609 40.0148 41.1121 51.09 41.1121 51.09C38.4492 47.2566 20.6379 39.4922 16.7594 37.9381L16.709 36.4299C16.709 36.4299 35.9041 41.5781 41.1715 50.5912C41.1715 50.5912 56.2682 39.9416 71.1354 39.9416L71.2959 41.6652Z" fill="#FFA9DD"/>
</g>
</g>
<path d="M41.1707 50.6888C41.1662 50.6888 41.1617 50.6884 41.1578 50.6873C41.1426 50.6838 41.1297 50.674 41.1215 50.6609C36.0809 42.1568 16.8857 36.8111 16.6924 36.758C16.6619 36.7498 16.6439 36.7181 16.6525 36.6875C16.6605 36.6572 16.6924 36.6392 16.7229 36.6474C16.7713 36.6607 21.6273 38.0025 27.0455 40.3812C32.0314 42.5701 38.5227 46.108 41.1896 50.5515C42.1992 49.9136 57.9326 40.1177 71.0609 40.1177C71.0865 40.1177 71.1102 40.1177 71.1357 40.1177C71.1676 40.1177 71.193 40.1435 71.193 40.1754C71.193 40.2068 71.1674 40.2324 71.1357 40.2324C71.1107 40.2324 71.0856 40.2324 71.0609 40.2324C57.5934 40.2324 41.3646 50.5752 41.2016 50.6797C41.1922 50.6857 41.1814 50.6888 41.1707 50.6888Z" fill="#FFA9DD"/>
<path d="M41.1709 50.6889C41.1556 50.6889 41.1404 50.6826 41.1293 50.6709C32.9252 41.985 16.7373 37.3498 16.5748 37.3039C16.5443 37.2955 16.5269 37.2639 16.5353 37.2334C16.5439 37.2031 16.5738 37.1846 16.606 37.1938C16.7685 37.2395 32.947 41.8717 41.182 50.56C42.1181 50.0545 59.1947 40.9236 71.2507 40.5274C71.2511 40.5274 71.2521 40.5274 71.2525 40.5274C71.2834 40.5274 71.3089 40.5518 71.3097 40.5828C71.3107 40.6143 71.2859 40.6408 71.2543 40.642C58.9453 41.0467 41.3744 50.5854 41.198 50.6818C41.1898 50.6865 41.1802 50.6889 41.1709 50.6889Z" fill="#FFA9DD"/>
<path d="M41.2302 51.118C41.2142 51.118 41.1984 51.1113 41.1873 51.0984C35.2261 44.3348 17.4674 38.0334 16.7783 37.9926C16.7658 37.9967 16.7519 37.9965 16.7394 37.9914C16.7099 37.9795 16.6955 37.9461 16.7072 37.9168C16.7148 37.8982 16.7359 37.8824 16.7554 37.8789C16.7582 37.8785 16.7613 37.8781 16.7648 37.8781C17.0804 37.8781 21.7254 39.4932 26.8869 41.8539C31.6912 44.0512 38.0744 47.417 41.2441 50.9894C42.2049 50.5111 59.8738 41.7898 71.3084 41.0541C71.342 41.0494 71.367 41.0758 71.3693 41.1076C71.3711 41.139 71.3474 41.1662 71.3156 41.1683C59.641 41.9199 41.4384 51.0197 41.2562 51.1117C41.2478 51.1158 41.2392 51.118 41.2302 51.118Z" fill="#FFA9DD"/>
<path d="M57.5397 65.3824C56.6861 65.5137 55.8 65.1936 55.1406 64.6358C54.4813 64.0779 54.0328 63.3025 53.7502 62.4865C53.3492 61.3283 53.2748 60.0096 53.8 58.9022C54.1307 59.0154 54.4313 59.0385 54.7617 59.1518C55.136 59.2803 55.5129 59.4098 55.8561 59.607C56.799 60.1494 57.3996 61.168 57.6385 62.2293C57.8772 63.2908 57.707 64.3076 57.5397 65.3824Z" fill="#7182FF"/>
<path d="M57.5209 65.6922C57.5039 65.6922 57.4883 65.6818 57.4821 65.6654C56.6641 63.5002 55.6989 61.2357 54.1862 59.3472C54.0649 59.1961 53.943 59.0523 53.7873 58.9547C53.7676 58.9424 53.7618 58.9166 53.7739 58.8971C53.7868 58.8777 53.8127 58.8724 53.8311 58.8838C53.9981 58.9883 54.1252 59.1381 54.2514 59.2949C55.7713 61.1928 56.7397 63.4638 57.56 65.6357C57.568 65.6572 57.5573 65.6814 57.5358 65.6894C57.5307 65.6914 57.5258 65.6922 57.5209 65.6922Z" fill="#512651"/>
<path d="M66.872 71.1398C66.8053 71.3423 66.7384 71.5418 66.6675 71.7382C65.9378 73.7419 64.6788 75.5564 62.9565 76.8349C62.6171 77.0867 62.2612 77.3136 61.8839 77.5027C59.9159 78.4914 57.6153 78.7707 55.4649 78.3035C53.6419 77.9084 52.5011 76.3849 51.4505 74.9714C51.1028 74.5023 50.7729 74.0142 50.478 73.5086C49.8659 72.4796 49.3725 71.3763 49.0573 70.2183C48.7132 68.9564 48.6542 67.5798 49.138 66.3642C50.3788 63.2625 55.3753 62.8384 57.4139 65.3669C58.13 64.3822 59.1932 63.6351 59.4178 63.491C60.2509 62.9558 61.195 62.5921 62.1788 62.4789C64.103 62.2543 65.9407 63.1412 66.818 64.9076C67.7622 66.807 67.5018 69.1447 66.872 71.1398Z" fill="#F7607D"/>
<path d="M53.3591 56.6881C53.5767 56.6676 53.7565 56.817 53.7767 57.0342L53.8265 57.5639C53.8452 57.7641 53.706 57.9609 53.48 57.982L50.5181 58.2502C50.2226 58.2779 49.9581 58.0746 49.9298 57.7707L49.881 57.2496C49.8411 56.8238 50.1003 56.502 50.1003 56.502C50.1003 56.502 51.8995 54.0996 51.9687 53.9971C52.0296 53.8949 52.0519 53.7615 52.0399 53.6313C52.0022 53.2314 51.7001 53.0932 51.3267 53.1279C51.2747 53.1328 51.2314 53.1369 51.1804 53.1504C50.931 53.2 50.6794 53.3201 50.4247 53.5018C50.4247 53.5018 50.2022 53.6535 50.106 53.7502L49.9179 53.5139C49.8784 53.4736 49.3868 52.7139 50.2702 52.1318C50.4261 52.0209 50.8657 51.8484 51.2915 51.8086C52.429 51.702 53.2819 52.2971 53.3917 53.4695C53.4298 53.8777 53.3505 54.2441 53.1782 54.5584C53.004 54.8547 51.4661 56.865 51.4661 56.865L53.3591 56.6881Z" fill="#512651"/>
<path d="M56.981 54.5007L58.6488 54.3449C58.7531 54.3349 58.8386 54.4058 58.8484 54.5101L58.8955 55.0142C58.9052 55.1181 58.8345 55.2035 58.7302 55.2134L57.0627 55.3693L57.2203 57.0541C57.2296 57.1584 57.1593 57.2439 57.055 57.2537L56.5509 57.3007C56.4466 57.3105 56.3615 57.2398 56.3517 57.1355L56.1941 55.4503L54.5093 55.608C54.405 55.6177 54.3191 55.5466 54.3097 55.4427L54.2627 54.939C54.2527 54.8347 54.3236 54.7492 54.4279 54.7394L56.113 54.5818L55.9572 52.9142C55.9472 52.8103 56.0181 52.7248 56.1224 52.715L56.6261 52.6679C56.7304 52.658 56.8154 52.7289 56.8253 52.8332L56.981 54.5007Z" fill="#512651"/>
<path d="M63.2831 55.7605C63.5003 55.74 63.6808 55.8894 63.7009 56.1066L63.7505 56.6361C63.7688 56.8363 63.6296 57.0332 63.404 57.0543L60.4415 57.3224C60.146 57.3502 59.8819 57.1471 59.8532 56.8429L59.805 56.3219C59.7651 55.8961 60.0239 55.5742 60.0239 55.5742C60.0239 55.5742 61.8231 53.1719 61.8927 53.0693C61.953 52.9672 61.9759 52.8338 61.9634 52.7035C61.9263 52.3037 61.6239 52.1654 61.2501 52.2004C61.1981 52.2053 61.1548 52.2094 61.1038 52.2228C60.8544 52.2724 60.6028 52.3926 60.3481 52.5738C60.3481 52.5738 60.1257 52.726 60.0298 52.8228L59.8409 52.5865C59.8024 52.5463 59.3108 51.7861 60.1936 51.2045C60.3499 51.0933 60.7895 50.9211 61.2149 50.8812C62.353 50.7746 63.2054 51.3697 63.3151 52.5422C63.3532 52.9504 63.2739 53.3166 63.1017 53.631C62.928 53.9273 61.3901 55.9375 61.3901 55.9375L63.2831 55.7605Z" fill="#512651"/>
<path d="M44.5649 84.4771C44.5358 84.4771 44.5108 84.4553 44.5081 84.4256L41.1136 50.7154C41.1104 50.684 41.1333 50.6557 41.1645 50.6525C41.2017 50.6492 41.2241 50.6725 41.2272 50.7039L44.6218 84.4141C44.6249 84.4455 44.602 84.4738 44.5708 84.477C44.5685 84.4771 44.5667 84.4771 44.5649 84.4771Z" fill="#FFA9DD"/>
<path d="M86.3105 74.4439C86.2785 74.5082 86.2418 74.5723 86.2051 74.6318C86.0445 74.9207 85.8795 75.2004 85.71 75.4799C85.6412 75.6037 85.5678 75.7228 85.4898 75.842C85.3293 76.1125 85.1598 76.3785 84.9855 76.6396C84.7563 77.0017 84.518 77.3549 84.275 77.7031C84.032 78.0562 83.7844 78.4 83.5277 78.7437C83.4635 78.8309 83.4039 78.9133 83.3398 78.9912C83.1564 79.2342 82.973 79.4726 82.7852 79.7109C82.6477 79.8898 82.5055 80.0685 82.3588 80.2428C82.2029 80.4307 82.0516 80.6187 81.8912 80.8019C81.6941 81.0404 81.4924 81.2695 81.2861 81.4988C81.0478 81.7693 80.8047 82.0351 80.5617 82.2965C80.3143 82.5623 80.0666 82.8191 79.81 83.0758C79.5898 83.2959 79.3699 83.5158 79.1453 83.7359C79.0902 83.7863 79.0398 83.8322 78.9939 83.8781C78.751 84.1119 77.7424 85.0242 77.4811 85.2488C77.4719 85.2625 77.4582 85.2717 77.4443 85.2808C77.2471 84.6986 77.0135 84.0248 76.7611 83.3096C76.0551 81.3062 75.2162 79.0002 74.5973 77.5699C74.3451 76.9924 74.1342 76.5566 73.983 76.3412C73.3779 75.4793 68.8072 74.5531 65.7266 73.7281C64.0715 73.2881 62.8475 72.8754 62.9025 72.5178C63.008 71.8439 65.2451 71.6193 66.7352 71.5459C67.4916 71.5047 68.0555 71.5047 68.0555 71.5047C68.0555 71.5047 67.5375 71.4726 66.7811 71.4084C64.8281 71.2389 61.3027 70.8307 61.1881 70.1017C61.0553 69.2262 66.0201 68.7539 67.3953 68.6439C67.6154 68.6256 67.7437 68.6164 67.7437 68.6164L67.8996 67.915C67.8996 67.915 67.7301 67.9058 67.4365 67.8783C65.8273 67.7545 60.5645 67.2549 60.5645 66.2004C60.5645 65.2469 64.8463 65.1139 66.9047 65.1047C67.5512 65.0955 67.9775 65.1047 67.9775 65.1047C67.9775 65.1047 67.5145 65.0404 66.8268 64.9258C64.7639 64.5865 60.6607 63.798 60.7203 62.9224C60.725 62.8904 60.7295 62.8584 60.7432 62.8262C61.1145 61.7535 66.4967 61.8221 69.3803 61.593C70.4484 61.5103 71.7459 61.6066 73.1625 61.9551C75.6885 62.5785 78.5904 63.9951 81.2402 66.5898C82.9914 68.3045 84.7152 71.2432 86.1182 74.058C86.1822 74.1873 86.2463 74.3156 86.3105 74.4439Z" fill="#FF8C9D"/>
<path d="M47.677 93.0934C43.2805 93.0063 38.8289 92.4012 34.4967 91.0901C34.4967 91.0901 32.6996 90.3291 30.2744 88.9582C30.2607 88.9537 30.2469 88.9446 30.2332 88.9352C27.9869 87.5416 25.8963 85.9278 23.9801 84.1262C23.1549 83.3606 22.3617 82.5492 21.61 81.7102C20.8307 80.8483 20.0926 79.9543 19.3957 79.0283C18.2633 77.5338 17.241 75.9614 16.3287 74.3155C16.324 74.311 16.324 74.311 16.324 74.311C16.0582 73.8297 15.7969 73.3436 15.5539 72.8485C14.9441 71.6381 14.3986 70.3912 13.9127 69.1166C13.4404 67.8742 13.0326 66.6043 12.684 65.3024C12.5785 64.9172 12.4822 64.5276 12.3906 64.1379C13.4635 63.8446 14.6188 63.8078 15.6961 64.0645C16.393 64.2295 17.0576 64.4953 17.6766 64.844C19.4828 65.8479 20.9223 67.5489 21.8117 69.4375C22.2334 70.336 22.5453 71.2805 22.7699 72.2477C23.0725 73.5268 23.2283 74.8471 23.2881 76.1719C23.3109 76.6715 23.3248 77.1668 23.3248 77.6619C23.6504 77.2906 24.008 76.933 24.393 76.5983C25.9426 75.2643 27.9322 74.3198 29.9127 74.2922C32.393 74.2602 34.9098 75.5485 36.1201 77.7076C36.7756 78.8721 37.0324 80.1969 37.1287 81.5358C37.1654 82.0172 37.1744 82.5031 37.1791 82.9799C37.1883 84.3231 37.1287 85.6619 36.9957 86.9959C38.5545 86.1983 40.4432 85.9553 42.1762 86.1936C43.9092 86.4321 45.5732 87.3625 46.5314 88.8297C47.3422 90.0815 47.5899 91.5899 47.677 93.0934Z" fill="#7182FF"/>
<path d="M86.5475 74.0176C86.4695 74.1598 86.3916 74.3018 86.309 74.4439C84.0205 78.5402 80.999 82.2238 77.4428 85.2816C76.6449 85.9693 75.8199 86.6248 74.9672 87.2437C74.2389 87.7781 73.4926 88.2871 72.7301 88.7705C72.7279 88.7719 72.7258 88.7732 72.7236 88.7746C72.3152 89.0352 71.8729 89.2375 71.4102 89.3811C66.243 90.9861 60.3633 92.3465 54.2227 92.8734C54.9012 91.3881 55.9877 90.0906 57.3492 89.192C59.3848 87.8441 61.9932 87.3996 64.3588 88.0047C64.4414 85.7033 65.1703 83.709 66.5502 81.8707C66.9031 81.3984 67.2975 80.9539 67.733 80.5596C68.2098 80.1148 68.7371 79.7389 69.3191 79.4502C70.424 78.9002 71.7305 78.6938 72.918 79.0377C73.2984 79.1477 73.6607 79.3127 73.9908 79.5145C75.334 80.3352 76.2602 81.8342 76.7414 83.3699C76.7424 83.3699 76.7414 83.3699 76.7424 83.3699C77.4523 80.9104 78.5559 78.7816 80.3676 76.9746C81.9125 75.425 83.9572 74.3156 86.1164 74.059C86.2631 74.0404 86.4053 74.0268 86.5475 74.0176Z" fill="#FFB289"/>
<path d="M68.7119 21.2297C68.7119 21.2297 66.29 18.2615 70.7445 15.9527C75.6502 13.4102 76.6049 17.1387 76.6049 17.1387L73.1953 19.8229L68.7119 21.2297Z" fill="#FFA9DD"/>
<path d="M78.3705 20.8053L91.5828 48.2211L91.7299 48.5268L88.7812 52.4653L83.9281 51.875L83.8434 51.7006L70.5215 24.8735L73.7498 21.5395L78.3705 20.8053Z" fill="#F7607D"/>
<path d="M84.4273 49.5985C84.4017 49.5985 84.3771 49.5838 84.3656 49.559L72.0732 23.634C72.0566 23.5998 72.0715 23.559 72.1054 23.5426C72.1408 23.5266 72.1806 23.541 72.1969 23.5752L84.4894 49.5002C84.506 49.5344 84.4912 49.5752 84.4572 49.5914C84.4471 49.5961 84.4373 49.5985 84.4273 49.5985Z" fill="#512651"/>
<path d="M88.712 47.3774C88.6864 47.3774 88.6624 47.3629 88.6503 47.3389L76.0929 21.6383C76.0763 21.6041 76.0905 21.5631 76.1247 21.5465C76.1579 21.5299 76.1999 21.5438 76.2165 21.5777L88.7739 47.2783C88.7905 47.3125 88.7763 47.3535 88.7421 47.3701C88.7327 47.3752 88.7224 47.3774 88.712 47.3774Z" fill="#512651"/>
<path d="M91.5832 48.2211L91.7303 48.5268L91.9971 55.1389L92.1676 59.36L89.0328 56.5117L83.9285 51.875L83.8438 51.7006L84.4277 49.5297L88.1887 50.7102L88.7695 47.2793L91.5832 48.2211Z" fill="#FFA9DD"/>
<path d="M91.9977 55.1389L92.1682 59.36L89.0332 56.5117C89.415 55.6592 90.1971 54.9947 90.9584 54.907C91.2121 54.8777 91.4838 54.8937 91.7404 54.9994C91.8314 55.0342 91.9189 55.0844 91.9977 55.1389Z" fill="#512651"/>
<path d="M76.6041 17.1387L77.1982 18.3715L77.1316 18.5021L77.2635 18.5082L77.6342 19.2775L77.5402 19.4232L77.6994 19.4143L78.3701 20.8053L70.5211 24.8734L69.8328 23.4916L69.8967 23.3898L69.7676 23.3549L69.3881 22.59L69.4488 22.4895L69.3186 22.4557L68.7109 21.2297L76.6041 17.1387Z" fill="#7182FF"/>
<path d="M77.198 18.3715L77.2633 18.5082L69.3879 22.59L69.3184 22.4556L77.198 18.3715Z" fill="#FFE9DC"/>
<path d="M77.6342 19.2775L77.6994 19.4142L69.8328 23.4916L69.7676 23.3549L77.6342 19.2775Z" fill="#FFE9DC"/>
<path d="M77.7313 45.5297L78.3166 41.199L79.7602 45.2567L83.974 44.7627L80.6992 47.1184L81.6184 50.9102L78.8031 48.21L76.6775 51.7147L77.0797 47.5779L73.5176 46.6586L77.7313 45.5297Z" fill="#FFE9DC"/>
<path d="M29.3504 79.7082L29.9357 75.3774L31.3793 79.4352L35.5932 78.9412L32.3184 81.2969L33.2375 85.0887L30.4223 82.3885L28.2967 85.893L28.6988 81.7565L25.1367 80.8371L29.3504 79.7082Z" fill="#FFE9DC"/>
</g>
<defs>
<clipPath id="clip0_201_6227">
<rect width="100" height="100" fill="white"/>
</clipPath>
</defs>
</svg>
