<svg width="97" height="106" viewBox="0 0 97 106" fill="none" xmlns="http://www.w3.org/2000/svg">
<path d="M85.9895 0.89246H70.4214C65.6743 0.89246 61.6484 4.03984 60.3206 8.35719L55.2309 7.04622C54.8794 6.95564 54.523 6.88637 54.1646 6.83863C53.8949 5.86724 53.258 5.04853 52.4124 4.54193C52.4466 3.27482 51.9034 2.03353 50.8674 1.17752C50.1167 0.561901 49.1681 0.223145 48.1967 0.223145C47.3565 0.223145 46.5433 0.471115 45.8615 0.930168C45.4834 1.18224 45.044 1.32876 44.5895 1.35438C43.4642 1.41832 42.4327 1.91693 41.6831 2.75818C40.9517 3.57935 40.5756 4.63189 40.6187 5.71641C39.2724 6.43101 37.782 6.86588 36.3027 6.94171C35.1768 6.99991 34.1423 7.49298 33.3882 8.33034C33.0023 8.75906 32.7156 9.25214 32.534 9.77882C31.7921 10.4873 31.3278 11.4837 31.3278 12.5903V23.7561L22.1539 21.0522C21.7893 20.9449 21.4194 20.8932 21.054 20.8932C19.6635 20.8932 18.3413 21.6423 17.6443 22.9108L3.94015 47.8581C3.37658 48.8842 3.30506 50.1097 3.74526 51.1948C4.18607 52.2795 5.09147 53.1083 6.21103 53.4511L20.6462 57.8703L20.2726 58.5816C18.7225 58.0134 17.0742 57.715 15.407 57.715C7.60212 57.715 1.25244 64.0645 1.25244 71.8694C1.25244 76.5572 3.61308 80.8742 7.32669 83.476C6.64467 85.4813 6.68074 87.6782 7.45764 89.681C8.40629 92.1265 10.3646 94.0412 12.8316 94.9341L39.551 104.606C40.5463 104.967 41.5853 105.149 42.6403 105.149C46.0433 105.149 49.1306 103.273 50.6979 100.253L57.0696 87.975C57.4989 88.1383 57.9629 88.2315 58.4496 88.2315H76.881C79.0295 88.2315 80.7714 86.4896 80.7714 84.3411V79.8159C80.7714 79.1341 80.5948 78.4939 80.2866 77.9364C84.7545 74.877 87.6929 69.7395 87.6929 63.9276C87.6929 63.0392 87.6213 62.152 87.4789 61.2712C90.4753 58.6148 92.2496 54.7719 92.2496 50.6794C92.2496 44.6978 88.52 39.5707 83.2638 37.5021L88.6436 27.1353C89.0286 26.3939 89.3059 25.6131 89.4731 24.813C93.5927 23.3707 96.5542 19.4441 96.5542 14.8388V11.4568C96.554 5.63156 91.8149 0.89246 85.9895 0.89246Z" fill="white"/>
<path d="M22.5439 79.2483C26.5707 75.2216 26.5707 68.693 22.544 64.6663C18.5174 60.6396 11.9888 60.6397 7.96199 64.6664C3.93523 68.6932 3.93517 75.2218 7.96185 79.2485C11.9885 83.2751 18.5171 83.2751 22.5439 79.2483Z" fill="#FF899A"/>
<path d="M82.1778 60.1963C87.439 58.0169 89.9374 51.9851 87.7581 46.7238C85.5788 41.4626 79.5469 38.9642 74.2857 41.1435C69.0244 43.3228 66.526 49.3546 68.7053 54.6159C70.8847 59.8772 76.9165 62.3756 82.1778 60.1963Z" fill="#FFD0C4"/>
<path d="M74.5864 76.3983C81.4456 74.3213 85.3225 67.0772 83.2456 60.2179C81.1687 53.3587 73.9245 49.4819 67.0652 51.5588C60.206 53.6357 56.3292 60.8798 58.4061 67.7391C60.483 74.5983 67.7272 78.4752 74.5864 76.3983Z" fill="#FFF5EE"/>
<path d="M70.824 77.1177C63.5792 77.1177 57.6851 71.2238 57.6851 63.9792C57.6851 56.7344 63.5792 50.8405 70.824 50.8405C78.0684 50.8405 83.9625 56.7344 83.9625 63.9792C83.9625 71.2238 78.0684 77.1177 70.824 77.1177ZM70.824 51.1649C63.7583 51.1649 58.0099 56.9135 58.0099 63.9794C58.0099 71.0451 63.7585 76.7937 70.824 76.7937C77.8897 76.7937 83.6377 71.0451 83.6377 63.9794C83.6377 56.9133 77.8897 51.1649 70.824 51.1649Z" fill="#8F8FEF"/>
<path d="M78.3118 64.4424H70.5385C70.4487 64.4424 70.376 64.3698 70.376 64.2803V58.5878C70.376 58.4983 70.4487 58.4257 70.5385 58.4257C70.628 58.4257 70.7008 58.4983 70.7008 58.5878V64.1182H78.3118C78.4014 64.1182 78.4742 64.1907 78.4742 64.2803C78.4742 64.3698 78.4014 64.4424 78.3118 64.4424Z" fill="#8F8FEF"/>
<path d="M11.1563 84.1312L48.3713 13.2453C49.4952 11.1046 51.9439 10.0182 54.2853 10.6213L82.0326 17.7701C85.2771 18.606 86.901 22.2428 85.3576 25.2165L47.2378 98.6705C46.0336 100.991 43.2969 102.06 40.8388 101.17L13.9965 91.4533C11.026 90.378 9.68794 86.9282 11.1563 84.1312Z" fill="#401A49"/>
<path d="M52.2745 12.1104L80.9798 18.9937C82.207 19.288 82.8375 20.651 82.2676 21.7767L44.4144 96.5328C43.9701 97.4105 42.9424 97.8208 42.0157 97.4911L13.9831 87.5108C12.8666 87.1134 12.3582 85.8217 12.9039 84.77L50.0841 13.1106C50.4977 12.3135 51.4012 11.9009 52.2745 12.1104Z" fill="#FFF5EE"/>
<path d="M56.7201 11.8647L55.5495 14.295C55.0196 15.3953 55.6176 16.7069 56.7959 17.0284L71.3733 21.0041C72.2287 21.2374 73.1339 20.8656 73.5784 20.0983L75.4576 16.854L56.7201 11.8647Z" fill="#401A49"/>
<path d="M78.0852 37.0224C77.9798 37.0224 77.8733 36.9998 77.7722 36.9517L77.2845 36.7197C76.9195 36.5467 76.7636 36.1096 76.9359 35.745L79.8933 29.4773C80.0562 29.1339 80.4614 28.9687 80.8172 29.1052L81.3408 29.3048C81.5313 29.3773 81.684 29.5271 81.7601 29.7159C81.8361 29.905 81.8291 30.1194 81.7416 30.3038L78.7483 36.6039C78.6229 36.8679 78.3594 37.0224 78.0852 37.0224ZM80.0411 29.547L77.0837 35.8147C76.949 36.0983 77.0705 36.4383 77.3542 36.5728L77.8419 36.8047C78.127 36.9402 78.4666 36.8181 78.6018 36.5342L81.5951 30.2344C81.6641 30.0888 81.6689 29.9263 81.6086 29.7769C81.5488 29.628 81.4332 29.5144 81.2832 29.457L80.7596 29.2574C80.4848 29.1535 80.1671 29.2792 80.0411 29.547Z" fill="#FFF5EE"/>
<path d="M7.15967 49.7176L20.9259 24.6558L59.048 35.8924L45.3994 61.4247L7.15967 49.7176Z" fill="#FFA766"/>
<path d="M43.3252 45.412C41.8689 49.9872 37.5838 53.3057 32.519 53.3057C26.2493 53.3057 21.165 48.2214 21.165 41.9517C21.165 35.6819 26.2493 30.5977 32.519 30.5977C33.7884 30.5977 35.0129 30.8039 36.1533 31.1906L31.8038 41.1268L43.3252 45.412Z" fill="#8F8FEF"/>
<path d="M33.3398 40.5809L37.5078 32.0257C37.5078 32.0257 41.895 33.0129 43.321 36.6322C44.7469 40.2515 43.2113 44.0906 43.2113 44.0906L33.3398 40.5809Z" fill="#FFD0C4"/>
<path d="M59.9907 42.715L62.4854 37.7257L68.0567 39.472L65.8115 44.5445L59.9907 42.715Z" fill="#FFD0C4"/>
<path d="M56.5532 50.1158L59.0479 45.1265L64.6192 46.8727L62.3742 51.9452L56.5532 50.1158Z" fill="#FFD0C4"/>
<path d="M52.6313 57.8906L55.126 52.9015L60.6974 54.6477L58.4521 59.7201L52.6313 57.8906Z" fill="#FFD0C4"/>
<path d="M63.039 42.6685C63.0107 42.6685 62.983 42.6628 62.9564 42.6509C62.8939 42.6231 62.8494 42.5655 62.8385 42.4978L62.5621 40.7713C62.5447 40.6608 62.6197 40.5567 62.7305 40.5389C62.8467 40.5233 62.9451 40.5973 62.9629 40.7073L63.19 42.1271L66.7267 39.8437C66.8202 39.7839 66.9462 39.8093 67.0075 39.9044C67.0684 39.9985 67.0411 40.1241 66.9473 40.185L63.149 42.6366C63.1156 42.6577 63.0775 42.6685 63.039 42.6685Z" fill="#401A49"/>
<path d="M59.5605 50.0039C59.5338 50.0039 59.5066 49.9984 59.4818 49.9873C59.4219 49.9607 59.3801 49.9058 59.3699 49.8412L59.1069 48.1972C59.0901 48.0919 59.1619 47.9929 59.2672 47.9759C59.3758 47.9575 59.4715 48.031 59.4883 48.1364L59.7045 49.4879L63.0736 47.3134C63.1632 47.2558 63.2827 47.2808 63.3409 47.371C63.3985 47.4605 63.373 47.5804 63.2833 47.6382L59.6654 49.973C59.6336 49.9935 59.5967 50.0039 59.5605 50.0039Z" fill="#401A49"/>
<path d="M55.2902 58.0425C55.2636 58.0425 55.2369 58.0369 55.2119 58.0259C55.1517 57.9992 55.1093 57.9441 55.099 57.8793L54.8377 56.22C54.8215 56.1143 54.8931 56.0155 54.999 55.9989C55.1023 55.9821 55.2033 56.0542 55.2201 56.1595L55.4347 57.5228L58.7755 55.3312C58.8647 55.2728 58.9842 55.2978 59.0434 55.3865C59.102 55.4759 59.077 55.596 58.9875 55.6544L55.3962 58.0105C55.364 58.032 55.3271 58.0425 55.2902 58.0425Z" fill="#401A49"/>
<path d="M39.1289 12.4063H35.1553V26.1674H39.1289V12.4063Z" fill="#F05D6A"/>
<path d="M44.7061 9.99792H40.7324V26.1672H44.7061V9.99792Z" fill="#FFA766"/>
<path d="M50.4229 7.67578H46.4492V26.1672H50.4229V7.67578Z" fill="#FF899A"/>
<path d="M36.4627 11.2825C36.2909 11.2825 36.1483 11.148 36.1391 10.9751C36.1303 10.7964 36.2678 10.6443 36.4465 10.6351C40.7204 10.4166 44.9183 8.1152 47.401 4.62845C47.5047 4.48335 47.7062 4.4479 47.8529 4.55262C47.9984 4.65632 48.0326 4.85838 47.9289 5.0043C45.3339 8.64823 40.9464 11.0535 36.4791 11.2818C36.4735 11.282 36.4682 11.2825 36.4627 11.2825Z" fill="#401A49"/>
<path d="M47.6184 7.60816C47.4485 7.60816 47.3055 7.47496 47.2958 7.30281C47.2518 6.54702 47.354 5.74162 47.5934 4.93521C46.7341 5.36209 45.7929 5.61252 44.8295 5.66744C44.6481 5.67154 44.4981 5.5412 44.4878 5.3625C44.4776 5.18379 44.6139 5.03091 44.7926 5.02067C45.9429 4.9555 47.0569 4.58354 48.0143 3.94538C48.1334 3.86586 48.2902 3.87365 48.4 3.96484C48.5103 4.05563 48.5482 4.20769 48.4929 4.33926C48.0789 5.33073 47.8889 6.3427 47.942 7.26551C47.9525 7.44401 47.816 7.5971 47.6379 7.60776C47.6313 7.60776 47.6248 7.60816 47.6184 7.60816Z" fill="#401A49"/>
<path d="M86.1596 4.56305H70.5201C66.8173 4.56305 63.8154 7.56472 63.8154 11.2675V14.6651C63.8154 18.3678 66.8171 21.3695 70.5201 21.3695H74.6067L73.7232 27.3868L77.9336 21.3695H86.1596C89.8624 21.3695 92.864 18.3678 92.864 14.6651V11.2675C92.8642 7.56472 89.8626 4.56305 86.1596 4.56305Z" fill="#8F8FEF"/>
<path d="M82.9574 12.6764V17.2702H73.7661V12.6764C73.7661 10.1377 75.8249 8.07874 78.3638 8.07874C79.6332 8.07874 80.7788 8.59353 81.6108 9.42556C82.4428 10.2576 82.9574 11.4071 82.9574 12.6764Z" fill="#FFD2A7"/>
<path d="M73.7659 17.0843C73.8046 17.0843 73.847 17.0804 73.9013 17.0843L73.7659 17.0882L73.6421 17.096C73.6421 17.0921 73.6847 17.0882 73.7659 17.0843Z" fill="#401A49"/>
<path d="M83.6483 17.8126H72.6804C72.4894 17.8126 72.3345 17.6577 72.3345 17.4667C72.3345 17.2757 72.4892 17.1208 72.5542 17.1007H83.522C83.8393 17.1208 83.9942 17.2757 83.9942 17.4667C83.9942 17.6579 83.8393 17.8126 83.6483 17.8126Z" fill="#FFD2A7"/>
<path d="M79.4984 18.3068C79.4984 18.907 79.0119 19.3937 78.4117 19.3937C77.8114 19.3937 77.3247 18.907 77.3247 18.3068C77.3247 17.7065 77.8112 17.2198 78.4117 17.2198C79.0117 17.2198 79.4984 17.7065 79.4984 18.3068Z" fill="#FFD2A7"/>
<path d="M78.7818 8.648H77.8184V7.40056C77.8184 7.13456 78.034 6.91876 78.3002 6.91876C78.5662 6.91876 78.7818 7.13435 78.7818 7.40056V8.648Z" fill="#FFD2A7"/>
<path d="M82.9829 17.1647H73.766C73.7242 17.1647 73.6899 17.1305 73.6899 17.0884C73.6899 17.0464 73.7242 17.0122 73.766 17.0122H82.9829C83.0247 17.0122 83.0589 17.0464 83.0589 17.0884C83.0589 17.1305 83.0247 17.1647 82.9829 17.1647Z" fill="#401A49"/>
<path d="M60.4987 80.0236H54.9458V85.5765H60.4987V80.0236Z" fill="#FFA766"/>
<path d="M69.3024 80.0236H63.7495V85.5765H69.3024V80.0236Z" fill="#FF899A"/>
<path d="M77.5641 80.0236H72.0112V85.5765H77.5641V80.0236Z" fill="#FFD2A7"/>
<path d="M25.3185 69.1792L25.6366 68.5431C26.328 67.1602 27.9214 66.4839 29.3965 66.9471L41.7065 70.8125C43.5882 71.4036 44.4698 73.5591 43.5413 75.2994L41.7774 78.6052L27.1117 73.5656C25.3105 72.9467 24.4668 70.8828 25.3185 69.1792Z" fill="#8F8FEF"/>
<path d="M32.1149 71.6311C31.9692 72.1471 31.4349 72.4477 30.9214 72.3029C30.4078 72.158 30.1096 71.6221 30.2551 71.1062C30.4008 70.5902 30.9351 70.2896 31.4487 70.4345C31.9624 70.5794 32.2606 71.1153 32.1149 71.6311Z" fill="#FFF5EE"/>
<path d="M34.9045 72.4186C34.7587 72.9347 34.2245 73.2353 33.7109 73.0904C33.1974 72.9455 32.8992 72.4096 33.0447 71.8936C33.1902 71.3776 33.7246 71.0769 34.2382 71.2218C34.752 71.3669 35.0502 71.9026 34.9045 72.4186Z" fill="#FFF5EE"/>
<path d="M37.6393 73.1907C37.4938 73.7067 36.9593 74.0073 36.4458 73.8624C35.9322 73.7175 35.634 73.1816 35.7795 72.6658C35.9252 72.1498 36.4595 71.8491 36.9731 71.994C37.4868 72.1389 37.785 72.6746 37.6393 73.1907Z" fill="#FFF5EE"/>
<path d="M44.0551 84.845L44.2072 84.1505C44.5378 82.6401 43.7229 81.113 42.2841 80.5467L30.2776 75.8222C28.4422 75.1 26.4023 76.2234 26.0316 78.1607L25.3276 81.8409L39.9046 87.1315C41.6949 87.7813 43.6479 86.7054 44.0551 84.845Z" fill="#F05D6A"/>
<path d="M36.6514 82.1761C36.477 82.6831 36.7447 83.2348 37.2492 83.4084C37.7538 83.582 38.3042 83.3117 38.4786 82.8048C38.653 82.2978 38.3854 81.7462 37.8808 81.5726C37.3763 81.3988 36.8258 81.6691 36.6514 82.1761Z" fill="#FFF5EE"/>
<path d="M33.9102 81.233C33.7358 81.74 34.0035 82.2917 34.508 82.4653C35.0126 82.6389 35.563 82.3686 35.7374 81.8618C35.9118 81.3548 35.6442 80.8031 35.1396 80.6295C34.6351 80.4559 34.0848 80.726 33.9102 81.233Z" fill="#FFF5EE"/>
<path d="M31.2232 80.3086C31.0488 80.8156 31.3165 81.3673 31.821 81.5409C32.3256 81.7145 32.876 81.4441 33.0504 80.9373C33.2248 80.4303 32.9572 79.8786 32.4526 79.7051C31.9481 79.5315 31.3976 79.8016 31.2232 80.3086Z" fill="#FFF5EE"/>
</svg>
