<svg width="1920" height="138" viewBox="0 0 1920 138" fill="none" xmlns="http://www.w3.org/2000/svg">
<path d="M1892.5 69.5739C1906.5 72.7739 1916.33 83.5739 1919.5 88.5739V137.573H0V24.5725C40.5 0.57251 71.5 37.5725 75 62.5725C100.6 32.5725 130 51.0725 141.5 64.0725C203 0.57251 261.5 45.5725 280 84.5725C298.4 60.9725 316.667 74.7392 323.5 84.5725C331 66.0725 361 61.0725 372 84.5725C386.4 46.5725 414.333 51.4058 426.5 58.5725C443.5 -26.9275 555 -9.92754 558 60.5725C582 49.5725 602 53.5725 619.5 71.5725C660.7 37.5725 696.667 60.4058 709.5 76.0725C731 51.0725 778 42.0725 808.5 76.0725C849.3 56.4725 867.833 80.5725 872 95.0725C892 59.5725 925.5 71.0725 937 76.0725C981.8 35.2725 1022.33 59.0725 1037 76.0725C1061.5 45.5725 1104.5 45.5725 1125.5 72.5725C1144.3 49.3725 1174.33 53.5725 1187 58.5725C1198 -13.9275 1306.5 -24.9275 1318 58.5725C1361.2 45.3725 1373.67 75.0725 1374.5 91.5725C1386 86.0725 1395 89.0725 1405 97.0725C1428.6 72.2726 1455.17 78.4059 1465.5 84.5725C1489.5 22.0725 1570.5 15.0725 1605.5 69.5725C1630.7 44.7725 1659.33 54.5725 1670.5 62.5725C1681.5 22.5725 1729.5 6.57254 1765.5 33.0739C1796.5 -17.4275 1887.5 -13.4273 1892.5 69.5739Z" fill="#ACDC3B"/>
</svg>
