<svg width="222" height="38" viewBox="0 0 222 38" fill="none" xmlns="http://www.w3.org/2000/svg">
<path d="M79.8259 35.9748C78.7894 35.9668 77.9933 35.6666 77.4375 35.0741C76.9099 34.4537 76.6503 33.5973 76.6586 32.5048L76.7682 18.1339C76.7768 17.0133 77.0494 16.1609 77.5861 15.5767C78.1511 14.9647 78.9518 14.6626 79.9883 14.6705C80.9968 14.6782 81.7648 14.9922 82.2924 15.6126C82.8482 16.2051 83.1218 17.0617 83.1133 18.1822L83.0037 32.5531C82.9954 33.6457 82.7227 34.498 82.1858 35.1103C81.649 35.6945 80.8624 35.9827 79.8259 35.9748ZM80.0146 11.2249C78.838 11.2159 77.9296 10.9428 77.2894 10.4057C76.6774 9.8407 76.3752 9.05398 76.3829 8.04549C76.3908 7.009 76.7049 6.22697 77.3253 5.69941C77.9738 5.14405 78.8864 4.87086 80.063 4.87983C81.2395 4.8888 82.1338 5.17577 82.7459 5.74074C83.3581 6.27769 83.6603 7.06442 83.6524 8.10092C83.6447 9.1094 83.3306 9.89143 82.71 10.447C82.0896 10.9746 81.1912 11.2338 80.0146 11.2249Z" fill="#FCB736"/>
<path d="M95.3532 35.5998C93.5613 35.5405 91.9937 35.0541 90.6505 34.1407C89.3353 33.2282 88.3266 31.9475 87.6244 30.2985C86.9222 28.6495 86.6078 26.7191 86.681 24.5072C86.7543 22.2953 87.1953 20.4039 88.0042 18.833C88.813 17.2621 89.9038 16.0649 91.2765 15.2414C92.6772 14.4189 94.2735 14.0373 96.0654 14.0967C97.6893 14.1505 99.1043 14.5897 100.31 15.4145C101.544 16.2402 102.364 17.2905 102.771 18.5652L102.309 18.5499L102.638 8.59633C102.674 7.53237 102.966 6.74321 103.516 6.22885C104.066 5.68649 104.859 5.43247 105.895 5.46678C106.903 5.50016 107.678 5.80612 108.219 6.38464C108.762 6.93517 109.015 7.74241 108.98 8.80637L108.189 32.7034C108.154 33.7394 107.848 34.5281 107.269 35.0695C106.719 35.6119 105.94 35.8664 104.932 35.833C103.924 35.7996 103.149 35.4936 102.608 34.9151C102.094 34.3375 101.855 33.5307 101.889 32.4948L101.983 29.6389L102.391 31.2921C101.954 32.6511 101.077 33.7292 99.7614 34.5265C98.4745 35.2968 97.0051 35.6545 95.3532 35.5998ZM97.4003 30.9166C98.3243 30.9472 99.1297 30.7497 99.8165 30.3239C100.503 29.8982 101.057 29.2578 101.478 28.4029C101.899 27.5199 102.133 26.3924 102.178 25.0205C102.246 22.9765 101.876 21.4647 101.067 20.4849C100.26 19.4771 99.1701 18.9505 97.7981 18.9051C96.9022 18.8754 96.0973 19.059 95.3834 19.4558C94.6975 19.8535 94.1437 20.4939 93.7221 21.3768C93.3293 22.2327 93.1102 23.3467 93.0648 24.7186C92.9971 26.7625 93.3665 28.3024 94.1731 29.3382C94.9806 30.346 96.0564 30.8721 97.4003 30.9166Z" fill="#ACDC3B"/>
<path d="M121.877 35.3899C120.648 35.4889 119.368 35.4796 118.038 35.362C116.735 35.2421 115.532 34.9596 114.428 34.5145C113.848 34.2803 113.414 33.9639 113.129 33.5653C112.87 33.1365 112.736 32.6976 112.728 32.2485C112.72 31.7995 112.827 31.3834 113.049 31.0001C113.299 30.6146 113.629 30.3491 114.039 30.2037C114.475 30.0281 114.967 30.0306 115.515 30.2112C116.698 30.5937 117.772 30.8444 118.738 30.9634C119.703 31.0823 120.646 31.1047 121.567 31.0305C122.768 30.9337 123.619 30.6825 124.121 30.2767C124.647 29.8408 124.886 29.3157 124.837 28.7013C124.792 28.1429 124.576 27.7386 124.191 27.4886C123.805 27.2386 123.259 27.0859 122.552 27.0305L118.09 26.589C116.334 26.4213 114.943 25.901 113.917 25.0281C112.917 24.125 112.356 22.9196 112.234 21.4117C112.122 20.0155 112.416 18.7833 113.117 17.715C113.816 16.6188 114.828 15.7504 116.153 15.1096C117.504 14.4386 119.06 14.0322 120.819 13.8905C122.075 13.7892 123.243 13.8076 124.322 13.9455C125.401 14.0834 126.45 14.3643 127.468 14.7881C127.991 14.999 128.367 15.3059 128.596 15.709C128.853 16.1099 128.958 16.5371 128.91 16.9906C128.89 17.4419 128.755 17.8603 128.505 18.2458C128.255 18.6313 127.911 18.8979 127.474 19.0456C127.064 19.191 126.57 19.1746 125.994 18.9962C125.067 18.6493 124.219 18.4225 123.452 18.3157C122.682 18.181 121.948 18.1417 121.25 18.198C119.994 18.2992 119.103 18.5818 118.578 19.0456C118.051 19.4815 117.813 20.0067 117.862 20.621C117.9 21.0957 118.087 21.4882 118.421 21.7986C118.781 22.0787 119.3 22.2476 119.979 22.3053L124.441 22.7468C126.281 22.9077 127.713 23.4107 128.736 24.2557C129.758 25.0727 130.332 26.2631 130.458 27.8269C130.629 29.9491 129.926 31.692 128.349 33.0556C126.799 34.3891 124.641 35.1672 121.877 35.3899Z" fill="#28B67C"/>
<path d="M136.491 35.3642C135.427 35.3247 134.612 35 134.046 34.3903C133.508 33.7816 133.258 32.9594 133.297 31.9236L134.153 8.86971C134.193 7.7779 134.504 6.96245 135.085 6.42335C135.665 5.88424 136.487 5.63444 137.551 5.67395C138.587 5.71242 139.375 6.022 139.914 6.60269C140.453 7.18338 140.702 8.01963 140.662 9.11143L139.886 29.9817L151.14 30.3996C152.036 30.4329 152.713 30.6963 153.172 31.1899C153.658 31.6845 153.885 32.3658 153.853 33.2336C153.819 34.1295 153.542 34.806 153.02 35.2632C152.527 35.7214 151.832 35.9339 150.936 35.9006L136.491 35.3642Z" fill="#00BAC7"/>
<path d="M163.423 35.863C161.911 35.9193 160.543 35.6759 159.317 35.1329C158.091 34.5898 157.124 33.8269 156.414 32.8441C155.705 31.8613 155.327 30.74 155.28 29.4802C155.224 27.9685 155.571 26.7641 156.323 25.8671C157.073 24.9421 158.324 24.2648 160.074 23.8352C161.823 23.3776 164.153 23.0946 167.065 22.9862L169.29 22.9033L169.412 26.1787L167.229 26.26C165.801 26.3132 164.642 26.4404 163.753 26.6417C162.89 26.814 162.269 27.0894 161.891 27.4679C161.541 27.8454 161.377 28.3561 161.401 29C161.431 29.7838 161.721 30.4178 162.271 30.9019C162.85 31.385 163.657 31.6072 164.693 31.5687C165.505 31.5384 166.212 31.3299 166.814 30.943C167.444 30.5271 167.928 29.9905 168.268 29.333C168.607 28.6476 168.761 27.885 168.73 27.0451L168.55 22.216C168.504 20.9842 168.192 20.1268 167.613 19.6437C167.033 19.1327 166.072 18.9022 164.728 18.9522C163.972 18.9804 163.15 19.1091 162.261 19.3384C161.4 19.5387 160.445 19.8686 159.397 20.3281C158.791 20.631 158.248 20.7213 157.767 20.5991C157.284 20.4488 156.91 20.1824 156.644 19.7999C156.376 19.3893 156.233 18.9461 156.216 18.4702C156.197 17.9663 156.319 17.4852 156.582 17.0268C156.845 16.5405 157.294 16.1734 157.929 15.9254C159.225 15.3445 160.443 14.9347 161.584 14.696C162.752 14.4563 163.826 14.3182 164.806 14.2817C166.962 14.2014 168.737 14.4577 170.133 15.0505C171.556 15.6143 172.642 16.541 173.39 17.8307C174.138 19.0924 174.55 20.7451 174.626 22.7887L174.973 32.111C175.012 33.1468 174.79 33.954 174.307 34.5327C173.824 35.1113 173.106 35.4184 172.154 35.4538C171.203 35.4893 170.45 35.237 169.898 34.6969C169.373 34.1557 169.091 33.3673 169.053 32.3314L168.995 30.7777L169.298 31.0187C169.165 31.9768 168.832 32.8162 168.298 33.5369C167.792 34.2286 167.126 34.7861 166.3 35.2093C165.474 35.6045 164.515 35.8224 163.423 35.863Z" fill="#FE5C45"/>
<path d="M181.107 35.9582C180.071 35.9957 179.263 35.7447 178.683 35.205C178.131 34.6644 177.836 33.8761 177.798 32.8403L177.258 17.9325C177.221 16.8966 177.458 16.1031 177.971 15.5519C178.511 14.9717 179.27 14.6639 180.25 14.6284C181.258 14.5919 182.038 14.844 182.59 15.3846C183.142 15.8973 183.436 16.6715 183.473 17.7074L183.56 20.101L183.048 18.732C183.642 17.3368 184.556 16.2525 185.789 15.479C187.05 14.6765 188.492 14.2458 190.116 14.187C191.768 14.1272 193.137 14.3999 194.224 15.0053C195.31 15.5827 196.143 16.5056 196.721 17.7742C197.299 19.0147 197.623 20.6149 197.694 22.5746L198.039 32.1072C198.077 33.143 197.826 33.9511 197.286 34.5313C196.774 35.1104 196.001 35.4188 194.965 35.4563C193.957 35.4928 193.163 35.2412 192.583 34.7016C192.031 34.161 191.736 33.3727 191.698 32.3369L191.364 23.0982C191.312 21.6704 191.009 20.6582 190.455 20.0616C189.927 19.4359 189.132 19.1423 188.068 19.1809C186.724 19.2295 185.662 19.6885 184.88 20.5578C184.127 21.4261 183.775 22.5601 183.826 23.9599L184.139 32.6106C184.217 34.7663 183.207 35.8822 181.107 35.9582Z" fill="#FCB736"/>
<path d="M208.23 35.6094C206.438 35.5479 204.871 35.0597 203.529 34.1446C202.215 33.2306 201.208 31.9487 200.508 30.2989C199.807 28.649 199.495 26.7182 199.571 24.5064C199.647 22.2946 200.09 20.4037 200.901 18.8338C201.712 17.2638 202.804 16.068 204.178 15.2461C205.579 14.4253 207.176 14.0456 208.968 14.1071C210.592 14.1628 212.006 14.6038 213.211 15.43C214.444 16.2572 215.263 17.3084 215.668 18.5837L215.206 18.5678L215.547 8.61463C215.584 7.55072 215.877 6.76191 216.427 6.24821C216.979 5.70651 217.772 5.45343 218.808 5.48898C219.816 5.52357 220.59 5.83045 221.131 6.40963C221.673 6.9608 221.925 7.76835 221.889 8.83226L221.069 32.7284C221.033 33.7643 220.726 34.5526 220.147 35.0933C219.596 35.635 218.816 35.8886 217.808 35.854C216.8 35.8194 216.026 35.5125 215.485 34.9334C214.972 34.3552 214.734 33.5481 214.769 32.5122L214.867 29.6564L215.273 31.3101C214.834 32.6686 213.956 33.7457 212.639 34.5414C211.352 35.3101 209.882 35.6661 208.23 35.6094ZM210.283 30.9286C211.207 30.9603 212.012 30.7637 212.7 30.3388C213.387 29.9139 213.941 29.2742 214.363 28.4198C214.786 27.5373 215.021 26.4101 215.068 25.0382C215.138 22.9944 214.769 21.4821 213.962 20.5013C213.156 19.4926 212.067 18.9647 210.695 18.9176C209.799 18.8868 208.994 19.0694 208.279 19.4654C207.593 19.8623 207.039 20.502 206.616 21.3845C206.222 22.2399 206.002 23.3536 205.955 24.7255C205.884 26.7693 206.252 28.3096 207.057 29.3463C207.864 30.3551 208.939 30.8825 210.283 30.9286Z" fill="#28B67C"/>
<path d="M52.8449 35.9065C51.784 35.9949 50.95 35.7693 50.3427 35.2296C49.7355 34.6899 49.3876 33.8896 49.2992 32.8288L47.3296 9.2107C47.2411 8.14984 47.4528 7.31696 47.9646 6.71205C48.474 6.07922 49.2592 5.71858 50.32 5.63011C51.353 5.54397 52.1731 5.77075 52.7803 6.31045C53.3852 6.82224 53.7319 7.60856 53.8204 8.66942L54.648 18.594L54.7318 18.5871L64.9 6.01661C65.3327 5.47452 65.7898 5.05689 66.2713 4.76373C66.7785 4.44032 67.3671 4.25068 68.0371 4.19481C69.0142 4.11332 69.7331 4.30638 70.1938 4.77397C70.6823 5.23923 70.9266 5.8092 70.9267 6.48387C70.9267 7.15855 70.672 7.8123 70.1626 8.44512L59.935 20.8097L59.7429 18.0005L72.5124 29.5436C73.2127 30.188 73.5931 30.8731 73.6536 31.599C73.7421 32.3225 73.556 32.9565 73.0954 33.5009C72.6603 34.0151 71.9682 34.3117 71.0191 34.3909C70.2095 34.4584 69.5394 34.3456 69.009 34.0525C68.5064 33.7571 67.9353 33.3128 67.2955 32.7195L54.9972 21.7696L54.9134 21.7766L55.7899 32.2875C55.8784 33.3484 55.6679 34.1952 55.1585 34.828C54.6769 35.4585 53.9057 35.818 52.8449 35.9065Z" fill="#FE5C45"/>
<path d="M40.9651 18.591C40.3162 17.9445 39.4534 17.5785 38.5366 17.5613L37.6136 17.544L37.3727 16.6552C35.9479 11.4002 32.1017 7.27858 27.2314 5.35448C27.8152 6.38701 28.1488 7.57801 28.1488 8.84545C28.1488 12.7771 24.9418 15.9757 21 15.9757C17.4765 15.9757 14.5402 13.42 13.9566 10.0695C13.8401 9.40047 14.4017 8.84545 15.0809 8.84545C15.76 8.84545 16.2941 9.4056 16.4712 10.0612C17.0091 12.0528 18.8357 13.5227 21 13.5227C23.5858 13.5227 25.6895 11.4245 25.6895 8.84545C25.6895 6.26641 23.5858 4.16815 21 4.16815C20.761 4.16815 20.5228 4.17322 20.2856 4.18311H20.0636C18.1786 4.17783 16.5821 2.92615 16.0609 1.21251C15.8633 0.562765 15.3308 0.000327037 14.6517 0.000327037C13.9726 0.000327037 13.4101 0.555605 13.5354 1.22307C13.7433 2.33054 14.2282 3.34187 14.915 4.18311H13.7244C11.8342 4.18311 10.2321 2.92956 9.70987 1.21219C9.51228 0.56244 8.97982 0 8.30069 0C7.62156 0 7.05908 0.555416 7.18427 1.22291C7.68127 3.87289 9.76282 5.97305 12.407 6.50492C8.6741 8.69525 5.81266 12.2831 4.62734 16.6552L4.3864 17.544L3.46341 17.5613C2.54657 17.5785 1.68383 17.9445 1.03399 18.5919C0.367508 19.2574 0 20.1428 0 21.0841C0 22.9905 1.55381 24.5709 3.46357 24.6068L4.38648 24.6243L4.62742 25.513C6.6208 32.8651 13.3534 38 21 38C28.6466 38 35.3792 32.8651 37.3726 25.513L37.6135 24.6243L38.5364 24.6068C40.4463 24.5709 42 22.9905 42 21.0841C42.0001 20.1428 41.6326 19.2574 40.9651 18.591ZM13.0608 19.6951C12.4183 19.6951 11.8475 20.0073 11.4929 20.4876C11.0896 21.034 10.5643 21.6361 9.88516 21.6361C9.20604 21.6361 8.63814 21.0746 8.82646 20.4221C9.35586 18.5879 11.0538 17.2422 13.0608 17.2422C15.0679 17.2422 16.7658 18.5878 17.2952 20.4222C17.4835 21.0747 16.9156 21.6361 16.2365 21.6361C15.5574 21.6361 15.0321 21.034 14.6288 20.4876C14.2742 20.0073 13.7034 19.6951 13.0608 19.6951ZM21.0001 32.3183C18.7443 32.3183 16.6078 31.2996 15.1796 29.5982C14.7426 29.0775 14.944 28.3143 15.5299 27.9695C16.1138 27.6258 16.8573 27.8337 17.3315 28.3177C18.286 29.2919 19.6096 29.8653 21.0001 29.8653C22.3905 29.8653 23.7142 29.2919 24.6687 28.3177C25.1428 27.8337 25.8864 27.6258 26.4703 27.9695C27.0561 28.3143 27.2576 29.0775 26.8205 29.5982C25.3924 31.2996 23.2559 32.3183 21.0001 32.3183ZM32.1149 21.6361C31.4358 21.6361 30.9105 21.034 30.5072 20.4876C30.1526 20.0073 29.5818 19.6951 28.9393 19.6951C28.2967 19.6951 27.7259 20.0073 27.3713 20.4876C26.968 21.034 26.4427 21.6361 25.7636 21.6361C25.0845 21.6361 24.5166 21.0746 24.7049 20.4221C25.2343 18.5879 26.9322 17.2422 28.9393 17.2422C30.9463 17.2422 32.6442 18.5878 33.1736 20.4221C33.3619 21.0746 32.794 21.6361 32.1149 21.6361Z" fill="#FE5C45"/>
</svg>
